<?xml version="1.0" standalone="no"?>
<!DOCTYPE svg PUBLIC "-//W3C//DTD SVG 1.1//EN" "http://www.w3.org/Graphics/SVG/1.1/DTD/svg11.dtd" >
<svg xmlns="http://www.w3.org/2000/svg" xmlns:xlink="http://www.w3.org/1999/xlink" version="1.1">
<metadata>
Created by FontForge 20160407 at Sun Jun  5 10:01:24 2016
 By Jimmy Wärting
Spacing/Kerning by Igino Marini: www.ikern.com
</metadata>
<defs>
<font id="KlinicSlab-Book" horiz-adv-x="496" >
  <font-face 
    font-family="Klinic Slab Book"
    font-weight="400"
    font-stretch="normal"
    units-per-em="1000"
    panose-1="0 0 0 0 0 0 0 0 0 0"
    ascent="750"
    descent="-250"
    x-height="424"
    cap-height="609"
    bbox="-43 -271 1121 943"
    underline-thickness="50"
    underline-position="-100"
    unicode-range="U+0020-FB06"
  />
<missing-glyph horiz-adv-x="425" 
d="M0 0v609h425v-609h-425zM59 42h306l-153 226zM365 567h-306l153 -227zM383 520l-146 -216l146 -216v432zM42 88l146 216l-146 216v-432z" />
    <glyph glyph-name="f_f_b" unicode="ffb" horiz-adv-x="1109" 
d="M322 0v47h81v329h-231v-329h97v-47h-235v47h81v329h-90v48h90v130c0 110 76 155 170 155c56 0 111 -18 154 -33c31 31 79 42 132 42c35 0 71 -5 101 -11h77v-321c37 27 84 49 139 49c114 0 182 -88 182 -216c0 -151 -93 -230 -234 -230c-45 0 -101 8 -145 19v649
c-32 7 -72 14 -111 14c-67 0 -120 -19 -120 -98v-149h123v-48h-123v-329h97v-47h-235zM834 36c116 0 177 71 177 184c0 99 -47 168 -134 168c-51 0 -95 -24 -128 -49v-293c24 -5 57 -10 85 -10zM172 424h231v151c0 24 3 45 11 62c-35 13 -80 24 -123 24
c-69 0 -119 -31 -119 -110v-127z" />
    <glyph glyph-name="f_f_h" unicode="ffh" horiz-adv-x="1134" 
d="M322 0v47h81v329h-231v-329h97v-47h-235v47h81v329h-90v48h90v130c0 110 76 155 170 155c56 0 111 -18 154 -33c31 31 79 42 132 42c35 0 71 -5 101 -11h77v-348c48 45 107 76 169 76c76 0 124 -47 124 -138v-250h79v-47h-216v47h79v243c0 57 -21 96 -81 96
c-59 0 -113 -37 -154 -74v-265h79v-47h-216v47h79v610c-32 7 -72 14 -111 14c-67 0 -120 -19 -120 -98v-149h123v-48h-123v-329h97v-47h-235zM172 551v-127h231v151c0 24 3 45 11 62c-35 13 -80 24 -123 24c-69 0 -119 -31 -119 -110z" />
    <glyph glyph-name="f_f_i" unicode="ffi" horiz-adv-x="845" 
d="M34 0v47h81v329h-90v48h90v130c0 110 76 155 170 155c56 0 111 -18 154 -33c31 31 79 42 132 42c54 0 108 -12 143 -21l-8 -43c-33 8 -80 17 -126 17c-67 0 -120 -19 -120 -98v-149h289v-377h79v-47h-214v47h77v329h-231v-329h97v-47h-235v47h81v329h-231v-329h97v-47
h-235zM291 661c-69 0 -119 -31 -119 -110v-127h231v151c0 24 3 45 11 62c-35 13 -80 24 -123 24z" />
    <glyph glyph-name="f_f_j" unicode="ffj" horiz-adv-x="821" 
d="M34 0v47h81v329h-90v48h90v130c0 110 76 155 170 155c56 0 111 -18 154 -33c31 31 79 42 132 42c54 0 108 -12 143 -21l-8 -43c-33 8 -80 17 -126 17c-67 0 -120 -19 -120 -98v-149h289v-494c0 -81 -55 -122 -123 -148l-20 38c54 29 85 61 85 112v444h-231v-329h97v-47
h-235v47h81v329h-231v-329h97v-47h-235zM291 661c-69 0 -119 -31 -119 -110v-127h231v151c0 24 3 45 11 62c-35 13 -80 24 -123 24z" />
    <glyph glyph-name="f_f_k" unicode="ffk" horiz-adv-x="1098" 
d="M322 0v47h81v329h-231v-329h97v-47h-235v47h81v329h-90v48h90v130c0 110 76 155 170 155c56 0 111 -18 154 -33c31 31 79 42 132 42c35 0 71 -5 101 -11h77v-660h77v-47h-214v47h79v610c-32 7 -72 14 -111 14c-67 0 -120 -19 -120 -98v-149h123v-48h-123v-329h97v-47
h-235zM172 551v-127h231v151c0 24 3 45 11 62c-35 13 -80 24 -123 24c-69 0 -119 -31 -119 -110zM1036 -11c-54 0 -96 35 -136 84l-112 137v3l161 165h-77v46h205v-47h-64l-158 -164l90 -109c28 -34 61 -67 103 -67c7 0 16 1 26 5v-46c-12 -4 -24 -7 -38 -7z" />
    <glyph glyph-name="f_f_l" unicode="ffl" horiz-adv-x="845" 
d="M322 0v47h81v329h-231v-329h97v-47h-235v47h81v329h-90v48h90v130c0 110 76 155 170 155c56 0 111 -18 154 -33c31 31 79 42 132 42c35 0 71 -5 101 -11h77v-660h79v-47h-216v47h79v610c-32 7 -72 14 -111 14c-67 0 -120 -19 -120 -98v-149h123v-48h-123v-329h97v-47
h-235zM172 424h231v151c0 24 3 45 11 62c-35 13 -80 24 -123 24c-69 0 -119 -31 -119 -110v-127z" />
    <glyph glyph-name="f_f_t" unicode="fft" horiz-adv-x="892" 
d="M322 0v47h81v329h-231v-329h97v-47h-235v47h81v329h-90v48h90v130c0 110 76 155 170 155c54 0 107 -16 150 -32c25 28 63 41 112 41c24 0 50 -3 73 -8v-45c-19 3 -41 6 -61 6c-67 0 -99 -28 -99 -91v-156h219v110h58v-110h137v-48h-137v-262c0 -55 24 -78 77 -78
c26 0 50 5 65 11v-45c-27 -9 -47 -13 -79 -13c-48 0 -121 15 -121 122v265h-219v-329h97v-47h-235zM172 551v-127h231v158c0 21 2 39 8 56c-34 12 -78 23 -120 23c-69 0 -119 -31 -119 -110z" />
    <glyph glyph-name="f_b" unicode="fb" horiz-adv-x="821" 
d="M547 -11c-44 0 -100 8 -144 19v649c-32 7 -72 14 -112 14c-66 0 -119 -19 -119 -98v-149h123v-49h-123v-328h97v-47h-235v47h81v328h-90v49h90v151c0 110 77 143 167 143c36 0 72 -5 102 -11h76v-321c38 27 85 49 140 49c114 0 182 -88 182 -216
c0 -151 -94 -230 -235 -230zM546 36c116 0 177 71 177 184c0 99 -47 168 -135 168c-51 0 -95 -24 -128 -49v-293c25 -5 58 -10 86 -10z" />
    <glyph glyph-name="f_f" unicode="ff" horiz-adv-x="604" 
d="M34 0v47h81v329h-90v48h90v130c0 110 76 155 170 155c54 0 107 -16 150 -32c25 28 63 41 112 41c24 0 50 -3 73 -8v-45c-19 3 -41 6 -61 6c-67 0 -99 -28 -99 -91v-156h123v-48h-123v-329h97v-47h-235v47h81v329h-231v-329h97v-47h-235zM291 661
c-69 0 -119 -31 -119 -110v-127h231v158c0 21 2 39 8 56c-34 12 -78 23 -120 23z" />
    <glyph glyph-name="f_h" unicode="fh" horiz-adv-x="846" 
d="M323 0v47h80v610c-32 7 -72 14 -112 14c-66 0 -119 -19 -119 -98v-149h123v-48h-123v-329h97v-47h-235v47h81v329h-90v48h90v151c0 110 77 143 167 143c36 0 72 -5 102 -11h76v-348c49 45 107 76 169 76c77 0 124 -47 124 -138v-250h80v-47h-217v47h80v243
c0 57 -21 96 -81 96c-59 0 -114 -37 -155 -74v-265h80v-47h-217z" />
    <glyph glyph-name="fi" unicode="fi" horiz-adv-x="557" 
d="M34 0v47h81v329h-90v48h90v151c0 110 77 143 167 143c55 0 109 -12 144 -21l-8 -43c-34 8 -80 17 -127 17c-66 0 -119 -19 -119 -98v-149h288v-377h80v-47h-214v47h77v329h-231v-329h97v-47h-235z" />
    <glyph glyph-name="f_j" unicode="fj" horiz-adv-x="533" 
d="M34 0v47h81v329h-90v48h90v151c0 110 77 143 167 143c55 0 109 -12 144 -21l-8 -43c-34 8 -80 17 -127 17c-66 0 -119 -19 -119 -98v-149h288v-494c0 -81 -54 -122 -122 -148l-20 38c53 29 85 61 85 112v444h-231v-329h97v-47h-235z" />
    <glyph glyph-name="f_k" unicode="fk" horiz-adv-x="810" 
d="M323 0v47h80v610c-32 7 -72 14 -112 14c-66 0 -119 -19 -119 -98v-149h123v-48h-123v-329h97v-47h-235v47h81v329h-90v48h90v151c0 110 77 143 167 143c36 0 72 -5 102 -11h76v-660h78v-47h-215zM748 -11c-54 0 -96 35 -136 84l-112 137v3l160 165h-77v46h206v-47h-64
l-158 -164l90 -109c28 -34 61 -67 103 -67c7 0 16 1 26 5v-46c-12 -4 -24 -7 -38 -7z" />
    <glyph glyph-name="fl" unicode="fl" horiz-adv-x="557" 
d="M34 0v47h81v329h-90v48h90v151c0 110 77 143 167 143c36 0 72 -5 102 -11h76v-660h80v-47h-217v47h80v610c-32 7 -72 14 -112 14c-66 0 -119 -19 -119 -98v-149h123v-48h-123v-329h97v-47h-235z" />
    <glyph glyph-name="f_t" unicode="ft" horiz-adv-x="604" 
d="M512 -11c-48 0 -121 15 -121 122v265h-219v-329h97v-47h-235v47h81v329h-90v48h90v158c0 95 57 136 144 136c24 0 50 -3 72 -8v-45c-18 3 -40 6 -60 6c-67 0 -99 -28 -99 -91v-156h219v110h57v-110h137v-48h-137v-262c0 -55 24 -78 78 -78c26 0 49 5 65 11v-45
c-27 -9 -47 -13 -79 -13z" />
    <glyph glyph-name="t_t" unicode="tt" horiz-adv-x="618" 
d="M525 -11c-47 0 -121 15 -121 122v266h-255v-263c0 -55 24 -78 78 -78c26 0 49 5 65 11v-45c-27 -9 -47 -13 -80 -13c-47 0 -121 15 -121 122v266h-73v47h73v110h58v-110h255v110h58v-110h137v-47h-137v-263c0 -55 24 -78 78 -78c26 0 49 5 64 11v-45
c-26 -9 -47 -13 -79 -13z" />
    <glyph glyph-name=".notdef" horiz-adv-x="425" 
d="M0 0v609h425v-609h-425zM59 42h306l-153 226zM365 567h-306l153 -227zM383 520l-146 -216l146 -216v432zM42 88l146 216l-146 216v-432z" />
    <glyph glyph-name="A" unicode="A" horiz-adv-x="679" 
d="M-4 0v50h85l206 509h-91v50h180l225 -559h86v-50h-248v50h100l-61 151h-277l-60 -151h100v-50h-245zM221 252h238l-119 299z" />
    <glyph glyph-name="B" unicode="B" horiz-adv-x="601" 
d="M36 0v49h97v511h-97v49h276c127 0 220 -53 220 -155c0 -61 -32 -118 -123 -142c105 -19 147 -82 147 -152c0 -104 -93 -160 -227 -160h-293zM192 49h135c103 0 170 39 170 117c0 79 -70 120 -174 120h-131v-237zM192 333h108c107 0 173 40 173 115s-65 112 -161 112h-120
v-227z" />
    <glyph glyph-name="C" unicode="C" horiz-adv-x="616" 
d="M365 -12c-183 0 -321 116 -321 316c0 185 118 317 323 317c82 0 159 -22 208 -46v-144h-57v112c-40 16 -97 26 -148 26c-152 0 -264 -91 -264 -264c0 -182 125 -265 263 -265c79 0 154 27 208 59v-57c-47 -27 -123 -54 -212 -54z" />
    <glyph glyph-name="D" unicode="D" horiz-adv-x="675" 
d="M36 0v50h97v509h-97v50h274c177 0 320 -100 320 -305c0 -204 -143 -304 -320 -304h-274zM193 50h118c154 0 257 93 257 254c0 162 -103 255 -257 255h-118v-509z" />
    <glyph glyph-name="E" unicode="E" horiz-adv-x="574" 
d="M36 0v50h97v509h-97v50h485v-164h-56v114h-272v-227h275v-50h-275v-232h274v114h56v-164h-487z" />
    <glyph glyph-name="F" unicode="F" horiz-adv-x="544" 
d="M36 0v50h97v509h-97v50h480v-174h-55v124h-268v-239h255v-50h-255v-220h112v-50h-269z" />
    <glyph glyph-name="G" unicode="G" horiz-adv-x="688" 
d="M369 -12c-206 0 -325 128 -325 314c0 183 117 319 327 319c90 0 173 -25 223 -46v-137h-57v104c-41 13 -101 28 -164 28c-169 0 -269 -107 -269 -267c0 -153 90 -264 264 -264c70 0 129 18 176 37v187h-157v49h276v-49h-63v-219c-47 -23 -126 -56 -231 -56z" />
    <glyph glyph-name="H" unicode="H" horiz-adv-x="750" 
d="M36 0v50h97v509h-97v50h254v-50h-97v-226h364v226h-97v50h254v-50h-97v-509h97v-50h-254v50h97v231h-364v-231h97v-50h-254z" />
    <glyph glyph-name="I" unicode="I" horiz-adv-x="326" 
d="M36 0v50h97v509h-97v50h254v-50h-97v-509h97v-50h-254z" />
    <glyph glyph-name="J" unicode="J" horiz-adv-x="303" 
d="M46 -166l-22 42c48 25 98 66 98 129v554h-94v50h247v-50h-93v-556c0 -99 -70 -140 -136 -169z" />
    <glyph glyph-name="K" unicode="K" horiz-adv-x="662" 
d="M517 0l-272 305v6l243 249h-92v49h246v-50h-84l-240 -249l235 -260h96v-50h-132zM36 0v50h97v509h-97v50h253v-50h-96v-509h100v-50h-257z" />
    <glyph glyph-name="L" unicode="L" horiz-adv-x="546" 
d="M36 0v50h97v509h-97v50h265v-50h-108v-509h276v120h56v-170h-489z" />
    <glyph glyph-name="M" unicode="M" horiz-adv-x="894" 
d="M30 0v50h95l20 509h-95v50h188l209 -494l208 494h189v-50h-95l20 -509h94v-50h-244v50h94l-19 504l-224 -520h-47l-223 520l-20 -504h95v-50h-245z" />
    <glyph glyph-name="N" unicode="N" horiz-adv-x="741" 
d="M36 0v50h97v509h-97v50h159l367 -512v462h-97v50h250v-50h-97v-559h-54l-374 521v-471h97v-50h-251z" />
    <glyph glyph-name="O" unicode="O" horiz-adv-x="705" 
d="M353 -12c-189 0 -310 136 -310 317c0 180 121 316 310 316c187 0 308 -136 308 -316c0 -181 -121 -317 -308 -317zM353 39c146 0 247 108 247 266s-99 264 -247 264s-248 -107 -248 -264c0 -160 99 -266 248 -266z" />
    <glyph glyph-name="P" unicode="P" horiz-adv-x="570" 
d="M36 0v50h97v509h-97v50h268c113 0 237 -50 237 -188c0 -139 -124 -188 -237 -188h-111v-183h115v-50h-272zM193 559v-276h112c119 0 175 55 175 138s-56 138 -175 138h-112z" />
    <glyph glyph-name="Q" unicode="Q" horiz-adv-x="705" 
d="M541 -135l-194 123c-186 3 -303 137 -303 317s121 316 309 316s309 -136 309 -316c0 -156 -90 -280 -238 -308l149 -85zM353 39c147 0 247 108 247 266s-99 264 -247 264s-248 -107 -248 -264c0 -160 99 -266 248 -266z" />
    <glyph glyph-name="R" unicode="R" horiz-adv-x="628" 
d="M36 0v50h97v509h-97v50h277c111 0 237 -46 237 -181c0 -92 -58 -149 -146 -171l114 -207h93v-50h-132l-133 243h-153v-193h97v-50h-254zM193 292h121c118 0 175 50 175 133c0 84 -57 134 -175 134h-121v-267z" />
    <glyph glyph-name="S" unicode="S" horiz-adv-x="511" 
d="M250 -12c-69 0 -146 14 -202 31v133h55v-94c38 -11 94 -20 144 -20c103 0 161 39 161 109c0 171 -348 101 -348 315c0 96 71 159 207 159c62 0 128 -13 178 -28v-132h-56v94c-31 8 -76 15 -119 15c-107 0 -152 -45 -152 -104c0 -162 349 -97 349 -317
c0 -109 -87 -161 -217 -161z" />
    <glyph glyph-name="T" unicode="T" horiz-adv-x="577" 
d="M156 0v50h103v509h-182v-110h-55v160h533v-160h-55v110h-181v-509h102v-50h-265z" />
    <glyph glyph-name="U" unicode="U" horiz-adv-x="693" 
d="M349 -12c-133 0 -233 71 -233 211v360h-97v50h254v-50h-97v-356c0 -117 82 -161 174 -161c94 0 170 47 170 161v356h-97v50h250v-50h-96v-358c0 -139 -93 -213 -228 -213z" />
    <glyph glyph-name="V" unicode="V" horiz-adv-x="654" 
d="M296 0l-218 559h-86v50h249v-50h-100l187 -488l187 488h-101v50h247v-50h-85l-218 -559h-62z" />
    <glyph glyph-name="W" unicode="W" horiz-adv-x="932" 
d="M260 0l-182 559h-83v50h245v-50h-102l152 -480l149 425l-19 55h-86v50h245v-50h-102l165 -478l152 478h-102v50h245v-50h-84l-182 -559h-55l-149 424l-152 -424h-55z" />
    <glyph glyph-name="X" unicode="X" horiz-adv-x="639" 
d="M11 0v49h82l193 260l-183 251h-82v49h245v-49h-96l150 -209l152 209h-95v49h243v-50h-83l-186 -250l191 -260h84v-49h-245v49h94l-157 218l-159 -218h96v-49h-244z" />
    <glyph glyph-name="Y" unicode="Y" horiz-adv-x="627" 
d="M186 0v50h98v177l-206 332h-85v50h252v-50h-101l170 -278l170 278h-100v50h249v-50h-85l-204 -330v-179h98v-50h-256z" />
    <glyph glyph-name="Z" unicode="Z" horiz-adv-x="557" 
d="M42 0v50l385 507h-322v-112h-58v164h453v-52l-385 -506h345v120h57v-171h-475z" />
    <glyph glyph-name="a" unicode="a" horiz-adv-x="463" 
d="M163 -11c-72 0 -133 41 -133 124c0 107 107 130 192 130h95v40c0 76 -29 104 -107 104c-53 0 -107 -13 -145 -28v47c43 17 100 29 155 29c106 0 155 -45 155 -148v-240h77v-47h-133v55c-34 -30 -90 -66 -156 -66zM177 35c57 0 107 35 140 65v101h-94
c-64 0 -134 -15 -134 -87c0 -50 35 -79 88 -79z" />
    <glyph glyph-name="b" unicode="b" horiz-adv-x="488" 
d="M215 -11c-45 0 -101 8 -145 19v652h-79v47h137v-321c37 27 84 49 140 49c113 0 181 -88 181 -216c0 -151 -93 -230 -234 -230zM213 36c117 0 177 71 177 184c0 99 -47 168 -134 168c-51 0 -95 -24 -128 -49v-293c24 -5 57 -10 85 -10z" />
    <glyph glyph-name="c" unicode="c" horiz-adv-x="439" 
d="M254 -11c-133 0 -215 85 -215 222c0 139 84 224 217 224c55 0 110 -15 145 -29v-121h-50v88c-23 7 -58 14 -92 14c-108 0 -161 -72 -161 -173c0 -108 60 -177 161 -177c51 0 101 17 143 43v-49c-40 -25 -89 -42 -148 -42z" />
    <glyph glyph-name="d" unicode="d" horiz-adv-x="522" 
d="M223 -11c-119 0 -184 102 -184 223c0 124 69 223 192 223c61 0 105 -25 139 -58v282h-93v48h150v-660h80v-47h-134v61c-35 -40 -84 -72 -150 -72zM234 36c61 0 103 35 136 68v225c-30 30 -71 58 -128 58c-96 0 -144 -76 -144 -175c0 -92 41 -176 136 -176z" />
    <glyph glyph-name="e" unicode="e" horiz-adv-x="453" 
d="M249 -11c-136 0 -210 90 -210 221c0 134 76 225 196 225c132 0 183 -112 183 -209c0 -8 0 -19 -2 -28h-319c4 -100 60 -162 157 -162c53 0 103 18 143 43v-50c-37 -21 -86 -40 -148 -40zM235 389c-81 0 -129 -61 -137 -147h264c-4 73 -38 147 -127 147z" />
    <glyph glyph-name="f" unicode="f" horiz-adv-x="316" 
d="M34 0v47h81v329h-90v48h90v158c0 95 57 136 144 136c24 0 50 -3 72 -8v-45c-18 3 -40 6 -60 6c-67 0 -99 -28 -99 -91v-156h123v-48h-123v-329h97v-47h-235z" />
    <glyph glyph-name="g" unicode="g" horiz-adv-x="452" 
d="M213 -210c-136 0 -192 54 -192 121c0 51 33 89 75 114c-21 11 -35 27 -35 52c0 33 23 57 50 76c-44 30 -63 80 -63 126c0 75 50 156 168 156c26 0 49 -4 69 -11h159v-47l-99 2c27 -27 39 -65 39 -100c0 -75 -50 -155 -168 -155c-29 0 -53 4 -73 12
c-17 -12 -30 -27 -30 -42c0 -76 306 -4 306 -172c0 -84 -78 -132 -206 -132zM216 390c-76 0 -114 -53 -114 -111s38 -111 114 -111c77 0 114 53 114 111s-37 111 -114 111zM212 -165c95 0 150 35 150 85c0 80 -135 71 -224 91c-40 -22 -65 -55 -65 -92c0 -50 46 -84 139 -84
z" />
    <glyph glyph-name="h" unicode="h" horiz-adv-x="539" 
d="M17 0v47h79v613h-79v47h137v-348c48 45 107 76 169 76c76 0 124 -47 124 -138v-250h79v-47h-216v47h79v243c0 57 -21 96 -81 96c-59 0 -113 -37 -154 -74v-265h79v-47h-216z" />
    <glyph glyph-name="i" unicode="i" horiz-adv-x="263" 
d="M30 0v47h79v329h-79v48h137v-377h79v-47h-216zM85 580c0 25 21 46 46 46c26 0 47 -21 47 -46c0 -26 -21 -47 -47 -47c-25 0 -46 21 -46 47z" />
    <glyph glyph-name="j" unicode="j" horiz-adv-x="227" 
d="M32 -218l-19 38c53 29 84 61 84 112v444h-83v48h141v-494c0 -81 -55 -122 -123 -148zM72 580c0 25 21 46 47 46c25 0 46 -21 46 -46c0 -26 -21 -47 -46 -47c-26 0 -47 21 -47 47z" />
    <glyph glyph-name="k" unicode="k" horiz-adv-x="503" 
d="M17 0v47h79v613h-79v47h137v-660h77v-47h-214zM441 -11c-54 0 -96 35 -136 84l-112 137v3l161 165h-77v46h205v-47h-64l-158 -164l91 -109c27 -34 61 -67 102 -67c8 0 17 1 26 5v-46c-12 -4 -23 -7 -38 -7z" />
    <glyph glyph-name="l" unicode="l" horiz-adv-x="250" 
d="M17 0v47h79v612h-79v48h137v-660h79v-47h-216z" />
    <glyph glyph-name="m" unicode="m" horiz-adv-x="799" 
d="M31 0v47h77v329h-77v48h132v-61c40 38 89 72 154 72c48 0 94 -19 111 -77c41 40 92 77 159 77c63 0 119 -32 119 -132v-256h77v-47h-211v47h77v250c0 59 -22 90 -76 90c-51 0 -95 -28 -139 -68c1 -6 1 -12 1 -19v-253h78v-47h-212v47h77v250c0 59 -22 90 -76 90
c-51 0 -95 -29 -137 -68v-272h77v-47h-211z" />
    <glyph glyph-name="n" unicode="n" horiz-adv-x="552" 
d="M30 0v47h79v329h-79v48h136v-66c49 46 108 77 170 77c76 0 124 -47 124 -138v-250h79v-47h-216v47h79v243c0 57 -20 96 -81 96c-59 0 -113 -37 -154 -74v-265h79v-47h-216z" />
    <glyph glyph-name="o" unicode="o" horiz-adv-x="494" 
d="M247 -11c-121 0 -208 83 -208 223c0 139 87 223 208 223c122 0 209 -84 209 -223c0 -140 -87 -223 -209 -223zM247 36c93 0 149 69 149 176s-56 175 -149 175c-92 0 -149 -68 -149 -175s57 -176 149 -176z" />
    <glyph glyph-name="p" unicode="p" horiz-adv-x="523" 
d="M16 -199v48h80v527h-80v48h135v-61c34 39 83 72 151 72c118 0 182 -101 182 -222c0 -124 -68 -224 -192 -224c-61 0 -105 24 -139 57v-197h92v-48h-229zM289 387c-62 0 -103 -34 -136 -68v-225c30 -30 71 -58 129 -58c95 0 143 77 143 177c0 91 -41 174 -136 174z" />
    <glyph glyph-name="q" unicode="q" 
d="M274 -199v48h92v197c-35 -32 -81 -57 -138 -57c-110 0 -189 91 -189 223c0 136 82 223 194 223c65 0 110 -30 139 -60l6 49h45v-575h80v-48h-229zM242 387c-90 0 -144 -70 -144 -173c0 -99 52 -178 142 -178c52 0 96 28 126 56v240c-27 26 -67 55 -124 55z" />
    <glyph glyph-name="r" unicode="r" horiz-adv-x="351" 
d="M30 0v47h79v329h-79v48h136v-89c32 48 84 100 162 100h10v-58h-11c-71 0 -123 -39 -160 -77v-253h88v-47h-225z" />
    <glyph glyph-name="s" unicode="s" horiz-adv-x="396" 
d="M195 -11c-52 0 -111 11 -154 25v104h49v-68c29 -8 69 -15 104 -15c61 0 110 20 110 69c0 110 -255 57 -255 213c0 72 54 118 156 118c48 0 100 -11 136 -22v-104h-50v69c-24 6 -58 11 -86 11c-66 0 -101 -27 -101 -68c0 -112 255 -55 255 -214c0 -75 -60 -118 -164 -118z
" />
    <glyph glyph-name="t" unicode="t" horiz-adv-x="305" 
d="M213 -11c-47 0 -121 15 -121 122v265h-74v48h74v110h58v-110h137v-48h-137v-262c0 -55 24 -78 77 -78c26 0 50 5 65 11v-45c-26 -9 -47 -13 -79 -13z" />
    <glyph glyph-name="u" unicode="u" horiz-adv-x="537" 
d="M215 -11c-76 0 -124 46 -124 137v250h-80v48h137v-290c0 -58 21 -97 81 -97c59 0 113 37 155 74v265h-82v48h139v-377h80v-47h-136v64c-49 -44 -109 -75 -170 -75z" />
    <glyph glyph-name="v" unicode="v" horiz-adv-x="523" 
d="M235 0l-164 377h-64v47h202v-46h-80l133 -314l134 314h-79v46h198v-47h-62l-165 -377h-53z" />
    <glyph glyph-name="w" unicode="w" horiz-adv-x="731" 
d="M197 0l-125 377h-62v47h201v-47h-83l94 -298l119 345h51l119 -346l94 299h-83v47h199v-47h-64l-122 -377h-47l-123 342l-120 -342h-48z" />
    <glyph glyph-name="x" unicode="x" horiz-adv-x="508" 
d="M20 0v46h62l139 170l-129 162h-64v46h203v-45h-75l101 -128l102 128h-75v45h197v-46h-63l-131 -162l138 -170h62v-46h-197v44h70l-109 138l-107 -138h70v-44h-194z" />
    <glyph glyph-name="y" unicode="y" horiz-adv-x="513" 
d="M131 -210c-38 0 -69 13 -96 29l17 42c21 -13 43 -24 73 -24c41 0 71 23 88 67l35 96h-46l-126 376h-63v48h203v-47h-80l117 -364l134 364h-80v47h201v-48h-63l-183 -488c-22 -60 -67 -98 -131 -98z" />
    <glyph glyph-name="z" unicode="z" horiz-adv-x="421" 
d="M40 0v39l264 341h-211v-83h-51v127h333v-38l-265 -341h221v89h50v-134h-341z" />
    <glyph glyph-name="zero" unicode="0" horiz-adv-x="531" 
d="M265 -11c-151 0 -213 113 -213 245c0 134 62 246 213 246c152 0 214 -112 214 -246c0 -132 -62 -245 -214 -245zM265 36c111 0 154 89 154 198c0 111 -43 198 -154 198s-153 -87 -153 -198c0 -109 42 -198 153 -198z" />
    <glyph glyph-name="one" unicode="1" horiz-adv-x="330" 
d="M52 0v46h104v372c-23 -12 -64 -35 -91 -35c-23 0 -35 14 -31 38l129 48h51v-423h95v-46h-257z" />
    <glyph glyph-name="two" unicode="2" horiz-adv-x="454" 
d="M61 0l-10 43c78 56 284 162 284 298c0 60 -43 92 -113 92c-50 0 -83 -15 -98 -23c5 -6 8 -14 8 -23c0 -23 -15 -42 -42 -42c-28 0 -42 19 -42 41c0 50 85 94 179 94c97 0 166 -47 166 -136c0 -131 -150 -233 -252 -293h271v-51h-351z" />
    <glyph glyph-name="three" unicode="3" horiz-adv-x="480" 
d="M228 -140c-86 0 -187 38 -187 95c0 24 20 44 46 44c28 0 44 -21 44 -44c0 -9 -4 -18 -9 -25c22 -12 58 -24 102 -24c84 0 151 43 151 128c0 84 -66 124 -163 124h-49v45h50c90 0 147 41 147 119c0 74 -54 111 -133 111c-43 0 -79 -10 -100 -22c6 -6 9 -16 9 -24
c0 -24 -18 -44 -44 -44c-27 0 -45 20 -45 44c1 53 92 93 184 93c113 0 187 -60 187 -155c0 -71 -43 -120 -106 -142c73 -22 122 -72 122 -151c0 -111 -97 -172 -206 -172z" />
    <glyph glyph-name="four" unicode="4" horiz-adv-x="483" 
d="M216 -129v45h99v124h-296v40c101 115 170 266 186 398c31 7 51 -3 51 -35c0 -76 -80 -255 -170 -357h231v95c14 29 25 55 34 86h21v-181h86v-46h-85v-124h80v-45h-237z" />
    <glyph glyph-name="five" unicode="5" horiz-adv-x="477" 
d="M230 -140c-100 0 -197 55 -197 108c0 25 18 44 44 44c27 0 44 -21 44 -43c0 -11 -4 -19 -10 -27c17 -13 59 -34 115 -34c78 0 156 40 156 147c0 95 -62 145 -141 145c-66 0 -121 -34 -148 -72l-41 19c26 95 40 205 41 322h321c2 -7 4 -15 4 -22c0 -26 -23 -36 -68 -36
c-49 0 -148 8 -209 10c-4 -74 -12 -159 -29 -222c36 29 85 48 139 48c101 0 190 -65 190 -190c0 -128 -93 -197 -211 -197z" />
    <glyph glyph-name="six" unicode="6" horiz-adv-x="505" 
d="M262 -11c-124 0 -213 83 -213 279c0 167 65 341 231 341c83 0 154 -43 154 -90c0 -23 -16 -44 -43 -44c-25 0 -43 19 -43 41c0 9 5 18 10 25c-14 11 -46 21 -78 21c-126 0 -169 -135 -176 -281c23 53 85 102 172 102c108 0 186 -76 186 -196c0 -119 -78 -198 -200 -198z
M262 36c84 0 141 57 141 149c0 86 -49 153 -139 153c-83 0 -149 -56 -149 -148c0 -81 50 -154 147 -154z" />
    <glyph glyph-name="seven" unicode="7" horiz-adv-x="468" 
d="M236 -140c-22 0 -38 10 -38 63c0 126 86 341 177 482c-17 -6 -32 -9 -50 -9c-57 0 -110 31 -165 31c-59 0 -80 -38 -84 -98h-49v140h46v-54c13 38 38 61 86 61c61 0 113 -39 171 -39c10 0 22 1 34 5c2 22 18 37 42 37c25 0 42 -17 42 -41c0 -15 -8 -27 -20 -45
c-81 -126 -170 -320 -170 -487c0 -11 0 -32 1 -42c-5 -2 -14 -4 -23 -4z" />
    <glyph glyph-name="eight" unicode="8" horiz-adv-x="516" 
d="M258 -11c-130 0 -212 67 -212 169c0 84 55 139 133 158c-58 18 -108 66 -108 139c0 88 73 154 187 154s188 -66 188 -154c0 -73 -51 -121 -108 -139c77 -19 132 -74 132 -158c0 -102 -81 -169 -212 -169zM258 36c101 0 153 56 153 128c0 73 -55 128 -153 128
s-153 -55 -153 -128c0 -72 53 -128 153 -128zM258 563c-81 0 -130 -47 -130 -109c0 -64 50 -115 130 -115s130 51 130 115c0 62 -48 109 -130 109z" />
    <glyph glyph-name="nine" unicode="9" horiz-adv-x="502" 
d="M246 432c-89 0 -146 -64 -146 -150c0 -84 54 -145 141 -145c81 0 147 51 147 145c0 79 -48 150 -142 150zM233 -140c-86 0 -172 45 -172 95c0 23 19 43 45 43c25 0 43 -19 43 -42c0 -10 -5 -19 -10 -26c16 -10 51 -23 91 -23c125 0 163 119 170 284
c-23 -56 -88 -100 -171 -100c-107 0 -188 73 -188 189c0 114 77 200 205 200c120 0 208 -75 208 -286c0 -131 -39 -334 -221 -334z" />
    <glyph glyph-name="zero.lf" horiz-adv-x="532" 
d="M266 -12c-153 0 -215 118 -215 316c0 199 62 317 215 317s215 -118 215 -317c0 -198 -62 -316 -215 -316zM266 36c112 0 155 96 155 268c0 173 -43 269 -155 269c-113 0 -155 -96 -155 -269c0 -172 42 -268 155 -268z" />
    <glyph glyph-name="one.lf" horiz-adv-x="332" 
d="M48 0v47h108v511c-18 -11 -67 -36 -96 -36c-23 0 -34 14 -30 38l133 49h51v-562h98v-47h-264z" />
    <glyph glyph-name="two.lf" horiz-adv-x="494" 
d="M77 -11c-28 0 -43 20 -43 44c0 52 98 128 156 175c97 78 174 151 174 247c0 70 -44 119 -133 119c-44 0 -82 -13 -104 -24c6 -7 10 -16 10 -26c0 -24 -17 -43 -46 -43s-44 22 -44 43c0 54 92 97 188 97c124 0 186 -71 186 -167c0 -182 -225 -286 -311 -383
c72 13 147 -29 209 -29c63 0 85 45 86 114h52c-3 -107 -44 -165 -127 -165c-78 0 -149 49 -210 41c0 -21 -13 -43 -43 -43z" />
    <glyph glyph-name="three.lf" horiz-adv-x="486" 
d="M230 -12c-87 0 -188 39 -188 96c0 25 19 45 45 45c28 0 44 -21 44 -44c0 -10 -4 -19 -9 -26c23 -12 60 -24 104 -24c84 0 152 44 152 131c0 85 -66 127 -164 127h-50v45h51c91 0 148 43 148 121c0 77 -54 115 -134 115c-43 0 -80 -11 -102 -23c6 -6 10 -16 10 -24
c0 -25 -19 -45 -45 -45s-44 20 -44 45c0 54 92 94 185 94c114 0 189 -62 189 -159c0 -72 -43 -122 -108 -144c74 -22 123 -74 123 -154c0 -113 -97 -176 -207 -176z" />
    <glyph glyph-name="four.lf" horiz-adv-x="491" 
d="M215 0v45h101v128h-299v40c102 118 172 271 188 406c31 7 51 -3 51 -35c0 -77 -81 -261 -171 -365h232v97c15 29 26 56 35 88h21v-185h87v-46h-86v-128h81v-45h-240z" />
    <glyph glyph-name="five.lf" horiz-adv-x="492" 
d="M238 -12c-101 0 -199 57 -199 110c0 26 18 44 45 44s44 -20 44 -44c0 -10 -5 -19 -11 -26c17 -14 60 -36 117 -36c79 0 158 41 158 151c0 97 -64 149 -143 149c-68 0 -122 -35 -150 -74l-41 20c26 96 41 208 42 327h324c2 -7 4 -15 4 -22c0 -26 -23 -36 -68 -36
c-50 0 -151 8 -212 10c-4 -75 -12 -163 -30 -227c37 30 86 49 141 49c102 0 192 -66 192 -194c0 -130 -94 -201 -213 -201z" />
    <glyph glyph-name="six.lf" horiz-adv-x="508" 
d="M264 -12c-125 0 -215 84 -215 285c0 169 65 348 233 348c83 0 155 -44 155 -92c0 -23 -16 -45 -43 -45c-25 0 -43 20 -43 42c0 10 5 19 10 26c-15 11 -46 21 -79 21c-127 0 -171 -138 -178 -287c23 53 86 105 173 105c110 0 189 -79 189 -201c0 -121 -79 -202 -202 -202z
M263 35c86 0 143 59 143 154c0 87 -49 156 -141 156c-83 0 -150 -58 -150 -152c0 -83 50 -158 148 -158z" />
    <glyph glyph-name="seven.lf" horiz-adv-x="463" 
d="M234 -13c-23 0 -38 10 -38 64c0 129 86 349 178 494c-17 -7 -32 -10 -50 -10c-58 0 -112 32 -167 32c-60 0 -81 -39 -85 -101h-49v143h46v-54c13 38 38 61 86 61c63 0 114 -40 173 -40c11 0 23 2 34 6c3 22 19 37 43 37c25 0 42 -17 42 -41c0 -15 -8 -28 -20 -46
c-82 -128 -171 -327 -171 -498c0 -11 0 -32 1 -43c-6 -2 -14 -4 -23 -4z" />
    <glyph glyph-name="eight.lf" horiz-adv-x="520" 
d="M260 -12c-132 0 -214 68 -214 172c0 86 55 143 133 162c-58 18 -109 67 -109 142c0 89 74 157 190 157c115 0 189 -68 189 -157c0 -75 -51 -124 -110 -142c78 -19 134 -76 134 -162c0 -104 -82 -172 -213 -172zM260 35c101 0 154 58 154 132s-56 131 -154 131
c-99 0 -155 -57 -155 -131s53 -132 155 -132zM260 574c-83 0 -133 -48 -133 -112c0 -65 52 -118 133 -118c80 0 131 53 131 118c0 64 -48 112 -131 112z" />
    <glyph glyph-name="nine.lf" horiz-adv-x="511" 
d="M251 573c-90 0 -147 -66 -147 -154c0 -87 54 -148 142 -148c82 0 149 52 149 148c0 81 -49 154 -144 154zM238 -12c-87 0 -174 46 -174 97c0 23 19 44 45 44s44 -21 44 -43c0 -10 -4 -19 -11 -27c17 -10 52 -24 93 -24c126 0 165 123 172 292c-24 -58 -89 -103 -172 -103
c-109 0 -191 75 -191 193c0 116 78 204 207 204c121 0 210 -76 210 -291c0 -133 -39 -342 -223 -342z" />
    <glyph glyph-name="colon" unicode=":" horiz-adv-x="208" 
d="M104 -9c-24 0 -44 20 -44 45c0 24 20 44 44 44s44 -20 44 -44c0 -25 -20 -45 -44 -45zM104 306c-24 0 -44 20 -44 44s20 44 44 44s44 -20 44 -44s-20 -44 -44 -44z" />
    <glyph glyph-name="semicolon" unicode=";" horiz-adv-x="228" 
d="M118 306c-24 0 -44 20 -44 44s20 44 44 44s43 -20 43 -44s-19 -44 -43 -44zM117 80c27 0 44 -21 44 -52c0 -42 -35 -108 -78 -150l-27 21c29 34 45 70 50 99c-20 2 -34 19 -34 39c0 24 18 43 45 43z" />
    <glyph glyph-name="exclam" unicode="!" horiz-adv-x="235" 
d="M97 158l-12 451h65l-11 -451h-42zM118 -9c-24 0 -44 20 -44 45c0 24 20 44 44 44s43 -20 43 -44c0 -25 -19 -45 -43 -45z" />
    <glyph glyph-name="exclamdown" unicode="&#xa1;" horiz-adv-x="212" 
d="M127 268l12 -451h-65l11 451h42zM106 435c24 0 44 -20 44 -45c0 -24 -20 -44 -44 -44s-44 20 -44 44c0 25 20 45 44 45z" />
    <glyph glyph-name="question" unicode="?" horiz-adv-x="366" 
d="M158 619c98 0 167 -48 167 -142c0 -137 -148 -169 -148 -266c0 -18 6 -40 12 -53h-55c-7 13 -10 36 -10 53c0 116 142 146 142 263c0 61 -37 98 -116 98c-41 0 -83 -10 -117 -21v47c31 11 78 21 125 21zM161 -9c-24 0 -44 20 -44 45c0 24 20 44 44 44s43 -20 43 -44
c0 -25 -19 -45 -43 -45z" />
    <glyph glyph-name="questiondown" unicode="&#xbf;" horiz-adv-x="359" 
d="M203 -194c-98 0 -168 49 -168 143c0 137 149 169 149 266c0 18 -6 40 -12 53h55c6 -14 10 -36 10 -53c0 -117 -142 -146 -142 -263c0 -61 37 -98 116 -98c41 0 82 10 117 21v-47c-31 -11 -79 -22 -125 -22zM200 435c24 0 44 -20 44 -45c0 -24 -20 -44 -44 -44
s-44 20 -44 44c0 25 20 45 44 45z" />
    <glyph glyph-name="parenleft" unicode="(" horiz-adv-x="247" 
d="M179 -198c-92 133 -141 304 -141 452s49 321 141 453h61c-93 -129 -145 -297 -145 -453s52 -324 145 -452h-61z" />
    <glyph glyph-name="parenright" unicode=")" horiz-adv-x="247" 
d="M7 -198c94 128 145 296 145 452s-51 324 -145 453h62c91 -132 140 -305 140 -453s-49 -319 -140 -452h-62z" />
    <glyph glyph-name="braceleft" unicode="{" horiz-adv-x="279" 
d="M198 -212c-66 0 -96 40 -96 96s30 145 30 218c0 67 -26 122 -124 127v49c98 5 124 60 124 127c0 73 -30 162 -30 218s30 96 96 96c20 0 37 -4 55 -10v-37c-10 3 -27 8 -44 8c-36 0 -54 -20 -54 -59c0 -52 30 -145 30 -223c0 -69 -23 -129 -112 -144
c89 -16 112 -76 112 -145c0 -77 -30 -171 -30 -222c0 -40 18 -60 54 -60c17 0 34 5 44 8v-37c-18 -6 -35 -10 -55 -10z" />
    <glyph glyph-name="braceright" unicode="}" horiz-adv-x="279" 
d="M81 -212c-20 0 -37 4 -55 10v37c10 -3 27 -8 44 -8c36 0 54 20 54 60c0 51 -30 145 -30 222c0 69 23 129 112 145c-89 15 -112 75 -112 144c0 78 30 171 30 223c0 39 -18 59 -54 59c-17 0 -34 -5 -44 -8v37c18 6 35 10 55 10c65 0 96 -40 96 -96s-30 -145 -30 -218
c0 -67 26 -122 124 -127v-49c-98 -5 -124 -60 -124 -127c0 -73 30 -162 30 -218s-31 -96 -96 -96z" />
    <glyph glyph-name="bracketleft" unicode="[" horiz-adv-x="283" 
d="M82 -198v905h184v-41h-131v-823h131v-41h-184z" />
    <glyph glyph-name="bracketright" unicode="]" horiz-adv-x="283" 
d="M17 -198v41h131v823h-131v41h184v-905h-184z" />
    <glyph glyph-name="slash" unicode="/" horiz-adv-x="531" 
d="M20 -198l437 905h56l-436 -905h-57z" />
    <glyph glyph-name="backslash" unicode="\" horiz-adv-x="531" 
d="M455 -198l-437 905h56l437 -905h-56z" />
    <glyph glyph-name="bar" unicode="|" horiz-adv-x="217" 
d="M82 -198v905h53v-905h-53z" />
    <glyph glyph-name="brokenbar" unicode="&#xa6;" horiz-adv-x="220" 
d="M83 334v373h54v-373h-54zM83 -198v392h54v-392h-54z" />
    <glyph glyph-name="onesuperior" unicode="&#xb9;" horiz-adv-x="300" 
d="M55 403v43h87v292c-25 -15 -49 -29 -72 -29c-19 0 -31 10 -29 34l106 40h46v-337h75v-43h-213z" />
    <glyph glyph-name="twosuperior" unicode="&#xb2;" horiz-adv-x="379" 
d="M58 403l-10 37c63 48 218 133 218 238c0 46 -31 73 -86 73c-27 0 -55 -7 -70 -16c3 -4 5 -11 5 -19c0 -20 -15 -33 -34 -33c-22 0 -35 17 -35 35c0 42 67 74 140 74c77 0 131 -36 131 -110c0 -103 -107 -183 -190 -235h204v-44h-273z" />
    <glyph glyph-name="threesuperior" unicode="&#xb3;" horiz-adv-x="361" 
d="M175 394c-58 0 -138 22 -138 67c0 19 15 35 37 35c21 0 35 -15 35 -34c0 -6 -2 -10 -4 -15c15 -7 40 -13 66 -13c56 0 96 26 96 73c0 51 -46 73 -110 73h-32v39h32c60 0 98 23 98 68c0 41 -32 64 -84 64c-27 0 -50 -6 -64 -12c4 -5 5 -10 5 -15c0 -18 -14 -35 -36 -35
c-21 0 -35 17 -35 35c0 40 65 68 132 68c82 0 135 -40 135 -100c0 -44 -28 -77 -79 -90c61 -15 90 -48 90 -97c0 -73 -67 -111 -144 -111z" />
    <glyph glyph-name="at" unicode="@" horiz-adv-x="759" 
d="M340 53c-88 0 -135 68 -135 151c0 106 76 202 182 202c66 0 100 -39 113 -76h2c3 16 14 49 19 60h40c-15 -51 -43 -157 -43 -229c0 -45 10 -76 51 -76c57 0 106 62 106 170c0 173 -124 290 -285 290c-179 0 -316 -146 -316 -316c0 -169 135 -308 307 -308
c65 0 121 20 167 52l19 -27c-55 -36 -116 -57 -187 -57c-193 0 -338 153 -338 342c0 201 164 346 350 346c175 0 315 -129 315 -323c0 -130 -64 -201 -145 -201c-72 0 -83 56 -85 75h-3c-27 -40 -71 -75 -134 -75zM349 93c78 0 131 76 131 166c0 68 -30 107 -88 107
c-79 0 -138 -75 -138 -161c0 -68 37 -112 95 -112z" />
    <glyph glyph-name="numbersign" unicode="#" horiz-adv-x="553" 
d="M121 12l18 122h-99v40h105l24 167h-100v41h106l18 122h46l-18 -122h144l18 122h47l-18 -122h100v-41h-106l-25 -167h103v-40h-109l-17 -122h-47l18 122h-144l-18 -122h-46zM191 174h144l24 167h-143z" />
    <glyph glyph-name="ampersand" unicode="&#x26;" horiz-adv-x="644" 
d="M239 -12c-111 0 -195 57 -195 162c0 92 66 144 142 192l-10 13c-37 48 -66 87 -66 138c0 65 47 127 137 127c94 0 132 -66 132 -126c0 -71 -52 -116 -115 -159l163 -192c34 48 53 108 61 177h-75v45h197v-45h-70c-9 -74 -32 -155 -78 -218c29 -32 62 -64 98 -64
c8 0 20 2 31 7v-49c-15 -5 -30 -8 -43 -8c-47 0 -86 34 -122 74c-46 -43 -107 -74 -187 -74zM248 575c-48 0 -82 -30 -82 -80c0 -20 7 -51 54 -108l13 -15c51 33 94 69 94 123c0 41 -25 80 -79 80zM242 38c62 0 112 25 150 62l-174 205c-60 -39 -118 -77 -118 -150
c0 -79 65 -117 142 -117z" />
    <glyph glyph-name="section" unicode="&#xa7;" horiz-adv-x="420" 
d="M213 -88c-80 0 -159 40 -159 85c0 19 13 39 39 39c25 0 41 -19 41 -39c0 -10 -5 -18 -10 -24c19 -12 55 -23 89 -23c45 0 85 20 85 61c0 103 -247 85 -247 226c0 52 34 82 70 101c-27 20 -47 46 -47 86c0 74 69 104 135 104c71 0 149 -34 149 -82c0 -19 -14 -39 -39 -39
c-24 0 -41 18 -41 38c0 10 5 18 10 25c-18 12 -47 20 -77 20c-49 0 -86 -22 -86 -62c0 -104 247 -85 247 -225c0 -54 -37 -83 -73 -101c29 -21 50 -47 50 -88c0 -70 -63 -102 -136 -102zM264 121c29 13 58 38 58 75c0 69 -95 85 -164 122c-30 -14 -58 -37 -58 -75
c0 -69 94 -86 164 -122z" />
    <glyph glyph-name="paragraph" unicode="&#xb6;" horiz-adv-x="570" 
d="M168 -75v38h104v182h-49c-105 0 -192 82 -192 184c0 106 87 187 192 187h301v-38h-88v-515h88v-38h-356zM316 478v-515h76v515h-76z" />
    <glyph glyph-name="dagger" unicode="&#x2020;" horiz-adv-x="445" 
d="M222 -57c-18 0 -15 28 -15 46c0 100 0 226 -25 307c15 25 27 43 27 72s-23 51 -50 51c-39 0 -62 -16 -91 -16c-30 0 -42 14 -42 29c0 14 12 28 42 28c29 0 52 -16 91 -16c28 0 50 24 50 52c0 37 -16 61 -16 89c0 32 16 43 29 43c14 0 29 -11 29 -43
c0 -28 -16 -52 -16 -89c0 -28 22 -52 51 -52c38 0 62 16 91 16c30 0 41 -14 41 -28c0 -15 -11 -29 -41 -29c-29 0 -53 16 -91 16c-28 0 -51 -22 -51 -51s12 -47 27 -72c-25 -81 -24 -207 -24 -307c0 -16 3 -46 -16 -46z" />
    <glyph glyph-name="daggerdbl" unicode="&#x2021;" horiz-adv-x="478" 
d="M239 -57c-14 0 -29 11 -29 43c0 28 16 53 16 89c0 28 -22 52 -51 52c-38 0 -61 -16 -90 -16c-31 0 -42 14 -42 28c0 15 11 29 42 29c29 0 52 -16 90 -16c28 0 51 22 51 51s-12 58 -27 83c15 24 27 53 27 82s-23 51 -51 51c-38 0 -61 -16 -90 -16c-31 0 -42 14 -42 29
c0 14 11 28 42 28c29 0 52 -16 90 -16c29 0 51 24 51 52c0 37 -16 61 -16 89c0 32 15 43 29 43s29 -11 29 -43c0 -28 -16 -52 -16 -89c0 -28 22 -52 51 -52c38 0 61 16 90 16c31 0 42 -14 42 -28c0 -15 -11 -29 -42 -29c-29 0 -52 16 -90 16c-28 0 -51 -22 -51 -51
s12 -58 27 -82c-15 -25 -27 -54 -27 -83s23 -51 51 -51c38 0 61 16 90 16c31 0 42 -14 42 -29c0 -14 -11 -28 -42 -28c-29 0 -52 16 -90 16c-29 0 -51 -24 -51 -52c0 -36 16 -61 16 -89c0 -32 -15 -43 -29 -43z" />
    <glyph glyph-name="cent" unicode="&#xa2;" horiz-adv-x="434" 
d="M231 47c-18 0 -37 2 -53 7l-44 -127l-23 7l43 128c-69 28 -109 97 -109 187c0 113 64 201 185 201c20 0 38 -3 54 -8l29 84l23 -8l-29 -84c45 -20 75 -61 88 -118h-48c-8 32 -25 60 -53 78l-104 -301c13 -4 27 -6 43 -6c69 0 106 43 116 102h47
c-15 -88 -69 -142 -165 -142zM231 410c-84 0 -136 -66 -136 -160c0 -65 25 -121 74 -147l102 301c-12 4 -25 6 -40 6z" />
    <glyph glyph-name="sterling" unicode="&#xa3;" horiz-adv-x="514" 
d="M330 -8c-63 0 -117 24 -178 24c-31 0 -53 -6 -82 -17l-12 32c61 19 98 61 98 106c0 27 -13 54 -27 84h-86v29h74c-13 29 -24 59 -24 91c0 73 51 149 178 149c139 0 178 -89 182 -145h-54c-2 39 -30 102 -127 102c-87 0 -123 -49 -123 -105c0 -32 12 -63 25 -92h186v-29
h-173c12 -27 23 -53 23 -79c0 -41 -27 -75 -40 -87c54 2 94 -18 151 -18c58 0 93 20 119 56l33 -33c-41 -56 -100 -68 -143 -68z" />
    <glyph glyph-name="yen" unicode="&#xa5;" horiz-adv-x="571" 
d="M173 0v41h85v91h-159v30h159v23l-38 60h-121v30h102l-101 163h-72v43h212v-43h-81l127 -212l127 212h-81v43h210v-43h-71l-103 -163h105v-30h-124l-37 -60v-23h161v-30h-161v-91h85v-41h-224z" />
    <glyph glyph-name="dollar" unicode="$" horiz-adv-x="437" 
d="M212 -109v101c-83 4 -176 38 -176 90c0 21 15 40 40 40c23 0 39 -17 39 -38c0 -9 -3 -16 -7 -23c22 -12 61 -23 104 -25v185c-78 25 -160 52 -160 140c0 83 72 127 160 129v72h21v-72c79 -4 153 -40 153 -85c0 -19 -13 -39 -39 -39c-23 0 -41 16 -41 37c0 8 3 17 8 23
c-16 9 -47 19 -81 20v-178c77 -24 162 -54 162 -145c0 -84 -72 -128 -162 -131v-101h-21zM343 119c0 57 -54 77 -110 96v-179c60 3 110 29 110 83zM102 367c0 -54 53 -72 110 -92v171c-67 -2 -110 -31 -110 -79z" />
    <glyph glyph-name="Euro" unicode="&#x20ac;" horiz-adv-x="562" 
d="M342 -7c-132 0 -214 80 -234 190h-75l10 27h61c-1 8 -2 20 -2 31c0 12 1 25 3 38h-72l10 27h66c23 104 103 183 236 183c66 0 120 -18 153 -34v-101h-50v71c-25 9 -61 18 -101 18c-99 0 -161 -55 -182 -137h197l-9 -27h-192c-2 -13 -3 -24 -3 -35c0 -12 0 -23 2 -34h172
l-9 -27h-158c20 -84 81 -143 180 -143c56 0 109 18 155 47v-50c-43 -26 -95 -44 -158 -44z" />
    <glyph glyph-name="currency" unicode="&#xa4;" horiz-adv-x="565" 
d="M283 63c-50 0 -94 18 -129 47l-66 -67l-30 30l67 66c-29 35 -47 79 -47 129c0 49 18 93 47 128l-67 66l30 30l66 -67c35 29 79 47 129 47c49 0 93 -18 128 -47l66 67l30 -30l-67 -66c29 -35 47 -79 47 -128c0 -50 -18 -94 -47 -129l67 -66l-30 -30l-66 67
c-35 -29 -79 -47 -128 -47zM283 109c87 0 158 71 158 159c0 87 -71 158 -158 158c-88 0 -158 -71 -158 -158c0 -88 70 -159 158 -159z" />
    <glyph glyph-name="percent" unicode="%" horiz-adv-x="621" 
d="M127 2l-30 27l400 448l30 -27zM468 -1c-69 0 -110 51 -110 123s41 123 110 123c70 0 110 -51 110 -123s-40 -123 -110 -123zM468 36c43 0 63 36 63 86c0 51 -20 86 -63 86c-42 0 -62 -35 -62 -86c0 -50 20 -86 62 -86zM155 234c-70 0 -110 51 -110 123s40 123 110 123
s110 -51 110 -123s-40 -123 -110 -123zM155 271c42 0 63 35 63 86s-21 86 -63 86c-43 0 -63 -35 -63 -86s20 -86 63 -86z" />
    <glyph glyph-name="perthousand" unicode="&#x2030;" horiz-adv-x="856" 
d="M452 -1c-70 0 -110 51 -110 123s40 123 110 123c69 0 110 -51 110 -123s-41 -123 -110 -123zM452 36c42 0 62 36 62 86c0 51 -20 86 -62 86c-43 0 -63 -35 -63 -86c0 -50 20 -86 63 -86zM158 234c-70 0 -110 51 -110 123s40 123 110 123s110 -51 110 -123
s-40 -123 -110 -123zM158 271c43 0 63 35 63 86s-20 86 -63 86c-42 0 -63 -35 -63 -86s21 -86 63 -86zM715 -1c-70 0 -110 51 -110 123s40 123 110 123s110 -51 110 -123s-40 -123 -110 -123zM715 36c42 0 63 36 63 86c0 51 -21 86 -63 86c-43 0 -63 -35 -63 -86
c0 -50 20 -86 63 -86zM120 2l-31 27l400 448l30 -27z" />
    <glyph glyph-name="guillemotleft" unicode="&#xab;" horiz-adv-x="502" 
d="M394 83l-147 175v4l147 176h67l-151 -178l151 -177h-67zM185 83l-148 175v4l148 176h66l-151 -178l151 -177h-66z" />
    <glyph glyph-name="guillemotright" unicode="&#xbb;" horiz-adv-x="502" 
d="M42 83l150 177l-150 178h66l147 -176v-4l-147 -175h-66zM251 83l151 177l-151 178h67l147 -176v-4l-147 -175h-67z" />
    <glyph glyph-name="guilsinglleft" unicode="&#x2039;" horiz-adv-x="293" 
d="M185 83l-148 175v4l148 176h66l-151 -178l151 -177h-66z" />
    <glyph glyph-name="guilsinglright" unicode="&#x203a;" horiz-adv-x="293" 
d="M42 83l150 177l-150 178h66l147 -176v-4l-147 -175h-66z" />
    <glyph glyph-name="copyright" unicode="&#xa9;" horiz-adv-x="721" 
d="M361 -53c-175 0 -317 141 -317 317s142 317 317 317s317 -141 317 -317s-142 -317 -317 -317zM361 -19c157 0 283 126 283 283s-126 284 -283 284c-158 0 -284 -127 -284 -284s126 -283 284 -283zM367 81c-105 0 -177 78 -177 184c0 103 66 182 182 182
c49 0 91 -14 116 -26v-89h-39v64c-20 7 -46 14 -74 14c-89 0 -140 -60 -140 -143c0 -80 48 -147 136 -147c42 0 87 15 119 35v-40c-32 -19 -77 -34 -123 -34z" />
    <glyph glyph-name="registered" unicode="&#xae;" horiz-adv-x="411" 
d="M206 275c-89 0 -160 72 -160 161c0 88 71 159 160 159c87 0 159 -71 159 -159c0 -89 -72 -161 -159 -161zM206 299c75 0 136 61 136 137c0 75 -61 136 -136 136c-76 0 -137 -61 -137 -136c0 -76 61 -137 137 -137zM133 357v19h22v118h-22v20h82c40 0 61 -20 61 -47
c0 -26 -21 -42 -38 -45l26 -46h24v-19h-41l-34 60h-33v-41h24v-19h-71zM180 437h33c25 0 37 12 37 29c0 18 -13 28 -36 28h-34v-57z" />
    <glyph glyph-name="trademark" unicode="&#x2122;" horiz-adv-x="710" 
d="M322 364v24h36l9 197h-35v24h73l80 -183l82 183h73v-25h-36l10 -196h35v-24h-103v24h38l-7 177l-82 -176h-20l-82 177l-7 -178h38v-24h-102zM120 364v24h41v196h-65v-49h-28v74h218v-74h-28v49h-65v-196h41v-24h-114z" />
    <glyph glyph-name="asciicircum" unicode="^" horiz-adv-x="434" 
d="M40 338l161 286h32l161 -286h-56l-121 222l-122 -222h-55z" />
    <glyph glyph-name="asterisk" unicode="*" horiz-adv-x="394" 
d="M197 329c-16 0 -33 11 -33 36c0 18 19 64 30 108h6c11 -44 29 -90 29 -108c0 -25 -16 -36 -32 -36zM197 647c16 0 32 -11 32 -36c0 -18 -18 -64 -29 -108h-6c-11 44 -30 90 -30 108c0 25 17 36 33 36zM59 408c-8 14 -7 34 15 46c16 9 65 16 108 29l3 -5
c-32 -31 -63 -70 -79 -79c-21 -13 -38 -4 -47 9zM334 567c8 -13 7 -33 -14 -45c-16 -9 -65 -16 -109 -29l-2 5c32 31 62 70 78 79c22 13 39 4 47 -10zM334 408c-8 -13 -25 -22 -47 -9c-16 9 -46 48 -78 79l2 5c44 -13 93 -20 109 -29c21 -12 22 -32 14 -46zM59 567
c9 14 26 23 47 10c16 -9 47 -48 79 -79l-3 -5c-43 13 -92 20 -108 29c-22 12 -23 32 -15 45z" />
    <glyph glyph-name="degree" unicode="&#xb0;" horiz-adv-x="364" 
d="M182 359c-79 0 -143 64 -143 142c0 79 64 143 143 143c78 0 142 -64 142 -143c0 -78 -64 -142 -142 -142zM182 401c56 0 101 45 101 100c0 56 -45 101 -101 101s-101 -45 -101 -101c0 -55 45 -100 101 -100z" />
    <glyph glyph-name="quotesingle" unicode="'" horiz-adv-x="179" 
d="M62 415v207h55v-207h-55z" />
    <glyph glyph-name="quotedbl" unicode="&#x22;" horiz-adv-x="324" 
d="M62 415v207h55v-207h-55zM207 415v207h54v-207h-54z" />
    <glyph glyph-name="quoteleft" unicode="&#x2018;" horiz-adv-x="192" 
d="M90 436c-28 0 -44 21 -44 51c0 43 34 109 78 150l26 -20c-29 -34 -45 -71 -50 -100c21 -2 35 -18 35 -38c0 -24 -18 -43 -45 -43z" />
    <glyph glyph-name="quoteright" unicode="&#x2019;" horiz-adv-x="189" 
d="M106 638c28 0 44 -21 44 -51c0 -43 -34 -109 -78 -151l-26 21c29 34 45 70 50 99c-21 3 -35 19 -35 39c0 24 18 43 45 43z" />
    <glyph glyph-name="comma" unicode="," horiz-adv-x="217" 
d="M109 80c28 0 44 -21 44 -52c0 -42 -34 -108 -78 -150l-26 21c29 34 45 70 50 99c-21 2 -35 19 -35 39c0 24 18 43 45 43z" />
    <glyph glyph-name="quotesinglbase" unicode="&#x201a;" horiz-adv-x="217" 
d="M109 80c28 0 44 -21 44 -52c0 -42 -34 -108 -78 -150l-26 21c29 34 45 70 50 99c-21 2 -35 19 -35 39c0 24 18 43 45 43z" />
    <glyph glyph-name="quotedblbase" unicode="&#x201e;" horiz-adv-x="380" 
d="M109 80c28 0 44 -21 44 -51c0 -43 -34 -109 -78 -151l-26 21c29 34 45 70 50 99c-21 3 -35 19 -35 39c0 24 18 43 45 43zM272 80c28 0 45 -21 45 -51c0 -43 -35 -109 -79 -151l-26 21c29 34 45 70 50 99c-21 3 -34 19 -34 39c0 24 17 43 44 43z" />
    <glyph glyph-name="quotedblleft" unicode="&#x201c;" horiz-adv-x="355" 
d="M253 436c-28 0 -44 21 -44 51c0 43 34 109 78 150l26 -20c-29 -34 -45 -71 -50 -100c21 -2 35 -18 35 -38c0 -24 -18 -43 -45 -43zM90 436c-28 0 -44 21 -44 51c0 43 34 109 78 150l26 -20c-29 -34 -45 -71 -50 -100c21 -2 35 -18 35 -38c0 -24 -18 -43 -45 -43z" />
    <glyph glyph-name="quotedblright" unicode="&#x201d;" horiz-adv-x="352" 
d="M106 638c28 0 44 -21 44 -51c0 -43 -34 -109 -78 -151l-26 21c29 34 45 70 50 99c-21 3 -35 19 -35 39c0 24 18 43 45 43zM269 638c28 0 45 -21 45 -51c0 -43 -35 -109 -79 -151l-26 21c29 34 45 70 50 99c-21 3 -34 19 -34 39c0 24 17 43 44 43z" />
    <glyph glyph-name="period" unicode="." horiz-adv-x="200" 
d="M100 -9c-24 0 -44 20 -44 45c0 24 20 44 44 44s44 -20 44 -44c0 -25 -20 -45 -44 -45z" />
    <glyph glyph-name="ellipsis" unicode="&#x2026;" horiz-adv-x="776" 
d="M100 -9c-24 0 -44 20 -44 45c0 24 20 44 44 44s44 -20 44 -44c0 -25 -20 -45 -44 -45zM388 -9c-24 0 -44 20 -44 45c0 24 20 44 44 44s43 -20 43 -44c0 -25 -19 -45 -43 -45zM675 -9c-24 0 -44 20 -44 45c0 24 20 44 44 44s44 -20 44 -44c0 -25 -20 -45 -44 -45z" />
    <glyph glyph-name="periodcentered" unicode="&#xb7;" horiz-adv-x="205" 
d="M102 209c-24 0 -44 20 -44 45c0 24 20 44 44 44s44 -20 44 -44c0 -25 -20 -45 -44 -45z" />
    <glyph glyph-name="bullet" unicode="&#x2022;" horiz-adv-x="350" 
d="M175 191c-56 0 -101 45 -101 101s45 101 101 101s101 -45 101 -101s-45 -101 -101 -101z" />
    <glyph glyph-name="underscore" unicode="_" horiz-adv-x="507" 
d="M59 -77v41h389v-41h-389z" />
    <glyph glyph-name="hyphen" unicode="-" horiz-adv-x="379" 
d="M60 205v51h259v-51h-259z" />
    <glyph glyph-name="uni00AD" unicode="&#xad;" horiz-adv-x="379" 
d="M60 205v51h259v-51h-259z" />
    <glyph glyph-name="endash" unicode="&#x2013;" horiz-adv-x="586" 
d="M60 205v51h466v-51h-466z" />
    <glyph glyph-name="emdash" unicode="&#x2014;" horiz-adv-x="781" 
d="M60 205v51h661v-51h-661z" />
    <glyph glyph-name="ordfeminine" unicode="&#xaa;" horiz-adv-x="387" 
d="M61 211v34h273v-34h-273zM144 295c-50 0 -90 28 -90 85c0 71 69 88 129 88h61v24c0 49 -19 66 -69 66c-36 0 -72 -10 -98 -19v38c30 11 68 19 107 19c71 0 107 -29 107 -100v-156h47v-38h-92v36c-22 -20 -58 -43 -102 -43zM156 330c38 0 67 22 88 42v63h-59
c-42 0 -84 -10 -84 -54c0 -31 21 -51 55 -51z" />
    <glyph glyph-name="ordmasculine" unicode="&#xba;" horiz-adv-x="389" 
d="M65 211v34h259v-34h-259zM195 295c-85 0 -145 56 -145 150c0 93 60 151 144 151c85 0 145 -57 145 -151s-60 -150 -144 -150zM194 332c60 0 96 45 96 113c0 69 -36 114 -95 114c-61 0 -96 -45 -96 -114c0 -68 35 -113 95 -113z" />
    <glyph glyph-name="mu" unicode="&#xb5;" horiz-adv-x="572" 
d="M109 -199v575h-80v48h137v-290c0 -58 21 -97 81 -97s113 37 155 74v265h-82v48h139v-377h80v-47h-136v64c-49 -44 -109 -75 -170 -75c-31 0 -55 9 -71 27l4 -215h-57z" />
    <glyph glyph-name="fraction" unicode="&#x2044;" horiz-adv-x="380" 
d="M32 -8l-37 20l354 605l36 -19z" />
    <glyph glyph-name="notequal" unicode="&#x2260;" horiz-adv-x="579" 
d="M164 -74l-31 15l71 153h-117v48h139l85 183h-224v48h248l79 169l31 -15l-72 -154h118v-48h-140l-85 -183h225v-48h-248z" />
    <glyph glyph-name="equal" unicode="=" horiz-adv-x="530" 
d="M63 94v48h404v-48h-404zM63 325v48h404v-48h-404z" />
    <glyph glyph-name="approxequal" unicode="&#x2248;" horiz-adv-x="587" 
d="M92 278l-33 16c25 60 64 132 139 132c85 0 141 -96 207 -96c48 0 74 50 93 93l33 -16c-23 -60 -59 -130 -126 -130c-78 0 -137 97 -209 97c-52 0 -82 -50 -104 -96zM92 86l-33 16c25 61 64 133 139 133c85 0 141 -96 207 -96c48 0 74 49 93 93l33 -17
c-23 -60 -59 -129 -126 -129c-78 0 -137 97 -209 97c-52 0 -82 -51 -104 -97z" />
    <glyph glyph-name="asciitilde" unicode="~" horiz-adv-x="585" 
d="M91 181l-33 16c25 60 65 132 139 132c85 0 141 -96 207 -96c48 0 74 50 94 93l33 -16c-24 -60 -60 -130 -126 -130c-78 0 -138 97 -210 97c-52 0 -82 -50 -104 -96z" />
    <glyph glyph-name="logicalnot" unicode="&#xac;" horiz-adv-x="500" 
d="M391 129v153h-328v44h372v-197h-44z" />
    <glyph glyph-name="multiply" unicode="&#xd7;" horiz-adv-x="466" 
d="M79 47l-33 33l154 154l-154 154l33 33l154 -155l154 155l33 -33l-155 -154l155 -154l-33 -33l-154 154z" />
    <glyph glyph-name="divide" unicode="&#xf7;" horiz-adv-x="519" 
d="M259 43c-23 0 -43 19 -43 44c0 24 20 44 43 44c25 0 44 -20 44 -44c0 -25 -19 -44 -44 -44zM259 339c-23 0 -43 19 -43 44c0 24 20 44 43 44c25 0 44 -20 44 -44c0 -25 -19 -44 -44 -44zM58 212v45h403v-45h-403z" />
    <glyph glyph-name="plus" unicode="+" horiz-adv-x="475" 
d="M213 33v178h-177v47h177v178h48v-178h178v-47h-178v-178h-48z" />
    <glyph glyph-name="minus" unicode="&#x2212;" horiz-adv-x="530" 
d="M63 211v47h404v-47h-404z" />
    <glyph glyph-name="plusminus" unicode="&#xb1;" horiz-adv-x="528" 
d="M239 128v153h-177v46h177v154h48v-154h179v-46h-179v-153h-48zM62 27v46h404v-46h-404z" />
    <glyph glyph-name="lessequal" unicode="&#x2264;" horiz-adv-x="490" 
d="M59 37v41h367v-41h-367zM426 123l-367 145v32l367 146v-49l-296 -113l296 -114v-47z" />
    <glyph glyph-name="greaterequal" unicode="&#x2265;" horiz-adv-x="490" 
d="M63 37v41h368v-41h-368zM63 123v47l297 114l-297 113v49l368 -146v-32z" />
    <glyph glyph-name="less" unicode="&#x3c;" horiz-adv-x="442" 
d="M389 33l-360 186v30l360 185v-54l-292 -146l292 -147v-54z" />
    <glyph glyph-name="greater" unicode="&#x3e;" horiz-adv-x="442" 
d="M52 33v54l293 147l-293 146v54l360 -185v-30z" />
    <glyph glyph-name="agrave" unicode="&#xe0;" horiz-adv-x="463" 
d="M163 -11c-72 0 -133 41 -133 124c0 107 107 130 192 130h95v40c0 76 -29 104 -107 104c-53 0 -107 -13 -145 -28v47c43 17 100 29 155 29c106 0 155 -45 155 -148v-240h77v-47h-133v55c-34 -30 -90 -66 -156 -66zM177 35c57 0 107 35 140 65v101h-94
c-64 0 -134 -15 -134 -87c0 -50 35 -79 88 -79zM272 506l-175 122l39 50l156 -148z" />
    <glyph glyph-name="aacute" unicode="&#xe1;" horiz-adv-x="463" 
d="M163 -11c-72 0 -133 41 -133 124c0 107 107 130 192 130h95v40c0 76 -29 104 -107 104c-53 0 -107 -13 -145 -28v47c43 17 100 29 155 29c106 0 155 -45 155 -148v-240h77v-47h-133v55c-34 -30 -90 -66 -156 -66zM177 35c57 0 107 35 140 65v101h-94
c-64 0 -134 -15 -134 -87c0 -50 35 -79 88 -79zM153 506l-20 24l156 148l39 -50z" />
    <glyph glyph-name="acircumflex" unicode="&#xe2;" horiz-adv-x="463" 
d="M163 -11c-72 0 -133 41 -133 124c0 107 107 130 192 130h95v40c0 76 -29 104 -107 104c-53 0 -107 -13 -145 -28v47c43 17 100 29 155 29c106 0 155 -45 155 -148v-240h77v-47h-133v55c-34 -30 -90 -66 -156 -66zM177 35c57 0 107 35 140 65v101h-94
c-64 0 -134 -15 -134 -87c0 -50 35 -79 88 -79zM76 505l-16 20l134 127h36l134 -127l-17 -20l-135 89z" />
    <glyph glyph-name="atilde" unicode="&#xe3;" horiz-adv-x="463" 
d="M163 -11c-72 0 -133 41 -133 124c0 107 107 130 192 130h95v40c0 76 -29 104 -107 104c-53 0 -107 -13 -145 -28v47c43 17 100 29 155 29c106 0 155 -45 155 -148v-240h77v-47h-133v55c-34 -30 -90 -66 -156 -66zM177 35c57 0 107 35 140 65v101h-94
c-64 0 -134 -15 -134 -87c0 -50 35 -79 88 -79zM79 515l-27 13c17 39 41 92 92 92s94 -55 139 -55c26 0 42 18 62 56l27 -14c-18 -38 -43 -93 -93 -93c-51 0 -96 56 -138 56c-24 0 -42 -16 -62 -55z" />
    <glyph glyph-name="adieresis" unicode="&#xe4;" horiz-adv-x="463" 
d="M163 -11c-72 0 -133 41 -133 124c0 107 107 130 192 130h95v40c0 76 -29 104 -107 104c-53 0 -107 -13 -145 -28v47c43 17 100 29 155 29c106 0 155 -45 155 -148v-240h77v-47h-133v55c-34 -30 -90 -66 -156 -66zM177 35c57 0 107 35 140 65v101h-94
c-64 0 -134 -15 -134 -87c0 -50 35 -79 88 -79zM128 517c-23 0 -41 18 -41 41c0 22 18 40 41 40s40 -18 40 -40c0 -23 -17 -41 -40 -41zM298 517c-23 0 -40 18 -40 41c0 22 17 40 40 40s41 -18 41 -40c0 -23 -18 -41 -41 -41z" />
    <glyph glyph-name="aring" unicode="&#xe5;" horiz-adv-x="463" 
d="M163 -11c-72 0 -133 41 -133 124c0 107 107 130 192 130h95v40c0 76 -29 104 -107 104c-53 0 -107 -13 -145 -28v47c43 17 100 29 155 29c106 0 155 -45 155 -148v-240h77v-47h-133v55c-34 -30 -90 -66 -156 -66zM177 35c57 0 107 35 140 65v101h-94
c-64 0 -134 -15 -134 -87c0 -50 35 -79 88 -79zM212 503c-67 0 -107 46 -107 102s40 102 107 102s108 -46 108 -102s-41 -102 -108 -102zM212 539c41 0 61 32 61 66s-20 66 -61 66c-40 0 -60 -32 -60 -66s20 -66 60 -66z" />
    <glyph glyph-name="amacron" unicode="&#x101;" horiz-adv-x="463" 
d="M163 -11c-72 0 -133 41 -133 124c0 107 107 130 192 130h95v40c0 76 -29 104 -107 104c-53 0 -107 -13 -145 -28v47c43 17 100 29 155 29c106 0 155 -45 155 -148v-240h77v-47h-133v55c-34 -30 -90 -66 -156 -66zM177 35c57 0 107 35 140 65v101h-94
c-64 0 -134 -15 -134 -87c0 -50 35 -79 88 -79zM81 527v46h257v-46h-257z" />
    <glyph glyph-name="abreve" unicode="&#x103;" horiz-adv-x="463" 
d="M163 -11c-72 0 -133 41 -133 124c0 107 107 130 192 130h95v40c0 76 -29 104 -107 104c-53 0 -107 -13 -145 -28v47c43 17 100 29 155 29c106 0 155 -45 155 -148v-240h77v-47h-133v55c-34 -30 -90 -66 -156 -66zM177 35c57 0 107 35 140 65v101h-94
c-64 0 -134 -15 -134 -87c0 -50 35 -79 88 -79zM211 512c-73 0 -128 44 -135 130h45c6 -58 42 -81 90 -81c47 0 83 23 89 81h45c-7 -86 -62 -130 -134 -130z" />
    <glyph glyph-name="aogonek" unicode="&#x105;" horiz-adv-x="463" 
d="M390 -193c-50 0 -90 22 -90 75c0 52 40 93 77 118h-58v55c-34 -30 -90 -66 -156 -66c-72 0 -133 41 -133 124c0 107 107 130 192 130h95v40c0 76 -29 104 -107 104c-53 0 -107 -13 -145 -28v47c43 17 100 29 155 29c106 0 155 -45 155 -148v-240h77v-47h-24
c-26 -18 -75 -60 -75 -109c0 -32 22 -44 51 -44c23 0 45 7 60 14l3 -37c-18 -8 -46 -17 -77 -17zM177 35c57 0 107 35 140 65v101h-94c-64 0 -134 -15 -134 -87c0 -50 35 -79 88 -79z" />
    <glyph glyph-name="ae" unicode="&#xe6;" horiz-adv-x="724" 
d="M172 -11c-81 0 -142 41 -142 123c0 108 106 129 191 129h96v42c0 76 -29 104 -107 104c-54 0 -106 -14 -145 -29v47c43 17 99 30 153 30c79 0 122 -28 139 -84c31 52 84 84 152 84c130 0 180 -112 180 -209c0 -8 0 -19 -2 -28h-317c3 -100 59 -162 156 -162
c53 0 102 18 143 43v-50c-38 -21 -86 -40 -148 -40c-75 0 -129 27 -162 74c-38 -32 -107 -74 -187 -74zM182 36c62 0 121 32 157 61c-13 30 -21 64 -21 103h-95c-64 0 -135 -14 -135 -86c0 -50 36 -78 94 -78zM507 390c-81 0 -129 -63 -137 -148h264c-4 73 -37 148 -127 148
z" />
    <glyph glyph-name="aeacute" unicode="&#x1fd;" horiz-adv-x="724" 
d="M172 -11c-81 0 -142 41 -142 123c0 108 106 129 191 129h96v42c0 76 -29 104 -107 104c-54 0 -106 -14 -145 -29v47c43 17 99 30 153 30c79 0 122 -28 139 -84c31 52 84 84 152 84c130 0 180 -112 180 -209c0 -8 0 -19 -2 -28h-317c3 -100 59 -162 156 -162
c53 0 102 18 143 43v-50c-38 -21 -86 -40 -148 -40c-75 0 -129 27 -162 74c-38 -32 -107 -74 -187 -74zM182 36c62 0 121 32 157 61c-13 30 -21 64 -21 103h-95c-64 0 -135 -14 -135 -86c0 -50 36 -78 94 -78zM507 390c-81 0 -129 -63 -137 -148h264c-4 73 -37 148 -127 148
zM326 506l-20 24l156 148l39 -50z" />
    <glyph glyph-name="ccedilla" unicode="&#xe7;" horiz-adv-x="439" 
d="M209 -193c-17 0 -37 2 -52 5l10 37c12 -1 26 -3 41 -3c34 0 73 7 73 42c0 36 -44 41 -83 41v19l22 43c-113 13 -181 95 -181 220c0 139 84 224 217 224c55 0 110 -15 145 -29v-121h-50v88c-23 7 -58 14 -92 14c-108 0 -161 -72 -161 -173c0 -108 60 -177 161 -177
c51 0 101 17 143 43v-49c-39 -24 -85 -41 -143 -42l-11 -29c39 -3 86 -22 86 -73c0 -58 -60 -80 -125 -80z" />
    <glyph glyph-name="cacute" unicode="&#x107;" horiz-adv-x="439" 
d="M254 -11c-133 0 -215 85 -215 222c0 139 84 224 217 224c55 0 110 -15 145 -29v-121h-50v88c-23 7 -58 14 -92 14c-108 0 -161 -72 -161 -173c0 -108 60 -177 161 -177c51 0 101 17 143 43v-49c-40 -25 -89 -42 -148 -42zM181 506l-19 24l155 148l40 -50z" />
    <glyph glyph-name="ccircumflex" unicode="&#x109;" horiz-adv-x="439" 
d="M254 -11c-133 0 -215 85 -215 222c0 139 84 224 217 224c55 0 110 -15 145 -29v-121h-50v88c-23 7 -58 14 -92 14c-108 0 -161 -72 -161 -173c0 -108 60 -177 161 -177c51 0 101 17 143 43v-49c-40 -25 -89 -42 -148 -42zM109 505l-17 20l134 127h36l134 -127l-16 -20
l-136 89z" />
    <glyph glyph-name="cdotaccent" unicode="&#x10b;" horiz-adv-x="439" 
d="M254 -11c-133 0 -215 85 -215 222c0 139 84 224 217 224c55 0 110 -15 145 -29v-121h-50v88c-23 7 -58 14 -92 14c-108 0 -161 -72 -161 -173c0 -108 60 -177 161 -177c51 0 101 17 143 43v-49c-40 -25 -89 -42 -148 -42zM246 518c-24 0 -44 20 -44 44s20 44 44 44
s44 -20 44 -44s-20 -44 -44 -44z" />
    <glyph glyph-name="ccaron" unicode="&#x10d;" horiz-adv-x="439" 
d="M254 -11c-133 0 -215 85 -215 222c0 139 84 224 217 224c55 0 110 -15 145 -29v-121h-50v88c-23 7 -58 14 -92 14c-108 0 -161 -72 -161 -173c0 -108 60 -177 161 -177c51 0 101 17 143 43v-49c-40 -25 -89 -42 -148 -42zM225 511l-134 128l16 19l136 -88l135 88l17 -19
l-134 -128h-36z" />
    <glyph glyph-name="dcaron" unicode="&#x10f;" horiz-adv-x="522" 
d="M528 713c26 0 47 -19 47 -57c0 -44 -27 -97 -71 -136l-28 21c30 37 44 70 44 99s-13 45 -33 51v7c10 9 25 15 41 15zM223 -11c-119 0 -184 102 -184 223c0 124 69 223 192 223c61 0 105 -25 139 -58v282h-93v48h150v-660h80v-47h-134v61c-35 -40 -84 -72 -150 -72z
M234 36c61 0 103 35 136 68v225c-30 30 -71 58 -128 58c-96 0 -144 -76 -144 -175c0 -92 41 -176 136 -176z" />
    <glyph glyph-name="dcroat" unicode="&#x111;" horiz-adv-x="522" 
d="M216 520v43h154v96h-93v48h150v-144h73v-43h-73v-473h80v-47h-134v61c-35 -40 -84 -72 -150 -72c-119 0 -184 102 -184 223c0 124 69 223 192 223c61 0 105 -25 139 -58v143h-154zM234 36c61 0 103 35 136 68v225c-30 30 -71 58 -128 58c-96 0 -144 -76 -144 -175
c0 -92 41 -176 136 -176z" />
    <glyph glyph-name="egrave" unicode="&#xe8;" horiz-adv-x="453" 
d="M249 -11c-136 0 -210 90 -210 221c0 134 76 225 196 225c132 0 183 -112 183 -209c0 -8 0 -19 -2 -28h-319c4 -100 60 -162 157 -162c53 0 103 18 143 43v-50c-37 -21 -86 -40 -148 -40zM235 389c-81 0 -129 -61 -137 -147h264c-4 73 -38 147 -127 147zM284 506l-176 122
l40 50l155 -148z" />
    <glyph glyph-name="eacute" unicode="&#xe9;" horiz-adv-x="453" 
d="M249 -11c-136 0 -210 90 -210 221c0 134 76 225 196 225c132 0 183 -112 183 -209c0 -8 0 -19 -2 -28h-319c4 -100 60 -162 157 -162c53 0 103 18 143 43v-50c-37 -21 -86 -40 -148 -40zM235 389c-81 0 -129 -61 -137 -147h264c-4 73 -38 147 -127 147zM174 506l-20 24
l156 148l40 -50z" />
    <glyph glyph-name="ecircumflex" unicode="&#xea;" horiz-adv-x="453" 
d="M249 -11c-136 0 -210 90 -210 221c0 134 76 225 196 225c132 0 183 -112 183 -209c0 -8 0 -19 -2 -28h-319c4 -100 60 -162 157 -162c53 0 103 18 143 43v-50c-37 -21 -86 -40 -148 -40zM235 389c-81 0 -129 -61 -137 -147h264c-4 73 -38 147 -127 147zM93 505l-17 20
l134 127h36l134 -127l-16 -20l-136 89z" />
    <glyph glyph-name="edieresis" unicode="&#xeb;" horiz-adv-x="453" 
d="M249 -11c-136 0 -210 90 -210 221c0 134 76 225 196 225c132 0 183 -112 183 -209c0 -8 0 -19 -2 -28h-319c4 -100 60 -162 157 -162c53 0 103 18 143 43v-50c-37 -21 -86 -40 -148 -40zM235 389c-81 0 -129 -61 -137 -147h264c-4 73 -38 147 -127 147zM144 517
c-23 0 -41 18 -41 41c0 22 18 40 41 40c22 0 40 -18 40 -40c0 -23 -18 -41 -40 -41zM314 517c-23 0 -41 18 -41 41c0 22 18 40 41 40c22 0 40 -18 40 -40c0 -23 -18 -41 -40 -41z" />
    <glyph glyph-name="emacron" unicode="&#x113;" horiz-adv-x="453" 
d="M249 -11c-136 0 -210 90 -210 221c0 134 76 225 196 225c132 0 183 -112 183 -209c0 -8 0 -19 -2 -28h-319c4 -100 60 -162 157 -162c53 0 103 18 143 43v-50c-37 -21 -86 -40 -148 -40zM235 389c-81 0 -129 -61 -137 -147h264c-4 73 -38 147 -127 147zM102 527v46h257
v-46h-257z" />
    <glyph glyph-name="ebreve" unicode="&#x115;" horiz-adv-x="453" 
d="M249 -11c-136 0 -210 90 -210 221c0 134 76 225 196 225c132 0 183 -112 183 -209c0 -8 0 -19 -2 -28h-319c4 -100 60 -162 157 -162c53 0 103 18 143 43v-50c-37 -21 -86 -40 -148 -40zM235 389c-81 0 -129 -61 -137 -147h264c-4 73 -38 147 -127 147zM230 512
c-72 0 -128 44 -135 130h46c5 -58 41 -81 89 -81s84 23 89 81h46c-7 -86 -63 -130 -135 -130z" />
    <glyph glyph-name="edotaccent" unicode="&#x117;" horiz-adv-x="453" 
d="M249 -11c-136 0 -210 90 -210 221c0 134 76 225 196 225c132 0 183 -112 183 -209c0 -8 0 -19 -2 -28h-319c4 -100 60 -162 157 -162c53 0 103 18 143 43v-50c-37 -21 -86 -40 -148 -40zM235 389c-81 0 -129 -61 -137 -147h264c-4 73 -38 147 -127 147zM230 518
c-25 0 -44 20 -44 44s19 44 44 44c24 0 44 -20 44 -44s-20 -44 -44 -44z" />
    <glyph glyph-name="eogonek" unicode="&#x119;" horiz-adv-x="453" 
d="M331 -193c-50 0 -90 23 -90 76c0 46 29 84 63 112c-17 -4 -35 -6 -55 -6c-136 0 -210 90 -210 221c0 134 76 225 196 225c132 0 183 -112 183 -209c0 -8 0 -19 -2 -28h-319c4 -100 60 -162 157 -162c53 0 103 18 143 43v-50c-47 -28 -103 -79 -103 -136
c0 -35 22 -46 51 -46c23 0 46 7 60 14l4 -37c-18 -8 -46 -17 -78 -17zM235 389c-81 0 -129 -61 -137 -147h264c-4 73 -38 147 -127 147z" />
    <glyph glyph-name="ecaron" unicode="&#x11b;" horiz-adv-x="453" 
d="M249 -11c-136 0 -210 90 -210 221c0 134 76 225 196 225c132 0 183 -112 183 -209c0 -8 0 -19 -2 -28h-319c4 -100 60 -162 157 -162c53 0 103 18 143 43v-50c-37 -21 -86 -40 -148 -40zM235 389c-81 0 -129 -61 -137 -147h264c-4 73 -38 147 -127 147zM212 511l-134 128
l16 19l136 -88l135 88l17 -19l-134 -128h-36z" />
    <glyph glyph-name="eth" unicode="&#xf0;" horiz-adv-x="489" 
d="M239 -11c-131 0 -200 92 -200 213c0 124 74 216 191 216c62 0 110 -27 136 -63c-17 94 -67 173 -134 239l-101 -84l-21 26l97 81c-28 25 -60 48 -92 69l32 32c35 -20 69 -43 101 -70l76 62l20 -26l-71 -59c101 -99 165 -233 165 -385c0 -151 -63 -251 -199 -251zM239 35
c84 0 140 64 140 168s-55 169 -139 169c-86 0 -142 -67 -142 -170c0 -105 59 -167 141 -167z" />
    <glyph glyph-name="gcircumflex" unicode="&#x11d;" horiz-adv-x="452" 
d="M213 -210c-136 0 -192 54 -192 121c0 51 33 89 75 114c-21 11 -35 27 -35 52c0 33 23 57 50 76c-44 30 -63 80 -63 126c0 75 50 156 168 156c26 0 49 -4 69 -11h159v-47l-99 2c27 -27 39 -65 39 -100c0 -75 -50 -155 -168 -155c-29 0 -53 4 -73 12
c-17 -12 -30 -27 -30 -42c0 -76 306 -4 306 -172c0 -84 -78 -132 -206 -132zM216 390c-76 0 -114 -53 -114 -111s38 -111 114 -111c77 0 114 53 114 111s-37 111 -114 111zM212 -165c95 0 150 35 150 85c0 80 -135 71 -224 91c-40 -22 -65 -55 -65 -92c0 -50 46 -84 139 -84
zM80 505l-16 20l134 127h36l134 -127l-16 -20l-136 89z" />
    <glyph glyph-name="gbreve" unicode="&#x11f;" horiz-adv-x="452" 
d="M213 -210c-136 0 -192 54 -192 121c0 51 33 89 75 114c-21 11 -35 27 -35 52c0 33 23 57 50 76c-44 30 -63 80 -63 126c0 75 50 156 168 156c26 0 49 -4 69 -11h159v-47l-99 2c27 -27 39 -65 39 -100c0 -75 -50 -155 -168 -155c-29 0 -53 4 -73 12
c-17 -12 -30 -27 -30 -42c0 -76 306 -4 306 -172c0 -84 -78 -132 -206 -132zM216 390c-76 0 -114 -53 -114 -111s38 -111 114 -111c77 0 114 53 114 111s-37 111 -114 111zM212 -165c95 0 150 35 150 85c0 80 -135 71 -224 91c-40 -22 -65 -55 -65 -92c0 -50 46 -84 139 -84
zM216 512c-73 0 -128 44 -135 130h45c6 -58 42 -81 90 -81c47 0 83 23 89 81h45c-7 -86 -62 -130 -134 -130z" />
    <glyph glyph-name="gdotaccent" unicode="&#x121;" horiz-adv-x="452" 
d="M213 -210c-136 0 -192 54 -192 121c0 51 33 89 75 114c-21 11 -35 27 -35 52c0 33 23 57 50 76c-44 30 -63 80 -63 126c0 75 50 156 168 156c26 0 49 -4 69 -11h159v-47l-99 2c27 -27 39 -65 39 -100c0 -75 -50 -155 -168 -155c-29 0 -53 4 -73 12
c-17 -12 -30 -27 -30 -42c0 -76 306 -4 306 -172c0 -84 -78 -132 -206 -132zM216 390c-76 0 -114 -53 -114 -111s38 -111 114 -111c77 0 114 53 114 111s-37 111 -114 111zM212 -165c95 0 150 35 150 85c0 80 -135 71 -224 91c-40 -22 -65 -55 -65 -92c0 -50 46 -84 139 -84
zM216 518c-25 0 -45 20 -45 44s20 44 45 44c24 0 44 -20 44 -44s-20 -44 -44 -44z" />
    <glyph glyph-name="gcommaaccent" unicode="&#x123;" horiz-adv-x="452" 
d="M216 504c-26 0 -48 19 -48 58c0 43 28 97 72 136l28 -22c-30 -36 -45 -69 -45 -99c0 -28 13 -45 34 -50v-8c-10 -8 -26 -15 -41 -15zM213 -210c-136 0 -192 54 -192 121c0 51 33 89 75 114c-21 11 -35 27 -35 52c0 33 23 57 50 76c-44 30 -63 80 -63 126
c0 75 50 156 168 156c26 0 49 -4 69 -11h159v-47l-99 2c27 -27 39 -65 39 -100c0 -75 -50 -155 -168 -155c-29 0 -53 4 -73 12c-17 -12 -30 -27 -30 -42c0 -76 306 -4 306 -172c0 -84 -78 -132 -206 -132zM216 390c-76 0 -114 -53 -114 -111s38 -111 114 -111
c77 0 114 53 114 111s-37 111 -114 111zM212 -165c95 0 150 35 150 85c0 80 -135 71 -224 91c-40 -22 -65 -55 -65 -92c0 -50 46 -84 139 -84z" />
    <glyph glyph-name="hcircumflex" unicode="&#x125;" horiz-adv-x="539" 
d="M17 0v47h79v613h-79v47h137v-348c48 45 107 76 169 76c76 0 124 -47 124 -138v-250h79v-47h-216v47h79v243c0 57 -21 96 -81 96c-59 0 -113 -37 -154 -74v-265h79v-47h-216zM-25 767l-17 20l134 128h36l134 -128l-16 -20l-136 89z" />
    <glyph glyph-name="hbar" unicode="&#x127;" horiz-adv-x="539" 
d="M22 520v43h74v97h-79v47h137v-144h141v-43h-141v-161c48 45 107 76 169 76c76 0 124 -47 124 -138v-250h79v-47h-216v47h79v243c0 57 -21 96 -81 96c-59 0 -113 -37 -154 -74v-265h79v-47h-216v47h79v473h-74z" />
    <glyph glyph-name="dotlessi" unicode="&#x131;" horiz-adv-x="263" 
d="M30 0v47h79v329h-79v48h137v-377h79v-47h-216z" />
    <glyph glyph-name="igrave" unicode="&#xec;" horiz-adv-x="263" 
d="M182 506l-176 122l40 50l155 -148zM30 0v47h79v329h-79v48h137v-377h79v-47h-216z" />
    <glyph glyph-name="iacute" unicode="&#xed;" horiz-adv-x="263" 
d="M55 506l-19 24l155 148l40 -50zM30 0v47h79v329h-79v48h137v-377h79v-47h-216z" />
    <glyph glyph-name="icircumflex" unicode="&#xee;" horiz-adv-x="263" 
d="M-12 505l-16 20l133 127h36l134 -127l-16 -20l-136 89zM30 0v47h79v329h-79v48h137v-377h79v-47h-216z" />
    <glyph glyph-name="idieresis" unicode="&#xef;" horiz-adv-x="263" 
d="M38 517c-22 0 -40 18 -40 41c0 22 18 40 40 40c23 0 41 -18 41 -40c0 -23 -18 -41 -41 -41zM208 517c-22 0 -40 18 -40 41c0 22 18 40 40 40c23 0 41 -18 41 -40c0 -23 -18 -41 -41 -41zM30 0v47h79v329h-79v48h137v-377h79v-47h-216z" />
    <glyph glyph-name="itilde" unicode="&#x129;" horiz-adv-x="263" 
d="M-12 515l-27 13c17 39 40 92 91 92c52 0 95 -55 140 -55c25 0 42 18 62 56l26 -14c-17 -38 -42 -93 -93 -93s-95 56 -137 56c-24 0 -42 -16 -62 -55zM30 0v47h79v329h-79v48h137v-377h79v-47h-216z" />
    <glyph glyph-name="imacron" unicode="&#x12b;" horiz-adv-x="263" 
d="M-7 527v46h257v-46h-257zM30 0v47h79v329h-79v48h137v-377h79v-47h-216z" />
    <glyph glyph-name="ibreve" unicode="&#x12d;" horiz-adv-x="263" 
d="M123 512c-72 0 -128 44 -135 130h46c5 -58 41 -81 89 -81s84 23 89 81h46c-7 -86 -63 -130 -135 -130zM30 0v47h79v329h-79v48h137v-377h79v-47h-216z" />
    <glyph glyph-name="iogonek" unicode="&#x12f;" horiz-adv-x="263" 
d="M30 0v47h79v329h-79v48h137v-377h79v-47h-62c-25 -18 -75 -60 -75 -109c0 -32 23 -44 51 -44c23 0 46 7 60 14l4 -37c-18 -8 -46 -17 -78 -17c-49 0 -90 22 -90 75c0 52 40 93 77 118h-103zM85 580c0 25 21 46 46 46c26 0 47 -21 47 -46c0 -26 -21 -47 -47 -47
c-25 0 -46 21 -46 47z" />
    <glyph glyph-name="dotlessj" unicode="&#x237;" horiz-adv-x="227" 
d="M32 -218l-19 38c53 29 84 61 84 112v444h-83v48h141v-494c0 -81 -55 -122 -123 -148z" />
    <glyph glyph-name="jcircumflex" unicode="&#x135;" horiz-adv-x="227" 
d="M32 -218l-19 38c53 29 84 61 84 112v444h-83v48h141v-494c0 -81 -55 -122 -123 -148zM-26 505l-17 20l134 127h36l134 -127l-16 -20l-136 89z" />
    <glyph glyph-name="kcommaaccent" unicode="&#x137;" horiz-adv-x="503" 
d="M281 -73c25 0 47 -19 47 -58c0 -43 -27 -96 -71 -136l-28 22c29 36 44 69 44 99c0 29 -13 45 -34 50v8c11 8 26 15 42 15zM17 0v47h79v613h-79v47h137v-660h77v-47h-214zM441 -11c-54 0 -96 35 -136 84l-112 137v3l161 165h-77v46h205v-47h-64l-158 -164l91 -109
c27 -34 61 -67 102 -67c8 0 17 1 26 5v-46c-12 -4 -23 -7 -38 -7z" />
    <glyph glyph-name="kgreenlandic" unicode="&#x138;" horiz-adv-x="517" 
d="M30 0v47h79v329h-79v48h137v-377h78v-47h-215zM454 -11c-54 0 -96 35 -136 84l-111 137v3l160 165h-77v46h206v-47h-65l-158 -164l91 -109c28 -34 61 -67 103 -67c7 0 16 1 26 5v-46c-13 -4 -24 -7 -39 -7z" />
    <glyph glyph-name="lacute" unicode="&#x13a;" horiz-adv-x="250" 
d="M17 0v47h79v612h-79v48h137v-660h79v-47h-216zM54 771l-19 24l155 148l40 -50z" />
    <glyph glyph-name="lcommaaccent" unicode="&#x13c;" horiz-adv-x="250" 
d="M123 -73c26 0 48 -19 48 -58c0 -43 -28 -96 -72 -136l-28 22c30 36 44 69 44 99c0 29 -13 45 -33 50v8c10 8 26 15 41 15zM17 0v47h79v612h-79v48h137v-660h79v-47h-216z" />
    <glyph glyph-name="lcaron" unicode="&#x13e;" horiz-adv-x="250" 
d="M254 713c26 0 48 -19 48 -57c0 -44 -28 -97 -72 -136l-28 21c30 37 45 70 45 99s-14 45 -34 51v7c10 9 26 15 41 15zM17 0v47h79v612h-79v48h137v-660h79v-47h-216z" />
    <glyph glyph-name="ldot" unicode="&#x140;" horiz-adv-x="307" 
d="M17 0v47h79v612h-79v48h137v-660h79v-47h-216zM274 295c-24 0 -44 20 -44 44s20 44 44 44s44 -20 44 -44s-20 -44 -44 -44z" />
    <glyph glyph-name="lslash" unicode="&#x142;" horiz-adv-x="270" 
d="M25 261l-20 35l97 54v309h-79v48h137v-326l98 55l20 -35l-118 -66v-288h79v-47h-216v47h79v257z" />
    <glyph glyph-name="ntilde" unicode="&#xf1;" horiz-adv-x="552" 
d="M30 0v47h79v329h-79v48h136v-66c49 46 108 77 170 77c76 0 124 -47 124 -138v-250h79v-47h-216v47h79v243c0 57 -20 96 -81 96c-59 0 -113 -37 -154 -74v-265h79v-47h-216zM147 515l-27 13c17 39 40 92 91 92c52 0 94 -55 139 -55c26 0 43 18 63 56l26 -14
c-17 -38 -43 -93 -93 -93c-51 0 -95 56 -138 56c-23 0 -41 -16 -61 -55z" />
    <glyph glyph-name="nacute" unicode="&#x144;" horiz-adv-x="552" 
d="M30 0v47h79v329h-79v48h136v-66c49 46 108 77 170 77c76 0 124 -47 124 -138v-250h79v-47h-216v47h79v243c0 57 -20 96 -81 96c-59 0 -113 -37 -154 -74v-265h79v-47h-216zM216 506l-20 24l156 148l39 -50z" />
    <glyph glyph-name="ncommaaccent" unicode="&#x146;" horiz-adv-x="552" 
d="M286 -73c26 0 48 -19 48 -58c0 -43 -28 -96 -72 -136l-28 22c30 36 45 69 45 99c0 29 -14 45 -34 50v8c10 8 26 15 41 15zM30 0v47h79v329h-79v48h136v-66c49 46 108 77 170 77c76 0 124 -47 124 -138v-250h79v-47h-216v47h79v243c0 57 -20 96 -81 96
c-59 0 -113 -37 -154 -74v-265h79v-47h-216z" />
    <glyph glyph-name="ncaron" unicode="&#x148;" horiz-adv-x="552" 
d="M30 0v47h79v329h-79v48h136v-66c49 46 108 77 170 77c76 0 124 -47 124 -138v-250h79v-47h-216v47h79v243c0 57 -20 96 -81 96c-59 0 -113 -37 -154 -74v-265h79v-47h-216zM259 511l-134 128l16 19l136 -88l135 88l17 -19l-134 -128h-36z" />
    <glyph glyph-name="napostrophe" unicode="&#x149;" horiz-adv-x="552" 
d="M97 680c26 0 48 -19 48 -57c0 -44 -28 -97 -71 -136l-29 22c30 36 45 69 45 99c0 28 -13 44 -34 50v7c10 9 26 15 41 15zM30 0v47h79v329h-79v48h136v-66c49 46 108 77 170 77c76 0 124 -47 124 -138v-250h79v-47h-216v47h79v243c0 57 -20 96 -81 96
c-59 0 -113 -37 -154 -74v-265h79v-47h-216z" />
    <glyph glyph-name="eng" unicode="&#x14b;" horiz-adv-x="525" 
d="M338 -218l-20 38c53 29 84 61 84 112v358c0 57 -20 96 -81 96c-59 0 -113 -37 -154 -74v-265h79v-47h-216v47h79v329h-79v48h136v-66c49 46 108 77 170 77c76 0 124 -47 124 -138v-367c0 -81 -54 -122 -122 -148z" />
    <glyph glyph-name="ograve" unicode="&#xf2;" horiz-adv-x="494" 
d="M247 -11c-121 0 -208 83 -208 223c0 139 87 223 208 223c122 0 209 -84 209 -223c0 -140 -87 -223 -209 -223zM247 36c93 0 149 69 149 176s-56 175 -149 175c-92 0 -149 -68 -149 -175s57 -176 149 -176zM294 506l-175 122l39 50l156 -148z" />
    <glyph glyph-name="oacute" unicode="&#xf3;" horiz-adv-x="494" 
d="M247 -11c-121 0 -208 83 -208 223c0 139 87 223 208 223c122 0 209 -84 209 -223c0 -140 -87 -223 -209 -223zM247 36c93 0 149 69 149 176s-56 175 -149 175c-92 0 -149 -68 -149 -175s57 -176 149 -176zM186 506l-20 24l156 148l39 -50z" />
    <glyph glyph-name="ocircumflex" unicode="&#xf4;" horiz-adv-x="494" 
d="M247 -11c-121 0 -208 83 -208 223c0 139 87 223 208 223c122 0 209 -84 209 -223c0 -140 -87 -223 -209 -223zM247 36c93 0 149 69 149 176s-56 175 -149 175c-92 0 -149 -68 -149 -175s57 -176 149 -176zM112 505l-17 20l134 127h36l134 -127l-16 -20l-136 89z" />
    <glyph glyph-name="otilde" unicode="&#xf5;" horiz-adv-x="494" 
d="M247 -11c-121 0 -208 83 -208 223c0 139 87 223 208 223c122 0 209 -84 209 -223c0 -140 -87 -223 -209 -223zM247 36c93 0 149 69 149 176s-56 175 -149 175c-92 0 -149 -68 -149 -175s57 -176 149 -176zM109 515l-27 13c17 39 40 92 92 92c51 0 94 -55 139 -55
c25 0 42 18 62 56l26 -14c-17 -38 -42 -93 -92 -93c-52 0 -96 56 -138 56c-24 0 -42 -16 -62 -55z" />
    <glyph glyph-name="odieresis" unicode="&#xf6;" horiz-adv-x="494" 
d="M247 -11c-121 0 -208 83 -208 223c0 139 87 223 208 223c122 0 209 -84 209 -223c0 -140 -87 -223 -209 -223zM247 36c93 0 149 69 149 176s-56 175 -149 175c-92 0 -149 -68 -149 -175s57 -176 149 -176zM162 517c-23 0 -40 18 -40 41c0 22 17 40 40 40s41 -18 41 -40
c0 -23 -18 -41 -41 -41zM332 517c-22 0 -40 18 -40 41c0 22 18 40 40 40c23 0 41 -18 41 -40c0 -23 -18 -41 -41 -41z" />
    <glyph glyph-name="omacron" unicode="&#x14d;" horiz-adv-x="494" 
d="M247 -11c-121 0 -208 83 -208 223c0 139 87 223 208 223c122 0 209 -84 209 -223c0 -140 -87 -223 -209 -223zM247 36c93 0 149 69 149 176s-56 175 -149 175c-92 0 -149 -68 -149 -175s57 -176 149 -176zM119 527v46h257v-46h-257z" />
    <glyph glyph-name="obreve" unicode="&#x14f;" horiz-adv-x="494" 
d="M247 -11c-121 0 -208 83 -208 223c0 139 87 223 208 223c122 0 209 -84 209 -223c0 -140 -87 -223 -209 -223zM247 36c93 0 149 69 149 176s-56 175 -149 175c-92 0 -149 -68 -149 -175s57 -176 149 -176zM247 512c-72 0 -128 44 -134 130h45c5 -58 42 -81 89 -81
c48 0 84 23 89 81h46c-7 -86 -62 -130 -135 -130z" />
    <glyph glyph-name="ohungarumlaut" unicode="&#x151;" horiz-adv-x="494" 
d="M247 -11c-121 0 -208 83 -208 223c0 139 87 223 208 223c122 0 209 -84 209 -223c0 -140 -87 -223 -209 -223zM247 36c93 0 149 69 149 176s-56 175 -149 175c-92 0 -149 -68 -149 -175s57 -176 149 -176zM142 506l-21 18l125 171l45 -42zM297 506l-21 18l125 171l45 -42
z" />
    <glyph glyph-name="oslash" unicode="&#xf8;" horiz-adv-x="497" 
d="M249 -11c-53 0 -99 15 -134 45l-42 -49l-22 18l43 50c-34 38 -54 92 -54 159c0 139 87 223 209 223c51 0 97 -17 133 -45l42 49l21 -19l-42 -50c34 -38 54 -92 54 -158c0 -140 -87 -223 -208 -223zM249 36c92 0 148 69 148 176c0 47 -11 86 -31 115l-217 -254
c25 -24 59 -37 100 -37zM249 387c-93 0 -149 -68 -149 -175c0 -47 10 -87 31 -116l217 254c-25 24 -59 37 -99 37z" />
    <glyph glyph-name="oslashacute" unicode="&#x1ff;" 
d="M249 -11c-53 0 -99 15 -134 45l-42 -49l-22 18l43 50c-34 38 -54 92 -54 159c0 139 87 223 209 223c51 0 97 -17 133 -45l42 49l21 -19l-42 -50c34 -38 54 -92 54 -158c0 -140 -87 -223 -208 -223zM249 36c92 0 148 69 148 176c0 47 -11 86 -31 115l-217 -254
c25 -24 59 -37 100 -37zM249 387c-93 0 -149 -68 -149 -175c0 -47 10 -87 31 -116l217 254c-25 24 -59 37 -99 37zM187 506l-19 24l155 148l40 -50z" />
    <glyph glyph-name="oe" unicode="&#x153;" horiz-adv-x="806" 
d="M243 -11c-117 0 -204 83 -204 223c0 139 86 223 205 223c84 0 146 -43 178 -117c27 72 86 117 168 117c131 0 181 -112 181 -209c0 -8 0 -19 -1 -28h-318c4 -100 59 -162 156 -162c53 0 103 18 143 43v-50c-37 -21 -86 -40 -147 -40c-94 0 -155 44 -183 115
c-31 -73 -95 -115 -178 -115zM246 36c92 0 147 69 147 176s-55 175 -147 175c-93 0 -148 -68 -148 -175s55 -176 148 -176zM589 389c-81 0 -129 -61 -137 -147h264c-4 73 -38 147 -127 147z" />
    <glyph glyph-name="rcommaaccent" unicode="&#x157;" horiz-adv-x="351" 
d="M138 -73c26 0 48 -19 48 -58c0 -43 -28 -96 -71 -136l-29 22c30 36 45 69 45 99c0 29 -13 45 -34 50v8c10 8 26 15 41 15zM30 0v47h79v329h-79v48h136v-89c32 48 84 100 162 100h10v-58h-11c-71 0 -123 -39 -160 -77v-253h88v-47h-225z" />
    <glyph glyph-name="rcaron" unicode="&#x159;" horiz-adv-x="351" 
d="M30 0v47h79v329h-79v48h136v-89c32 48 84 100 162 100h10v-58h-11c-71 0 -123 -39 -160 -77v-253h88v-47h-225zM175 511l-133 128l16 19l135 -88l136 88l16 -19l-134 -128h-36z" />
    <glyph glyph-name="racute" unicode="&#x155;" horiz-adv-x="351" 
d="M30 0v47h79v329h-79v48h136v-89c32 48 84 100 162 100h10v-58h-11c-71 0 -123 -39 -160 -77v-253h88v-47h-225zM139 506l-20 24l156 148l39 -50z" />
    <glyph glyph-name="sacute" unicode="&#x15b;" horiz-adv-x="396" 
d="M195 -11c-52 0 -111 11 -154 25v104h49v-68c29 -8 69 -15 104 -15c61 0 110 20 110 69c0 110 -255 57 -255 213c0 72 54 118 156 118c48 0 100 -11 136 -22v-104h-50v69c-24 6 -58 11 -86 11c-66 0 -101 -27 -101 -68c0 -112 255 -55 255 -214c0 -75 -60 -118 -164 -118z
M145 506l-19 24l155 148l40 -50z" />
    <glyph glyph-name="scircumflex" unicode="&#x15d;" horiz-adv-x="396" 
d="M195 -11c-52 0 -111 11 -154 25v104h49v-68c29 -8 69 -15 104 -15c61 0 110 20 110 69c0 110 -255 57 -255 213c0 72 54 118 156 118c48 0 100 -11 136 -22v-104h-50v69c-24 6 -58 11 -86 11c-66 0 -101 -27 -101 -68c0 -112 255 -55 255 -214c0 -75 -60 -118 -164 -118z
M70 505l-16 20l133 127h37l134 -127l-17 -20l-135 89z" />
    <glyph glyph-name="scedilla" unicode="&#x15f;" horiz-adv-x="396" 
d="M160 -193c-17 0 -37 2 -52 5l10 37c12 -1 26 -3 41 -3c34 0 73 7 73 42c0 36 -44 41 -83 41v19l21 42c-45 3 -93 12 -129 24v104h49v-68c29 -8 69 -15 104 -15c61 0 110 20 110 69c0 110 -255 57 -255 213c0 72 54 118 156 118c48 0 100 -11 136 -22v-104h-50v69
c-24 6 -58 11 -86 11c-66 0 -101 -27 -101 -68c0 -112 255 -55 255 -214c0 -72 -55 -113 -149 -118l-11 -29c39 -3 86 -22 86 -73c0 -58 -60 -80 -125 -80z" />
    <glyph glyph-name="scommaaccent" unicode="&#x219;" horiz-adv-x="396" 
d="M205 -78c26 0 48 -19 48 -57c0 -44 -28 -97 -72 -136l-28 22c30 36 45 69 45 98s-14 45 -34 51v7c10 9 26 15 41 15zM195 -11c-52 0 -111 11 -154 25v104h49v-68c29 -8 69 -15 104 -15c61 0 110 20 110 69c0 110 -255 57 -255 213c0 72 54 118 156 118
c48 0 100 -11 136 -22v-104h-50v69c-24 6 -58 11 -86 11c-66 0 -101 -27 -101 -68c0 -112 255 -55 255 -214c0 -75 -60 -118 -164 -118z" />
    <glyph glyph-name="scaron" unicode="&#x161;" horiz-adv-x="396" 
d="M195 -11c-52 0 -111 11 -154 25v104h49v-68c29 -8 69 -15 104 -15c61 0 110 20 110 69c0 110 -255 57 -255 213c0 72 54 118 156 118c48 0 100 -11 136 -22v-104h-50v69c-24 6 -58 11 -86 11c-66 0 -101 -27 -101 -68c0 -112 255 -55 255 -214c0 -75 -60 -118 -164 -118z
M186 511l-134 128l17 19l135 -88l136 88l16 -19l-134 -128h-36z" />
    <glyph glyph-name="tcommaaccent" unicode="&#x163;" horiz-adv-x="305" 
d="M187 -73c26 0 48 -19 48 -58c0 -43 -28 -96 -71 -136l-28 22c29 36 44 69 44 99c0 29 -13 45 -34 50v8c10 8 26 15 41 15zM213 -11c-47 0 -121 15 -121 122v265h-74v48h74v110h58v-110h137v-48h-137v-262c0 -55 24 -78 77 -78c26 0 50 5 65 11v-45
c-26 -9 -47 -13 -79 -13z" />
    <glyph glyph-name="uni021B" unicode="&#x21b;" horiz-adv-x="305" 
d="M187 -73c26 0 48 -19 48 -58c0 -43 -28 -96 -71 -136l-28 22c29 36 44 69 44 99c0 29 -13 45 -34 50v8c10 8 26 15 41 15zM213 -11c-47 0 -121 15 -121 122v265h-74v48h74v110h58v-110h137v-48h-137v-262c0 -55 24 -78 77 -78c26 0 50 5 65 11v-45
c-26 -9 -47 -13 -79 -13z" />
    <glyph glyph-name="tcaron" unicode="&#x165;" horiz-adv-x="305" 
d="M267 684c26 0 47 -19 47 -58c0 -43 -27 -97 -71 -136l-28 22c30 36 44 69 44 99c0 29 -13 45 -33 50v8c10 8 25 15 41 15zM213 -11c-47 0 -121 15 -121 122v265h-74v48h74v110h58v-110h137v-48h-137v-262c0 -55 24 -78 77 -78c26 0 50 5 65 11v-45
c-26 -9 -47 -13 -79 -13z" />
    <glyph glyph-name="tbar" unicode="&#x167;" horiz-adv-x="308" 
d="M28 212v43h65v121h-73v48h73v110h58v-110h137v-48h-137v-121h120v-43h-120v-98c0 -55 24 -78 78 -78c26 0 49 5 64 11v-45c-26 -9 -47 -13 -79 -13c-47 0 -121 15 -121 122v101h-65z" />
    <glyph glyph-name="thorn" unicode="&#xfe;" 
d="M-11 -199v48h79v811h-79v47h137v-342c34 38 82 70 148 70c119 0 183 -101 183 -222c0 -124 -68 -224 -192 -224c-61 0 -105 24 -139 57v-197h92v-48h-229zM262 387c-62 0 -104 -34 -136 -68v-225c30 -30 71 -58 128 -58c96 0 144 77 144 177c0 91 -41 174 -136 174z" />
    <glyph glyph-name="ugrave" unicode="&#xf9;" horiz-adv-x="537" 
d="M215 -11c-76 0 -124 46 -124 137v250h-80v48h137v-290c0 -58 21 -97 81 -97c59 0 113 37 155 74v265h-82v48h139v-377h80v-47h-136v64c-49 -44 -109 -75 -170 -75zM287 506l-176 122l40 50l155 -148z" />
    <glyph glyph-name="uacute" unicode="&#xfa;" horiz-adv-x="537" 
d="M215 -11c-76 0 -124 46 -124 137v250h-80v48h137v-290c0 -58 21 -97 81 -97c59 0 113 37 155 74v265h-82v48h139v-377h80v-47h-136v64c-49 -44 -109 -75 -170 -75zM201 506l-19 24l155 148l40 -50z" />
    <glyph glyph-name="ucircumflex" unicode="&#xfb;" horiz-adv-x="537" 
d="M215 -11c-76 0 -124 46 -124 137v250h-80v48h137v-290c0 -58 21 -97 81 -97c59 0 113 37 155 74v265h-82v48h139v-377h80v-47h-136v64c-49 -44 -109 -75 -170 -75zM114 505l-17 20l134 127h36l134 -127l-16 -20l-136 89z" />
    <glyph glyph-name="udieresis" unicode="&#xfc;" horiz-adv-x="537" 
d="M215 -11c-76 0 -124 46 -124 137v250h-80v48h137v-290c0 -58 21 -97 81 -97c59 0 113 37 155 74v265h-82v48h139v-377h80v-47h-136v64c-49 -44 -109 -75 -170 -75zM164 517c-23 0 -41 18 -41 41c0 22 18 40 41 40c22 0 40 -18 40 -40c0 -23 -18 -41 -40 -41zM334 517
c-23 0 -41 18 -41 41c0 22 18 40 41 40s40 -18 40 -40c0 -23 -17 -41 -40 -41z" />
    <glyph glyph-name="utilde" unicode="&#x169;" horiz-adv-x="537" 
d="M215 -11c-76 0 -124 46 -124 137v250h-80v48h137v-290c0 -58 21 -97 81 -97c59 0 113 37 155 74v265h-82v48h139v-377h80v-47h-136v64c-49 -44 -109 -75 -170 -75zM116 515l-27 13c17 39 41 92 92 92s94 -55 139 -55c26 0 42 18 62 56l27 -14c-18 -38 -43 -93 -93 -93
c-51 0 -96 56 -138 56c-24 0 -42 -16 -62 -55z" />
    <glyph glyph-name="umacron" unicode="&#x16b;" horiz-adv-x="537" 
d="M215 -11c-76 0 -124 46 -124 137v250h-80v48h137v-290c0 -58 21 -97 81 -97c59 0 113 37 155 74v265h-82v48h139v-377h80v-47h-136v64c-49 -44 -109 -75 -170 -75zM114 527v46h256v-46h-256z" />
    <glyph glyph-name="ubreve" unicode="&#x16d;" horiz-adv-x="537" 
d="M215 -11c-76 0 -124 46 -124 137v250h-80v48h137v-290c0 -58 21 -97 81 -97c59 0 113 37 155 74v265h-82v48h139v-377h80v-47h-136v64c-49 -44 -109 -75 -170 -75zM246 512c-72 0 -128 44 -134 130h45c6 -58 42 -81 89 -81c48 0 84 23 90 81h45
c-7 -86 -62 -130 -135 -130z" />
    <glyph glyph-name="uring" unicode="&#x16f;" horiz-adv-x="537" 
d="M215 -11c-76 0 -124 46 -124 137v250h-80v48h137v-290c0 -58 21 -97 81 -97c59 0 113 37 155 74v265h-82v48h139v-377h80v-47h-136v64c-49 -44 -109 -75 -170 -75zM247 503c-67 0 -108 46 -108 102s41 102 108 102s107 -46 107 -102s-40 -102 -107 -102zM247 539
c40 0 60 32 60 66s-20 66 -60 66c-41 0 -61 -32 -61 -66s20 -66 61 -66z" />
    <glyph glyph-name="uhungarumlaut" unicode="&#x171;" horiz-adv-x="537" 
d="M215 -11c-76 0 -124 46 -124 137v250h-80v48h137v-290c0 -58 21 -97 81 -97c59 0 113 37 155 74v265h-82v48h139v-377h80v-47h-136v64c-49 -44 -109 -75 -170 -75zM140 506l-21 18l126 171l44 -42zM295 506l-21 18l125 171l45 -42z" />
    <glyph glyph-name="uogonek" unicode="&#x173;" horiz-adv-x="537" 
d="M458 -193c-49 0 -89 22 -89 75c0 52 39 93 76 118h-60v64c-49 -44 -109 -75 -170 -75c-76 0 -124 46 -124 137v250h-80v48h137v-290c0 -58 21 -97 81 -97c59 0 113 37 155 74v265h-82v48h139v-377h80v-47h-25c-25 -18 -74 -60 -74 -109c0 -32 22 -44 50 -44
c24 0 46 7 60 14l4 -37c-18 -8 -46 -17 -78 -17z" />
    <glyph glyph-name="wcircumflex" unicode="&#x175;" horiz-adv-x="731" 
d="M197 0l-125 377h-62v47h201v-47h-83l94 -298l119 345h51l119 -346l94 299h-83v47h199v-47h-64l-122 -377h-47l-123 342l-120 -342h-48zM230 505l-16 20l134 127h36l134 -127l-17 -20l-135 89z" />
    <glyph glyph-name="yacute" unicode="&#xfd;" horiz-adv-x="513" 
d="M131 -210c-38 0 -69 13 -96 29l17 42c21 -13 43 -24 73 -24c41 0 71 23 88 67l35 96h-46l-126 376h-63v48h203v-47h-80l117 -364l134 364h-80v47h201v-48h-63l-183 -488c-22 -60 -67 -98 -131 -98zM212 506l-20 24l156 148l39 -50z" />
    <glyph glyph-name="ydieresis" unicode="&#xff;" horiz-adv-x="513" 
d="M131 -210c-38 0 -69 13 -96 29l17 42c21 -13 43 -24 73 -24c41 0 71 23 88 67l35 96h-46l-126 376h-63v48h203v-47h-80l117 -364l134 364h-80v47h201v-48h-63l-183 -488c-22 -60 -67 -98 -131 -98zM177 517c-23 0 -40 18 -40 41c0 22 17 40 40 40s41 -18 41 -40
c0 -23 -18 -41 -41 -41zM347 517c-22 0 -40 18 -40 41c0 22 18 40 40 40c23 0 41 -18 41 -40c0 -23 -18 -41 -41 -41z" />
    <glyph glyph-name="ycircumflex" unicode="&#x177;" horiz-adv-x="513" 
d="M131 -210c-38 0 -69 13 -96 29l17 42c21 -13 43 -24 73 -24c41 0 71 23 88 67l35 96h-46l-126 376h-63v48h203v-47h-80l117 -364l134 364h-80v47h201v-48h-63l-183 -488c-22 -60 -67 -98 -131 -98zM126 505l-16 20l133 127h37l134 -127l-17 -20l-135 89z" />
    <glyph glyph-name="zcaron" unicode="&#x17e;" horiz-adv-x="421" 
d="M40 0v39l264 341h-211v-83h-51v127h333v-38l-265 -341h221v89h50v-134h-341zM193 511l-134 128l17 19l135 -88l136 88l16 -19l-134 -128h-36z" />
    <glyph glyph-name="zacute" unicode="&#x17a;" horiz-adv-x="421" 
d="M40 0v39l264 341h-211v-83h-51v127h333v-38l-265 -341h221v89h50v-134h-341zM156 506l-19 24l155 148l40 -50z" />
    <glyph glyph-name="zdotaccent" unicode="&#x17c;" horiz-adv-x="421" 
d="M40 0v39l264 341h-211v-83h-51v127h333v-38l-265 -341h221v89h50v-134h-341zM211 518c-24 0 -44 20 -44 44s20 44 44 44s44 -20 44 -44s-20 -44 -44 -44z" />
    <glyph glyph-name="longs" unicode="&#x17f;" horiz-adv-x="277" 
d="M34 0v47h81v329h-90v48h90v158c0 95 57 136 144 136c24 0 50 -3 72 -8v-45c-18 3 -40 6 -60 6c-67 0 -99 -28 -99 -91v-533h97v-47h-235z" />
    <glyph glyph-name="germandbls" unicode="&#xdf;" horiz-adv-x="538" 
d="M33 0v47h81v329h-89v48h89v111c0 102 60 183 179 183c90 0 165 -45 165 -142c0 -102 -85 -136 -85 -202c0 -84 130 -125 130 -251c0 -90 -66 -131 -153 -131c-33 0 -68 6 -100 16v48c28 -9 61 -17 94 -17c52 0 102 21 102 86c0 103 -130 136 -130 245c0 87 85 114 85 204
c0 62 -42 97 -107 97c-94 0 -122 -71 -122 -135v-536h-139z" />
    <glyph glyph-name="dieresis" unicode="&#xa8;" horiz-adv-x="395" 
d="M116 517c-23 0 -41 18 -41 41c0 22 18 40 41 40s40 -18 40 -40c0 -23 -17 -41 -40 -41zM286 517c-23 0 -40 18 -40 41c0 22 17 40 40 40s41 -18 41 -40c0 -23 -18 -41 -41 -41z" />
    <glyph glyph-name="grave" unicode="`" horiz-adv-x="316" 
d="M238 506l-176 122l40 50l156 -148z" />
    <glyph glyph-name="tilde" unicode="&#x2dc;" horiz-adv-x="461" 
d="M97 515l-27 13c17 39 41 92 92 92s94 -55 139 -55c26 0 42 18 62 56l27 -14c-17 -38 -43 -93 -93 -93c-51 0 -96 56 -138 56c-24 0 -41 -16 -62 -55z" />
    <glyph glyph-name="circumflex" unicode="&#x2c6;" horiz-adv-x="434" 
d="M81 505l-16 20l134 127h36l134 -127l-17 -20l-135 89z" />
    <glyph glyph-name="acute" unicode="&#xb4;" horiz-adv-x="324" 
d="M77 506l-19 24l155 148l40 -50z" />
    <glyph glyph-name="ring" unicode="&#x2da;" horiz-adv-x="361" 
d="M183 503c-67 0 -107 46 -107 102s40 102 107 102s108 -46 108 -102s-41 -102 -108 -102zM183 539c41 0 61 32 61 66s-20 66 -61 66c-40 0 -61 -32 -61 -66s21 -66 61 -66z" />
    <glyph glyph-name="cedilla" unicode="&#xb8;" horiz-adv-x="293" 
d="M105 -193c-17 0 -37 2 -51 5l9 37c12 -1 26 -3 41 -3c35 0 74 7 74 42c0 36 -45 41 -83 41v19l38 77l33 -11l-22 -54c39 -3 86 -22 86 -73c0 -58 -59 -80 -125 -80z" />
    <glyph glyph-name="caron" unicode="&#x2c7;" horiz-adv-x="442" 
d="M198 511l-133 128l16 19l136 -88l135 88l17 -19l-134 -128h-37z" />
    <glyph glyph-name="ogonek" unicode="&#x2db;" horiz-adv-x="275" 
d="M149 -193c-49 0 -90 22 -90 75c0 69 69 115 114 140l23 -15c-28 -18 -84 -64 -84 -116c0 -32 22 -44 51 -44c23 0 45 7 60 14l3 -37c-18 -8 -46 -17 -77 -17z" />
    <glyph glyph-name="breve" unicode="&#x2d8;" horiz-adv-x="368" 
d="M180 512c-72 0 -128 44 -135 130h46c5 -58 41 -81 89 -81s84 23 89 81h46c-7 -86 -63 -130 -135 -130z" />
    <glyph glyph-name="hungarumlaut" unicode="&#x2dd;" horiz-adv-x="462" 
d="M86 506l-21 18l125 171l45 -42zM241 506l-22 18l126 171l45 -42z" />
    <glyph glyph-name="dotaccent" unicode="&#x2d9;" horiz-adv-x="241" 
d="M120 518c-25 0 -44 20 -44 44s19 44 44 44c24 0 44 -20 44 -44s-20 -44 -44 -44z" />
    <glyph glyph-name="macron" unicode="&#xaf;" horiz-adv-x="403" 
d="M71 527v46h257v-46h-257z" />
    <glyph glyph-name="a.alt" horiz-adv-x="518" 
d="M226 -11c-122 0 -187 101 -187 222c0 125 70 224 192 224c66 0 110 -29 141 -59v48h55v-377h79v-47h-133v56c-35 -38 -82 -67 -147 -67zM238 36c59 0 100 31 132 63v229c-33 30 -71 59 -129 59c-92 0 -143 -73 -143 -175c0 -92 43 -176 140 -176z" />
    <glyph glyph-name="agrave.alt" horiz-adv-x="518" 
d="M226 -11c-122 0 -187 101 -187 222c0 125 70 224 192 224c66 0 110 -29 141 -59v48h55v-377h79v-47h-133v56c-35 -38 -82 -67 -147 -67zM238 36c59 0 100 31 132 63v229c-33 30 -71 59 -129 59c-92 0 -143 -73 -143 -175c0 -92 43 -176 140 -176zM309 506l-176 122l40 50
l155 -148z" />
    <glyph glyph-name="aacute.alt" horiz-adv-x="518" 
d="M226 -11c-122 0 -187 101 -187 222c0 125 70 224 192 224c66 0 110 -29 141 -59v48h55v-377h79v-47h-133v56c-35 -38 -82 -67 -147 -67zM238 36c59 0 100 31 132 63v229c-33 30 -71 59 -129 59c-92 0 -143 -73 -143 -175c0 -92 43 -176 140 -176zM193 506l-20 24l156 148
l40 -50z" />
    <glyph glyph-name="acircumflex.alt" horiz-adv-x="518" 
d="M226 -11c-122 0 -187 101 -187 222c0 125 70 224 192 224c66 0 110 -29 141 -59v48h55v-377h79v-47h-133v56c-35 -38 -82 -67 -147 -67zM238 36c59 0 100 31 132 63v229c-33 30 -71 59 -129 59c-92 0 -143 -73 -143 -175c0 -92 43 -176 140 -176zM114 505l-16 20l133 127
h36l134 -127l-16 -20l-136 89z" />
    <glyph glyph-name="atilde.alt" horiz-adv-x="518" 
d="M226 -11c-122 0 -187 101 -187 222c0 125 70 224 192 224c66 0 110 -29 141 -59v48h55v-377h79v-47h-133v56c-35 -38 -82 -67 -147 -67zM238 36c59 0 100 31 132 63v229c-33 30 -71 59 -129 59c-92 0 -143 -73 -143 -175c0 -92 43 -176 140 -176zM113 515l-27 13
c17 39 41 92 92 92s94 -55 139 -55c26 0 42 18 62 56l27 -14c-17 -38 -43 -93 -93 -93c-51 0 -96 56 -138 56c-24 0 -41 -16 -62 -55z" />
    <glyph glyph-name="adieresis.alt" horiz-adv-x="518" 
d="M226 -11c-122 0 -187 101 -187 222c0 125 70 224 192 224c66 0 110 -29 141 -59v48h55v-377h79v-47h-133v56c-35 -38 -82 -67 -147 -67zM238 36c59 0 100 31 132 63v229c-33 30 -71 59 -129 59c-92 0 -143 -73 -143 -175c0 -92 43 -176 140 -176zM161 517
c-23 0 -41 18 -41 41c0 22 18 40 41 40c22 0 40 -18 40 -40c0 -23 -18 -41 -40 -41zM331 517c-23 0 -41 18 -41 41c0 22 18 40 41 40s40 -18 40 -40c0 -23 -17 -41 -40 -41z" />
    <glyph glyph-name="aring.alt" horiz-adv-x="518" 
d="M226 -11c-122 0 -187 101 -187 222c0 125 70 224 192 224c66 0 110 -29 141 -59v48h55v-377h79v-47h-133v56c-35 -38 -82 -67 -147 -67zM238 36c59 0 100 31 132 63v229c-33 30 -71 59 -129 59c-92 0 -143 -73 -143 -175c0 -92 43 -176 140 -176zM244 503
c-67 0 -108 46 -108 102s41 102 108 102s107 -46 107 -102s-40 -102 -107 -102zM244 539c41 0 61 32 61 66s-20 66 -61 66s-61 -32 -61 -66s20 -66 61 -66z" />
    <glyph glyph-name="amacron.alt" horiz-adv-x="518" 
d="M226 -11c-122 0 -187 101 -187 222c0 125 70 224 192 224c66 0 110 -29 141 -59v48h55v-377h79v-47h-133v56c-35 -38 -82 -67 -147 -67zM238 36c59 0 100 31 132 63v229c-33 30 -71 59 -129 59c-92 0 -143 -73 -143 -175c0 -92 43 -176 140 -176zM115 527v46h257v-46
h-257z" />
    <glyph glyph-name="abreve.alt" horiz-adv-x="518" 
d="M226 -11c-122 0 -187 101 -187 222c0 125 70 224 192 224c66 0 110 -29 141 -59v48h55v-377h79v-47h-133v56c-35 -38 -82 -67 -147 -67zM238 36c59 0 100 31 132 63v229c-33 30 -71 59 -129 59c-92 0 -143 -73 -143 -175c0 -92 43 -176 140 -176zM242 512
c-73 0 -128 44 -135 130h45c6 -58 42 -81 90 -81c47 0 83 23 89 81h45c-7 -86 -62 -130 -134 -130z" />
    <glyph glyph-name="aogonek.alt" horiz-adv-x="518" 
d="M444 -193c-49 0 -90 22 -90 75c0 52 40 93 77 118h-58v56c-35 -38 -82 -67 -147 -67c-122 0 -187 101 -187 222c0 125 70 224 192 224c66 0 110 -29 141 -59v48h55v-377h79v-47h-24c-25 -18 -75 -60 -75 -109c0 -32 22 -44 51 -44c23 0 46 7 60 14l3 -37
c-17 -8 -46 -17 -77 -17zM238 36c59 0 100 31 132 63v229c-33 30 -71 59 -129 59c-92 0 -143 -73 -143 -175c0 -92 43 -176 140 -176z" />
    <glyph glyph-name="g.alt" horiz-adv-x="517" 
d="M243 -210c-54 0 -110 12 -154 29v48c39 -15 92 -30 146 -30c80 0 131 31 131 108v112c-33 -31 -78 -57 -138 -57c-110 0 -188 85 -188 218c0 136 82 217 192 217c65 0 108 -29 138 -58v47h126v-48h-72v-436c0 -103 -73 -150 -181 -150zM242 387c-88 0 -143 -64 -143 -167
c0 -100 51 -173 140 -173c54 0 97 28 127 56v229c-29 28 -68 55 -124 55z" />
    <glyph glyph-name="gcircumflex.alt" horiz-adv-x="517" 
d="M243 -210c-54 0 -110 12 -154 29v48c39 -15 92 -30 146 -30c80 0 131 31 131 108v112c-33 -31 -78 -57 -138 -57c-110 0 -188 85 -188 218c0 136 82 217 192 217c65 0 108 -29 138 -58v47h126v-48h-72v-436c0 -103 -73 -150 -181 -150zM242 387c-88 0 -143 -64 -143 -167
c0 -100 51 -173 140 -173c54 0 97 28 127 56v229c-29 28 -68 55 -124 55zM110 505l-16 20l133 127h37l134 -127l-17 -20l-135 89z" />
    <glyph glyph-name="gbreve.alt" horiz-adv-x="517" 
d="M243 -210c-54 0 -110 12 -154 29v48c39 -15 92 -30 146 -30c80 0 131 31 131 108v112c-33 -31 -78 -57 -138 -57c-110 0 -188 85 -188 218c0 136 82 217 192 217c65 0 108 -29 138 -58v47h126v-48h-72v-436c0 -103 -73 -150 -181 -150zM242 387c-88 0 -143 -64 -143 -167
c0 -100 51 -173 140 -173c54 0 97 28 127 56v229c-29 28 -68 55 -124 55zM243 512c-73 0 -128 44 -135 130h45c6 -58 42 -81 90 -81c47 0 83 23 89 81h45c-7 -86 -62 -130 -134 -130z" />
    <glyph glyph-name="gdotaccent.alt" horiz-adv-x="517" 
d="M243 -210c-54 0 -110 12 -154 29v48c39 -15 92 -30 146 -30c80 0 131 31 131 108v112c-33 -31 -78 -57 -138 -57c-110 0 -188 85 -188 218c0 136 82 217 192 217c65 0 108 -29 138 -58v47h126v-48h-72v-436c0 -103 -73 -150 -181 -150zM242 387c-88 0 -143 -64 -143 -167
c0 -100 51 -173 140 -173c54 0 97 28 127 56v229c-29 28 -68 55 -124 55zM241 518c-24 0 -44 20 -44 44s20 44 44 44c25 0 44 -20 44 -44s-19 -44 -44 -44z" />
    <glyph glyph-name="uni0123.alt" horiz-adv-x="517" 
d="M243 504c-26 0 -48 19 -48 58c0 43 28 97 72 136l28 -22c-30 -36 -45 -69 -45 -99c0 -28 14 -45 34 -50v-8c-10 -8 -26 -15 -41 -15zM243 -210c-54 0 -110 12 -154 29v48c39 -15 92 -30 146 -30c80 0 131 31 131 108v112c-33 -31 -78 -57 -138 -57
c-110 0 -188 85 -188 218c0 136 82 217 192 217c65 0 108 -29 138 -58v47h126v-48h-72v-436c0 -103 -73 -150 -181 -150zM242 387c-88 0 -143 -64 -143 -167c0 -100 51 -173 140 -173c54 0 97 28 127 56v229c-29 28 -68 55 -124 55z" />
    <glyph glyph-name="ampersand.alt" horiz-adv-x="530" 
d="M245 -10c-109 0 -200 56 -200 168c0 79 45 134 122 157c-72 27 -105 82 -105 146c0 96 77 156 203 156c54 0 116 -11 167 -27v-115h-53v80c-28 7 -73 14 -113 14c-85 0 -146 -33 -146 -113c0 -74 55 -119 142 -119h245v-45h-59v-125c0 -98 -74 -177 -203 -177zM245 38
c102 0 148 64 148 129v125h-128c-96 0 -162 -44 -162 -131c0 -83 62 -123 142 -123z" />
    <glyph glyph-name="Agrave" unicode="&#xc0;" horiz-adv-x="679" 
d="M-4 0v50h85l206 509h-91v50h180l225 -559h86v-50h-248v50h100l-61 151h-277l-60 -151h100v-50h-245zM221 252h238l-119 299zM385 671l-185 128l41 52l164 -156z" />
    <glyph glyph-name="Aacute" unicode="&#xc1;" horiz-adv-x="679" 
d="M-4 0v50h85l206 509h-91v50h180l225 -559h86v-50h-248v50h100l-61 151h-277l-60 -151h100v-50h-245zM221 252h238l-119 299zM258 671l-20 24l164 156l41 -52z" />
    <glyph glyph-name="Acircumflex" unicode="&#xc2;" horiz-adv-x="679" 
d="M-4 0v50h85l206 509h-91v50h180l225 -559h86v-50h-248v50h100l-61 151h-277l-60 -151h100v-50h-245zM221 252h238l-119 299zM181 671l-17 21l141 134h37l141 -134l-17 -21l-143 94z" />
    <glyph glyph-name="Atilde" unicode="&#xc3;" horiz-adv-x="679" 
d="M-4 0v50h85l206 509h-91v50h180l225 -559h86v-50h-248v50h100l-61 151h-277l-60 -151h100v-50h-245zM221 252h238l-119 299zM182 673l-26 13c17 41 39 99 94 99c54 0 100 -56 147 -56c28 0 46 19 66 60l27 -14c-18 -41 -43 -99 -97 -99c-53 0 -102 56 -145 56
c-25 0 -47 -21 -66 -59z" />
    <glyph glyph-name="Adieresis" unicode="&#xc4;" horiz-adv-x="679" 
d="M-4 0v50h85l206 509h-91v50h180l225 -559h86v-50h-248v50h100l-61 151h-277l-60 -151h100v-50h-245zM221 252h238l-119 299zM240 677c-23 0 -42 19 -42 42c0 24 19 42 42 42s41 -18 41 -42c0 -23 -18 -42 -41 -42zM410 677c-24 0 -42 19 -42 42c0 24 18 42 42 42
c23 0 42 -18 42 -42c0 -23 -19 -42 -42 -42z" />
    <glyph glyph-name="Aring" unicode="&#xc5;" horiz-adv-x="679" 
d="M-4 0v50h85l206 509h-91v50h180l225 -559h86v-50h-248v50h100l-61 151h-277l-60 -151h100v-50h-245zM221 252h238l-119 299zM325 663c-67 0 -107 46 -107 102s40 102 107 102s108 -46 108 -102s-41 -102 -108 -102zM325 699c41 0 61 32 61 66s-20 66 -61 66
c-40 0 -61 -32 -61 -66s21 -66 61 -66z" />
    <glyph glyph-name="Amacron" unicode="&#x100;" horiz-adv-x="679" 
d="M-4 0v50h85l206 509h-91v50h180l225 -559h86v-50h-248v50h100l-61 151h-277l-60 -151h100v-50h-245zM221 252h238l-119 299zM193 679v47h257v-47h-257z" />
    <glyph glyph-name="Abreve" unicode="&#x102;" horiz-adv-x="679" 
d="M-4 0v50h85l206 509h-91v50h180l225 -559h86v-50h-248v50h100l-61 151h-277l-60 -151h100v-50h-245zM221 252h238l-119 299zM327 666c-76 0 -134 46 -141 137h47c6 -62 44 -87 94 -87c49 0 88 25 94 87h47c-7 -91 -66 -137 -141 -137z" />
    <glyph glyph-name="Aogonek" unicode="&#x104;" horiz-adv-x="679" 
d="M596 -200c-53 0 -95 23 -95 79c0 53 39 94 77 121h-139v50h100l-61 151h-277l-60 -151h100v-50h-245v50h85l206 509h-91v50h180l225 -559h86v-50h-56c-32 -23 -75 -65 -75 -112c0 -34 23 -47 54 -47c24 0 48 8 63 15l3 -38c-18 -9 -48 -18 -80 -18zM221 252h238l-119 299
z" />
    <glyph glyph-name="AE" unicode="&#xc6;" horiz-adv-x="918" 
d="M-7 0v51h80l343 508h-79v50h528v-162h-56v112h-257v-227h261v-50h-261v-232h259v112h56v-162h-469v50h96v152h-254l-102 -152h84v-50h-229zM478 559l-205 -307h221v307h-16z" />
    <glyph glyph-name="AEacute" unicode="&#x1fc;" horiz-adv-x="918" 
d="M-7 0v51h80l343 508h-79v50h528v-162h-56v112h-257v-227h261v-50h-261v-232h259v112h56v-162h-469v50h96v152h-254l-102 -152h84v-50h-229zM478 559l-205 -307h221v307h-16zM529 671l-20 24l164 156l41 -52z" />
    <glyph glyph-name="Ccedilla" unicode="&#xc7;" horiz-adv-x="615" 
d="M323 -193c-17 0 -37 2 -51 5l9 37c12 -1 26 -3 41 -3c35 0 74 7 74 42c0 36 -45 41 -83 41v19l20 41c-168 13 -291 125 -291 315c0 185 119 317 323 317c83 0 160 -22 209 -46v-144h-58v112c-39 16 -96 26 -148 26c-151 0 -264 -91 -264 -264c0 -182 126 -265 264 -265
c79 0 153 27 208 59v-57c-46 -27 -118 -52 -202 -54l-11 -28c38 -3 85 -22 85 -73c0 -58 -59 -80 -125 -80z" />
    <glyph glyph-name="Cacute" unicode="&#x106;" horiz-adv-x="616" 
d="M365 -12c-183 0 -321 116 -321 316c0 185 118 317 323 317c82 0 159 -22 208 -46v-144h-57v112c-40 16 -97 26 -148 26c-152 0 -264 -91 -264 -264c0 -182 125 -265 263 -265c79 0 154 27 208 59v-57c-47 -27 -123 -54 -212 -54zM285 675l-20 24l164 156l41 -52z" />
    <glyph glyph-name="Ccircumflex" unicode="&#x108;" horiz-adv-x="616" 
d="M365 -12c-183 0 -321 116 -321 316c0 185 118 317 323 317c82 0 159 -22 208 -46v-144h-57v112c-40 16 -97 26 -148 26c-152 0 -264 -91 -264 -264c0 -182 125 -265 263 -265c79 0 154 27 208 59v-57c-47 -27 -123 -54 -212 -54zM212 674l-17 21l140 134h38l141 -134
l-17 -21l-143 94z" />
    <glyph glyph-name="Cdotaccent" unicode="&#x10a;" horiz-adv-x="616" 
d="M365 -12c-183 0 -321 116 -321 316c0 185 118 317 323 317c82 0 159 -22 208 -46v-144h-57v112c-40 16 -97 26 -148 26c-152 0 -264 -91 -264 -264c0 -182 125 -265 263 -265c79 0 154 27 208 59v-57c-47 -27 -123 -54 -212 -54zM355 677c-25 0 -45 21 -45 45
c0 25 20 45 45 45s45 -20 45 -45c0 -24 -20 -45 -45 -45z" />
    <glyph glyph-name="Ccaron" unicode="&#x10c;" horiz-adv-x="616" 
d="M365 -12c-183 0 -321 116 -321 316c0 185 118 317 323 317c82 0 159 -22 208 -46v-144h-57v112c-40 16 -97 26 -148 26c-152 0 -264 -91 -264 -264c0 -182 125 -265 263 -265c79 0 154 27 208 59v-57c-47 -27 -123 -54 -212 -54zM335 677l-140 135l17 20l142 -94l143 94
l17 -20l-141 -135h-38z" />
    <glyph glyph-name="Dcaron" unicode="&#x10e;" horiz-adv-x="675" 
d="M36 0v50h97v509h-97v50h274c177 0 320 -100 320 -305c0 -204 -143 -304 -320 -304h-274zM193 50h118c154 0 257 93 257 254c0 162 -103 255 -257 255h-118v-509zM310 676l-140 135l17 20l142 -94l143 94l17 -20l-141 -135h-38z" />
    <glyph glyph-name="Dcroat" unicode="&#x110;" horiz-adv-x="676" 
d="M46 282v50h88v227h-97v50h274c177 0 320 -100 320 -305c0 -204 -143 -304 -320 -304h-274v50h97v232h-88zM194 50h118c154 0 257 93 257 254c0 162 -103 255 -257 255h-118v-227h174v-50h-174v-232z" />
    <glyph glyph-name="Egrave" unicode="&#xc8;" horiz-adv-x="574" 
d="M36 0v50h97v509h-97v50h485v-164h-56v114h-272v-227h275v-50h-275v-232h274v114h56v-164h-487zM353 671l-185 128l41 52l164 -156z" />
    <glyph glyph-name="Eacute" unicode="&#xc9;" horiz-adv-x="574" 
d="M36 0v50h97v509h-97v50h485v-164h-56v114h-272v-227h275v-50h-275v-232h274v114h56v-164h-487zM243 671l-19 24l164 156l41 -52z" />
    <glyph glyph-name="Ecircumflex" unicode="&#xca;" horiz-adv-x="574" 
d="M36 0v50h97v509h-97v50h485v-164h-56v114h-272v-227h275v-50h-275v-232h274v114h56v-164h-487zM156 671l-17 21l141 134h38l141 -134l-17 -21l-143 94z" />
    <glyph glyph-name="Edieresis" unicode="&#xcb;" horiz-adv-x="574" 
d="M36 0v50h97v509h-97v50h485v-164h-56v114h-272v-227h275v-50h-275v-232h274v114h56v-164h-487zM219 677c-23 0 -42 19 -42 42c0 24 19 42 42 42s42 -18 42 -42c0 -23 -19 -42 -42 -42zM389 677c-24 0 -42 19 -42 42c0 24 18 42 42 42c23 0 42 -18 42 -42
c0 -23 -19 -42 -42 -42z" />
    <glyph glyph-name="Emacron" unicode="&#x112;" horiz-adv-x="574" 
d="M36 0v50h97v509h-97v50h485v-164h-56v114h-272v-227h275v-50h-275v-232h274v114h56v-164h-487zM176 679v47h256v-47h-256z" />
    <glyph glyph-name="Ebreve" unicode="&#x114;" horiz-adv-x="574" 
d="M36 0v50h97v509h-97v50h485v-164h-56v114h-272v-227h275v-50h-275v-232h274v114h56v-164h-487zM305 666c-76 0 -134 46 -141 137h47c6 -62 44 -87 94 -87c49 0 88 25 94 87h47c-7 -91 -66 -137 -141 -137z" />
    <glyph glyph-name="Edotaccent" unicode="&#x116;" horiz-adv-x="574" 
d="M36 0v50h97v509h-97v50h485v-164h-56v114h-272v-227h275v-50h-275v-232h274v114h56v-164h-487zM306 671c-25 0 -45 20 -45 45s20 45 45 45s45 -20 45 -45s-20 -45 -45 -45z" />
    <glyph glyph-name="Eogonek" unicode="&#x118;" horiz-adv-x="574" 
d="M36 0v50h97v509h-97v50h485v-164h-56v114h-272v-227h275v-50h-275v-232h274v114h56v-164h-28c-32 -23 -75 -65 -75 -112c0 -34 24 -47 54 -47c24 0 48 8 63 15l4 -38c-19 -9 -49 -18 -81 -18c-52 0 -95 23 -95 79c0 53 39 94 77 121h-406z" />
    <glyph glyph-name="Ecaron" unicode="&#x11a;" horiz-adv-x="574" 
d="M36 0v50h97v509h-97v50h485v-164h-56v114h-272v-227h275v-50h-275v-232h274v114h56v-164h-487zM289 676l-140 135l17 20l142 -94l143 94l17 -20l-141 -135h-38z" />
    <glyph glyph-name="Eth" unicode="&#xd0;" horiz-adv-x="676" 
d="M46 282v50h88v227h-97v50h274c177 0 320 -100 320 -305c0 -204 -143 -304 -320 -304h-274v50h97v232h-88zM194 50h118c154 0 257 93 257 254c0 162 -103 255 -257 255h-118v-227h174v-50h-174v-232z" />
    <glyph glyph-name="Gcircumflex" unicode="&#x11c;" horiz-adv-x="688" 
d="M369 -12c-206 0 -325 128 -325 314c0 183 117 319 327 319c90 0 173 -25 223 -46v-137h-57v104c-41 13 -101 28 -164 28c-169 0 -269 -107 -269 -267c0 -153 90 -264 264 -264c70 0 129 18 176 37v187h-157v49h276v-49h-63v-219c-47 -23 -126 -56 -231 -56zM217 674
l-17 21l140 134h38l141 -134l-17 -21l-143 94z" />
    <glyph glyph-name="Gbreve" unicode="&#x11e;" horiz-adv-x="688" 
d="M369 -12c-206 0 -325 128 -325 314c0 183 117 319 327 319c90 0 173 -25 223 -46v-137h-57v104c-41 13 -101 28 -164 28c-169 0 -269 -107 -269 -267c0 -153 90 -264 264 -264c70 0 129 18 176 37v187h-157v49h276v-49h-63v-219c-47 -23 -126 -56 -231 -56zM359 670
c-75 0 -134 46 -140 137h46c7 -62 45 -87 94 -87s88 25 94 87h47c-6 -91 -65 -137 -141 -137z" />
    <glyph glyph-name="Gdotaccent" unicode="&#x120;" horiz-adv-x="688" 
d="M369 -12c-206 0 -325 128 -325 314c0 183 117 319 327 319c90 0 173 -25 223 -46v-137h-57v104c-41 13 -101 28 -164 28c-169 0 -269 -107 -269 -267c0 -153 90 -264 264 -264c70 0 129 18 176 37v187h-157v49h276v-49h-63v-219c-47 -23 -126 -56 -231 -56zM364 677
c-25 0 -45 21 -45 45c0 25 20 45 45 45s44 -20 44 -45c0 -24 -19 -45 -44 -45z" />
    <glyph glyph-name="Gcommaaccent" unicode="&#x122;" horiz-adv-x="688" 
d="M360 -78c26 0 48 -19 48 -57c0 -44 -28 -97 -72 -136l-28 22c30 36 45 69 45 98s-13 45 -34 51v7c10 9 26 15 41 15zM369 -12c-206 0 -325 128 -325 314c0 183 117 319 327 319c90 0 173 -25 223 -46v-137h-57v104c-41 13 -101 28 -164 28c-169 0 -269 -107 -269 -267
c0 -153 90 -264 264 -264c70 0 129 18 176 37v187h-157v49h276v-49h-63v-219c-47 -23 -126 -56 -231 -56z" />
    <glyph glyph-name="Hcircumflex" unicode="&#x124;" horiz-adv-x="750" 
d="M36 0v50h97v509h-97v50h254v-50h-97v-226h364v226h-97v50h254v-50h-97v-509h97v-50h-254v50h97v231h-364v-231h97v-50h-254zM233 671l-17 21l140 134h38l141 -134l-17 -21l-143 94z" />
    <glyph glyph-name="Hbar" unicode="&#x126;" horiz-adv-x="752" 
d="M48 430v38h86v91h-97v50h254v-50h-97v-91h364v91h-97v50h253v-50h-96v-91h85v-38h-85v-380h96v-50h-253v50h97v231h-364v-231h97v-50h-254v50h97v380h-86zM194 333h364v99h-364v-99z" />
    <glyph glyph-name="Igrave" unicode="&#xcc;" horiz-adv-x="326" 
d="M36 0v50h97v509h-97v50h254v-50h-97v-509h97v-50h-254zM235 671l-185 128l41 52l164 -156z" />
    <glyph glyph-name="Iacute" unicode="&#xcd;" horiz-adv-x="326" 
d="M36 0v50h97v509h-97v50h254v-50h-97v-509h97v-50h-254zM95 671l-19 24l164 156l41 -52z" />
    <glyph glyph-name="Icircumflex" unicode="&#xce;" horiz-adv-x="326" 
d="M36 0v50h97v509h-97v50h254v-50h-97v-509h97v-50h-254zM21 671l-17 21l140 134h38l141 -134l-17 -21l-143 94z" />
    <glyph glyph-name="Idieresis" unicode="&#xcf;" horiz-adv-x="326" 
d="M36 0v50h97v509h-97v50h254v-50h-97v-509h97v-50h-254zM78 677c-23 0 -42 19 -42 42c0 24 19 42 42 42s42 -18 42 -42c0 -23 -19 -42 -42 -42zM248 677c-23 0 -42 19 -42 42c0 24 19 42 42 42c24 0 42 -18 42 -42c0 -23 -18 -42 -42 -42z" />
    <glyph glyph-name="Itilde" unicode="&#x128;" horiz-adv-x="326" 
d="M36 0v50h97v509h-97v50h254v-50h-97v-509h97v-50h-254zM20 673l-26 13c17 41 39 99 94 99c54 0 100 -56 147 -56c28 0 46 19 66 60l27 -14c-18 -41 -43 -99 -97 -99c-53 0 -102 56 -145 56c-25 0 -47 -21 -66 -59z" />
    <glyph glyph-name="Imacron" unicode="&#x12a;" horiz-adv-x="326" 
d="M36 0v50h97v509h-97v50h254v-50h-97v-509h97v-50h-254zM35 679v47h257v-47h-257z" />
    <glyph glyph-name="Ibreve" unicode="&#x12c;" horiz-adv-x="326" 
d="M36 0v50h97v509h-97v50h254v-50h-97v-509h97v-50h-254zM163 666c-76 0 -134 46 -141 137h47c6 -62 44 -87 94 -87c49 0 88 25 94 87h47c-7 -91 -66 -137 -141 -137z" />
    <glyph glyph-name="Iogonek" unicode="&#x12e;" horiz-adv-x="326" 
d="M36 0v50h97v509h-97v50h254v-50h-97v-509h97v-50h-76c-32 -23 -75 -65 -75 -112c0 -34 24 -47 55 -47c23 0 47 8 62 15l4 -38c-19 -9 -48 -18 -81 -18c-52 0 -95 23 -95 79c0 53 39 94 78 121h-126z" />
    <glyph glyph-name="Idotaccent" unicode="&#x130;" horiz-adv-x="326" 
d="M36 0v50h97v509h-97v50h254v-50h-97v-509h97v-50h-254zM163 671c-25 0 -45 20 -45 45s20 45 45 45s45 -20 45 -45s-20 -45 -45 -45z" />
    <glyph glyph-name="Jcircumflex" unicode="&#x134;" horiz-adv-x="303" 
d="M46 -166l-22 42c48 25 98 66 98 129v554h-94v50h247v-50h-93v-556c0 -99 -70 -140 -136 -169zM8 671l-17 21l140 134h38l141 -134l-17 -21l-143 94z" />
    <glyph glyph-name="Kcommaaccent" unicode="&#x136;" horiz-adv-x="662" 
d="M374 -73c26 0 47 -19 47 -58c0 -43 -27 -96 -71 -136l-28 22c30 36 44 69 44 99c0 29 -13 45 -33 50v8c10 8 25 15 41 15zM517 0l-272 305v6l243 249h-92v49h246v-50h-84l-240 -249l235 -260h96v-50h-132zM36 0v50h97v509h-97v50h253v-50h-96v-509h100v-50h-257z" />
    <glyph glyph-name="Lacute" unicode="&#x139;" horiz-adv-x="546" 
d="M36 0v50h97v509h-97v50h265v-50h-108v-509h276v120h56v-170h-489zM125 671l-19 24l164 156l41 -52z" />
    <glyph glyph-name="Lcommaaccent" unicode="&#x13b;" horiz-adv-x="546" 
d="M313 -73c25 0 47 -19 47 -58c0 -43 -27 -96 -71 -136l-28 22c29 36 44 69 44 99c0 29 -13 45 -34 50v8c11 8 26 15 42 15zM36 0v50h97v509h-97v50h265v-50h-108v-509h276v120h56v-170h-489z" />
    <glyph glyph-name="Lcaron" unicode="&#x13d;" horiz-adv-x="548" 
d="M414 615c26 0 48 -19 48 -57c0 -44 -28 -97 -71 -136l-29 21c30 37 45 70 45 99s-13 45 -34 51v7c10 9 26 15 41 15zM36 0v50h97v509h-97v50h265v-50h-108v-509h276v120h56v-170h-489z" />
    <glyph glyph-name="Ldot" unicode="&#x13f;" horiz-adv-x="546" 
d="M36 0v50h97v509h-97v50h265v-50h-108v-509h276v120h56v-170h-489zM422 293c-25 0 -44 20 -44 45s19 45 44 45s45 -20 45 -45s-20 -45 -45 -45z" />
    <glyph glyph-name="Lslash" unicode="&#x141;" horiz-adv-x="547" 
d="M55 216l-19 37l98 55v251h-97v50h265v-50h-108v-221l179 100l19 -37l-198 -109v-242h276v120h56v-170h-489v50h97v211z" />
    <glyph glyph-name="Ntilde" unicode="&#xd1;" horiz-adv-x="741" 
d="M36 0v50h97v509h-97v50h159l367 -512v462h-97v50h250v-50h-97v-559h-54l-374 521v-471h97v-50h-251zM234 673l-26 13c18 41 39 99 94 99s101 -56 147 -56c28 0 47 19 67 60l26 -14c-18 -41 -43 -99 -96 -99c-54 0 -103 56 -145 56c-26 0 -47 -21 -67 -59z" />
    <glyph glyph-name="Nacute" unicode="&#x143;" horiz-adv-x="741" 
d="M36 0v50h97v509h-97v50h159l367 -512v462h-97v50h250v-50h-97v-559h-54l-374 521v-471h97v-50h-251zM323 671l-20 24l164 156l41 -52z" />
    <glyph glyph-name="Ncommaaccent" unicode="&#x145;" horiz-adv-x="741" 
d="M394 -73c25 0 47 -19 47 -58c0 -43 -27 -96 -71 -136l-28 22c29 36 44 69 44 99c0 29 -13 45 -34 50v8c11 8 26 15 42 15zM36 0v50h97v509h-97v50h159l367 -512v462h-97v50h250v-50h-97v-559h-54l-374 521v-471h97v-50h-251z" />
    <glyph glyph-name="Ncaron" unicode="&#x147;" horiz-adv-x="741" 
d="M36 0v50h97v509h-97v50h159l367 -512v462h-97v50h250v-50h-97v-559h-54l-374 521v-471h97v-50h-251zM352 676l-141 135l17 20l143 -94l142 94l17 -20l-141 -135h-37z" />
    <glyph glyph-name="Eng" unicode="&#x14a;" horiz-adv-x="741" 
d="M483 -166l-22 42c48 25 97 66 97 129v14l-368 502v-471h97v-50h-251v50h97v509h-97v50h159l367 -501v451h-97v50h250v-50h-97v-556c0 -99 -69 -140 -135 -169z" />
    <glyph glyph-name="Ograve" unicode="&#xd2;" horiz-adv-x="705" 
d="M353 -12c-189 0 -310 136 -310 317c0 180 121 316 310 316c187 0 308 -136 308 -316c0 -181 -121 -317 -308 -317zM353 39c146 0 247 108 247 266s-99 264 -247 264s-248 -107 -248 -264c0 -160 99 -266 248 -266zM393 675l-185 128l41 52l164 -156z" />
    <glyph glyph-name="Oacute" unicode="&#xd3;" horiz-adv-x="705" 
d="M353 -12c-189 0 -310 136 -310 317c0 180 121 316 310 316c187 0 308 -136 308 -316c0 -181 -121 -317 -308 -317zM353 39c146 0 247 108 247 266s-99 264 -247 264s-248 -107 -248 -264c0 -160 99 -266 248 -266zM283 675l-19 24l164 156l41 -52z" />
    <glyph glyph-name="Ocircumflex" unicode="&#xd4;" horiz-adv-x="705" 
d="M353 -12c-189 0 -310 136 -310 317c0 180 121 316 310 316c187 0 308 -136 308 -316c0 -181 -121 -317 -308 -317zM353 39c146 0 247 108 247 266s-99 264 -247 264s-248 -107 -248 -264c0 -160 99 -266 248 -266zM210 674l-17 21l140 134h38l141 -134l-17 -21l-143 94z
" />
    <glyph glyph-name="Otilde" unicode="&#xd5;" horiz-adv-x="705" 
d="M353 -12c-189 0 -310 136 -310 317c0 180 121 316 310 316c187 0 308 -136 308 -316c0 -181 -121 -317 -308 -317zM353 39c146 0 247 108 247 266s-99 264 -247 264s-248 -107 -248 -264c0 -160 99 -266 248 -266zM209 676l-26 13c17 41 39 99 94 99
c54 0 100 -56 147 -56c28 0 46 19 66 60l27 -14c-18 -41 -43 -99 -97 -99c-53 0 -102 56 -145 56c-25 0 -47 -21 -66 -59z" />
    <glyph glyph-name="Odieresis" unicode="&#xd6;" horiz-adv-x="705" 
d="M353 -12c-189 0 -310 136 -310 317c0 180 121 316 310 316c187 0 308 -136 308 -316c0 -181 -121 -317 -308 -317zM353 39c146 0 247 108 247 266s-99 264 -247 264s-248 -107 -248 -264c0 -160 99 -266 248 -266zM267 680c-23 0 -42 19 -42 42c0 24 19 42 42 42
s42 -18 42 -42c0 -23 -19 -42 -42 -42zM437 680c-23 0 -42 19 -42 42c0 24 19 42 42 42c24 0 42 -18 42 -42c0 -23 -18 -42 -42 -42z" />
    <glyph glyph-name="Omacron" unicode="&#x14c;" horiz-adv-x="705" 
d="M353 -12c-189 0 -310 136 -310 317c0 180 121 316 310 316c187 0 308 -136 308 -316c0 -181 -121 -317 -308 -317zM353 39c146 0 247 108 247 266s-99 264 -247 264s-248 -107 -248 -264c0 -160 99 -266 248 -266zM224 683v47h257v-47h-257z" />
    <glyph glyph-name="Obreve" unicode="&#x14e;" horiz-adv-x="705" 
d="M353 -12c-189 0 -310 136 -310 317c0 180 121 316 310 316c187 0 308 -136 308 -316c0 -181 -121 -317 -308 -317zM353 39c146 0 247 108 247 266s-99 264 -247 264s-248 -107 -248 -264c0 -160 99 -266 248 -266zM352 670c-76 0 -134 46 -141 137h47
c6 -62 44 -87 94 -87c49 0 88 25 94 87h47c-7 -91 -66 -137 -141 -137z" />
    <glyph glyph-name="Ohungarumlaut" unicode="&#x150;" horiz-adv-x="705" 
d="M353 -12c-189 0 -310 136 -310 317c0 180 121 316 310 316c187 0 308 -136 308 -316c0 -181 -121 -317 -308 -317zM353 39c146 0 247 108 247 266s-99 264 -247 264s-248 -107 -248 -264c0 -160 99 -266 248 -266zM243 676l-22 18l126 171l44 -41zM397 676l-21 18
l125 171l45 -41z" />
    <glyph glyph-name="Oslash" unicode="&#xd8;" horiz-adv-x="705" 
d="M353 -12c-76 0 -140 21 -191 59l-50 -62l-26 21l51 63c-60 56 -94 139 -94 235c0 181 121 317 310 317c75 0 138 -22 188 -59l52 62l26 -22l-51 -62c59 -57 93 -140 93 -236c0 -181 -121 -316 -308 -316zM353 39c146 0 247 106 247 264c0 79 -26 146 -69 192l-333 -406
c40 -32 93 -50 155 -50zM353 569c-148 0 -248 -106 -248 -264c0 -80 24 -146 68 -192l334 405c-42 33 -94 51 -154 51z" />
    <glyph glyph-name="Oslashacute" unicode="&#x1fe;" horiz-adv-x="705" 
d="M353 -12c-76 0 -140 21 -191 59l-50 -62l-26 21l51 63c-60 56 -94 139 -94 235c0 181 121 317 310 317c75 0 138 -22 188 -59l52 62l26 -22l-51 -62c59 -57 93 -140 93 -236c0 -181 -121 -316 -308 -316zM353 39c146 0 247 106 247 264c0 79 -26 146 -69 192l-333 -406
c40 -32 93 -50 155 -50zM353 569c-148 0 -248 -106 -248 -264c0 -80 24 -146 68 -192l334 405c-42 33 -94 51 -154 51zM283 675l-19 24l164 156l41 -52z" />
    <glyph glyph-name="OE" unicode="&#x152;" horiz-adv-x="860" 
d="M352 0c-192 0 -307 124 -307 304s114 305 307 305h455v-162h-56v112h-257v-227h261v-50h-261v-232h259v113h56v-163h-457zM352 51h84v507h-84c-149 0 -245 -94 -245 -253c0 -160 95 -254 245 -254z" />
    <glyph glyph-name="Racute" unicode="&#x154;" horiz-adv-x="628" 
d="M36 0v50h97v509h-97v50h277c111 0 237 -46 237 -181c0 -92 -58 -149 -146 -171l114 -207h93v-50h-132l-133 244c-12 -1 -23 -1 -34 -1h-119v-193h97v-50h-254zM193 292h121c118 0 175 50 175 133c0 84 -57 134 -175 134h-121v-267zM248 671l-19 24l163 156l42 -52z" />
    <glyph glyph-name="Rcommaaccent" unicode="&#x156;" horiz-adv-x="628" 
d="M354 -73c26 0 48 -19 48 -58c0 -43 -28 -96 -72 -136l-28 22c30 36 45 69 45 99c0 29 -14 45 -34 50v8c10 8 26 15 41 15zM36 0v50h97v509h-97v50h277c111 0 237 -46 237 -181c0 -92 -58 -149 -146 -171l114 -207h93v-50h-132l-133 244c-12 -1 -23 -1 -34 -1h-119v-193
h97v-50h-254zM193 292h121c118 0 175 50 175 133c0 84 -57 134 -175 134h-121v-267z" />
    <glyph glyph-name="Rcaron" unicode="&#x158;" horiz-adv-x="628" 
d="M36 0v50h97v509h-97v50h277c111 0 237 -46 237 -181c0 -92 -58 -149 -146 -171l114 -207h93v-50h-132l-133 244c-12 -1 -23 -1 -34 -1h-119v-193h97v-50h-254zM193 292h121c118 0 175 50 175 133c0 84 -57 134 -175 134h-121v-267zM289 676l-140 135l17 20l142 -94
l143 94l17 -20l-141 -135h-38z" />
    <glyph glyph-name="Sacute" unicode="&#x15a;" horiz-adv-x="511" 
d="M250 -12c-69 0 -146 14 -202 31v133h55v-94c38 -11 94 -20 144 -20c103 0 161 39 161 109c0 171 -348 101 -348 315c0 96 71 159 207 159c62 0 128 -13 178 -28v-132h-56v94c-31 8 -76 15 -119 15c-107 0 -152 -45 -152 -104c0 -162 349 -97 349 -317
c0 -109 -87 -161 -217 -161zM205 675l-20 24l164 156l41 -52z" />
    <glyph glyph-name="Scircumflex" unicode="&#x15c;" horiz-adv-x="511" 
d="M250 -12c-69 0 -146 14 -202 31v133h55v-94c38 -11 94 -20 144 -20c103 0 161 39 161 109c0 171 -348 101 -348 315c0 96 71 159 207 159c62 0 128 -13 178 -28v-132h-56v94c-31 8 -76 15 -119 15c-107 0 -152 -45 -152 -104c0 -162 349 -97 349 -317
c0 -109 -87 -161 -217 -161zM122 674l-17 21l140 134h38l141 -134l-17 -21l-143 94z" />
    <glyph glyph-name="Scedilla" unicode="&#x15e;" horiz-adv-x="511" 
d="M219 -193c-17 0 -37 2 -51 5l9 37c12 -1 26 -3 41 -3c35 0 74 7 74 42c0 36 -45 41 -83 41v19l20 40c-63 3 -131 15 -181 31v133h55v-94c38 -11 94 -20 144 -20c103 0 161 39 161 109c0 171 -348 101 -348 315c0 96 71 159 207 159c62 0 128 -13 178 -28v-132h-56v94
c-31 8 -76 15 -119 15c-107 0 -152 -45 -152 -104c0 -162 349 -97 349 -317c0 -103 -78 -156 -197 -161l-11 -28c38 -3 85 -22 85 -73c0 -58 -59 -80 -125 -80z" />
    <glyph glyph-name="Scommaaccent" unicode="&#x218;" horiz-adv-x="511" 
d="M269 -78c25 0 47 -19 47 -57c0 -44 -27 -97 -71 -136l-28 22c29 36 44 69 44 98s-13 45 -34 51v7c11 9 26 15 42 15zM250 -12c-69 0 -146 14 -202 31v133h55v-94c38 -11 94 -20 144 -20c103 0 161 39 161 109c0 171 -348 101 -348 315c0 96 71 159 207 159
c62 0 128 -13 178 -28v-132h-56v94c-31 8 -76 15 -119 15c-107 0 -152 -45 -152 -104c0 -162 349 -97 349 -317c0 -109 -87 -161 -217 -161z" />
    <glyph glyph-name="Scaron" unicode="&#x160;" horiz-adv-x="511" 
d="M250 -12c-69 0 -146 14 -202 31v133h55v-94c38 -11 94 -20 144 -20c103 0 161 39 161 109c0 171 -348 101 -348 315c0 96 71 159 207 159c62 0 128 -13 178 -28v-132h-56v94c-31 8 -76 15 -119 15c-107 0 -152 -45 -152 -104c0 -162 349 -97 349 -317
c0 -109 -87 -161 -217 -161zM247 677l-141 135l17 20l142 -94l143 94l17 -20l-141 -135h-37z" />
    <glyph glyph-name="Tcommaaccent" unicode="&#x162;" horiz-adv-x="577" 
d="M288 -73c25 0 47 -19 47 -58c0 -43 -28 -96 -71 -136l-28 22c29 36 44 69 44 99c0 29 -13 45 -34 50v8c10 8 26 15 42 15zM156 0v50h103v509h-182v-110h-55v160h533v-160h-55v110h-181v-509h102v-50h-265z" />
    <glyph glyph-name="uni021A" unicode="&#x21a;" horiz-adv-x="577" 
d="M288 -73c25 0 47 -19 47 -58c0 -43 -28 -96 -71 -136l-28 22c29 36 44 69 44 99c0 29 -13 45 -34 50v8c10 8 26 15 42 15zM156 0v50h103v509h-182v-110h-55v160h533v-160h-55v110h-181v-509h102v-50h-265z" />
    <glyph glyph-name="Tcaron" unicode="&#x164;" horiz-adv-x="577" 
d="M156 0v50h103v509h-182v-110h-55v160h533v-160h-55v110h-181v-509h102v-50h-265zM270 676l-141 135l17 20l143 -94l142 94l17 -20l-141 -135h-37z" />
    <glyph glyph-name="Tbar" unicode="&#x166;" horiz-adv-x="582" 
d="M117 278v44h144v237h-181v-110h-55v160h533v-160h-56v110h-181v-237h144v-44h-144v-228h103v-50h-266v50h103v228h-144z" />
    <glyph glyph-name="Thorn" unicode="&#xde;" horiz-adv-x="562" 
d="M36 0v49h98v511h-98v49h271v-48h-113v-74h100c114 0 237 -39 237 -178c0 -138 -123 -177 -237 -177h-100v-84h113v-48h-271zM194 181h101c119 0 175 45 175 128c0 84 -56 128 -175 128h-101v-256z" />
    <glyph glyph-name="Ugrave" unicode="&#xd9;" horiz-adv-x="693" 
d="M349 -12c-133 0 -233 71 -233 211v360h-97v50h254v-50h-97v-356c0 -117 82 -161 174 -161c94 0 170 47 170 161v356h-97v50h250v-50h-96v-358c0 -139 -93 -213 -228 -213zM389 671l-184 128l41 52l164 -156z" />
    <glyph glyph-name="Uacute" unicode="&#xda;" horiz-adv-x="693" 
d="M349 -12c-133 0 -233 71 -233 211v360h-97v50h254v-50h-97v-356c0 -117 82 -161 174 -161c94 0 170 47 170 161v356h-97v50h250v-50h-96v-358c0 -139 -93 -213 -228 -213zM294 671l-19 24l164 156l41 -52z" />
    <glyph glyph-name="Ucircumflex" unicode="&#xdb;" horiz-adv-x="693" 
d="M349 -12c-133 0 -233 71 -233 211v360h-97v50h254v-50h-97v-356c0 -117 82 -161 174 -161c94 0 170 47 170 161v356h-97v50h250v-50h-96v-358c0 -139 -93 -213 -228 -213zM204 671l-17 21l140 134h38l141 -134l-17 -21l-143 94z" />
    <glyph glyph-name="Udieresis" unicode="&#xdc;" horiz-adv-x="693" 
d="M349 -12c-133 0 -233 71 -233 211v360h-97v50h254v-50h-97v-356c0 -117 82 -161 174 -161c94 0 170 47 170 161v356h-97v50h250v-50h-96v-358c0 -139 -93 -213 -228 -213zM261 677c-23 0 -42 19 -42 42c0 24 19 42 42 42s42 -18 42 -42c0 -23 -19 -42 -42 -42zM431 677
c-23 0 -42 19 -42 42c0 24 19 42 42 42c24 0 42 -18 42 -42c0 -23 -18 -42 -42 -42z" />
    <glyph glyph-name="Utilde" unicode="&#x168;" horiz-adv-x="693" 
d="M349 -12c-133 0 -233 71 -233 211v360h-97v50h254v-50h-97v-356c0 -117 82 -161 174 -161c94 0 170 47 170 161v356h-97v50h250v-50h-96v-358c0 -139 -93 -213 -228 -213zM209 673l-26 13c17 41 39 99 94 99c54 0 100 -56 147 -56c28 0 46 19 66 60l27 -14
c-18 -41 -43 -99 -97 -99c-53 0 -102 56 -145 56c-25 0 -47 -21 -66 -59z" />
    <glyph glyph-name="Umacron" unicode="&#x16a;" horiz-adv-x="693" 
d="M349 -12c-133 0 -233 71 -233 211v360h-97v50h254v-50h-97v-356c0 -117 82 -161 174 -161c94 0 170 47 170 161v356h-97v50h250v-50h-96v-358c0 -139 -93 -213 -228 -213zM218 679v47h257v-47h-257z" />
    <glyph glyph-name="Ubreve" unicode="&#x16c;" horiz-adv-x="693" 
d="M349 -12c-133 0 -233 71 -233 211v360h-97v50h254v-50h-97v-356c0 -117 82 -161 174 -161c94 0 170 47 170 161v356h-97v50h250v-50h-96v-358c0 -139 -93 -213 -228 -213zM348 666c-75 0 -134 46 -140 137h46c7 -62 45 -87 94 -87s88 25 94 87h47
c-6 -91 -65 -137 -141 -137z" />
    <glyph glyph-name="Uring" unicode="&#x16e;" horiz-adv-x="693" 
d="M349 -12c-133 0 -233 71 -233 211v360h-97v50h254v-50h-97v-356c0 -117 82 -161 174 -161c94 0 170 47 170 161v356h-97v50h250v-50h-96v-358c0 -139 -93 -213 -228 -213zM349 663c-67 0 -107 46 -107 102s40 102 107 102s108 -46 108 -102s-41 -102 -108 -102zM349 699
c41 0 61 32 61 66s-20 66 -61 66c-40 0 -61 -32 -61 -66s21 -66 61 -66z" />
    <glyph glyph-name="Uhungarumlaut" unicode="&#x170;" horiz-adv-x="693" 
d="M349 -12c-133 0 -233 71 -233 211v360h-97v50h254v-50h-97v-356c0 -117 82 -161 174 -161c94 0 170 47 170 161v356h-97v50h250v-50h-96v-358c0 -139 -93 -213 -228 -213zM246 673l-21 18l126 170l44 -41zM401 673l-21 18l125 170l45 -41z" />
    <glyph glyph-name="Uogonek" unicode="&#x172;" horiz-adv-x="695" 
d="M422 -200c-53 0 -96 23 -96 79c0 48 32 86 66 112c-13 -2 -28 -3 -44 -3c-131 0 -232 71 -232 211v360h-97v50h254v-50h-97v-356c0 -117 82 -161 174 -161c94 0 170 47 170 161v356h-97v50h250v-50h-96v-358c0 -115 -60 -159 -97 -182c-35 -23 -98 -64 -98 -128
c0 -37 21 -50 53 -50c25 0 48 8 63 15l4 -38c-18 -9 -48 -18 -80 -18z" />
    <glyph glyph-name="Wcircumflex" unicode="&#x174;" horiz-adv-x="932" 
d="M260 0l-182 559h-83v50h245v-50h-102l152 -480l149 425l-19 55h-86v50h245v-50h-102l165 -478l152 478h-102v50h245v-50h-84l-182 -559h-55l-149 424l-152 -424h-55zM318 671l-17 21l141 134h37l141 -134l-17 -21l-143 94z" />
    <glyph glyph-name="Yacute" unicode="&#xdd;" horiz-adv-x="627" 
d="M186 0v50h98v177l-206 332h-85v50h252v-50h-101l170 -278l170 278h-100v50h249v-50h-85l-204 -330v-179h98v-50h-256zM254 671l-19 24l163 156l42 -52z" />
    <glyph glyph-name="Ydieresis" unicode="&#x178;" horiz-adv-x="627" 
d="M186 0v50h98v177l-206 332h-85v50h252v-50h-101l170 -278l170 278h-100v50h249v-50h-85l-204 -330v-179h98v-50h-256zM230 677c-23 0 -42 19 -42 42c0 24 19 42 42 42s41 -18 41 -42c0 -23 -18 -42 -41 -42zM400 677c-24 0 -42 19 -42 42c0 24 18 42 42 42
c23 0 42 -18 42 -42c0 -23 -19 -42 -42 -42z" />
    <glyph glyph-name="Ycircumflex" unicode="&#x176;" horiz-adv-x="627" 
d="M186 0v50h98v177l-206 332h-85v50h252v-50h-101l170 -278l170 278h-100v50h249v-50h-85l-204 -330v-179h98v-50h-256zM172 671l-17 21l141 134h37l141 -134l-17 -21l-143 94z" />
    <glyph glyph-name="Zcaron" unicode="&#x17d;" horiz-adv-x="557" 
d="M42 0v50l385 507h-322v-112h-58v164h453v-52l-385 -506h345v120h57v-171h-475zM261 676l-141 135l17 20l143 -94l142 94l17 -20l-140 -135h-38z" />
    <glyph glyph-name="Zacute" unicode="&#x179;" horiz-adv-x="557" 
d="M42 0v50l385 507h-322v-112h-58v164h453v-52l-385 -506h345v120h57v-171h-475zM217 671l-19 24l164 156l41 -52z" />
    <glyph glyph-name="Zdotaccent" unicode="&#x17b;" horiz-adv-x="557" 
d="M42 0v50l385 507h-322v-112h-58v164h453v-52l-385 -506h345v120h57v-171h-475zM278 671c-25 0 -45 20 -45 45s20 45 45 45s45 -20 45 -45s-20 -45 -45 -45z" />
    <glyph glyph-name="dieresis.cap" unicode="&#xf6cb;" horiz-adv-x="436" 
d="M128 677c-23 0 -42 19 -42 42c0 24 19 42 42 42s42 -18 42 -42c0 -23 -19 -42 -42 -42zM298 677c-23 0 -42 19 -42 42c0 24 19 42 42 42s42 -18 42 -42c0 -23 -19 -42 -42 -42z" />
    <glyph glyph-name="grave.cap" unicode="&#xf6ce;" horiz-adv-x="346" 
d="M255 671l-185 128l41 52l164 -156z" />
    <glyph glyph-name="tilde.cap" unicode="&#xeff5;" horiz-adv-x="466" 
d="M87 673l-25 13c17 41 38 99 93 99s101 -56 147 -56c28 0 47 19 67 60l26 -14c-18 -41 -42 -99 -96 -99c-53 0 -103 56 -145 56c-26 0 -47 -21 -67 -59z" />
    <glyph glyph-name="circumflex.cap" unicode="&#xeff7;" horiz-adv-x="434" 
d="M74 671l-17 21l141 134h37l141 -134l-17 -21l-142 94z" />
    <glyph glyph-name="acute.cap" unicode="&#xf6c9;" horiz-adv-x="346" 
d="M82 671l-19 24l164 156l41 -52z" />
    <glyph glyph-name="ring.cap" unicode="&#xeff3;" horiz-adv-x="352" 
d="M174 663c-67 0 -107 46 -107 102s40 102 107 102s108 -46 108 -102s-41 -102 -108 -102zM174 699c41 0 61 32 61 66s-20 66 -61 66c-40 0 -61 -32 -61 -66s21 -66 61 -66z" />
    <glyph glyph-name="cedilla.cap" unicode="&#xeff2;" horiz-adv-x="304" 
d="M105 -193c-17 0 -37 2 -51 5l9 37c12 -1 26 -3 41 -3c35 0 74 7 74 42c0 36 -45 41 -83 41v19l38 77l33 -11l-22 -54c39 -3 86 -22 86 -73c0 -58 -59 -80 -125 -80z" />
    <glyph glyph-name="caron.cap" unicode="&#xf6ca;" horiz-adv-x="436" 
d="M199 676l-140 135l17 20l142 -94l143 94l17 -20l-141 -135h-38z" />
    <glyph glyph-name="ogonek.cap" unicode="&#xeff1;" horiz-adv-x="297" 
d="M159 -200c-52 0 -95 23 -95 79c0 72 73 121 120 147l23 -17c-33 -21 -88 -68 -88 -121c0 -34 24 -47 54 -47c24 0 48 8 63 15l3 -38c-18 -9 -48 -18 -80 -18z" />
    <glyph glyph-name="breve.cap" unicode="&#xefee;" horiz-adv-x="386" 
d="M192 666c-76 0 -134 46 -141 137h47c6 -62 44 -87 94 -87c49 0 88 25 93 87h48c-7 -91 -66 -137 -141 -137z" />
    <glyph glyph-name="hungarumlaut.cap" unicode="&#xf6cf;" horiz-adv-x="515" 
d="M103 673l-22 18l126 170l45 -41zM258 673l-22 18l126 170l44 -41z" />
    <glyph glyph-name="dotaccent.cap" unicode="&#xefed;" horiz-adv-x="239" 
d="M118 671c-25 0 -45 20 -45 45s20 45 45 45s45 -20 45 -45s-20 -45 -45 -45z" />
    <glyph glyph-name="macron.cap" unicode="&#xf6d0;" horiz-adv-x="419" 
d="M81 679v47h257v-47h-257z" />
    <glyph glyph-name="exclamdown.cap" unicode="&#xf6b4;" horiz-adv-x="234" 
d="M138 451l12 -451h-66l12 451h42zM117 618c24 0 44 -20 44 -45c0 -24 -20 -44 -44 -44s-44 20 -44 44c0 25 20 45 44 45z" />
    <glyph glyph-name="questiondown.cap" unicode="&#xf6b5;" horiz-adv-x="366" 
d="M209 -11c-98 0 -168 49 -168 143c0 137 149 169 149 266c0 18 -6 40 -12 53h55c6 -14 10 -36 10 -53c0 -117 -142 -146 -142 -263c0 -61 37 -98 116 -98c41 0 82 10 117 21v-47c-31 -11 -79 -22 -125 -22zM206 618c24 0 44 -20 44 -45c0 -24 -20 -44 -44 -44
s-44 20 -44 44c0 25 20 45 44 45z" />
    <glyph glyph-name="guilsinglleft.cap" unicode="&#xf6b8;" horiz-adv-x="317" 
d="M195 127l-147 176v4l147 175h67l-151 -177l151 -178h-67z" />
    <glyph glyph-name="guilsinglright.cap" unicode="&#xf6b9;" horiz-adv-x="317" 
d="M55 127l151 178l-151 177h67l147 -175v-4l-147 -176h-67z" />
    <glyph glyph-name="guillemotleft.cap" unicode="&#xf6b6;" horiz-adv-x="527" 
d="M405 127l-147 176v4l147 175h66l-150 -177l150 -178h-66zM195 127l-147 176v4l147 175h67l-151 -177l151 -178h-67z" />
    <glyph glyph-name="guillemotright.cap" unicode="&#xf6b7;" horiz-adv-x="527" 
d="M55 127l151 178l-151 177h67l147 -175v-4l-147 -176h-67zM265 127l151 178l-151 177h66l147 -175v-4l-147 -176h-66z" />
    <glyph glyph-name="slash.cap" horiz-adv-x="532" 
d="M20 -148l436 905h56l-436 -905h-56z" />
    <glyph glyph-name="backslash.cap" horiz-adv-x="532" 
d="M456 -148l-437 905h56l437 -905h-56z" />
    <glyph glyph-name="bar.cap" horiz-adv-x="217" 
d="M82 -148v905h53v-905h-53z" />
    <glyph glyph-name="brokenbar.cap" horiz-adv-x="219" 
d="M83 383v374h53v-374h-53zM83 -148v392h53v-392h-53z" />
    <glyph glyph-name="bullet.cap" horiz-adv-x="348" 
d="M174 203c-56 0 -101 45 -101 101s45 101 101 101s101 -45 101 -101s-45 -101 -101 -101z" />
    <glyph glyph-name="periodcentered.cap" unicode="&#xf6bd;" horiz-adv-x="203" 
d="M102 258c-24 0 -44 20 -44 45c0 24 20 43 44 43s43 -19 43 -43c0 -25 -19 -45 -43 -45z" />
    <glyph glyph-name="hyphen.cap" unicode="&#xf6ba;" horiz-adv-x="379" 
d="M60 279v51h259v-51h-259z" />
    <glyph glyph-name="endash.cap" unicode="&#xf6bb;" horiz-adv-x="586" 
d="M60 279v51h466v-51h-466z" />
    <glyph glyph-name="emdash.cap" unicode="&#xf6bc;" horiz-adv-x="781" 
d="M60 279v51h661v-51h-661z" />
    <glyph glyph-name="parenleft.cap" unicode="&#xf6ae;" horiz-adv-x="248" 
d="M179 -148c-92 132 -141 304 -141 452c0 147 49 320 141 453h61c-93 -129 -145 -297 -145 -453s52 -324 145 -452h-61z" />
    <glyph glyph-name="parenright.cap" unicode="&#xf6af;" horiz-adv-x="248" 
d="M8 -148c93 128 145 296 145 452s-52 324 -145 453h62c91 -133 140 -306 140 -453c0 -148 -49 -320 -140 -452h-62z" />
    <glyph glyph-name="bracketleft.cap" unicode="&#xf6b0;" horiz-adv-x="283" 
d="M82 -148v905h184v-42h-131v-822h131v-41h-184z" />
    <glyph glyph-name="bracketright.cap" unicode="&#xf6b1;" horiz-adv-x="283" 
d="M18 -148v41h130v822h-130v42h184v-905h-184z" />
    <glyph glyph-name="braceleft.cap" unicode="&#xf6b2;" horiz-adv-x="279" 
d="M198 -161c-66 0 -96 40 -96 96s30 145 30 218c0 67 -26 122 -124 127v49c98 5 124 60 124 127c0 73 -30 162 -30 218s30 96 96 96c20 0 37 -4 55 -10v-37c-10 3 -27 8 -44 8c-36 0 -54 -20 -54 -59c0 -52 30 -145 30 -223c0 -69 -23 -129 -112 -144
c89 -16 112 -76 112 -145c0 -77 -30 -171 -30 -222c0 -40 18 -60 54 -60c17 0 34 5 44 8v-37c-18 -6 -35 -10 -55 -10z" />
    <glyph glyph-name="braceright.cap" unicode="&#xf6b3;" horiz-adv-x="279" 
d="M81 -161c-20 0 -37 4 -55 10v37c10 -3 27 -8 44 -8c36 0 54 20 54 60c0 51 -30 145 -30 222c0 69 23 129 112 145c-89 15 -112 75 -112 144c0 78 30 171 30 223c0 39 -18 59 -54 59c-17 0 -34 -5 -44 -8v37c18 6 35 10 55 10c65 0 96 -40 96 -96s-30 -145 -30 -218
c0 -67 26 -122 124 -127v-49c-98 -5 -124 -60 -124 -127c0 -73 30 -162 30 -218s-31 -96 -96 -96z" />
    <glyph glyph-name="at.cap" unicode="&#xf633;" horiz-adv-x="742" 
d="M341 123c-88 0 -135 68 -135 152c0 105 76 201 182 201c66 0 100 -39 113 -76h2c2 14 14 50 18 60h41c-15 -51 -43 -157 -43 -228c0 -45 10 -77 51 -77c57 0 106 62 106 170c0 173 -124 290 -285 290c-179 0 -316 -145 -316 -316c0 -168 135 -308 307 -308
c65 0 121 20 167 52l19 -27c-55 -36 -116 -57 -187 -57c-193 0 -338 154 -338 343c0 201 164 345 350 345c176 0 315 -129 315 -322c0 -131 -64 -202 -145 -202c-72 0 -83 56 -85 75h-3c-27 -40 -71 -75 -134 -75zM350 163c78 0 131 76 131 166c0 68 -30 107 -88 107
c-79 0 -138 -75 -138 -160c0 -69 37 -113 95 -113z" />
    <glyph glyph-name="A.smcp" unicode="&#xf761;" horiz-adv-x="581" 
d="M5 0v46h70l165 395h-73v46h159l183 -441h71v-46h-212v46h83l-48 115h-225l-47 -115h82v-46h-208zM196 207h190l-94 229z" />
    <glyph glyph-name="B.smcp" unicode="&#xf762;" horiz-adv-x="517" 
d="M39 0v45h78v397h-78v45h232c105 0 182 -43 182 -124c0 -47 -24 -94 -102 -113c88 -15 123 -66 123 -122c0 -81 -76 -128 -189 -128h-246zM174 45h109c82 0 134 31 134 89c0 60 -54 92 -139 92h-104v-181zM174 269h88c85 0 136 32 136 87c0 57 -50 86 -128 86h-96v-173z
" />
    <glyph glyph-name="C.smcp" unicode="&#xf763;" horiz-adv-x="526" 
d="M309 -10c-152 0 -267 90 -267 252c0 152 103 255 269 255c66 0 128 -17 175 -37v-119h-55v89c-32 12 -77 20 -117 20c-124 0 -213 -72 -213 -206c0 -137 95 -206 214 -206c67 0 128 22 173 47v-51c-41 -24 -106 -44 -179 -44z" />
    <glyph glyph-name="D.smcp" unicode="&#xf764;" horiz-adv-x="576" 
d="M39 0v46h78v395h-78v46h224c154 0 269 -84 269 -244c0 -159 -115 -243 -269 -243h-224zM175 46h90c126 0 208 73 208 197c0 126 -82 198 -208 198h-90v-395z" />
    <glyph glyph-name="E.smcp" unicode="&#xf765;" 
d="M39 0v46h78v395h-78v46h406v-133h-53v87h-217v-173h221v-45h-221v-177h219v88h53v-134h-408z" />
    <glyph glyph-name="F.smcp" unicode="&#xf766;" horiz-adv-x="469" 
d="M39 0v46h78v395h-78v46h402v-143h-53v97h-213v-184h205v-46h-205v-165h91v-46h-227z" />
    <glyph glyph-name="G.smcp" unicode="&#xf767;" horiz-adv-x="587" 
d="M314 -10c-178 0 -272 105 -272 252c0 153 104 255 276 255c72 0 140 -18 184 -36v-112h-54v80c-32 10 -80 20 -128 20c-134 0 -220 -78 -220 -205c0 -112 66 -207 214 -207c58 0 105 15 143 29v142h-126v45h228v-45h-48v-173c-46 -19 -111 -45 -197 -45z" />
    <glyph glyph-name="H.smcp" unicode="&#xf768;" horiz-adv-x="641" 
d="M39 0v46h78v395h-78v46h214v-46h-78v-171h292v171h-78v46h214v-46h-79v-395h79v-46h-214v46h78v177h-292v-177h78v-46h-214z" />
    <glyph glyph-name="I.smcp" unicode="&#xf769;" horiz-adv-x="292" 
d="M39 0v46h78v395h-78v46h214v-46h-78v-395h78v-46h-214z" />
    <glyph glyph-name="J.smcp" unicode="&#xf76a;" horiz-adv-x="272" 
d="M45 -136l-20 39c37 18 82 53 82 104v434h-78v46h214v-46h-78v-439c0 -83 -70 -117 -120 -138z" />
    <glyph glyph-name="K.smcp" unicode="&#xf76b;" horiz-adv-x="571" 
d="M436 0l-222 243v4l199 195h-78v45h209v-46h-67l-196 -192l189 -203h81v-46h-115zM39 0v46h78v395h-78v46h214v-46h-78v-395h78v-46h-214z" />
    <glyph glyph-name="L.smcp" unicode="&#xf76c;" horiz-adv-x="471" 
d="M39 0v46h78v395h-78v46h222v-46h-86v-395h219v93h53v-139h-408z" />
    <glyph glyph-name="M.smcp" unicode="&#xf76d;" horiz-adv-x="756" 
d="M34 0v46h77l15 396h-76v45h162l166 -382l167 382h162v-45h-76l15 -396h76v-46h-206v46h79l-16 390l-181 -408h-39l-181 408l-15 -390h78v-46h-207z" />
    <glyph glyph-name="N.smcp" unicode="&#xf76e;" horiz-adv-x="635" 
d="M38 0v46h80v395h-80v46h137l298 -401v355h-82v46h214v-46h-79v-441h-50l-305 407v-361h81v-46h-214z" />
    <glyph glyph-name="O.smcp" unicode="&#xf76f;" horiz-adv-x="601" 
d="M300 -10c-158 0 -258 108 -258 254c0 145 100 253 258 253c159 0 259 -108 259 -253c0 -146 -100 -254 -259 -254zM300 38c119 0 200 82 200 206s-81 205 -200 205s-200 -81 -200 -205s81 -206 200 -206z" />
    <glyph glyph-name="P.smcp" unicode="&#xf770;" horiz-adv-x="490" 
d="M39 0v46h78v395h-78v46h224c99 0 198 -45 198 -152s-99 -151 -198 -151h-88v-138h94v-46h-230zM175 441v-212h89c96 0 140 44 140 106c0 63 -44 106 -140 106h-89z" />
    <glyph glyph-name="Q.smcp" unicode="&#xf771;" horiz-adv-x="601" 
d="M455 -111l-161 101c-155 3 -252 110 -252 254c0 145 100 253 258 253c159 0 259 -108 259 -253c0 -124 -73 -221 -193 -245l118 -65zM300 38c119 0 200 82 200 206s-81 205 -200 205s-200 -81 -200 -205s81 -206 200 -206z" />
    <glyph glyph-name="R.smcp" unicode="&#xf772;" horiz-adv-x="541" 
d="M39 0v46h78v395h-78v46h233c97 0 197 -43 197 -147c0 -69 -44 -117 -119 -135l91 -159h78v-46h-116l-107 192c-10 -1 -20 -1 -28 -1h-93v-145h78v-46h-214zM175 236h97c96 0 140 41 140 102c0 63 -45 103 -140 103h-97v-205z" />
    <glyph glyph-name="S.smcp" unicode="&#xf773;" horiz-adv-x="440" 
d="M215 -10c-57 0 -120 11 -168 25v112h52v-76c31 -8 80 -15 116 -15c73 0 126 26 126 83c0 130 -284 77 -284 250c0 79 61 128 171 128c52 0 110 -10 151 -23v-110h-53v75c-26 6 -64 12 -96 12c-81 0 -118 -35 -118 -80c0 -124 285 -75 285 -251c0 -89 -72 -130 -182 -130z
" />
    <glyph glyph-name="T.smcp" unicode="&#xf774;" horiz-adv-x="499" 
d="M136 0v46h85v395h-142v-87h-53v133h447v-133h-53v87h-142v-395h86v-46h-228z" />
    <glyph glyph-name="U.smcp" unicode="&#xf775;" horiz-adv-x="595" 
d="M299 -10c-110 0 -196 55 -196 170v281h-78v46h214v-46h-78v-279c0 -91 64 -124 139 -124c76 0 137 36 137 124v279h-79v46h212v-46h-78v-278c0 -112 -77 -173 -193 -173z" />
    <glyph glyph-name="V.smcp" unicode="&#xf776;" horiz-adv-x="563" 
d="M254 0l-182 441h-70v46h215v-45h-86l151 -377l152 377h-86v45h213v-46h-70l-182 -441h-55z" />
    <glyph glyph-name="W.smcp" unicode="&#xf777;" horiz-adv-x="796" 
d="M225 0l-151 441h-70v46h210v-44h-83l123 -372l120 327l-18 45h-71v44h211v-44h-84l134 -371l122 370h-83v45h208v-46h-70l-152 -441h-53l-119 326l-121 -326h-53z" />
    <glyph glyph-name="X.smcp" unicode="&#xf778;" horiz-adv-x="551" 
d="M19 0v45h66l158 201l-149 195h-68v46h208v-44h-78l120 -158l122 158h-77v44h205v-46h-68l-153 -194l156 -202h69v-45h-209v45h77l-125 163l-127 -163h78v-45h-205z" />
    <glyph glyph-name="Y.smcp" unicode="&#xf779;" horiz-adv-x="540" 
d="M159 0v46h82v135l-167 260h-71v46h213v-45h-81l136 -211l136 212h-80v44h210v-46h-72l-167 -260v-135h82v-46h-221z" />
    <glyph glyph-name="Z.smcp" unicode="&#xf77a;" horiz-adv-x="482" 
d="M42 0v46l316 394h-256v-90h-55v137h380v-47l-316 -394h277v96h53v-142h-399z" />
    <glyph glyph-name="exclam.smcp" unicode="&#xf721;" horiz-adv-x="229" 
d="M94 129l-10 358h61l-10 -358h-41zM114 -7c-22 0 -40 18 -40 40c0 23 18 40 40 40c23 0 41 -17 41 -40c0 -22 -18 -40 -41 -40z" />
    <glyph glyph-name="exclamdown.smcp" unicode="&#xf7a1;" horiz-adv-x="227" 
d="M134 358l10 -358h-61l10 358h41zM114 494c22 0 40 -18 40 -41c0 -22 -18 -39 -40 -39c-23 0 -41 17 -41 39c0 23 18 41 41 41z" />
    <glyph glyph-name="question.smcp" unicode="&#xf73f;" horiz-adv-x="328" 
d="M141 496c83 0 142 -38 142 -113c0 -110 -124 -136 -124 -212c0 -15 5 -32 10 -42h-53c-5 10 -8 28 -8 43c0 88 117 116 117 206c0 48 -32 75 -93 75c-32 0 -69 -8 -97 -16v43c28 8 68 16 106 16zM143 -7c-22 0 -40 18 -40 40c0 23 18 40 40 40c23 0 40 -17 40 -40
c0 -22 -17 -40 -40 -40z" />
    <glyph glyph-name="questiondown.smcp" unicode="&#xf7bf;" horiz-adv-x="329" 
d="M188 -9c-82 0 -142 37 -142 113c0 109 124 136 124 212c0 15 -5 31 -10 42h54c4 -10 7 -28 7 -43c0 -89 -116 -116 -116 -206c0 -48 31 -75 93 -75c32 0 69 7 97 16v-43c-28 -8 -68 -16 -107 -16zM186 494c23 0 41 -18 41 -41c0 -22 -18 -39 -41 -39c-22 0 -40 17 -40 39
c0 23 18 41 40 41z" />
    <glyph glyph-name="parenleft.smcp" horiz-adv-x="241" 
d="M162 -118c-77 108 -118 244 -118 362c0 117 41 255 118 362h57c-79 -104 -122 -239 -122 -362c0 -124 43 -258 122 -362h-57z" />
    <glyph glyph-name="parenright.smcp" horiz-adv-x="241" 
d="M23 -118c79 104 121 238 121 362c0 123 -42 258 -121 362h57c76 -107 118 -245 118 -362c0 -118 -42 -254 -118 -362h-57z" />
    <glyph glyph-name="braceleft.smcp" horiz-adv-x="271" 
d="M186 -129c-58 0 -84 35 -84 81c0 44 24 114 24 170c0 53 -21 96 -102 100v43c81 4 102 47 102 100c0 56 -24 127 -24 171c0 45 26 80 84 80c18 0 33 -4 48 -8v-34c-9 3 -23 6 -37 6c-31 0 -45 -17 -45 -47c0 -41 25 -115 25 -176c0 -54 -19 -100 -91 -113
c72 -13 91 -60 91 -114c0 -61 -25 -135 -25 -176c0 -30 14 -47 45 -47c14 0 28 3 37 6v-34c-15 -4 -30 -8 -48 -8z" />
    <glyph glyph-name="braceright.smcp" horiz-adv-x="271" 
d="M85 -129c-18 0 -32 4 -48 8v34c9 -3 23 -6 38 -6c31 0 44 17 44 47c0 41 -24 115 -24 176c0 54 18 101 91 114c-73 13 -91 59 -91 113c0 61 24 135 24 176c0 30 -13 47 -44 47c-15 0 -29 -3 -38 -6v34c16 4 30 8 48 8c58 0 85 -35 85 -80c0 -44 -25 -115 -25 -171
c0 -53 21 -96 102 -100v-43c-81 -4 -102 -47 -102 -100c0 -56 25 -126 25 -170c0 -46 -27 -81 -85 -81z" />
    <glyph glyph-name="bracketleft.smcp" horiz-adv-x="269" 
d="M88 -118v724h158v-38h-107v-649h107v-37h-158z" />
    <glyph glyph-name="bracketright.smcp" horiz-adv-x="269" 
d="M24 -118v37h106v649h-106v38h157v-724h-157z" />
    <glyph glyph-name="bar.smcp" horiz-adv-x="226" 
d="M88 -118v724h50v-724h-50z" />
    <glyph glyph-name="at.smcp" horiz-adv-x="630" 
d="M289 92c-73 0 -112 55 -112 122c0 85 63 161 151 161c55 0 83 -31 94 -60h2c3 13 11 38 15 47h36c-12 -40 -36 -123 -36 -181c0 -35 9 -61 42 -61c47 0 87 49 87 133c0 138 -102 230 -235 230c-143 0 -262 -107 -262 -250c0 -139 112 -243 253 -243c54 0 101 15 139 42
l17 -25c-47 -29 -96 -46 -157 -46c-160 0 -282 118 -282 272c0 163 136 278 292 278c147 0 264 -103 264 -258c0 -105 -54 -161 -122 -161c-60 0 -70 44 -71 60h-3c-23 -33 -61 -60 -112 -60zM298 127c62 0 106 60 106 131c0 52 -24 82 -71 82c-64 0 -112 -58 -112 -126
c0 -53 30 -87 77 -87z" />
    <glyph glyph-name="ampersand.smcp" unicode="&#xf726;" horiz-adv-x="554" 
d="M209 -9c-94 0 -164 44 -164 130c0 75 54 116 113 154l-6 8c-25 28 -53 62 -53 108c0 56 41 105 117 105s112 -50 112 -101c0 -58 -45 -94 -94 -125l131 -146c25 36 41 84 47 129h-63v41h169v-41h-57c-7 -57 -28 -119 -62 -166c27 -29 54 -49 80 -49c8 0 18 2 27 6v-47
c-13 -4 -27 -6 -39 -6c-42 0 -72 25 -103 57c-38 -35 -88 -57 -155 -57zM214 36c49 0 88 18 118 47l-142 157c-48 -29 -91 -60 -91 -114c0 -59 51 -90 115 -90zM216 456c-37 0 -64 -24 -64 -62c0 -20 8 -39 43 -81l9 -10c42 27 75 54 75 93c0 30 -20 60 -63 60z" />
    <glyph glyph-name="ampersand.alt.smcp" horiz-adv-x="464" 
d="M217 -9c-93 0 -171 46 -171 137c0 62 38 106 103 125c-59 22 -88 65 -88 116c0 78 67 127 173 127c45 0 97 -8 141 -21v-96h-51v62c-20 6 -57 12 -88 12c-69 0 -119 -27 -119 -88c0 -59 46 -93 118 -93h202v-42h-48v-97c0 -79 -62 -142 -172 -142zM218 35
c83 0 118 49 118 100v95h-102c-78 0 -132 -33 -132 -100c0 -64 50 -95 116 -95z" />
    <glyph glyph-name="Agrave.smcp" unicode="&#xf7e0;" horiz-adv-x="581" 
d="M5 0v46h70l165 395h-73v46h159l183 -441h71v-46h-212v46h83l-48 115h-225l-47 -115h82v-46h-208zM196 207h190l-94 229zM333 544l-166 110l40 48l145 -135z" />
    <glyph glyph-name="Aacute.smcp" unicode="&#xf7e1;" horiz-adv-x="581" 
d="M5 0v46h70l165 395h-73v46h159l183 -441h71v-46h-212v46h83l-48 115h-225l-47 -115h82v-46h-208zM196 207h190l-94 229zM219 544l-19 23l145 135l40 -48z" />
    <glyph glyph-name="Acircumflex.smcp" unicode="&#xf7e2;" horiz-adv-x="581" 
d="M5 0v46h70l165 395h-73v46h159l183 -441h71v-46h-212v46h83l-48 115h-225l-47 -115h82v-46h-208zM196 207h190l-94 229zM150 544l-16 18l124 118h38l124 -118l-15 -18l-128 79z" />
    <glyph glyph-name="Atilde.smcp" unicode="&#xf7e3;" horiz-adv-x="581" 
d="M5 0v46h70l165 395h-73v46h159l183 -441h71v-46h-212v46h83l-48 115h-225l-47 -115h82v-46h-208zM196 207h190l-94 229zM153 547l-24 12c15 37 35 88 85 88c48 0 89 -48 130 -48c24 0 41 16 59 51l24 -13c-15 -36 -38 -87 -87 -87c-47 0 -90 47 -128 47
c-23 0 -43 -18 -59 -50z" />
    <glyph glyph-name="Adieresis.smcp" unicode="&#xf7e4;" horiz-adv-x="581" 
d="M5 0v46h70l165 395h-73v46h159l183 -441h71v-46h-212v46h83l-48 115h-225l-47 -115h82v-46h-208zM196 207h190l-94 229zM201 553c-22 0 -39 17 -39 39s17 39 39 39s39 -17 39 -39s-17 -39 -39 -39zM354 553c-22 0 -39 17 -39 39s17 39 39 39s39 -17 39 -39
s-17 -39 -39 -39z" />
    <glyph glyph-name="Aring.smcp" unicode="&#xf7e5;" horiz-adv-x="581" 
d="M5 0v46h70l165 395h-73v46h159l183 -441h71v-46h-212v46h83l-48 115h-225l-47 -115h82v-46h-208zM196 207h190l-94 229zM280 540c-62 0 -96 41 -96 90s34 89 96 89c63 0 96 -40 96 -89s-33 -90 -96 -90zM280 575c35 0 53 25 53 55s-18 54 -53 54c-34 0 -52 -24 -52 -54
s18 -55 52 -55z" />
    <glyph glyph-name="Amacron.smcp" unicode="&#xf66e;" horiz-adv-x="581" 
d="M5 0v46h70l165 395h-73v46h159l183 -441h71v-46h-212v46h83l-48 115h-225l-47 -115h82v-46h-208zM196 207h190l-94 229zM161 560v45h230v-45h-230z" />
    <glyph glyph-name="Abreve.smcp" unicode="&#xf66d;" horiz-adv-x="581" 
d="M5 0v46h70l165 395h-73v46h159l183 -441h71v-46h-212v46h83l-48 115h-225l-47 -115h82v-46h-208zM196 207h190l-94 229zM279 545c-69 0 -122 42 -126 119h44c5 -51 38 -72 82 -72s78 21 83 72h44c-5 -77 -57 -119 -127 -119z" />
    <glyph glyph-name="Aogonek.smcp" unicode="&#xf66f;" horiz-adv-x="581" 
d="M499 -177c-47 0 -85 21 -85 68c0 48 36 84 74 109h-120v46h83l-48 115h-225l-47 -115h82v-46h-208v46h70l165 395h-73v46h159l183 -441h71v-46h-45c-30 -20 -68 -56 -68 -98c0 -30 20 -41 47 -41c21 0 42 7 55 13l4 -36c-17 -7 -45 -15 -74 -15zM196 207h190l-94 229z
" />
    <glyph glyph-name="AE.smcp" unicode="&#xf7e6;" horiz-adv-x="788" 
d="M5 0v47h65l278 394h-63v46h452v-133h-53v87h-208v-173h211v-45h-211v-177h209v88h53v-134h-394v46h76v114h-207l-80 -114h70v-46h-198zM408 441l-166 -236h178v236h-12z" />
    <glyph glyph-name="AEacute.smcp" unicode="&#xf670;" horiz-adv-x="788" 
d="M5 0v47h65l278 394h-63v46h452v-133h-53v87h-208v-173h211v-45h-211v-177h209v88h53v-134h-394v46h76v114h-207l-80 -114h70v-46h-198zM408 441l-166 -236h178v236h-12zM448 544l-19 23l144 135l40 -48z" />
    <glyph glyph-name="Ccedilla.smcp" unicode="&#xf7e7;" horiz-adv-x="526" 
d="M272 -178c-16 0 -36 2 -49 4l10 35c10 -1 23 -3 38 -3c30 0 62 7 62 35c0 32 -37 37 -73 37v16l24 45c-139 9 -242 98 -242 251c0 152 103 255 269 255c66 0 128 -17 175 -37v-119h-55v89c-32 12 -77 20 -117 20c-124 0 -213 -72 -213 -206c0 -137 95 -206 214 -206
c67 0 128 22 173 47v-51c-40 -23 -100 -42 -167 -44l-14 -31c35 -3 77 -22 77 -66c0 -52 -55 -71 -112 -71z" />
    <glyph glyph-name="Cacute.smcp" unicode="&#xf671;" horiz-adv-x="526" 
d="M309 -10c-152 0 -267 90 -267 252c0 152 103 255 269 255c66 0 128 -17 175 -37v-119h-55v89c-32 12 -77 20 -117 20c-124 0 -213 -72 -213 -206c0 -137 95 -206 214 -206c67 0 128 22 173 47v-51c-41 -24 -106 -44 -179 -44zM243 548l-19 23l145 136l39 -49z" />
    <glyph glyph-name="Ccircumflex.smcp" unicode="&#xf673;" horiz-adv-x="526" 
d="M309 -10c-152 0 -267 90 -267 252c0 152 103 255 269 255c66 0 128 -17 175 -37v-119h-55v89c-32 12 -77 20 -117 20c-124 0 -213 -72 -213 -206c0 -137 95 -206 214 -206c67 0 128 22 173 47v-51c-41 -24 -106 -44 -179 -44zM172 548l-16 19l124 117h38l125 -117
l-16 -19l-128 79z" />
    <glyph glyph-name="Cdotaccent.smcp" unicode="&#xf674;" horiz-adv-x="526" 
d="M309 -10c-152 0 -267 90 -267 252c0 152 103 255 269 255c66 0 128 -17 175 -37v-119h-55v89c-32 12 -77 20 -117 20c-124 0 -213 -72 -213 -206c0 -137 95 -206 214 -206c67 0 128 22 173 47v-51c-41 -24 -106 -44 -179 -44zM301 553c-24 0 -42 19 -42 42
c0 24 18 42 42 42c23 0 42 -18 42 -42c0 -23 -19 -42 -42 -42z" />
    <glyph glyph-name="Ccaron.smcp" unicode="&#xf672;" horiz-adv-x="526" 
d="M309 -10c-152 0 -267 90 -267 252c0 152 103 255 269 255c66 0 128 -17 175 -37v-119h-55v89c-32 12 -77 20 -117 20c-124 0 -213 -72 -213 -206c0 -137 95 -206 214 -206c67 0 128 22 173 47v-51c-41 -24 -106 -44 -179 -44zM283 553l-125 118l16 18l127 -79l128 79
l16 -18l-125 -118h-37z" />
    <glyph glyph-name="Dcaron.smcp" unicode="&#xf675;" horiz-adv-x="576" 
d="M39 0v46h78v395h-78v46h224c154 0 269 -84 269 -244c0 -159 -115 -243 -269 -243h-224zM175 46h90c126 0 208 73 208 197c0 126 -82 198 -208 198h-90v-395zM262 548l-124 118l15 18l128 -79l127 79l16 -18l-124 -118h-38z" />
    <glyph glyph-name="Dcroat.smcp" unicode="&#xf676;" horiz-adv-x="577" 
d="M46 224v43h72v174h-78v46h224c153 0 269 -84 269 -244c0 -159 -116 -243 -269 -243h-224v46h78v178h-72zM175 46h91c126 0 208 73 208 197c0 126 -82 198 -208 198h-91v-174h139v-43h-139v-178z" />
    <glyph glyph-name="Egrave.smcp" unicode="&#xf7e8;" 
d="M39 0v46h78v395h-78v46h406v-133h-53v87h-217v-173h221v-45h-221v-177h219v88h53v-134h-408zM307 544l-165 110l40 48l144 -135z" />
    <glyph glyph-name="Eacute.smcp" unicode="&#xf7e9;" 
d="M39 0v46h78v395h-78v46h406v-133h-53v87h-217v-173h221v-45h-221v-177h219v88h53v-134h-408zM206 544l-19 23l144 135l40 -48z" />
    <glyph glyph-name="Ecircumflex.smcp" unicode="&#xf7ea;" 
d="M39 0v46h78v395h-78v46h406v-133h-53v87h-217v-173h221v-45h-221v-177h219v88h53v-134h-408zM130 544l-16 18l125 118h37l125 -118l-16 -18l-128 79z" />
    <glyph glyph-name="Edieresis.smcp" unicode="&#xf7eb;" 
d="M39 0v46h78v395h-78v46h406v-133h-53v87h-217v-173h221v-45h-221v-177h219v88h53v-134h-408zM184 553c-22 0 -39 17 -39 39s17 39 39 39s39 -17 39 -39s-17 -39 -39 -39zM337 553c-22 0 -39 17 -39 39s17 39 39 39s39 -17 39 -39s-17 -39 -39 -39z" />
    <glyph glyph-name="Emacron.smcp" unicode="&#xf67a;" 
d="M39 0v46h78v395h-78v46h406v-133h-53v87h-217v-173h221v-45h-221v-177h219v88h53v-134h-408zM146 560v45h230v-45h-230z" />
    <glyph glyph-name="Ebreve.smcp" unicode="&#xf677;" 
d="M39 0v46h78v395h-78v46h406v-133h-53v87h-217v-173h221v-45h-221v-177h219v88h53v-134h-408zM263 545c-70 0 -122 42 -127 119h44c5 -51 39 -72 83 -72s77 21 82 72h44c-5 -77 -57 -119 -126 -119z" />
    <glyph glyph-name="Edotaccent.smcp" unicode="&#xf679;" 
d="M39 0v46h78v395h-78v46h406v-133h-53v87h-217v-173h221v-45h-221v-177h219v88h53v-134h-408zM263 549c-23 0 -42 19 -42 42s19 42 42 42c24 0 42 -19 42 -42s-18 -42 -42 -42z" />
    <glyph glyph-name="Eogonek.smcp" unicode="&#xf67c;" 
d="M39 0v46h78v395h-78v46h406v-133h-53v87h-217v-173h221v-45h-221v-177h219v88h53v-134h-23c-30 -20 -69 -56 -69 -98c0 -30 21 -41 47 -41c22 0 43 7 56 13l3 -36c-17 -7 -44 -15 -73 -15c-48 0 -86 21 -86 68c0 48 37 84 75 109h-338z" />
    <glyph glyph-name="Ecaron.smcp" unicode="&#xf678;" 
d="M39 0v46h78v395h-78v46h406v-133h-53v87h-217v-173h221v-45h-221v-177h219v88h53v-134h-408zM246 548l-124 118l15 18l128 -79l127 79l16 -18l-125 -118h-37z" />
    <glyph glyph-name="Eth.smcp" unicode="&#xf7f0;" horiz-adv-x="577" 
d="M46 224v43h72v174h-78v46h224c153 0 269 -84 269 -244c0 -159 -116 -243 -269 -243h-224v46h78v178h-72zM175 46h91c126 0 208 73 208 197c0 126 -82 198 -208 198h-91v-174h139v-43h-139v-178z" />
    <glyph glyph-name="Gcircumflex.smcp" unicode="&#xf67e;" horiz-adv-x="587" 
d="M314 -10c-178 0 -272 105 -272 252c0 153 104 255 276 255c72 0 140 -18 184 -36v-112h-54v80c-32 10 -80 20 -128 20c-134 0 -220 -78 -220 -205c0 -112 66 -207 214 -207c58 0 105 15 143 29v142h-126v45h228v-45h-48v-173c-46 -19 -111 -45 -197 -45zM180 549l-16 18
l125 118h37l125 -118l-16 -18l-127 79z" />
    <glyph glyph-name="Gbreve.smcp" unicode="&#xf67d;" horiz-adv-x="587" 
d="M314 -10c-178 0 -272 105 -272 252c0 153 104 255 276 255c72 0 140 -18 184 -36v-112h-54v80c-32 10 -80 20 -128 20c-134 0 -220 -78 -220 -205c0 -112 66 -207 214 -207c58 0 105 15 143 29v142h-126v45h228v-45h-48v-173c-46 -19 -111 -45 -197 -45zM310 549
c-69 0 -122 42 -126 120h44c5 -52 38 -73 82 -73s78 21 83 73h44c-5 -78 -57 -120 -127 -120z" />
    <glyph glyph-name="Gdotaccent.smcp" unicode="&#xf680;" horiz-adv-x="587" 
d="M314 -10c-178 0 -272 105 -272 252c0 153 104 255 276 255c72 0 140 -18 184 -36v-112h-54v80c-32 10 -80 20 -128 20c-134 0 -220 -78 -220 -205c0 -112 66 -207 214 -207c58 0 105 15 143 29v142h-126v45h228v-45h-48v-173c-46 -19 -111 -45 -197 -45zM312 553
c-23 0 -42 19 -42 42c0 24 19 42 42 42c24 0 42 -18 42 -42c0 -23 -18 -42 -42 -42z" />
    <glyph glyph-name="Gcommaaccent.smcp" unicode="&#xf67f;" horiz-adv-x="587" 
d="M309 -74c23 0 44 -19 44 -54c0 -39 -26 -89 -65 -124l-27 20c27 33 41 63 41 90s-13 42 -31 46v8c9 7 23 14 38 14zM314 -10c-178 0 -272 105 -272 252c0 153 104 255 276 255c72 0 140 -18 184 -36v-112h-54v80c-32 10 -80 20 -128 20c-134 0 -220 -78 -220 -205
c0 -112 66 -207 214 -207c58 0 105 15 143 29v142h-126v45h228v-45h-48v-173c-46 -19 -111 -45 -197 -45z" />
    <glyph glyph-name="Hcircumflex.smcp" unicode="&#xf682;" horiz-adv-x="641" 
d="M39 0v46h78v395h-78v46h214v-46h-78v-171h292v171h-78v46h214v-46h-79v-395h79v-46h-214v46h78v177h-292v-177h78v-46h-214zM193 544l-16 18l125 118h37l125 -118l-16 -18l-127 79z" />
    <glyph glyph-name="Hbar.smcp" unicode="&#xf681;" horiz-adv-x="641" 
d="M47 342v31h70v68h-78v46h213v-46h-78v-68h293v68h-79v46h214v-46h-78v-68h70v-31h-70v-296h78v-46h-214v46h79v177h-293v-177h78v-46h-213v46h78v296h-70zM174 270h293v73h-293v-73z" />
    <glyph glyph-name="Igrave.smcp" unicode="&#xf7ec;" horiz-adv-x="292" 
d="M39 0v46h78v395h-78v46h214v-46h-78v-395h78v-46h-214zM210 544l-165 110l40 48l144 -135z" />
    <glyph glyph-name="Iacute.smcp" unicode="&#xf7ed;" horiz-adv-x="292" 
d="M39 0v46h78v395h-78v46h214v-46h-78v-395h78v-46h-214zM86 544l-19 23l145 135l39 -48z" />
    <glyph glyph-name="Icircumflex.smcp" unicode="&#xf7ee;" horiz-adv-x="292" 
d="M39 0v46h78v395h-78v46h214v-46h-78v-395h78v-46h-214zM18 544l-16 18l125 118h37l125 -118l-16 -18l-128 79z" />
    <glyph glyph-name="Idieresis.smcp" unicode="&#xf7ef;" horiz-adv-x="292" 
d="M39 0v46h78v395h-78v46h214v-46h-78v-395h78v-46h-214zM69 553c-22 0 -39 17 -39 39s17 39 39 39s39 -17 39 -39s-17 -39 -39 -39zM222 553c-22 0 -39 17 -39 39s17 39 39 39s39 -17 39 -39s-17 -39 -39 -39z" />
    <glyph glyph-name="Itilde.smcp" unicode="&#xf687;" horiz-adv-x="292" 
d="M39 0v46h78v395h-78v46h214v-46h-78v-395h78v-46h-214zM19 547l-24 12c15 37 35 88 85 88c48 0 89 -48 130 -48c24 0 41 16 59 51l24 -13c-15 -36 -38 -87 -87 -87c-47 0 -90 47 -128 47c-23 0 -43 -18 -59 -50z" />
    <glyph glyph-name="Imacron.smcp" unicode="&#xf685;" horiz-adv-x="292" 
d="M39 0v46h78v395h-78v46h214v-46h-78v-395h78v-46h-214zM31 560v45h230v-45h-230z" />
    <glyph glyph-name="Ibreve.smcp" unicode="&#xf683;" horiz-adv-x="292" 
d="M39 0v46h78v395h-78v46h214v-46h-78v-395h78v-46h-214zM145 545c-69 0 -122 42 -126 119h44c5 -51 38 -72 82 -72s78 21 83 72h44c-5 -77 -57 -119 -127 -119z" />
    <glyph glyph-name="Iogonek.smcp" unicode="&#xf686;" horiz-adv-x="292" 
d="M39 0v46h78v395h-78v46h214v-46h-78v-395h78v-46h-60c-30 -20 -69 -56 -69 -98c0 -30 21 -41 47 -41c22 0 43 7 56 13l3 -36c-17 -7 -44 -15 -73 -15c-48 0 -86 21 -86 68c0 48 37 84 75 109h-107z" />
    <glyph glyph-name="Idotaccent.smcp" unicode="&#xf6ad;" horiz-adv-x="292" 
d="M39 0v46h78v395h-78v46h214v-46h-78v-395h78v-46h-214zM145 549c-23 0 -41 19 -41 42s18 42 41 42c24 0 42 -19 42 -42s-18 -42 -42 -42z" />
    <glyph glyph-name="Jcircumflex.smcp" unicode="&#xf688;" horiz-adv-x="272" 
d="M45 -136l-20 39c37 18 82 53 82 104v434h-78v46h214v-46h-78v-439c0 -83 -70 -117 -120 -138zM8 544l-16 18l124 118h38l124 -118l-15 -18l-128 79z" />
    <glyph glyph-name="Kcommaaccent.smcp" unicode="&#xf689;" horiz-adv-x="571" 
d="M323 -69c24 0 45 -19 45 -54c0 -39 -26 -89 -66 -124l-26 20c26 33 41 63 41 90s-13 42 -32 46v8c10 7 24 14 38 14zM436 0l-222 243v4l199 195h-78v45h209v-46h-67l-196 -192l189 -203h81v-46h-115zM39 0v46h78v395h-78v46h214v-46h-78v-395h78v-46h-214z" />
    <glyph glyph-name="Lacute.smcp" unicode="&#xf68a;" horiz-adv-x="471" 
d="M39 0v46h78v395h-78v46h222v-46h-86v-395h219v93h53v-139h-408zM115 544l-19 23l144 135l40 -48z" />
    <glyph glyph-name="Lcommaaccent.smcp" unicode="&#xf68c;" horiz-adv-x="471" 
d="M270 -69c24 0 45 -19 45 -54c0 -39 -26 -89 -66 -124l-26 20c26 33 41 63 41 90s-13 42 -32 46v8c10 7 24 14 38 14zM39 0v46h78v395h-78v46h222v-46h-86v-395h219v93h53v-139h-408z" />
    <glyph glyph-name="Lcaron.smcp" unicode="&#xf68b;" horiz-adv-x="474" 
d="M354 492c24 0 45 -18 45 -53c0 -40 -26 -89 -65 -124l-27 20c27 32 41 63 41 89c0 27 -13 42 -32 46v8c10 8 24 14 38 14zM39 0v46h78v395h-78v46h222v-46h-86v-395h219v93h53v-139h-408z" />
    <glyph glyph-name="Ldot.smcp" unicode="&#xf68d;" horiz-adv-x="472" 
d="M39 0v46h78v395h-78v46h222v-46h-86v-395h219v93h53v-139h-408zM365 233c-24 0 -42 19 -42 42c0 24 18 42 42 42c23 0 42 -18 42 -42c0 -23 -19 -42 -42 -42z" />
    <glyph glyph-name="Lslash.smcp" unicode="&#xf6f9;" horiz-adv-x="471" 
d="M56 172l-18 33l79 41v195h-78v46h222v-46h-86v-167l148 77l16 -33l-164 -86v-186h219v93h53v-139h-408v46h78v158z" />
    <glyph glyph-name="Ntilde.smcp" unicode="&#xf7f1;" horiz-adv-x="635" 
d="M38 0v46h80v395h-80v46h137l298 -401v355h-82v46h214v-46h-79v-441h-50l-305 407v-361h81v-46h-214zM196 547l-24 12c15 37 35 88 85 88c48 0 89 -48 130 -48c24 0 41 16 59 51l24 -13c-15 -36 -38 -87 -87 -87c-47 0 -90 47 -128 47c-24 0 -43 -18 -59 -50z" />
    <glyph glyph-name="Nacute.smcp" unicode="&#xf68e;" horiz-adv-x="635" 
d="M38 0v46h80v395h-80v46h137l298 -401v355h-82v46h214v-46h-79v-441h-50l-305 407v-361h81v-46h-214zM275 544l-19 23l145 135l39 -48z" />
    <glyph glyph-name="Ncommaaccent.smcp" unicode="&#xf690;" horiz-adv-x="635" 
d="M333 -69c24 0 45 -19 45 -54c0 -39 -26 -89 -66 -124l-26 20c26 33 41 63 41 90s-13 42 -32 46v8c10 7 24 14 38 14zM38 0v46h80v395h-80v46h137l298 -401v355h-82v46h214v-46h-79v-441h-50l-305 407v-361h81v-46h-214z" />
    <glyph glyph-name="Ncaron.smcp" unicode="&#xf68f;" horiz-adv-x="635" 
d="M38 0v46h80v395h-80v46h137l298 -401v355h-82v46h214v-46h-79v-441h-50l-305 407v-361h81v-46h-214zM301 548l-124 118l16 18l127 -79l128 79l16 -18l-125 -118h-38z" />
    <glyph glyph-name="Eng.smcp" unicode="&#xf67b;" horiz-adv-x="635" 
d="M407 -136l-20 39c37 18 83 53 83 104v10l-299 390v-361h81v-46h-214v46h80v395h-80v46h137l298 -391v345h-82v46h214v-46h-79v-436c0 -85 -69 -120 -119 -141z" />
    <glyph glyph-name="Ograve.smcp" unicode="&#xf7f2;" horiz-adv-x="601" 
d="M300 -10c-158 0 -258 108 -258 254c0 145 100 253 258 253c159 0 259 -108 259 -253c0 -146 -100 -254 -259 -254zM300 38c119 0 200 82 200 206s-81 205 -200 205s-200 -81 -200 -205s81 -206 200 -206zM337 548l-165 110l39 49l145 -136z" />
    <glyph glyph-name="Oacute.smcp" unicode="&#xf7f3;" horiz-adv-x="601" 
d="M300 -10c-158 0 -258 108 -258 254c0 145 100 253 258 253c159 0 259 -108 259 -253c0 -146 -100 -254 -259 -254zM300 38c119 0 200 82 200 206s-81 205 -200 205s-200 -81 -200 -205s81 -206 200 -206zM247 548l-19 23l144 136l40 -49z" />
    <glyph glyph-name="Ocircumflex.smcp" unicode="&#xf7f4;" horiz-adv-x="601" 
d="M300 -10c-158 0 -258 108 -258 254c0 145 100 253 258 253c159 0 259 -108 259 -253c0 -146 -100 -254 -259 -254zM300 38c119 0 200 82 200 206s-81 205 -200 205s-200 -81 -200 -205s81 -206 200 -206zM173 548l-16 19l125 117h37l125 -117l-16 -19l-128 79z" />
    <glyph glyph-name="Otilde.smcp" unicode="&#xf7f5;" horiz-adv-x="601" 
d="M300 -10c-158 0 -258 108 -258 254c0 145 100 253 258 253c159 0 259 -108 259 -253c0 -146 -100 -254 -259 -254zM300 38c119 0 200 82 200 206s-81 205 -200 205s-200 -81 -200 -205s81 -206 200 -206zM174 552l-25 11c15 37 35 88 85 88c49 0 89 -47 130 -47
c25 0 41 16 60 51l24 -14c-15 -36 -39 -87 -88 -87c-47 0 -90 47 -128 47c-23 0 -42 -17 -58 -49z" />
    <glyph glyph-name="Odieresis.smcp" unicode="&#xf7f6;" horiz-adv-x="601" 
d="M300 -10c-158 0 -258 108 -258 254c0 145 100 253 258 253c159 0 259 -108 259 -253c0 -146 -100 -254 -259 -254zM300 38c119 0 200 82 200 206s-81 205 -200 205s-200 -81 -200 -205s81 -206 200 -206zM224 557c-22 0 -39 17 -39 39s17 39 39 39s39 -17 39 -39
s-17 -39 -39 -39zM377 557c-22 0 -39 17 -39 39s17 39 39 39s39 -17 39 -39s-17 -39 -39 -39z" />
    <glyph glyph-name="Omacron.smcp" unicode="&#xf693;" horiz-adv-x="601" 
d="M300 -10c-158 0 -258 108 -258 254c0 145 100 253 258 253c159 0 259 -108 259 -253c0 -146 -100 -254 -259 -254zM300 38c119 0 200 82 200 206s-81 205 -200 205s-200 -81 -200 -205s81 -206 200 -206zM186 564v45h230v-45h-230z" />
    <glyph glyph-name="Obreve.smcp" unicode="&#xf691;" horiz-adv-x="601" 
d="M300 -10c-158 0 -258 108 -258 254c0 145 100 253 258 253c159 0 259 -108 259 -253c0 -146 -100 -254 -259 -254zM300 38c119 0 200 82 200 206s-81 205 -200 205s-200 -81 -200 -205s81 -206 200 -206zM300 549c-70 0 -122 42 -127 120h44c5 -52 38 -73 83 -73
c44 0 77 21 82 73h44c-5 -78 -57 -120 -126 -120z" />
    <glyph glyph-name="Ohungarumlaut.smcp" unicode="&#xf692;" horiz-adv-x="601" 
d="M300 -10c-158 0 -258 108 -258 254c0 145 100 253 258 253c159 0 259 -108 259 -253c0 -146 -100 -254 -259 -254zM300 38c119 0 200 82 200 206s-81 205 -200 205s-200 -81 -200 -205s81 -206 200 -206zM202 548l-19 16l111 149l42 -39zM342 548l-19 16l111 149l41 -39z
" />
    <glyph glyph-name="Oslash.smcp" unicode="&#xf7f8;" horiz-adv-x="599" 
d="M299 -10c-64 0 -119 18 -161 49l-43 -48l-23 20l42 47c-47 46 -73 111 -73 186c0 145 100 253 258 253c65 0 120 -18 162 -49l43 48l23 -19l-43 -49c47 -45 74 -110 74 -184c0 -146 -100 -254 -259 -254zM299 449c-119 0 -200 -81 -200 -205c0 -60 19 -110 51 -146
l276 310c-33 27 -77 41 -127 41zM299 38c119 0 200 82 200 206c0 59 -18 109 -51 144l-275 -310c33 -26 76 -40 126 -40z" />
    <glyph glyph-name="Oslashacute.smcp" unicode="&#xf694;" horiz-adv-x="599" 
d="M299 -10c-64 0 -119 18 -161 49l-43 -48l-23 20l42 47c-47 46 -73 111 -73 186c0 145 100 253 258 253c65 0 120 -18 162 -49l43 48l23 -19l-43 -49c47 -45 74 -110 74 -184c0 -146 -100 -254 -259 -254zM299 449c-119 0 -200 -81 -200 -205c0 -60 19 -110 51 -146
l276 310c-33 27 -77 41 -127 41zM299 38c119 0 200 82 200 206c0 59 -18 109 -51 144l-275 -310c33 -26 76 -40 126 -40zM246 548l-19 23l144 136l40 -49z" />
    <glyph glyph-name="OE.smcp" unicode="&#xe04a;" horiz-adv-x="734" 
d="M299 0c-159 0 -256 97 -256 243s96 244 256 244h384v-133h-53v87h-208v-173h211v-45h-211v-177h209v88h53v-134h-385zM299 47h67v393h-67c-121 0 -197 -74 -197 -196c0 -123 76 -197 197 -197z" />
    <glyph glyph-name="Racute.smcp" unicode="&#xf695;" horiz-adv-x="541" 
d="M39 0v46h78v395h-78v46h233c97 0 197 -43 197 -147c0 -69 -44 -117 -119 -135l91 -159h78v-46h-116l-107 192c-10 -1 -20 -1 -28 -1h-93v-145h78v-46h-214zM175 236h97c96 0 140 41 140 102c0 63 -45 103 -140 103h-97v-205zM211 544l-19 23l144 135l40 -48z" />
    <glyph glyph-name="Rcommaaccent.smcp" unicode="&#xf697;" horiz-adv-x="541" 
d="M303 -69c24 0 44 -19 44 -54c0 -39 -25 -89 -65 -124l-27 20c27 33 41 63 41 90s-12 42 -31 46v8c9 7 23 14 38 14zM39 0v46h78v395h-78v46h233c97 0 197 -43 197 -147c0 -69 -44 -117 -119 -135l91 -159h78v-46h-116l-107 192c-10 -1 -20 -1 -28 -1h-93v-145h78v-46
h-214zM175 236h97c96 0 140 41 140 102c0 63 -45 103 -140 103h-97v-205z" />
    <glyph glyph-name="Rcaron.smcp" unicode="&#xf696;" horiz-adv-x="541" 
d="M39 0v46h78v395h-78v46h233c97 0 197 -43 197 -147c0 -69 -44 -117 -119 -135l91 -159h78v-46h-116l-107 192c-10 -1 -20 -1 -28 -1h-93v-145h78v-46h-214zM175 236h97c96 0 140 41 140 102c0 63 -45 103 -140 103h-97v-205zM246 548l-125 118l16 18l128 -79l127 79
l16 -18l-125 -118h-37z" />
    <glyph glyph-name="Sacute.smcp" unicode="&#xf698;" horiz-adv-x="440" 
d="M215 -10c-57 0 -120 11 -168 25v112h52v-76c31 -8 80 -15 116 -15c73 0 126 26 126 83c0 130 -284 77 -284 250c0 79 61 128 171 128c52 0 110 -10 151 -23v-110h-53v75c-26 6 -64 12 -96 12c-81 0 -118 -35 -118 -80c0 -124 285 -75 285 -251c0 -89 -72 -130 -182 -130z
M174 549l-19 23l145 135l39 -48z" />
    <glyph glyph-name="Scircumflex.smcp" unicode="&#xf69a;" horiz-adv-x="440" 
d="M215 -10c-57 0 -120 11 -168 25v112h52v-76c31 -8 80 -15 116 -15c73 0 126 26 126 83c0 130 -284 77 -284 250c0 79 61 128 171 128c52 0 110 -10 151 -23v-110h-53v75c-26 6 -64 12 -96 12c-81 0 -118 -35 -118 -80c0 -124 285 -75 285 -251c0 -89 -72 -130 -182 -130z
M101 548l-16 19l125 117h37l125 -117l-16 -19l-127 79z" />
    <glyph glyph-name="Scedilla.smcp" unicode="&#xf699;" horiz-adv-x="440" 
d="M186 -178c-16 0 -36 2 -48 4l9 35c10 -1 24 -3 38 -3c30 0 63 7 63 35c0 32 -38 37 -73 37v16l23 44c-52 2 -108 12 -151 25v112h52v-76c31 -8 80 -15 116 -15c73 0 126 26 126 83c0 130 -284 77 -284 250c0 79 61 128 171 128c52 0 110 -10 151 -23v-110h-53v75
c-26 6 -64 12 -96 12c-81 0 -118 -35 -118 -80c0 -124 285 -75 285 -251c0 -83 -63 -124 -161 -129l-14 -32c35 -3 77 -22 77 -66c0 -52 -56 -71 -113 -71z" />
    <glyph glyph-name="Scaron.smcp" unicode="&#xf6fd;" horiz-adv-x="440" 
d="M215 -10c-57 0 -120 11 -168 25v112h52v-76c31 -8 80 -15 116 -15c73 0 126 26 126 83c0 130 -284 77 -284 250c0 79 61 128 171 128c52 0 110 -10 151 -23v-110h-53v75c-26 6 -64 12 -96 12c-81 0 -118 -35 -118 -80c0 -124 285 -75 285 -251c0 -89 -72 -130 -182 -130z
M210 552l-124 118l15 18l128 -79l127 79l16 -18l-125 -118h-37z" />
    <glyph glyph-name="Scommaaccent.smcp" unicode="&#xf69b;" horiz-adv-x="440" 
d="M229 -74c24 0 45 -19 45 -54c0 -39 -26 -89 -65 -124l-27 20c27 33 41 63 41 90s-13 42 -31 46v8c9 7 23 14 37 14zM215 -10c-57 0 -120 11 -168 25v112h52v-76c31 -8 80 -15 116 -15c73 0 126 26 126 83c0 130 -284 77 -284 250c0 79 61 128 171 128
c52 0 110 -10 151 -23v-110h-53v75c-26 6 -64 12 -96 12c-81 0 -118 -35 -118 -80c0 -124 285 -75 285 -251c0 -89 -72 -130 -182 -130z" />
    <glyph glyph-name="Tcommaaccent.smcp" unicode="&#xf69e;" horiz-adv-x="499" 
d="M250 -69c24 0 44 -19 44 -54c0 -39 -25 -89 -65 -124l-26 20c26 33 40 63 40 90s-12 42 -31 46v8c10 7 23 14 38 14zM136 0v46h85v395h-142v-87h-53v133h447v-133h-53v87h-142v-395h86v-46h-228z" />
    <glyph glyph-name="uni021A.smcp" horiz-adv-x="499" 
d="M250 -69c24 0 44 -19 44 -54c0 -39 -25 -89 -65 -124l-26 20c26 33 40 63 40 90s-12 42 -31 46v8c10 7 23 14 38 14zM136 0v46h85v395h-142v-87h-53v133h447v-133h-53v87h-142v-395h86v-46h-228z" />
    <glyph glyph-name="Tcaron.smcp" unicode="&#xf69d;" horiz-adv-x="499" 
d="M136 0v46h85v395h-142v-87h-53v133h447v-133h-53v87h-142v-395h86v-46h-228zM230 548l-124 118l16 18l127 -79l128 79l16 -18l-125 -118h-38z" />
    <glyph glyph-name="Tbar.smcp" unicode="&#xf69c;" horiz-adv-x="501" 
d="M102 217v39h120v185h-142v-87h-53v133h447v-133h-53v87h-142v-185h120v-39h-120v-171h86v-46h-228v46h85v171h-120z" />
    <glyph glyph-name="Thorn.smcp" unicode="&#xf7fe;" horiz-adv-x="482" 
d="M40 0v46h76v395h-76v46h226v-46h-93v-52h87c97 0 191 -35 191 -142c0 -105 -92 -141 -191 -141h-87v-60h93v-46h-226zM173 151h88c90 0 133 34 133 96c0 63 -43 96 -133 96h-88v-192z" />
    <glyph glyph-name="Ugrave.smcp" unicode="&#xf7f9;" horiz-adv-x="595" 
d="M299 -10c-110 0 -196 55 -196 170v281h-78v46h214v-46h-78v-279c0 -91 64 -124 139 -124c76 0 137 36 137 124v279h-79v46h212v-46h-78v-278c0 -112 -77 -173 -193 -173zM336 544l-165 110l40 48l144 -135z" />
    <glyph glyph-name="Uacute.smcp" unicode="&#xf7fa;" horiz-adv-x="595" 
d="M299 -10c-110 0 -196 55 -196 170v281h-78v46h214v-46h-78v-279c0 -91 64 -124 139 -124c76 0 137 36 137 124v279h-79v46h212v-46h-78v-278c0 -112 -77 -173 -193 -173zM252 544l-19 23l145 135l39 -48z" />
    <glyph glyph-name="Ucircumflex.smcp" unicode="&#xf7fb;" horiz-adv-x="595" 
d="M299 -10c-110 0 -196 55 -196 170v281h-78v46h214v-46h-78v-279c0 -91 64 -124 139 -124c76 0 137 36 137 124v279h-79v46h212v-46h-78v-278c0 -112 -77 -173 -193 -173zM173 544l-16 18l124 118h38l124 -118l-15 -18l-128 79z" />
    <glyph glyph-name="Udieresis.smcp" unicode="&#xf7fc;" horiz-adv-x="595" 
d="M299 -10c-110 0 -196 55 -196 170v281h-78v46h214v-46h-78v-279c0 -91 64 -124 139 -124c76 0 137 36 137 124v279h-79v46h212v-46h-78v-278c0 -112 -77 -173 -193 -173zM223 553c-22 0 -39 17 -39 39s17 39 39 39s39 -17 39 -39s-17 -39 -39 -39zM376 553
c-22 0 -39 17 -39 39s17 39 39 39s39 -17 39 -39s-17 -39 -39 -39z" />
    <glyph glyph-name="Utilde.smcp" unicode="&#xf6a4;" horiz-adv-x="595" 
d="M299 -10c-110 0 -196 55 -196 170v281h-78v46h214v-46h-78v-279c0 -91 64 -124 139 -124c76 0 137 36 137 124v279h-79v46h212v-46h-78v-278c0 -112 -77 -173 -193 -173zM173 547l-25 12c16 37 36 88 85 88s89 -48 130 -48c25 0 42 16 60 51l24 -13
c-15 -36 -39 -87 -88 -87c-47 0 -90 47 -128 47c-23 0 -42 -18 -58 -50z" />
    <glyph glyph-name="Umacron.smcp" unicode="&#xf6a1;" horiz-adv-x="595" 
d="M299 -10c-110 0 -196 55 -196 170v281h-78v46h214v-46h-78v-279c0 -91 64 -124 139 -124c76 0 137 36 137 124v279h-79v46h212v-46h-78v-278c0 -112 -77 -173 -193 -173zM182 560v45h230v-45h-230z" />
    <glyph glyph-name="Ubreve.smcp" unicode="&#xf69f;" horiz-adv-x="595" 
d="M299 -10c-110 0 -196 55 -196 170v281h-78v46h214v-46h-78v-279c0 -91 64 -124 139 -124c76 0 137 36 137 124v279h-79v46h212v-46h-78v-278c0 -112 -77 -173 -193 -173zM299 545c-70 0 -122 42 -126 119h43c6 -51 39 -72 83 -72s78 21 83 72h44
c-5 -77 -57 -119 -127 -119z" />
    <glyph glyph-name="Uring.smcp" unicode="&#xf6a3;" horiz-adv-x="595" 
d="M299 -10c-110 0 -196 55 -196 170v281h-78v46h214v-46h-78v-279c0 -91 64 -124 139 -124c76 0 137 36 137 124v279h-79v46h212v-46h-78v-278c0 -112 -77 -173 -193 -173zM301 540c-63 0 -96 41 -96 90s33 89 96 89c62 0 95 -40 95 -89s-33 -90 -95 -90zM301 575
c34 0 52 25 52 55s-18 54 -52 54c-35 0 -53 -24 -53 -54s18 -55 53 -55z" />
    <glyph glyph-name="Uhungarumlaut.smcp" unicode="&#xf6a0;" horiz-adv-x="595" 
d="M299 -10c-110 0 -196 55 -196 170v281h-78v46h214v-46h-78v-279c0 -91 64 -124 139 -124c76 0 137 36 137 124v279h-79v46h212v-46h-78v-278c0 -112 -77 -173 -193 -173zM209 543l-19 17l111 149l41 -40zM349 543l-19 17l111 149l41 -40z" />
    <glyph glyph-name="Uogonek.smcp" unicode="&#xf6a2;" horiz-adv-x="595" 
d="M358 -177c-48 0 -86 21 -86 68c0 42 30 77 62 101c-12 -1 -22 -2 -36 -2c-109 0 -195 55 -195 170v281h-78v46h214v-46h-78v-279c0 -91 64 -124 139 -124c76 0 137 36 137 124v279h-79v46h212v-46h-78v-278c0 -86 -43 -123 -85 -150c-28 -19 -82 -56 -82 -109
c0 -33 22 -43 48 -43c21 0 42 7 55 13l4 -36c-18 -7 -45 -15 -74 -15z" />
    <glyph glyph-name="Wcircumflex.smcp" unicode="&#xf6a6;" horiz-adv-x="796" 
d="M225 0l-151 441h-70v46h210v-44h-83l123 -372l120 327l-18 45h-71v44h211v-44h-84l134 -371l122 370h-83v45h208v-46h-70l-152 -441h-53l-119 326l-121 -326h-53zM264 544l-16 18l124 118h38l124 -118l-15 -18l-128 79z" />
    <glyph glyph-name="Yacute.smcp" unicode="&#xf7fd;" horiz-adv-x="540" 
d="M159 0v46h82v135l-167 260h-71v46h213v-45h-81l136 -211l136 212h-80v44h210v-46h-72l-167 -260v-135h82v-46h-221zM218 544l-19 23l145 135l40 -48z" />
    <glyph glyph-name="Ycircumflex.smcp" unicode="&#xf6a9;" horiz-adv-x="540" 
d="M159 0v46h82v135l-167 260h-71v46h213v-45h-81l136 -211l136 212h-80v44h210v-46h-72l-167 -260v-135h82v-46h-221zM143 544l-16 18l125 118h37l125 -118l-16 -18l-128 79z" />
    <glyph glyph-name="Ydieresis.smcp" unicode="&#xf7ff;" horiz-adv-x="540" 
d="M159 0v46h82v135l-167 260h-71v46h213v-45h-81l136 -211l136 212h-80v44h210v-46h-72l-167 -260v-135h82v-46h-221zM195 553c-22 0 -40 17 -40 39s18 39 40 39c21 0 39 -17 39 -39s-18 -39 -39 -39zM347 553c-21 0 -39 17 -39 39s18 39 39 39c22 0 40 -17 40 -39
s-18 -39 -40 -39z" />
    <glyph glyph-name="Zcaron.smcp" unicode="&#xf6ff;" horiz-adv-x="482" 
d="M42 0v46l316 394h-256v-90h-55v137h380v-47l-316 -394h277v96h53v-142h-399zM225 548l-125 118l16 18l127 -79l128 79l16 -18l-125 -118h-37z" />
    <glyph glyph-name="Zacute.smcp" unicode="&#xf6ab;" horiz-adv-x="482" 
d="M42 0v46l316 394h-256v-90h-55v137h380v-47l-316 -394h277v96h53v-142h-399zM190 544l-19 23l144 135l40 -48z" />
    <glyph glyph-name="Zdotaccent.smcp" unicode="&#xf6ac;" horiz-adv-x="482" 
d="M42 0v46l316 394h-256v-90h-55v137h380v-47l-316 -394h277v96h53v-142h-399zM244 549c-24 0 -42 19 -42 42s18 42 42 42c23 0 42 -19 42 -42s-19 -42 -42 -42z" />
    <glyph glyph-name="dieresis.smcp" unicode="&#xf7a8;" horiz-adv-x="340" 
d="M94 553c-22 0 -39 17 -39 39s17 39 39 39s39 -17 39 -39s-17 -39 -39 -39zM247 553c-22 0 -39 17 -39 39s17 39 39 39s39 -17 39 -39s-17 -39 -39 -39z" />
    <glyph glyph-name="grave.smcp" unicode="&#xf760;" horiz-adv-x="272" 
d="M214 544l-165 110l40 48l144 -135z" />
    <glyph glyph-name="tilde.smcp" unicode="&#xf6fe;" horiz-adv-x="394" 
d="M79 547l-25 12c16 37 36 88 85 88s89 -48 130 -48c25 0 42 16 60 51l24 -13c-15 -36 -39 -87 -88 -87c-47 0 -90 47 -128 47c-23 0 -42 -18 -58 -50z" />
    <glyph glyph-name="circumflex.smcp" unicode="&#xf6f6;" horiz-adv-x="371" 
d="M57 544l-16 18l125 118h37l125 -118l-16 -18l-127 79z" />
    <glyph glyph-name="acute.smcp" unicode="&#xf7b4;" horiz-adv-x="279" 
d="M67 544l-19 23l145 135l39 -48z" />
    <glyph glyph-name="ring.smcp" unicode="&#xf6fc;" horiz-adv-x="307" 
d="M152 540c-62 0 -96 41 -96 90s34 89 96 89c63 0 96 -40 96 -89s-33 -90 -96 -90zM152 575c35 0 53 25 53 55s-18 54 -53 54c-34 0 -52 -24 -52 -54s18 -55 52 -55z" />
    <glyph glyph-name="cedilla.smcp" unicode="&#xf7b8;" horiz-adv-x="250" 
d="M88 -178c-16 0 -36 2 -48 4l9 35c10 -1 24 -3 38 -3c30 0 63 7 63 35c0 32 -38 37 -73 37v16l38 73l30 -10l-21 -50c35 -3 77 -22 77 -66c0 -52 -56 -71 -113 -71z" />
    <glyph glyph-name="caron.smcp" unicode="&#xf6f5;" horiz-adv-x="377" 
d="M164 548l-124 118l16 18l127 -79l128 79l16 -18l-125 -118h-38z" />
    <glyph glyph-name="ogonek.smcp" unicode="&#xf6fb;" horiz-adv-x="237" 
d="M130 -177c-47 0 -85 21 -85 68c0 63 64 106 108 129l23 -14c-30 -20 -78 -58 -78 -104c0 -30 20 -41 47 -41c21 0 42 7 55 13l4 -36c-17 -7 -45 -15 -74 -15z" />
    <glyph glyph-name="breve.smcp" unicode="&#xf6f4;" horiz-adv-x="316" 
d="M161 545c-70 0 -122 42 -127 119h44c5 -51 39 -72 83 -72s77 21 82 72h44c-5 -77 -57 -119 -126 -119z" />
    <glyph glyph-name="hungarumlaut.smcp" unicode="&#xf6f8;" horiz-adv-x="400" 
d="M72 543l-19 17l111 149l42 -40zM212 543l-19 17l111 149l42 -40z" />
    <glyph glyph-name="dotaccent.smcp" unicode="&#xf6f7;" horiz-adv-x="204" 
d="M102 549c-24 0 -42 19 -42 42s18 42 42 42c23 0 42 -19 42 -42s-19 -42 -42 -42z" />
    <glyph glyph-name="macron.smcp" unicode="&#xf7af;" horiz-adv-x="345" 
d="M57 560v45h230v-45h-230z" />
    <glyph glyph-name="onehalf" unicode="&#xbd;" horiz-adv-x="790" 
d="M48 248v39h80v280c-22 -13 -45 -27 -67 -27c-16 0 -28 8 -27 31l99 38h43v-322h70v-39h-198zM502 0l-8 36c63 48 201 126 201 227c0 43 -25 68 -78 68c-26 0 -50 -7 -66 -15c3 -4 5 -12 5 -20c0 -19 -14 -31 -32 -31c-21 0 -33 16 -33 33c0 40 64 72 134 72
c72 0 120 -35 120 -104c0 -99 -99 -174 -180 -224h194v-42h-257zM226 -8l-37 20l354 605l37 -19z" />
    <glyph glyph-name="onequarter" unicode="&#xbc;" horiz-adv-x="765" 
d="M51 248v39h79v279c-22 -13 -45 -27 -67 -27c-16 0 -28 9 -26 32l98 38h44v-322h70v-39h-198zM232 -8l-36 19l354 606l37 -20zM571 0v35h64v63h-184v34c59 68 105 161 114 235c29 7 41 -3 41 -26c0 -48 -53 -151 -102 -206h134v49c11 20 19 39 26 61h19v-110h51v-37h-50
v-63h48v-35h-161z" />
    <glyph glyph-name="threequarters" unicode="&#xbe;" horiz-adv-x="794" 
d="M170 240c-56 0 -130 22 -130 62c0 19 14 34 35 34c19 0 32 -14 32 -30c0 -6 -2 -11 -4 -16c14 -6 36 -13 63 -13c54 0 90 26 90 71c0 48 -41 68 -102 68h-31v37h31c57 0 92 22 92 64c0 41 -31 62 -81 62c-24 0 -46 -5 -60 -12c4 -4 5 -10 5 -15c0 -16 -13 -31 -33 -31
s-33 16 -33 33c0 38 62 64 126 64c74 0 125 -36 125 -95c0 -40 -23 -72 -69 -87c50 -12 80 -43 80 -91c0 -69 -63 -105 -136 -105zM262 -8l-37 19l355 606l36 -20zM601 0v35h63v63h-184v34c59 68 106 161 114 235c30 7 42 -3 42 -26c0 -48 -54 -151 -103 -206h134v49
c12 20 19 39 26 61h19v-110h52v-37h-51v-63h48v-35h-160z" />
    <glyph glyph-name="numero" unicode="&#x2116;" horiz-adv-x="1041" 
d="M835 158c-90 0 -158 61 -158 166c0 103 68 165 158 165c91 0 158 -62 158 -165c0 -105 -67 -166 -158 -166zM835 205c61 0 106 44 106 119c0 73 -45 119 -106 119c-60 0 -105 -46 -105 -119c0 -75 45 -119 105 -119zM682 42v46h307v-46h-307zM38 0v49h96v511h-96v49h153
l322 -510v461h-96v49h245v-49h-96v-560h-50l-329 520v-471h96v-49h-245z" />
    <glyph glyph-name="T_h" horiz-adv-x="1054" 
d="M532 0v47h79v512h-292v-509h102v-50h-265v50h103v509h-182v-110h-55v160h592l9 98h46v-348c48 45 107 76 169 76c76 0 124 -47 124 -138v-250h79v-47h-216v47h79v243c0 57 -21 96 -81 96c-59 0 -113 -37 -154 -74v-265h79v-47h-216z" />
    <glyph glyph-name="c_t" horiz-adv-x="772" 
d="M254 -11c-133 0 -215 85 -215 222c0 139 84 224 217 224c34 0 69 -7 98 -15v43c0 71 41 121 131 121h132v-160h136v-48h-136v-262c0 -55 24 -78 77 -78c26 0 49 5 65 11v-45c-27 -9 -47 -13 -79 -13c-48 0 -121 15 -121 122v265h-74v48h74v116h-73c-61 0 -85 -29 -85 -82
v-173h-50v88c-23 7 -58 14 -92 14c-108 0 -161 -72 -161 -173c0 -108 60 -177 161 -177c51 0 101 17 143 43v-49c-40 -25 -89 -42 -148 -42z" />
    <glyph glyph-name="s_t" unicode="&#xfb06;" horiz-adv-x="713" 
d="M195 -11c-52 0 -111 11 -154 25v104h49v-68c29 -8 69 -15 104 -15c61 0 110 20 110 69c0 110 -255 57 -255 213c0 72 54 118 156 118c29 0 60 -5 89 -10v38c0 71 40 121 131 121h132v-160h137v-48h-137v-262c0 -55 24 -78 78 -78c26 0 49 5 64 11v-45
c-26 -9 -47 -13 -79 -13c-47 0 -121 15 -121 122v265h-73v48h73v116h-73c-61 0 -85 -29 -85 -82v-147h-50v67c-24 5 -56 11 -85 11c-67 0 -102 -27 -102 -68c0 -112 255 -55 255 -214c0 -75 -60 -118 -164 -118z" />
    <glyph glyph-name="space" unicode=" " horiz-adv-x="225" 
 />
    </font>
</defs>
</svg>
