<?xml version="1.0" encoding="UTF-8" standalone="no"?>
<svg
   xmlns:dc="http://purl.org/dc/elements/1.1/"
   xmlns:cc="http://creativecommons.org/ns#"
   xmlns:rdf="http://www.w3.org/1999/02/22-rdf-syntax-ns#"
   xmlns:svg="http://www.w3.org/2000/svg"
   xmlns="http://www.w3.org/2000/svg"
   xmlns:sodipodi="http://sodipodi.sourceforge.net/DTD/sodipodi-0.dtd"
   xmlns:inkscape="http://www.inkscape.org/namespaces/inkscape"
   width="115"
   height="84"
   viewBox="0 0 92 67.2"
   version="1.1"
   id="svg2"
   inkscape:version="0.91 r13725"
   sodipodi:docname="icon02.svg">
  <metadata
     id="metadata11">
    <rdf:RDF>
      <cc:Work
         rdf:about="">
        <dc:format>image/svg+xml</dc:format>
        <dc:type
           rdf:resource="http://purl.org/dc/dcmitype/StillImage" />
        <dc:title></dc:title>
      </cc:Work>
    </rdf:RDF>
  </metadata>
  <defs
     id="defs9" />
  <sodipodi:namedview
     pagecolor="#ffffff"
     bordercolor="#666666"
     borderopacity="1"
     objecttolerance="10"
     gridtolerance="10"
     guidetolerance="10"
     inkscape:pageopacity="0"
     inkscape:pageshadow="2"
     inkscape:window-width="1920"
     inkscape:window-height="1051"
     id="namedview7"
     showgrid="false"
     units="px"
     inkscape:zoom="2.8179104"
     inkscape:cx="-42.428496"
     inkscape:cy="-22.533928"
     inkscape:window-x="0"
     inkscape:window-y="1024"
     inkscape:window-maximized="1"
     inkscape:current-layer="svg2" />
  <g
     id="#fbfbfbfb"
     transform="translate(4.8,-9.4)">
    <path
       d="m 10.46,15.29 c 8.13,-4.4 18.61,-4.31 26.63,0.31 4.93,2.82 8.87,8.29 7.72,14.22 9.15,-8.01 24.74,-7.71 33.38,0.94 4.43,4.27 5.11,11.84 1.27,16.69 -5.12,6.81 -14.37,9.04 -22.49,8 -2.83,2.63 -6.21,5.92 -10.42,5.24 0.08,-2.79 2.59,-4.83 2.7,-7.69 -5.59,-2.74 -11.12,-9.23 -8.5,-15.69 -1.63,1.29 -3.16,2.77 -5.12,3.58 -0.23,2.87 2.58,4.85 2.68,7.55 -4.45,1.6 -7.78,-3.22 -11.28,-4.91 C 21.13,44.07 14.97,43.19 9.84,40.08 5.59,37.58 1.85,33.17 2.06,27.98 1.75,22.44 5.9,17.83 10.46,15.29 m 1.38,2.34 c -3.17,1.84 -6.16,4.63 -6.9,8.36 -1.06,4.11 1.42,8.2 4.61,10.62 5.25,4.08 12.21,4.78 18.62,4.08 2.09,1 3.46,3.1 5.54,4.19 -0.38,-2.01 -1.94,-4.38 0.14,-5.98 3.51,-2.02 7.19,-4.68 8.16,-8.86 C 43.31,25.4 40.21,20.82 36.42,18.4 29.18,13.74 19.39,13.59 11.84,17.63 M 48.98,30 c -4.04,2.37 -7.34,7.12 -6.07,11.97 0.88,3.98 4.23,6.72 7.58,8.68 2.44,1.25 0.89,4.26 0.68,6.28 2.3,-1.35 3.8,-4.75 6.82,-4.16 7.32,0.85 15.79,-1.33 19.94,-7.88 2.65,-4.11 1.32,-9.68 -2.22,-12.82 C 68.56,25.65 57.1,25.11 48.98,30 Z"
       id="path5"
       inkscape:connector-curvature="0"
       style="opacity:1;fill:#fbfbfb" />
  </g>
</svg>
