<?xml version="1.0" encoding="UTF-8" standalone="no"?>
<svg
   xmlns:dc="http://purl.org/dc/elements/1.1/"
   xmlns:cc="http://creativecommons.org/ns#"
   xmlns:rdf="http://www.w3.org/1999/02/22-rdf-syntax-ns#"
   xmlns:svg="http://www.w3.org/2000/svg"
   xmlns="http://www.w3.org/2000/svg"
   xmlns:sodipodi="http://sodipodi.sourceforge.net/DTD/sodipodi-0.dtd"
   xmlns:inkscape="http://www.inkscape.org/namespaces/inkscape"
   width="87pt"
   height="83pt"
   viewBox="0 0 87 83"
   version="1.1"
   id="svg2"
   inkscape:version="0.91 r13725"
   sodipodi:docname="icon07.svg">
  <metadata
     id="metadata119">
    <rdf:RDF>
      <cc:Work
         rdf:about="">
        <dc:format>image/svg+xml</dc:format>
        <dc:type
           rdf:resource="http://purl.org/dc/dcmitype/StillImage" />
      </cc:Work>
    </rdf:RDF>
  </metadata>
  <defs
     id="defs117">
    <inkscape:perspective
       sodipodi:type="inkscape:persp3d"
       inkscape:vp_x="0 : 41.5 : 1"
       inkscape:vp_y="0 : 1000 : 0"
       inkscape:vp_z="87 : 41.5 : 1"
       inkscape:persp3d-origin="43.5 : 27.666667 : 1"
       id="perspective4263" />
  </defs>
  <sodipodi:namedview
     pagecolor="#ffffff"
     bordercolor="#666666"
     borderopacity="1"
     objecttolerance="10"
     gridtolerance="10"
     guidetolerance="10"
     inkscape:pageopacity="0"
     inkscape:pageshadow="2"
     inkscape:window-width="1920"
     inkscape:window-height="1051"
     id="namedview115"
     showgrid="false"
     inkscape:zoom="36.395181"
     inkscape:cx="39.029421"
     inkscape:cy="23.525487"
     inkscape:window-x="0"
     inkscape:window-y="1024"
     inkscape:window-maximized="1"
     inkscape:current-layer="svg2" />
  <g
     id="#65656565" />
  <g
     id="#44444444" />
  <g
     id="#191b1a1e" />
  <g
     id="#f0f0f0f0">
    <path
       fill="#f0f0f0"
       opacity="0.94"
       d=" M 43.12 46.70 C 43.13 46.51 43.16 46.14 43.17 45.95 C 43.29 56.06 43.08 66.18 43.25 76.30 C 33.82 76.44 24.35 75.87 14.95 76.72 C 14.15 76.74 13.49 76.45 12.96 75.84 C 16.04 74.69 18.87 76.23 22.00 76.03 C 28.98 75.94 35.96 76.09 42.94 75.91 C 43.01 66.17 42.77 56.43 43.12 46.70 Z"
       id="path11" />
  </g>
  <g
     id="#252a222b" />
  <g
     id="#f25556ff">
    <path
       fill="#f25556"
       opacity="1.00"
       d=" M 10.57 12.06 C 12.50 9.40 16.16 10.29 18.98 10.12 C 36.32 10.56 53.70 9.42 71.00 10.85 C 74.17 10.79 79.42 9.98 79.36 14.67 C 78.62 23.23 79.17 31.83 79.01 40.40 C 78.98 44.34 79.01 48.28 79.00 52.22 C 79.00 53.48 79.00 54.74 79.00 56.00 C 79.00 58.34 79.02 60.67 79.01 63.00 C 79.00 65.29 78.99 67.57 79.00 69.86 C 79.02 71.95 79.07 74.05 79.04 76.14 C 78.30 79.52 74.58 78.77 71.97 78.91 C 61.49 78.83 51.02 78.77 40.54 78.99 C 35.90 78.76 31.26 78.88 26.62 78.91 C 21.97 78.78 17.31 78.97 12.66 78.79 C 12.16 78.73 11.15 78.61 10.64 78.55 C 9.94 72.73 10.18 66.86 10.17 61.01 C 10.40 44.70 9.72 28.35 10.57 12.06 M 46.18 12.81 L 46.38 13.22 C 46.66 23.18 46.36 33.18 46.46 43.12 L 46.27 43.37 C 56.29 43.19 66.40 44.43 76.37 42.98 C 76.10 32.92 76.23 22.86 76.29 12.80 C 66.26 12.96 56.21 12.94 46.18 12.81 M 12.85 13.04 C 12.92 23.10 12.86 33.16 12.89 43.21 C 22.97 43.10 33.06 43.18 43.14 43.16 C 43.17 33.08 43.23 22.99 43.13 12.91 C 33.04 12.94 22.94 12.73 12.85 13.04 M 13.10 45.80 C 12.74 54.86 12.75 63.96 13.10 73.03 C 13.06 73.73 12.99 75.14 12.96 75.84 C 13.49 76.45 14.15 76.74 14.95 76.72 C 24.35 75.87 33.82 76.44 43.25 76.30 C 43.08 66.18 43.29 56.06 43.17 45.95 C 43.16 46.14 43.13 46.51 43.12 46.70 C 39.14 45.89 35.06 46.26 31.03 46.20 C 25.07 46.28 19.08 45.92 13.14 46.64 L 13.10 45.80 M 46.11 46.10 C 46.09 56.15 46.15 66.20 46.04 76.25 C 56.10 76.25 66.17 76.25 76.23 76.24 C 76.22 66.19 76.18 56.14 76.24 46.09 C 66.20 46.07 56.15 46.06 46.11 46.10 Z"
       id="path15" />
  </g>
  <g
     id="#ffffffff">
    <path
       fill="#ffffff"
       opacity="1.00"
       d=" M 46.18 12.81 C 56.21 12.94 66.26 12.96 76.29 12.80 C 76.23 22.86 76.10 32.92 76.37 42.98 C 66.40 44.43 56.29 43.19 46.27 43.37 L 46.46 43.12 C 46.96 43.05 47.97 42.92 48.48 42.85 C 57.55 43.52 66.69 43.71 75.76 42.94 C 75.83 41.64 75.90 40.34 75.94 39.04 C 75.97 30.62 76.00 22.21 75.93 13.80 L 75.90 13.19 C 66.83 13.02 57.76 13.04 48.69 13.23 C 48.11 13.23 46.96 13.23 46.38 13.22 L 46.18 12.81 Z"
       id="path33" />
    <path
       fill="#ffffff"
       opacity="1.00"
       d=" M 13.10 45.80 L 13.14 46.64 C 13.21 55.43 13.29 64.24 13.10 73.03 C 12.75 63.96 12.74 54.86 13.10 45.80 Z"
       id="path35" />
    <path
       fill="#ffffff"
       opacity="1.00"
       d=" M 29.48 65.22 L 30.04 65.10 L 29.96 65.45 C 29.84 65.39 29.60 65.28 29.48 65.22 Z"
       id="path37" />
  </g>
  <g
     id="#81818181" />
  <g
     id="#f25453ff">
    <path
       fill="#f25453"
       opacity="1.00"
       d=" M 27.40 19.26 C 28.07 19.22 29.42 19.13 30.09 19.09 C 30.15 21.33 30.19 23.57 30.24 25.81 C 32.68 26.00 35.42 25.32 37.56 26.82 C 36.98 30.00 32.64 28.32 30.30 28.70 C 30.20 31.20 30.06 33.70 29.79 36.19 C 29.29 36.01 28.29 35.64 27.79 35.46 C 27.72 35.40 27.59 35.28 27.53 35.21 C 27.19 33.09 27.31 30.93 27.25 28.78 C 24.99 28.75 22.72 28.71 20.45 28.65 C 20.42 28.01 20.37 26.74 20.35 26.11 C 22.66 25.97 24.97 25.87 27.28 25.81 C 27.31 23.63 27.35 21.44 27.40 19.26 Z"
       id="path44" />
  </g>
  <g
     id="#40504b50" />
  <g
     id="#1f1f1f23" />
  <g
     id="#f4575cff">
    <path
       fill="#f4575c"
       opacity="1.00"
       d=" M 53.79 25.45 C 58.91 25.16 64.07 25.30 69.19 25.34 C 69.65 25.53 70.55 25.91 71.00 26.10 C 71.06 26.68 71.17 27.84 71.23 28.42 L 71.31 29.23 C 66.20 29.06 61.09 28.91 55.99 29.17 C 55.08 29.04 54.17 28.88 53.28 28.69 C 52.56 27.58 53.36 26.48 53.79 25.45 Z"
       id="path49" />
  </g>
  <g
     id="#3e4a3c4b">
    <path
       fill="#3e4a3c"
       opacity="0.29"
       d=" M 49.27 30.20 C 49.81 30.70 49.81 30.70 49.27 30.20 Z"
       id="path52" />
  </g>
  <g
     id="#a1a1a1a1" />
  <g
     id="#1c1e1a21" />
  <g
     id="#11101111" />
  <g
     id="#bdbdbdbd" />
  <g
     id="#20202021" />
  <g
     id="#3e3e3e3e" />
  <g
     id="#f15159ff">
    <path
       d="M 22.025847,54.56821 C 22.999735,54.34 26.81,57.11 28.78,59.04 31.025847,57.098019 33.735657,53.801409 36.375943,55.732362 35.905943,56.592362 35.37,57.86 34.89,58.71 c -1.09,1.02 -2.16,2.08 -3.07,3.27 1.37,1.76 3.29,3.07 4.35,5.06 -0.8,0.85 -1.68,1.62 -2.54,2.41 -0.95,-1.06 -1.9,-2.13 -2.85,-3.19 l -0.59,-0.69 c -0.04,-0.12 -0.11,-0.35 -0.15,-0.47 -0.759809,-1.078496 -1.014057,-1.532172 -1.61,-0.23 -0.45,0.54 -1.36,1.61 -1.81,2.14 L 26.19,66.74 C 25.61,66.35 24.45,65.58 23.87,65.2 l -0.03,-0.5 0.04396,-0.112267 c 0.59,-0.62 1.596133,-1.708114 2.296038,-2.757733 -1.4,-1.36 -2.81,-2.7 -4.15,-4.12 -0.567439,-0.230699 -0.43537,-0.725365 -0.439714,-1.112362 z"
       id="path79"
       inkscape:connector-curvature="0"
       style="opacity:1;fill:#f15159"
       sodipodi:nodetypes="cccccccccccccccccccc" />
    <path
       d="m 24.14339,65.965466 -0.119523,-0.06208 c -0.04,0.18 0.10179,-0.285276 0.06179,-0.09528 z"
       id="path81"
       inkscape:connector-curvature="0"
       style="opacity:1;fill:#f15159"
       sodipodi:nodetypes="cccc" />
    <path
       d="M 23.471504,66.405752 23.69,65.94 24.2,66.96 c -0.41,0.06 -1.23,0.17 -1.64,0.23 0.113333,-0.356667 1.863607,-0.08601 0.911504,-0.784248 z"
       id="path83"
       inkscape:connector-curvature="0"
       style="opacity:1;fill:#f15159"
       sodipodi:nodetypes="ccccc" />
  </g>
  <g
     id="#332b3333">
    <path
       fill="#332b33"
       opacity="0.20"
       d=" M 40.18 55.23 C 40.67 55.75 40.67 55.75 40.18 55.23 Z"
       id="path86" />
  </g>
  <g
     id="#39404545">
    <path
       fill="#394045"
       opacity="0.27"
       d=" M 36.28 58.95 C 36.80 59.46 36.80 59.46 36.28 58.95 Z"
       id="path95" />
  </g>
  <g
     id="#6c6c6c6c" />
  <g
     id="#f05a5bff">
    <path
       fill="#f05a5b"
       opacity="1.00"
       d=" M 53.15 65.02 C 58.85 64.51 64.60 64.53 70.30 64.90 C 70.28 65.48 70.24 66.65 70.21 67.23 C 64.73 67.71 59.21 67.39 53.71 67.39 C 53.57 66.80 53.29 65.61 53.15 65.02 Z"
       id="path99" />
  </g>
  <g
     id="#39464446">
    <path
       fill="#394644"
       opacity="0.27"
       d=" M 18.27 68.27 C 18.74 68.83 18.74 68.83 18.27 68.27 Z"
       id="path102" />
  </g>
  <g
     id="#93939394" />
  <g
     id="#b8b8b8b8" />
  <g
     id="#2f3b3b3b">
    <path
       fill="#2f3b3b"
       opacity="0.23"
       d=" M 41.36 74.37 C 41.88 74.86 41.88 74.86 41.36 74.37 Z"
       id="path110" />
  </g>
  <g
     id="#dfdfdfdf" />
  <g
     id="#c9c9c9c9" />
  <g
     id="#c8c8c8c8" />
  <rect
     style="fill:#f15159;fill-opacity:1"
     id="rect4306"
     width="3.9877787"
     height="6.0767655"
     x="66.158279"
     y="3.164726"
     ry="0"
     transform="matrix(0.42193052,0.90662817,-0.65530862,0.75536125,0,0)" />
</svg>
