<?xml version="1.0" encoding="UTF-8" standalone="no"?>
<svg
   xmlns:dc="http://purl.org/dc/elements/1.1/"
   xmlns:cc="http://creativecommons.org/ns#"
   xmlns:rdf="http://www.w3.org/1999/02/22-rdf-syntax-ns#"
   xmlns:svg="http://www.w3.org/2000/svg"
   xmlns="http://www.w3.org/2000/svg"
   xmlns:sodipodi="http://sodipodi.sourceforge.net/DTD/sodipodi-0.dtd"
   xmlns:inkscape="http://www.inkscape.org/namespaces/inkscape"
   width="105"
   height="83.75"
   viewBox="0 0 84 67"
   version="1.1"
   id="svg2"
   inkscape:version="0.91 r13725"
   sodipodi:docname="4.svg">
  <metadata
     id="metadata27">
    <rdf:RDF>
      <cc:Work
         rdf:about="">
        <dc:format>image/svg+xml</dc:format>
        <dc:type
           rdf:resource="http://purl.org/dc/dcmitype/StillImage" />
        <dc:title></dc:title>
      </cc:Work>
    </rdf:RDF>
  </metadata>
  <defs
     id="defs25" />
  <sodipodi:namedview
     pagecolor="#ffffff"
     bordercolor="#666666"
     borderopacity="1"
     objecttolerance="10"
     gridtolerance="10"
     guidetolerance="10"
     inkscape:pageopacity="0"
     inkscape:pageshadow="2"
     inkscape:window-width="1920"
     inkscape:window-height="1051"
     id="namedview23"
     showgrid="false"
     units="px"
     inkscape:zoom="2.8179104"
     inkscape:cx="31.334746"
     inkscape:cy="41.875"
     inkscape:window-x="0"
     inkscape:window-y="1024"
     inkscape:window-maximized="1"
     inkscape:current-layer="svg2" />
  <g
     id="#fdfdfdfd"
     transform="translate(17.6,1.6)">
    <path
       d="m 24.94,0 1.22,0 c 2.82,0.33 4.09,2.87 4.81,5.3 1.85,0.04 3.7,0.07 5.56,0.11 0.02,2.36 0.01,4.72 -0.02,7.08 -7.27,0.15 -14.56,0.16 -21.84,-0.01 -0.02,-2.35 -0.03,-4.7 -0.01,-7.06 1.8,-0.04 3.6,-0.07 5.4,-0.11 C 21.01,3.02 22.29,0.57 24.94,0 M 23.5,3.42 c -0.02,1.02 0.04,2.04 0.17,3.05 0.57,1.49 2.42,0.81 3.62,1.04 C 27.52,6.2 28.01,4.83 27.39,3.54 26.2,2.88 24.78,3.41 23.5,3.42 Z"
       id="path5"
       inkscape:connector-curvature="0"
       style="opacity:1;fill:#fdfdfd" />
    <path
       d="m 39.05,6.55 c 2.41,-0.02 4.82,0 7.23,0 1,1.15 2,2.31 2.72,3.67 l 0,48.54 c -0.37,2.38 -2.41,4.43 -4.92,4.15 C 32.38,62.99 20.67,62.89 8.97,62.96 7.15,62.86 4.9,63.17 3.58,61.6 2.02,60.17 2.2,57.93 2.16,56.02 2.26,41.03 2.09,26.04 2.23,11.05 2.09,8.9 4.17,7.76 5.51,6.47 7.76,6.52 10.01,6.54 12.27,6.58 12.25,7.51 12.24,8.43 12.23,9.36 9.95,9.4 7.68,9.44 5.41,9.55 4.98,26.24 5.3,42.95 5.24,59.64 c 1.88,0.42 3.79,0.71 5.72,0.67 10.69,-0.07 21.38,0.01 32.06,-0.03 1.43,0.23 3.33,-0.61 3.21,-2.28 C 46.39,44.66 46.21,31.33 46.3,17.99 46.34,15.13 46.4,12.23 45.62,9.45 43.51,9.42 41.39,9.42 39.28,9.43 39.2,8.47 39.13,7.51 39.05,6.55 Z"
       id="path7"
       inkscape:connector-curvature="0"
       style="opacity:1;fill:#fdfdfd" />
    <path
       d="m 13.49,19.48 c 1.63,-0.01 3.27,0 4.9,0.04 1.12,1.09 2.21,2.22 3.26,3.38 0.41,2.9 -0.45,5.53 -2.61,7.52 -2.02,0.25 -4.18,0.81 -6.12,-0.11 -2,-1.09 -2.48,-3.49 -3.46,-5.36 0.94,-2.1 2.21,-4.03 4.03,-5.47 m 1.23,6.32 c -0.43,-0.58 -1.3,-1.74 -1.73,-2.32 -0.45,0.1 -1.36,0.28 -1.82,0.38 0.71,1.87 1.88,3.48 3.1,5.05 0.39,-0.14 1.19,-0.42 1.59,-0.56 1.09,-2.39 4.09,-3.93 3.56,-6.86 -2.01,0.9 -3.39,2.61 -4.7,4.31 z"
       id="path9"
       inkscape:connector-curvature="0"
       style="opacity:1;fill:#fdfdfd" />
    <path
       d="m 23.96,22.78 c 5.53,-0.2 11.07,-0.02 16.6,-0.12 0.31,0.4 0.93,1.21 1.25,1.61 -5.7,0.78 -11.5,0.35 -17.23,0.32 -0.16,-0.45 -0.46,-1.36 -0.62,-1.81 z"
       id="path11"
       inkscape:connector-curvature="0"
       style="opacity:1;fill:#fdfdfd" />
    <path
       d="m 28.22,29.3 c 4.14,0.12 8.3,-0.13 12.44,0.12 0.26,0.46 0.77,1.38 1.02,1.84 -4.52,0.24 -9.04,0.1 -13.56,0.12 0.02,-0.52 0.07,-1.56 0.1,-2.08 z"
       id="path13"
       inkscape:connector-curvature="0"
       style="opacity:1;fill:#fdfdfd" />
    <path
       d="m 9.58,38.98 c 1.33,-2.01 2.64,-4.76 5.45,-4.75 3.37,-0.67 7.14,2.34 6.62,5.86 0.37,2.45 -1.76,3.98 -3.3,5.46 -1.98,0.05 -4.35,0.7 -5.92,-0.9 -1.85,-1.31 -2.35,-3.6 -2.85,-5.67 m 5.27,1.49 c -0.98,-1.01 -2.05,-1.91 -3.22,-2.7 -0.7,2.76 1.72,4.53 3.34,6.26 1.35,-2.63 4.99,-4.5 4.4,-7.7 -1.94,0.86 -3.28,2.49 -4.52,4.14 z"
       id="path15"
       inkscape:connector-curvature="0"
       style="opacity:1;fill:#fdfdfd" />
    <path
       d="m 23.31,36.86 c 5.85,-0.95 11.91,-0.61 17.8,-0.29 l 0.36,1.59 c -5.49,-0.03 -11.02,0.31 -16.5,-0.13 l -1.66,-1.17 z"
       id="path17"
       inkscape:connector-curvature="0"
       style="opacity:1;fill:#fdfdfd" />
    <path
       d="m 28.09,43.27 c 4.26,-0.01 8.52,-0.02 12.77,0.01 0.26,0.23 0.77,0.7 1.03,0.94 -4.21,1.99 -9.03,0.57 -13.51,1.03 -0.07,-0.5 -0.22,-1.49 -0.29,-1.98 z"
       id="path19"
       inkscape:connector-curvature="0"
       style="opacity:1;fill:#fdfdfd" />
    <path
       d="m 9.03,50.98 c 1.24,-0.47 2.45,-1.22 3.84,-1.07 8.06,-0.05 16.11,0.03 24.16,-0.03 1.76,-0.11 3.5,0.19 5.04,1.07 -0.72,0.31 -2.16,0.93 -2.89,1.24 C 30.04,51.64 20.86,52.18 11.7,52.02 10.79,51.71 9.9,51.37 9.03,50.98 Z"
       id="path21"
       inkscape:connector-curvature="0"
       style="opacity:1;fill:#fdfdfd" />
  </g>
</svg>
