<?xml version="1.0" encoding="UTF-8" standalone="no"?>
<svg
   xmlns:dc="http://purl.org/dc/elements/1.1/"
   xmlns:cc="http://creativecommons.org/ns#"
   xmlns:rdf="http://www.w3.org/1999/02/22-rdf-syntax-ns#"
   xmlns:svg="http://www.w3.org/2000/svg"
   xmlns="http://www.w3.org/2000/svg"
   xmlns:sodipodi="http://sodipodi.sourceforge.net/DTD/sodipodi-0.dtd"
   xmlns:inkscape="http://www.inkscape.org/namespaces/inkscape"
   width="105"
   height="83.75"
   viewBox="0 0 84 67"
   version="1.1"
   id="svg2"
   inkscape:version="0.91 r13725"
   sodipodi:docname="icon01.svg">
  <metadata
     id="metadata21">
    <rdf:RDF>
      <cc:Work
         rdf:about="">
        <dc:format>image/svg+xml</dc:format>
        <dc:type
           rdf:resource="http://purl.org/dc/dcmitype/StillImage" />
        <dc:title />
      </cc:Work>
    </rdf:RDF>
  </metadata>
  <defs
     id="defs19" />
  <sodipodi:namedview
     pagecolor="#ffffff"
     bordercolor="#666666"
     borderopacity="1"
     objecttolerance="10"
     gridtolerance="10"
     guidetolerance="10"
     inkscape:pageopacity="0"
     inkscape:pageshadow="2"
     inkscape:window-width="1920"
     inkscape:window-height="1051"
     id="namedview17"
     showgrid="false"
     units="px"
     inkscape:zoom="127.52407"
     inkscape:cx="16.523307"
     inkscape:cy="81.067021"
     inkscape:window-x="0"
     inkscape:window-y="1024"
     inkscape:window-maximized="1"
     inkscape:current-layer="svg2" />
  <g
     id="#fcfcfcfc"
     transform="translate(11.2,1.6)">
    <path
       d="m 1.93,0 59.01,0 c 0.86,1.53 1.07,3.27 1,4.99 -0.07,17.73 0.03,35.45 -0.05,53.17 0.29,1.7 -0.99,3.18 -2.75,2.8 -17.7,0.12 -35.4,-0.03 -53.1,0.07 C 3.99,61.12 1.97,60.84 0.01,60.25 L 0,60.96 0,1.79 C 1.14,1.76 1.79,1.16 1.93,0 m 1.64,2.84 c 0.02,8.76 0.02,17.52 0,26.28 8.6,0 17.2,0 25.79,0 -0.01,-8.76 -0.02,-17.52 0.01,-26.28 -8.6,-0.01 -17.2,-0.01 -25.8,0 m 29.19,0 c 0.01,8.76 0.01,17.52 0,26.28 8.59,0 17.19,0 25.79,0 -0.03,-8.76 -0.03,-17.52 0,-26.28 -8.6,0 -17.2,0 -25.79,0 M 3.58,31.95 c 0,8.78 0.02,17.56 -0.01,26.33 8.6,0.01 17.2,0.01 25.8,0.01 -0.03,-8.78 -0.01,-17.56 -0.01,-26.34 -8.6,0 -17.19,0 -25.78,0 m 29.18,0.01 c 0.01,8.77 0.01,17.55 0,26.33 8.6,0 17.2,0 25.8,-0.01 -0.04,-8.77 -0.03,-17.55 -0.01,-26.32 -8.6,-0.01 -17.19,-0.01 -25.79,0 z"
       id="path5"
       inkscape:connector-curvature="0"
       style="opacity:1;fill:#fcfcfc" />
    <path
       d="m 15.45,8.35 c 0.59,-1.13 3.63,-0.98 3.28,0.71 0.13,1.62 0.08,3.24 0.09,4.86 2.27,0.16 4.76,-0.31 6.8,0.97 -1.11,2.8 -4.49,1.63 -6.79,1.95 -0.02,2.02 -0.04,4.04 -0.21,6.05 -1.06,0.02 -2.12,-0.07 -3.16,-0.26 -0.3,-1.91 -0.18,-3.85 -0.2,-5.77 -2.47,-0.1 -5.41,0.42 -7,-1.98 2.22,-0.94 4.63,-0.94 7,-0.98 0.03,-1.85 -0.13,-3.72 0.19,-5.55 z"
       id="path7"
       inkscape:connector-curvature="0"
       style="opacity:1;fill:#fcfcfc" />
    <path
       d="m 38.13,16.04 c -0.28,-2.79 3.17,-1.84 4.91,-2.09 4.02,0.23 8.27,-0.68 12.08,0.98 -1.91,2.72 -5.34,1.68 -8.13,1.88 -2.94,-0.19 -6.1,0.53 -8.86,-0.77 z"
       id="path9"
       inkscape:connector-curvature="0"
       style="opacity:1;fill:#fcfcfc" />
    <path
       d="m 10.51,40.87 c 2.67,-2.33 4.76,0.8 6.55,2.58 1.84,-1.63 4.03,-5.1 6.62,-2.47 -1.12,1.85 -2.77,3.27 -4.26,4.81 1.21,1.76 4.5,3.04 3.7,5.52 -2.74,1.38 -4.27,-1.81 -6.07,-3.24 -1.78,1.88 -3.68,4.62 -6.67,3.13 0.97,-2.18 2.77,-3.76 4.42,-5.41 -1.53,-1.54 -3.25,-2.97 -4.29,-4.92 z"
       id="path11"
       inkscape:connector-curvature="0"
       style="opacity:1;fill:#fcfcfc" />
    <path
       d="M 38.39,40.97 C 43.53,40.27 48.85,40.34 54,40.91 l 0.47,1.08 -0.45,1.11 c -5.15,0.66 -10.54,0.73 -15.68,-0.07 0.02,-0.52 0.04,-1.55 0.05,-2.06 z"
       id="path13"
       inkscape:connector-curvature="0"
       style="opacity:1;fill:#fcfcfc" />
    <path
       d="m 38.02,48.88 c 5.11,-1.41 10.89,-1.04 16.09,-0.25 l 0.46,1.53 c -1.96,1.3 -4.4,0.68 -6.59,0.83 -3.14,-0.16 -6.37,0.38 -9.44,-0.4 -0.13,-0.43 -0.39,-1.28 -0.52,-1.71 z"
       id="path15"
       inkscape:connector-curvature="0"
       style="opacity:1;fill:#fcfcfc" />
  </g>
  <rect
     style="fill:#fcfcfc;fill-opacity:0.87349632"
     id="rect3343"
     width="2.3587704"
     height="1.982371"
     x="11.191613"
     y="1.6068547" />
  <rect
     style="fill:#ffffff;fill-opacity:0.87349632"
     id="rect3344"
     width="2.8857298"
     height="1.6247914"
     x="11.191613"
     y="1.606855" />
</svg>
