<?xml version="1.0" encoding="UTF-8" standalone="no"?>
<svg
   xmlns:dc="http://purl.org/dc/elements/1.1/"
   xmlns:cc="http://creativecommons.org/ns#"
   xmlns:rdf="http://www.w3.org/1999/02/22-rdf-syntax-ns#"
   xmlns:svg="http://www.w3.org/2000/svg"
   xmlns="http://www.w3.org/2000/svg"
   xmlns:sodipodi="http://sodipodi.sourceforge.net/DTD/sodipodi-0.dtd"
   xmlns:inkscape="http://www.inkscape.org/namespaces/inkscape"
   width="52pt"
   height="52pt"
   viewBox="0 0 52 52"
   version="1.1"
   id="svg2"
   inkscape:version="0.91 r13725"
   sodipodi:docname="icon20.svg">
  <metadata
     id="metadata106">
    <rdf:RDF>
      <cc:Work
         rdf:about="">
        <dc:format>image/svg+xml</dc:format>
        <dc:type
           rdf:resource="http://purl.org/dc/dcmitype/StillImage" />
      </cc:Work>
    </rdf:RDF>
  </metadata>
  <defs
     id="defs104" />
  <sodipodi:namedview
     pagecolor="#ffffff"
     bordercolor="#666666"
     borderopacity="1"
     objecttolerance="10"
     gridtolerance="10"
     guidetolerance="10"
     inkscape:pageopacity="0"
     inkscape:pageshadow="2"
     inkscape:window-width="1920"
     inkscape:window-height="1051"
     id="namedview102"
     showgrid="false"
     inkscape:zoom="10.269366"
     inkscape:cx="22.6252"
     inkscape:cy="40.053103"
     inkscape:window-x="0"
     inkscape:window-y="1024"
     inkscape:window-maximized="1"
     inkscape:current-layer="#70797bff" />
  <g
     id="#70797bff">
    <path
       d="M 6.85,8.87 C 15.14,-0.2 29.97,-1.87 40.22,4.8 46.4,8.48 50.07,14.98 52,21.72 l 0,8.43 C 49.46,42.12 38.41,51.62 26,51.28 13.63,51.64 2.66,42.17 0,30.29 L 0,21.92 C 1.49,17.22 3.23,12.39 6.85,8.87 m 8.77,-0.4856729 c 2.07,-1.02 5.200622,-3.3006223 6.660622,-5.1306223 -2.34,0.54 -17.2437628,10.0117662 -16.8657309,11.9080612 m -1.515282,5.269247 C 11.039609,17.251013 23.751737,8.2064255 30.551737,4.2764255 L 28.123343,3.7311144 c -5.77,4.12 -19.5806514,11.4208826 -25.0806514,15.9208826 M 26.57,10.71 C 23.4,12.4 29.59058,9.0306069 23.4,12.4 18,16.47 11.64,19.17 6.51,23.57 0.12535604,28.628936 0.86690031,27.591187 7.4525904,25.748886 11.86259,23.368886 29.68855,7.7469943 37.547236,5.6767289 c -2.6,3.13 -21.7234,17.2979601 -25.421924,19.5873381 -4.0424564,2.237955 -14.0780273,9.935634 -5.8825913,7.894819 1.75,-0.7 -2.6263243,1.294457 -1.0063243,0.334457 C -0.53788648,35.301932 9.4042599,30.021002 12.35,26.24 20.127707,20.73902 41.524673,8.2602114 39.15,8.35 39.07,7.76 38.91,6.57 38.82,5.98 37.61,6.8 36.39,7.63 35.17,8.45 -1.744708,36.562337 12.742984,21.850591 37.19,5.15 33.09,4.32 30.22,9.17 26.57,10.71 M 15.35,26.774689 4.8511863,35.303242 C 14.401186,29.923242 32.387771,17.836426 42.027771,12.596426 42.207771,12.236426 43.98,10.25 44.16,9.88 m 0.39,1.68 c -1.432721,1.256295 -2.415311,2.062098 -3.585311,2.832098 C 31.064689,20.392098 21.39,25.94 11.69,32.27 c -0.02374,0.144272 -0.2,0.213333 -0.3,0.32 -3.5947125,2.789011 -7.9750261,6.081365 -0.266165,2.078886 C 22.635311,27.883082 33.25,19.53 46,13.08 45.64,12.7 44.91,11.94 44.55,11.56 M 10.734732,37.242388 c -1.5754236,1.089884 -2.9966307,3.746281 0.729813,1.693765 1.752286,-0.965155 8.319247,-4.86953 10.262112,-6.035192 C 30.348435,27.728148 39.954829,21.260648 42.63,19.53 c 2.418785,-2.191476 3.032952,-1.664689 4.43,-5.6 M 41.505803,25.308394 C 31.435803,31.438394 21.37,38.15 11.35,44.33 c 0.49,0.37 0.836787,0.408886 1.316787,0.778886 2.798934,-1.456785 11.688666,-7.436157 18.276194,-11.312359 4.016212,-2.446972 5.961444,-3.456318 14.075744,-9.091554 1.822887,-1.265963 4.823228,-2.405392 5.512028,-5.622875 M 9.5647608,42.80534 C 20.916567,36.614043 39.675401,25.232318 49.099277,18.135543 40.499769,22.19233 16.963154,37.033734 15.329479,38.364949 m 5.829899,9.951838 1.77246,0.589508 C 27.567641,46.406426 35.126787,42.104197 39.926787,38.544197 45.20406,34.940441 46.577709,34.673477 50.259508,29.628394 48.219508,30.378394 46.1,32.03 44.35,33.29 m -10.343705,2.280984 c -2.409076,1.850973 -18.419453,10.387692 -18.687048,10.468886 0.46,0.21 2.091115,0.484197 2.561115,0.694197 5.197901,-2.711969 11.94272,-6.381477 17.60272,-9.861477 5.209624,-3.859002 13.994853,-8.749735 15.709668,-13.153241 M 28.20987,49.681114 C 31.73987,49.501114 35.9,46.54 38.42,44.33 c 5.381664,-3.828166 9.19466,-5.977453 11.044327,-10.065311 -3.12,2.2 -8.156425,5.452229 -10.543343,7.400492"
       id="path62"
       inkscape:connector-curvature="0"
       style="opacity:1;fill:#70797b"
       sodipodi:nodetypes="cccccccccccccccccccccccccccccccccccccccccssccccccscccccccccccccccccc" />
    <path
       fill="#70797b"
       opacity="1.00"
       d=" M 18.07 18.28 C 18.45 17.88 19.22 17.08 19.61 16.68 C 19.22 17.08 18.45 17.88 18.07 18.28 Z"
       id="path80" />
    <path
       fill="#70797b"
       opacity="1.00"
       d=" M 15.90 19.35 C 16.44 19.08 17.53 18.55 18.07 18.28 C 17.53 18.55 16.44 19.08 15.90 19.35 Z"
       id="path84" />
    <path
       fill="#70797b"
       opacity="1.00"
       d=" M 4.28 27.71 C 4.41 27.55 4.67 27.25 4.80 27.10 C 4.67 27.25 4.41 27.55 4.28 27.71 Z"
       id="path96" />
  </g>
</svg>
