<?xml version="1.0" encoding="UTF-8" standalone="no"?>
<svg
   xmlns:dc="http://purl.org/dc/elements/1.1/"
   xmlns:cc="http://creativecommons.org/ns#"
   xmlns:rdf="http://www.w3.org/1999/02/22-rdf-syntax-ns#"
   xmlns:svg="http://www.w3.org/2000/svg"
   xmlns="http://www.w3.org/2000/svg"
   xmlns:sodipodi="http://sodipodi.sourceforge.net/DTD/sodipodi-0.dtd"
   xmlns:inkscape="http://www.inkscape.org/namespaces/inkscape"
   width="151pt"
   height="77pt"
   viewBox="0 0 151 77"
   version="1.1"
   id="svg2"
   inkscape:version="0.91 r13725"
   sodipodi:docname="icon05.svg">
  <metadata
     id="metadata95">
    <rdf:RDF>
      <cc:Work
         rdf:about="">
        <dc:format>image/svg+xml</dc:format>
        <dc:type
           rdf:resource="http://purl.org/dc/dcmitype/StillImage" />
      </cc:Work>
    </rdf:RDF>
  </metadata>
  <defs
     id="defs93" />
  <sodipodi:namedview
     pagecolor="#ffffff"
     bordercolor="#666666"
     borderopacity="1"
     objecttolerance="10"
     gridtolerance="10"
     guidetolerance="10"
     inkscape:pageopacity="0"
     inkscape:pageshadow="2"
     inkscape:window-width="1920"
     inkscape:window-height="1051"
     id="namedview91"
     showgrid="false"
     inkscape:zoom="19.327152"
     inkscape:cx="93.12115"
     inkscape:cy="12.845242"
     inkscape:window-x="0"
     inkscape:window-y="1024"
     inkscape:window-maximized="1"
     inkscape:current-layer="svg2" />
  <g
     id="#a8a8a8a8" />
  <g
     id="#8d8d8c8e" />
  <g
     id="#6c6c6c6c" />
  <g
     id="#46464446" />
  <g
     id="#26262626" />
  <g
     id="#13141314" />
  <g
     id="#cbcbcbcb">
    <path
       fill="#cbcbcb"
       opacity="0.80"
       d=" M 11.23 11.01 L 11.90 10.63 C 11.19 14.06 11.50 17.56 11.46 21.04 C 11.45 30.37 11.50 39.71 11.42 49.05 C 11.36 50.72 11.63 52.38 12.04 53.99 L 11.06 54.02 C 11.25 39.69 10.95 25.34 11.23 11.01 Z"
       id="path11" />
    <path
       fill="#cbcbcb"
       opacity="0.80"
       d=" M 72.95 27.30 C 92.21 27.11 111.49 27.12 130.75 27.29 C 130.97 38.54 130.79 49.80 130.85 61.05 L 130.11 60.19 C 130.44 49.48 130.17 38.76 130.25 28.04 C 111.33 27.91 92.40 28.10 73.48 27.96 L 72.95 27.30 Z"
       id="path13" />
    <path
       fill="#cbcbcb"
       opacity="0.80"
       d=" M 72.71 31.96 C 72.97 30.67 71.96 28.69 73.48 27.96 C 73.44 38.68 73.54 49.40 73.43 60.12 L 72.79 59.46 C 72.63 50.31 72.81 41.13 72.71 31.96 Z"
       id="path15" />
    <path
       fill="#cbcbcb"
       opacity="0.80"
       d=" M 59.51 67.56 C 60.83 65.74 63.37 66.67 65.26 66.70 C 63.83 66.83 62.41 66.97 60.98 67.11 C 61.06 67.72 61.22 68.92 61.30 69.52 C 61.58 69.76 62.14 70.22 62.42 70.45 L 63.23 71.08 C 61.08 71.47 59.67 69.47 59.51 67.56 Z"
       id="path17" />
  </g>
  <g
     id="#3ea842ff">
    <path
       fill="#3ea842"
       opacity="1.00"
       d=" M 8.65 7.70 C 11.69 6.88 14.86 7.17 17.97 7.21 C 40.52 7.25 63.07 7.23 85.63 7.24 C 85.45 12.94 85.58 18.65 85.67 24.35 C 101.44 24.70 117.21 24.31 132.97 24.59 C 133.11 36.38 133.14 48.17 133.17 59.96 C 133.41 61.61 133.71 64.86 131.05 64.34 C 111.22 64.29 91.39 64.37 71.57 64.48 C 70.90 62.93 70.75 61.24 70.60 59.58 C 59.10 59.89 47.55 59.59 36.08 59.36 C 27.31 60.02 18.47 59.46 9.68 59.68 C 9.31 59.34 8.59 58.66 8.23 58.32 C 8.12 43.19 8.27 28.05 8.10 12.92 C 8.08 11.16 8.39 9.43 8.65 7.70 M 10.28 13.01 C 10.30 26.88 10.28 40.74 10.36 54.61 C 14.88 55.24 19.45 55.05 24.00 55.07 C 37.65 54.92 51.31 55.09 64.97 55.08 C 67.02 55.10 69.08 55.00 71.09 54.59 L 70.50 54.27 L 70.98 53.15 C 71.19 43.77 70.78 34.37 71.19 24.98 C 75.05 23.92 79.59 25.62 83.13 24.04 C 83.09 19.39 83.36 14.71 82.97 10.07 L 81.83 9.75 C 81.63 9.56 81.21 9.17 81.01 8.97 C 58.36 8.63 35.68 8.93 13.02 8.77 C 10.55 8.39 10.14 11.22 10.28 13.01 M 72.95 27.30 L 73.48 27.96 C 71.96 28.69 72.97 30.67 72.71 31.96 C 72.81 41.13 72.63 50.31 72.79 59.46 L 73.43 60.12 L 73.42 60.91 C 92.29 61.00 111.17 60.91 130.05 61.00 L 130.11 60.19 L 130.85 61.05 C 130.79 49.80 130.97 38.54 130.75 27.29 C 111.49 27.12 92.21 27.11 72.95 27.30 Z"
       id="path20" />
  </g>
  <g
     id="#69b864fb">
    <path
       fill="#69b864"
       opacity="1.00"
       d=" M 10.28 13.01 C 10.14 11.22 10.55 8.39 13.02 8.77 C 35.68 8.93 58.36 8.63 81.01 8.97 C 81.21 9.17 81.63 9.56 81.83 9.75 C 60.11 10.81 38.29 9.35 16.58 10.53 C 16.19 10.53 15.40 10.53 15.01 10.53 C 14.23 10.56 12.67 10.60 11.90 10.63 L 11.23 11.01 C 10.95 25.34 11.25 39.69 11.06 54.02 L 12.04 53.99 C 13.39 53.95 14.74 53.92 16.10 53.90 C 32.71 53.90 49.33 53.85 65.94 53.93 C 67.26 53.97 68.57 54.06 69.87 54.19 L 70.50 54.27 L 71.09 54.59 C 69.08 55.00 67.02 55.10 64.97 55.08 C 51.31 55.09 37.65 54.92 24.00 55.07 C 19.45 55.05 14.88 55.24 10.36 54.61 C 10.28 40.74 10.30 26.88 10.28 13.01 Z"
       id="path23" />
  </g>
  <g
     id="#6a6c6d6d" />
  <g
     id="#56585265">
    <path
       fill="#565852"
       opacity="0.40"
       d=" M 16.58 10.53 C 38.29 9.35 60.11 10.81 81.83 9.75 L 81.84 10.95 C 79.56 10.89 77.29 10.85 75.01 10.85 C 72.30 10.85 69.59 10.87 66.87 10.88 C 50.11 10.66 33.32 11.33 16.58 10.53 Z"
       id="path27" />
  </g>
  <g
     id="#57565759" />
  <g
     id="#44434345" />
  <g
     id="#2e2e2e2e" />
  <g
     id="#1c1c1c1c" />
  <g
     id="#3e3e3e3e" />
  <g
     id="#66656666" />
  <g
     id="#8b8c8c8d" />
  <g
     id="#b1f2acff">
    <path
       fill="#b1f2ac"
       opacity="1.00"
       d=" M 8.10 59.38 C 8.23 59.50 8.50 59.75 8.64 59.87 L 8.15 59.85 L 8.10 59.38 Z"
       id="path64" />
  </g>
  <g
     id="#34343337" />
  <g
     id="#474c474e" />
  <g
     id="#3fa841ff">
    <path
       fill="#3fa841"
       opacity="1.00"
       d=" M 39.91 60.61 C 44.72 60.60 49.52 60.59 54.33 60.67 C 54.37 64.23 54.71 67.94 57.10 70.79 C 50.97 70.89 44.83 70.54 38.71 70.97 C 38.19 70.97 37.16 70.98 36.64 70.98 C 39.37 68.20 39.82 64.33 39.91 60.61 Z"
       id="path69" />
  </g>
  <g
     id="#acacacad" />
  <g
     id="#47a942ff">
    <path
       fill="#47a942"
       opacity="1.00"
       d=" M 60.98 67.11 C 62.41 66.97 63.83 66.83 65.26 66.70 L 65.87 66.75 C 67.49 66.80 69.11 66.90 70.73 66.90 C 78.26 67.14 85.81 66.63 93.34 67.02 C 94.18 67.93 95.10 68.74 96.11 69.46 C 92.25 70.95 88.05 70.11 84.03 70.28 C 76.83 70.41 69.61 69.96 62.42 70.45 C 62.14 70.22 61.58 69.76 61.30 69.52 C 61.22 68.92 61.06 67.72 60.98 67.11 Z"
       id="path73" />
    <path
       fill="#47a942"
       opacity="1.00"
       d=" M 110.62 67.07 C 117.94 66.56 125.35 67.10 132.70 66.81 C 136.03 66.89 139.36 66.88 142.68 66.85 C 142.57 67.67 142.34 69.31 142.22 70.12 L 141.22 70.36 C 129.82 70.22 118.43 70.42 107.03 70.29 C 103.48 70.18 99.75 70.98 96.40 69.42 C 99.95 68.72 103.56 69.15 107.15 68.95 C 108.66 69.15 109.76 68.19 110.62 67.07 Z"
       id="path75" />
  </g>
  <g
     id="#94ca93ff" />
  <g
     id="#5eb35eff">
    <path
       fill="#5eb35e"
       opacity="1.00"
       d=" M 96.11 69.46 L 96.40 69.42 C 99.75 70.98 103.48 70.18 107.03 70.29 C 118.43 70.42 129.82 70.22 141.22 70.36 C 138.19 71.12 135.06 70.91 131.97 70.94 C 121.27 70.89 110.58 70.97 99.88 70.91 C 96.67 70.93 93.45 70.95 90.24 70.95 C 88.22 70.96 86.19 70.96 84.17 70.96 C 82.50 70.97 80.83 71.00 79.16 71.01 C 77.12 71.01 75.08 71.00 73.04 70.99 C 71.45 71.00 69.86 70.99 68.27 71.01 C 66.59 71.02 64.91 71.07 63.23 71.08 L 62.42 70.45 C 69.61 69.96 76.83 70.41 84.03 70.28 C 88.05 70.11 92.25 70.95 96.11 69.46 Z"
       id="path79" />
  </g>
  <g
     id="#14161416" />
  <g
     id="#4d4d4c4d" />
  <g
     id="#60606060" />
  <g
     id="#71717172" />
  <g
     id="#82818083" />
  <g
     id="#93929393" />
  <g
     id="#9f9f9ea1" />
</svg>
