<?xml version="1.0" encoding="UTF-8" standalone="no"?>
<svg
   xmlns:dc="http://purl.org/dc/elements/1.1/"
   xmlns:cc="http://creativecommons.org/ns#"
   xmlns:rdf="http://www.w3.org/1999/02/22-rdf-syntax-ns#"
   xmlns:svg="http://www.w3.org/2000/svg"
   xmlns="http://www.w3.org/2000/svg"
   xmlns:sodipodi="http://sodipodi.sourceforge.net/DTD/sodipodi-0.dtd"
   xmlns:inkscape="http://www.inkscape.org/namespaces/inkscape"
   width="61pt"
   height="62pt"
   viewBox="0 0 61 62"
   version="1.1"
   id="svg2"
   inkscape:version="0.91 r13725"
   sodipodi:docname="icon-18.svg">
  <metadata
     id="metadata23">
    <rdf:RDF>
      <cc:Work
         rdf:about="">
        <dc:format>image/svg+xml</dc:format>
        <dc:type
           rdf:resource="http://purl.org/dc/dcmitype/StillImage" />
      </cc:Work>
    </rdf:RDF>
  </metadata>
  <defs
     id="defs21" />
  <sodipodi:namedview
     pagecolor="#ffffff"
     bordercolor="#666666"
     borderopacity="1"
     objecttolerance="10"
     gridtolerance="10"
     guidetolerance="10"
     inkscape:pageopacity="0"
     inkscape:pageshadow="2"
     inkscape:window-width="1920"
     inkscape:window-height="1051"
     id="namedview19"
     showgrid="false"
     inkscape:zoom="3.0451613"
     inkscape:cx="30.243644"
     inkscape:cy="78.15678"
     inkscape:window-x="0"
     inkscape:window-y="1024"
     inkscape:window-maximized="1"
     inkscape:current-layer="svg2" />
  <g
     id="#00ff84ff">
    <path
       fill="#00ff84"
       opacity="1.00"
       d=" M 56.26 21.24 C 56.71 21.75 56.71 21.75 56.26 21.24 Z"
       id="path5" />
    <path
       fill="#00ff84"
       opacity="1.00"
       d=" M 12.37 33.18 C 12.43 33.23 12.57 33.33 12.64 33.38 C 12.57 33.33 12.43 33.23 12.37 33.18 Z"
       id="path7" />
    <path
       fill="#00ff84"
       opacity="1.00"
       d=" M 5.06 42.31 C 5.50 42.72 5.50 42.72 5.06 42.31 Z"
       id="path9" />
    <path
       fill="#00ff84"
       opacity="1.00"
       d=" M 47.28 48.30 C 47.74 48.84 47.74 48.84 47.28 48.30 Z"
       id="path11" />
  </g>
  <g
     id="#7a8786ff"
     style="fill:#00a0f1;fill-opacity:1"
     inkscape:export-xdpi="90"
     inkscape:export-ydpi="90">
    <path
       fill="#7a8786"
       opacity="1.00"
       d=" M 8.87 9.81 C 17.93 0.45 33.16 -1.75 44.64 4.30 C 53.61 8.83 59.70 18.01 61.00 27.91 L 61.00 34.31 C 59.58 44.13 53.54 53.22 44.61 57.71 C 33.13 63.76 17.89 61.55 8.84 52.16 C 3.86 47.41 1.08 40.83 0.00 34.11 L 0.00 27.73 C 1.14 21.06 3.90 14.53 8.87 9.81 M 29.17 4.20 C 22.14 9.41 14.27 13.44 7.55 19.08 C 16.56 14.01 25.24 8.37 34.04 2.95 C 32.31 2.92 30.49 2.91 29.17 4.20 M 35.93 3.59 C 35.35 5.23 35.89 5.75 37.54 5.16 C 38.10 3.53 37.57 3.01 35.93 3.59 M 21.41 4.37 C 19.83 6.14 18.14 7.81 16.41 9.44 C 19.40 7.46 22.41 5.50 25.28 3.35 C 24.31 3.60 22.38 4.11 21.41 4.37 M 4.39 30.20 C 18.08 23.53 30.18 14.08 43.13 6.14 C 42.80 5.82 42.15 5.19 41.83 4.88 C 30.20 14.51 16.17 20.77 4.39 30.20 M 33.57 14.74 C 24.11 20.81 14.08 26.13 5.39 33.30 C 9.98 31.12 13.95 27.87 18.56 25.75 C 16.78 28.43 12.57 29.69 12.37 33.18 C 12.43 33.23 12.57 33.33 12.64 33.38 C 14.12 34.44 15.55 35.57 17.01 36.67 C 13.16 38.49 9.82 41.22 6.67 44.05 C 10.86 42.49 14.68 40.12 18.45 37.74 C 20.99 39.66 23.53 41.60 26.16 43.40 C 26.31 41.38 26.41 39.35 26.50 37.32 C 30.52 36.97 34.56 36.83 38.59 37.02 C 29.84 42.14 21.71 48.22 13.04 53.46 C 13.83 53.91 14.63 54.36 15.42 54.81 C 23.44 48.07 32.79 43.13 41.39 37.19 C 42.07 37.23 43.42 37.31 44.09 37.36 C 36.17 42.52 28.03 47.41 20.44 53.05 C 29.23 48.64 37.18 42.77 45.40 37.40 C 46.36 37.43 48.27 37.50 49.23 37.53 L 47.94 35.51 C 51.50 33.81 54.33 30.64 58.28 29.80 L 58.63 30.88 C 56.14 34.05 52.24 35.56 49.31 38.25 C 52.55 36.48 55.64 34.45 58.97 32.87 C 59.06 29.10 58.81 25.25 57.04 21.85 C 56.74 23.77 57.31 25.56 58.22 27.22 C 54.86 30.04 51.25 32.54 47.58 34.93 L 46.84 33.48 C 49.79 31.63 52.77 29.76 55.19 27.22 C 52.18 28.52 49.26 30.08 46.67 32.10 C 46.36 29.82 46.50 27.52 46.67 25.24 C 43.37 25.35 40.07 25.49 36.77 25.70 C 37.08 25.27 37.71 24.41 38.02 23.98 C 36.77 23.44 35.84 23.82 35.26 25.14 L 35.35 25.75 C 33.71 25.79 32.07 25.84 30.43 25.90 C 34.73 23.39 38.83 20.54 43.08 17.95 C 46.23 15.86 49.80 14.37 52.54 11.71 C 49.24 12.82 46.47 14.98 43.51 16.73 C 38.43 19.84 33.23 22.73 28.26 26.01 C 27.60 26.04 26.26 26.09 25.60 26.12 C 25.57 24.31 25.53 22.51 25.49 20.71 C 31.24 17.47 36.59 13.58 42.36 10.39 C 43.98 9.42 45.95 8.67 46.63 6.72 C 42.12 9.13 37.98 12.16 33.57 14.74 M 25.29 10.23 C 25.79 10.74 25.79 10.74 25.29 10.23 M 40.81 21.91 C 39.92 22.59 38.36 22.78 38.02 23.98 C 38.16 24.19 38.42 24.59 38.55 24.79 C 43.65 21.37 48.64 17.63 54.37 15.30 C 54.05 15.00 53.42 14.38 53.10 14.08 C 49.30 17.12 45.11 19.64 40.81 21.91 M 3.38 22.84 C 3.13 23.51 2.65 24.83 2.41 25.50 C 7.05 21.82 12.55 19.38 17.02 15.50 C 12.38 17.78 8.37 21.29 3.38 22.84 M 5.22 17.16 C 4.66 18.57 5.11 18.99 6.56 18.41 C 7.12 17.00 6.67 16.58 5.22 17.16 M 49.28 21.05 C 51.46 20.10 53.66 19.18 55.88 18.33 C 55.67 17.93 55.26 17.13 55.05 16.73 C 53.12 18.16 51.19 19.59 49.28 21.05 M 56.26 21.24 C 56.71 21.75 56.71 21.75 56.26 21.24 M 2.01 29.39 C 3.22 29.99 4.60 28.62 4.91 27.51 C 4.23 25.53 0.77 27.78 2.01 29.39 M 2.10 32.09 C 1.60 33.53 2.05 33.98 3.45 33.44 C 3.95 32.01 3.50 31.56 2.10 32.09 M 10.43 34.27 C 9.14 34.59 7.76 35.33 7.17 36.59 C 7.69 38.68 12.13 35.14 10.43 34.27 M 2.43 36.10 C 2.86 37.66 3.28 39.22 3.70 40.78 L 5.08 39.97 C 4.64 39.47 3.76 38.49 3.32 38.00 C 4.53 36.85 5.75 35.70 6.95 34.55 C 5.44 35.06 3.94 35.57 2.43 36.10 M 52.43 39.99 C 54.28 39.28 56.12 38.55 57.97 37.84 C 58.29 36.92 58.62 36.01 58.94 35.10 C 56.75 36.70 54.57 38.32 52.43 39.99 M 25.87 58.87 C 27.26 58.96 28.66 59.04 30.05 59.12 C 37.80 52.35 47.03 47.55 54.85 40.89 C 44.72 46.07 35.46 52.79 25.87 58.87 M 5.06 42.31 C 5.50 42.72 5.50 42.72 5.06 42.31 M 47.99 48.38 C 50.19 47.14 52.43 45.91 54.91 45.33 C 55.65 44.04 56.39 42.74 57.11 41.44 C 54.01 43.68 50.86 45.85 47.99 48.38 M 6.37 45.63 C 6.55 46.18 6.93 47.29 7.11 47.84 C 8.58 46.48 10.06 45.14 11.55 43.81 C 9.83 44.43 8.10 45.04 6.37 45.63 M 10.48 50.96 C 10.85 51.34 11.61 52.09 11.98 52.47 C 14.15 50.30 16.68 48.55 19.05 46.63 C 16.18 48.04 13.37 49.58 10.48 50.96 M 8.38 48.23 C 8.60 51.56 11.32 46.63 8.38 48.23 M 47.28 48.30 C 47.74 48.84 47.74 48.84 47.28 48.30 M 34.33 59.02 C 39.82 58.64 43.60 54.45 47.35 50.93 C 42.97 53.56 38.58 56.18 34.33 59.02 M 20.40 58.13 C 24.29 58.09 26.88 54.85 29.71 52.64 C 26.52 54.33 23.35 56.06 20.40 58.13 Z"
       id="path14"
       style="fill:#00a0f1;fill-opacity:1" />
  </g>
  <g
     id="#ffffffff">
    <path
       fill="#ffffff"
       opacity="1.00"
       d=" M 18.91 25.39 C 21.04 23.75 23.17 22.08 25.49 20.71 C 25.53 22.51 25.57 24.31 25.60 26.12 C 26.26 26.09 27.60 26.04 28.26 26.01 C 28.81 25.99 29.89 25.93 30.43 25.90 C 32.07 25.84 33.71 25.79 35.35 25.75 C 35.70 25.74 36.41 25.71 36.77 25.70 C 40.07 25.49 43.37 25.35 46.67 25.24 C 46.50 27.52 46.36 29.82 46.67 32.10 C 46.71 32.45 46.79 33.13 46.84 33.48 L 47.58 34.93 L 47.94 35.51 L 49.23 37.53 C 48.27 37.50 46.36 37.43 45.40 37.40 C 45.07 37.39 44.42 37.37 44.09 37.36 C 43.42 37.31 42.07 37.23 41.39 37.19 C 40.69 37.14 39.29 37.06 38.59 37.02 C 34.56 36.83 30.52 36.97 26.50 37.32 C 26.41 39.35 26.31 41.38 26.16 43.40 C 23.53 41.60 20.99 39.66 18.45 37.74 C 18.09 37.47 17.37 36.94 17.01 36.67 C 15.55 35.57 14.12 34.44 12.64 33.38 C 12.57 33.33 12.43 33.23 12.37 33.18 C 12.57 29.69 16.78 28.43 18.56 25.75 L 18.91 25.39 Z"
       id="path17" />
  </g>
</svg>
