<?xml version="1.0" encoding="UTF-8" standalone="no"?>
<svg
   xmlns:dc="http://purl.org/dc/elements/1.1/"
   xmlns:cc="http://creativecommons.org/ns#"
   xmlns:rdf="http://www.w3.org/1999/02/22-rdf-syntax-ns#"
   xmlns:svg="http://www.w3.org/2000/svg"
   xmlns="http://www.w3.org/2000/svg"
   xmlns:sodipodi="http://sodipodi.sourceforge.net/DTD/sodipodi-0.dtd"
   xmlns:inkscape="http://www.inkscape.org/namespaces/inkscape"
   width="105"
   height="83.75"
   viewBox="0 0 84 67"
   version="1.1"
   id="svg2"
   inkscape:version="0.91 r13725"
   sodipodi:docname="3.svg">
  <metadata
     id="metadata13">
    <rdf:RDF>
      <cc:Work
         rdf:about="">
        <dc:format>image/svg+xml</dc:format>
        <dc:type
           rdf:resource="http://purl.org/dc/dcmitype/StillImage" />
        <dc:title></dc:title>
      </cc:Work>
    </rdf:RDF>
  </metadata>
  <defs
     id="defs11" />
  <sodipodi:namedview
     pagecolor="#ffffff"
     bordercolor="#666666"
     borderopacity="1"
     objecttolerance="10"
     gridtolerance="10"
     guidetolerance="10"
     inkscape:pageopacity="0"
     inkscape:pageshadow="2"
     inkscape:window-width="1920"
     inkscape:window-height="1051"
     id="namedview9"
     showgrid="false"
     units="px"
     inkscape:zoom="2.8179104"
     inkscape:cx="31.959746"
     inkscape:cy="41.875"
     inkscape:window-x="0"
     inkscape:window-y="1024"
     inkscape:window-maximized="1"
     inkscape:current-layer="svg2" />
  <g
     id="#ffffffff"
     transform="translate(17.6,-6.4)">
    <path
       d="m 14.38,8.39 c 7.35,-0.66 14.8,-0.06 22.19,-0.27 1.61,3.21 0.31,6.73 -2.71,8.48 0.22,5.47 -0.16,10.97 0.18,16.43 2.3,5.7 5.62,10.97 8.3,16.51 1.84,4.06 5.12,7.88 4.55,12.62 0.06,2.92 -2.82,4.73 -5.47,4.84 L 9.93,67 C 5.26,67.37 1.76,62.45 3.54,58.17 6.92,49.49 12.21,41.71 16.63,33.56 17.07,27.8 16.72,21.98 16.77,16.19 13.74,14.87 12.27,11.21 14.38,8.39 m 2.16,3.04 c 0.49,1.6 2.31,1.71 3.65,2.12 -0.02,6.9 -0.03,13.81 0,20.71 -4.57,7.82 -9.34,15.56 -13.12,23.8 -1.25,2.11 -0.69,5.51 2.22,5.55 10.24,0.17 20.49,0.03 30.74,0.06 1.31,-0.06 3.26,0.08 3.64,-1.61 0.16,-1.59 -0.23,-3.18 -0.95,-4.59 C 38.78,49.72 34.58,42.09 30.76,34.29 30.57,27.35 30.77,20.4 30.67,13.45 c 0.62,-0.11 1.86,-0.32 2.48,-0.42 0.27,-0.39 0.8,-1.17 1.07,-1.56 -5.89,-0.05 -11.78,-0.01 -17.68,-0.04 z"
       id="path5"
       inkscape:connector-curvature="0"
       style="opacity:1;fill:#ffffff" />
    <path
       d="m 25.08,45.11 c 2.4,-1.03 5.96,-2.8 7.95,-0.17 2.76,5.23 5.17,10.65 7.9,15.9 -10.54,0.1 -21.09,0.04 -31.64,0.03 2.85,-5.45 5.58,-10.96 8.58,-16.33 2.18,1.27 4.88,1.77 7.21,0.57 z"
       id="path7"
       inkscape:connector-curvature="0"
       style="opacity:1;fill:#ffffff" />
  </g>
</svg>
