<?xml version="1.0" encoding="UTF-8" standalone="no"?>
<svg
   xmlns:dc="http://purl.org/dc/elements/1.1/"
   xmlns:cc="http://creativecommons.org/ns#"
   xmlns:rdf="http://www.w3.org/1999/02/22-rdf-syntax-ns#"
   xmlns:svg="http://www.w3.org/2000/svg"
   xmlns="http://www.w3.org/2000/svg"
   xmlns:sodipodi="http://sodipodi.sourceforge.net/DTD/sodipodi-0.dtd"
   xmlns:inkscape="http://www.inkscape.org/namespaces/inkscape"
   width="61pt"
   height="62pt"
   viewBox="0 0 61 62"
   version="1.1"
   id="svg4424"
   inkscape:version="0.91 r13725"
   sodipodi:docname="icon-19.svg">
  <metadata
     id="metadata4447">
    <rdf:RDF>
      <cc:Work
         rdf:about="">
        <dc:format>image/svg+xml</dc:format>
        <dc:type
           rdf:resource="http://purl.org/dc/dcmitype/StillImage" />
      </cc:Work>
    </rdf:RDF>
  </metadata>
  <defs
     id="defs4445" />
  <sodipodi:namedview
     pagecolor="#ffffff"
     bordercolor="#666666"
     borderopacity="1"
     objecttolerance="10"
     gridtolerance="10"
     guidetolerance="10"
     inkscape:pageopacity="0"
     inkscape:pageshadow="2"
     inkscape:window-width="669"
     inkscape:window-height="480"
     id="namedview4443"
     showgrid="false"
     inkscape:zoom="3.0451613"
     inkscape:cx="38.125"
     inkscape:cy="38.75"
     inkscape:window-x="597"
     inkscape:window-y="1314"
     inkscape:window-maximized="0"
     inkscape:current-layer="svg4424" />
  <g
     id="#00ff84ff">
    <path
       fill="#00ff84"
       opacity="1.00"
       d=" M 35.30 10.26 C 35.76 10.82 35.76 10.82 35.30 10.26 Z"
       id="path4427" />
    <path
       fill="#00ff84"
       opacity="1.00"
       d=" M 4.14 21.27 C 4.68 21.75 4.68 21.75 4.14 21.27 Z"
       id="path4429" />
    <path
       fill="#00ff84"
       opacity="1.00"
       d=" M 48.43 33.32 C 48.50 33.27 48.65 33.17 48.72 33.12 C 48.65 33.17 48.50 33.27 48.43 33.32 Z"
       id="path4431" />
    <path
       fill="#00ff84"
       opacity="1.00"
       d=" M 55.47 42.39 C 56.03 42.79 56.03 42.79 55.47 42.39 Z"
       id="path4433" />
    <path
       fill="#00ff84"
       opacity="1.00"
       d=" M 13.25 48.35 C 13.80 48.83 13.80 48.83 13.25 48.35 Z"
       id="path4435" />
  </g>
  <g
     id="#7a8786ff"
     style="fill:#00a0f1;fill-opacity:1">
    <path
       fill="#7a8786"
       opacity="1.00"
       d=" M 9.32 9.37 C 19.12 -0.37 35.68 -1.83 47.16 5.77 C 54.81 10.61 59.75 18.96 61.00 27.86 L 61.00 34.24 C 59.61 44.06 53.59 53.16 44.68 57.67 C 33.19 63.77 17.90 61.56 8.84 52.16 C 3.85 47.41 1.08 40.83 0.00 34.11 L 0.00 27.75 C 1.15 20.86 4.10 14.14 9.32 9.37 M 23.43 3.52 C 22.95 5.12 23.54 5.71 25.18 5.29 C 25.64 3.69 25.06 3.10 23.43 3.52 M 26.89 2.93 C 35.75 8.32 44.43 14.03 53.48 19.09 C 46.75 13.46 38.89 9.42 31.86 4.21 C 30.51 2.90 28.65 2.91 26.89 2.93 M 35.76 3.38 C 38.53 5.47 41.44 7.36 44.35 9.24 C 42.71 7.64 41.09 6.03 39.55 4.34 C 38.60 4.10 36.71 3.62 35.76 3.38 M 19.63 7.29 C 31.89 14.81 43.34 23.77 56.34 30.03 C 44.70 20.76 30.96 14.42 19.32 5.12 C 17.45 5.06 18.45 7.01 19.63 7.29 M 14.40 6.72 C 15.00 8.76 17.08 9.40 18.69 10.42 C 24.44 13.61 29.77 17.49 35.52 20.70 C 35.48 22.50 35.44 24.31 35.41 26.11 C 34.73 26.09 33.38 26.04 32.70 26.02 C 24.76 21.09 16.85 16.02 8.61 11.63 C 10.20 13.66 12.59 14.73 14.75 16.03 C 20.12 19.17 25.22 22.76 30.59 25.91 C 29.18 25.85 27.78 25.79 26.38 25.72 C 20.19 22.08 13.97 18.47 8.04 14.42 C 7.73 14.64 7.11 15.06 6.80 15.28 C 12.66 18.03 18.13 21.59 23.24 25.55 C 20.24 25.42 17.24 25.37 14.25 25.32 C 14.46 27.57 14.74 29.86 14.30 32.11 C 11.76 30.07 8.87 28.52 5.87 27.27 C 8.26 29.77 11.19 31.62 14.10 33.44 L 13.39 34.87 C 9.67 32.51 6.06 29.97 2.68 27.13 C 3.82 25.68 4.49 24.02 3.81 22.15 C 2.10 25.47 1.97 29.22 2.04 32.87 C 5.36 34.47 8.46 36.49 11.69 38.25 C 8.62 35.25 3.83 33.96 2.09 29.75 C 6.30 30.45 9.44 33.53 13.01 35.59 C 12.61 36.32 12.21 37.04 11.80 37.76 C 13.04 37.65 14.28 37.53 15.52 37.42 C 23.84 42.69 31.74 48.69 40.59 53.05 C 33.04 47.37 24.79 42.67 17.01 37.31 C 17.65 37.26 18.94 37.18 19.59 37.13 C 28.17 43.13 37.51 48.08 45.59 54.77 C 46.38 54.37 47.17 53.98 47.97 53.59 C 39.39 48.13 31.14 42.18 22.38 37.01 C 26.39 36.86 30.40 37.04 34.41 37.15 C 34.51 39.17 34.61 41.19 34.71 43.21 C 37.51 41.66 40.03 39.70 42.55 37.74 C 46.26 40.08 50.01 42.42 54.14 43.97 C 51.14 41.07 47.76 38.53 44.03 36.64 C 45.50 35.54 46.94 34.40 48.43 33.32 C 48.50 33.27 48.65 33.17 48.72 33.12 C 48.14 29.62 44.20 28.15 42.15 25.56 C 46.77 27.81 50.86 30.97 55.49 33.21 C 52.58 30.51 49.18 28.44 45.89 26.26 C 35.46 19.64 24.96 13.12 14.40 6.72 M 35.30 10.26 C 35.76 10.82 35.76 10.82 35.30 10.26 M 4.78 18.15 C 7.03 19.11 9.30 20.02 11.59 20.86 C 9.44 19.99 7.13 15.80 4.78 18.15 M 54.28 17.03 C 54.01 18.41 54.56 18.92 55.95 18.55 C 56.23 17.17 55.67 16.66 54.28 17.03 M 48.86 18.74 C 52.00 21.15 55.36 23.23 58.66 25.39 C 58.40 24.82 57.89 23.67 57.63 23.10 C 54.78 21.52 51.77 20.22 48.86 18.74 M 4.14 21.27 C 4.68 21.75 4.68 21.75 4.14 21.27 M 56.12 27.50 C 56.39 28.62 57.75 29.98 58.97 29.43 C 60.27 27.84 56.85 25.52 56.12 27.50 M 57.48 31.99 C 57.09 33.39 57.58 33.90 58.97 33.54 C 59.36 32.13 58.87 31.62 57.48 31.99 M 49.58 34.25 C 49.75 35.78 52.21 37.36 53.76 37.02 C 53.60 35.29 51.16 34.25 49.58 34.25 M 2.04 35.09 C 2.37 36.01 2.71 36.93 3.04 37.85 C 4.86 38.55 6.68 39.27 8.51 39.97 C 6.39 38.29 4.22 36.69 2.04 35.09 M 54.16 34.52 C 55.25 35.74 56.52 36.77 57.61 37.98 C 57.15 38.64 56.21 39.94 55.75 40.59 C 58.13 40.56 57.85 37.97 58.62 36.38 C 57.13 35.77 55.64 35.14 54.16 34.52 M 6.49 40.98 C 14.06 47.79 23.33 52.38 30.96 59.12 C 32.39 59.04 33.81 58.96 35.24 58.88 C 25.67 52.89 16.47 46.27 6.49 40.98 M 3.97 41.54 C 4.64 42.79 5.32 44.02 6.01 45.26 C 8.41 45.99 10.69 47.04 12.88 48.26 C 10.07 45.81 7.02 43.67 3.97 41.54 M 55.47 42.39 C 56.03 42.79 56.03 42.79 55.47 42.39 M 49.37 43.75 C 50.89 45.09 52.38 46.46 53.87 47.82 C 54.07 47.28 54.45 46.18 54.64 45.64 C 52.88 45.02 51.12 44.40 49.37 43.75 M 42.02 46.69 C 44.41 48.58 46.87 50.37 49.06 52.50 C 49.39 52.10 50.06 51.32 50.40 50.93 C 47.59 49.55 44.85 48.03 42.02 46.69 M 13.25 48.35 C 13.80 48.83 13.80 48.83 13.25 48.35 M 51.17 48.22 C 51.36 51.56 54.12 46.63 51.17 48.22 M 13.69 50.96 C 17.38 54.43 21.11 58.55 26.49 58.98 C 22.36 56.10 18.01 53.55 13.69 50.96 M 31.23 52.59 C 34.08 54.79 36.67 58.11 40.59 58.14 C 37.63 56.04 34.43 54.30 31.23 52.59 Z"
       id="path4438"
       style="fill:#00a0f1;fill-opacity:1" />
  </g>
  <g
     id="#ffffffff">
    <path
       fill="#ffffff"
       opacity="1.00"
       d=" M 35.52 20.70 C 37.89 22.08 40.01 23.84 42.15 25.56 C 44.20 28.15 48.14 29.62 48.72 33.12 C 48.65 33.17 48.50 33.27 48.43 33.32 C 46.94 34.40 45.50 35.54 44.03 36.64 C 43.66 36.91 42.92 37.46 42.55 37.74 C 40.03 39.70 37.51 41.66 34.71 43.21 C 34.61 41.19 34.51 39.17 34.41 37.15 C 30.40 37.04 26.39 36.86 22.38 37.01 C 21.68 37.04 20.29 37.10 19.59 37.13 C 18.94 37.18 17.65 37.26 17.01 37.31 C 16.63 37.33 15.89 37.39 15.52 37.42 C 14.28 37.53 13.04 37.65 11.80 37.76 C 12.21 37.04 12.61 36.32 13.01 35.59 C 13.11 35.41 13.30 35.05 13.39 34.87 L 14.10 33.44 C 14.15 33.11 14.25 32.45 14.30 32.11 C 14.74 29.86 14.46 27.57 14.25 25.32 C 17.24 25.37 20.24 25.42 23.24 25.55 C 24.29 25.59 25.33 25.67 26.38 25.72 C 27.78 25.79 29.18 25.85 30.59 25.91 C 31.12 25.94 32.17 25.99 32.70 26.02 C 33.38 26.04 34.73 26.09 35.41 26.11 C 35.44 24.31 35.48 22.50 35.52 20.70 Z"
       id="path4441" />
  </g>
</svg>
