<?xml version="1.0" encoding="UTF-8" ?>
<!DOCTYPE svg PUBLIC "-//W3C//DTD SVG 1.1//EN" "http://www.w3.org/Graphics/SVG/1.1/DTD/svg11.dtd">
<svg width="80pt" height="68pt" viewBox="0 0 80 68" version="1.1" xmlns="http://www.w3.org/2000/svg">
<g id="#ffffffff">
</g>
<g id="#58dce4ff">
<path fill="#58dce4" opacity="1.00" d=" M 41.58 11.92 C 43.72 9.42 46.33 7.04 49.61 6.24 C 49.58 7.19 49.55 8.14 49.51 9.10 C 47.82 10.26 46.16 11.48 44.56 12.77 C 44.56 14.89 44.53 17.00 44.49 19.11 C 49.54 15.70 55.89 14.61 61.81 15.91 C 68.31 17.86 72.53 24.38 72.85 30.97 C 72.95 35.08 73.23 39.40 71.34 43.19 C 67.60 52.55 57.17 60.28 46.80 57.55 C 45.19 58.41 43.26 59.10 41.43 58.57 C 37.75 56.77 33.49 58.75 29.74 57.18 C 19.49 52.67 12.63 41.40 13.21 30.25 C 13.66 24.24 17.36 18.44 23.14 16.35 C 29.30 14.47 36.15 15.47 41.62 18.83 C 41.64 16.53 41.64 14.22 41.58 11.92 M 23.65 33.75 C 21.76 40.71 26.72 48.93 34.06 49.63 C 28.83 45.73 25.55 39.90 23.65 33.75 Z" />
</g>
</svg>
