<?xml version="1.0" encoding="UTF-8" ?>
<!DOCTYPE svg PUBLIC "-//W3C//DTD SVG 1.1//EN" "http://www.w3.org/Graphics/SVG/1.1/DTD/svg11.dtd">
<svg width="79pt" height="83pt" viewBox="0 0 79 83" version="1.1" xmlns="http://www.w3.org/2000/svg">
<g id="#fefffeff">
</g>
<g id="#0c97cdff">
<path fill="#0c97cd" opacity="1.00" d=" M 34.55 5.59 C 37.52 3.33 42.00 3.70 44.57 6.41 C 48.48 9.72 49.97 14.78 51.66 19.41 C 56.29 18.19 61.27 17.59 65.97 18.82 C 69.15 19.67 71.94 22.46 71.94 25.89 C 72.08 31.92 68.00 36.93 64.01 41.01 C 67.61 44.99 71.42 49.44 71.94 55.01 C 72.36 58.43 70.20 61.80 67.00 63.00 C 62.04 64.78 56.61 63.99 51.62 62.73 C 50.00 67.34 48.46 72.32 44.67 75.67 C 41.90 78.45 36.84 78.86 33.93 76.06 C 29.83 72.69 28.12 67.49 26.50 62.63 C 21.54 64.07 16.00 64.80 11.05 62.92 C 7.18 61.48 5.24 56.83 6.50 52.99 C 7.67 48.29 10.90 44.54 14.06 41.03 C 10.91 37.53 7.68 33.77 6.46 29.11 C 5.35 25.52 6.91 21.00 10.51 19.49 C 15.55 17.21 21.34 18.19 26.53 19.40 C 28.27 14.39 30.05 8.84 34.55 5.59 M 35.50 8.47 C 32.21 11.57 30.69 16.02 29.31 20.20 C 32.63 21.28 35.88 22.55 39.07 23.97 C 42.27 22.58 45.53 21.32 48.80 20.09 C 47.36 15.95 45.91 11.50 42.59 8.46 C 40.68 6.58 37.44 6.68 35.50 8.47 M 9.70 23.81 C 7.44 29.72 12.79 34.73 16.02 39.06 C 18.81 36.87 21.51 34.57 24.35 32.45 C 24.66 29.05 25.20 25.69 25.86 22.35 C 20.70 21.01 13.86 19.53 9.70 23.81 M 52.23 22.31 C 53.06 25.58 53.34 28.95 53.80 32.28 C 56.33 34.74 59.43 36.56 61.98 39.01 C 64.54 36.14 67.13 33.12 68.55 29.49 C 69.20 27.01 69.49 23.52 66.68 22.27 C 62.17 20.14 56.87 21.14 52.23 22.31 M 28.59 23.22 C 28.22 25.55 27.88 27.89 27.54 30.23 C 30.31 28.77 32.97 27.11 35.77 25.69 C 33.43 24.71 31.06 23.81 28.59 23.22 M 42.62 25.75 C 45.32 27.24 47.94 28.87 50.69 30.28 C 50.30 27.85 49.89 25.43 49.47 23.01 C 47.15 23.83 44.86 24.73 42.62 25.75 M 27.28 33.97 C 26.88 38.65 26.96 43.34 27.18 48.02 C 31.04 50.51 34.96 52.94 39.11 54.93 C 43.12 52.77 47.06 50.49 50.91 48.04 C 51.14 43.36 51.36 38.66 50.84 33.99 C 47.04 31.56 43.13 29.31 39.13 27.24 C 35.08 29.31 31.09 31.49 27.28 33.97 M 18.23 41.06 C 20.15 42.66 22.09 44.23 24.07 45.75 C 24.12 42.61 24.03 39.47 23.90 36.33 C 22.05 37.96 20.16 39.54 18.23 41.06 M 54.14 36.34 C 54.14 39.49 54.17 42.65 54.21 45.81 C 56.11 44.21 58.03 42.64 59.97 41.10 C 58.01 39.53 56.07 37.94 54.14 36.34 M 9.68 52.50 C 8.76 54.94 8.68 58.31 11.31 59.70 C 15.74 62.18 21.11 60.90 25.81 59.96 C 25.24 56.56 24.68 53.15 24.39 49.72 C 21.57 47.56 18.75 45.40 16.08 43.07 C 13.71 46.04 11.06 48.91 9.68 52.50 M 53.74 49.70 C 53.42 53.16 52.92 56.59 52.39 60.01 C 56.49 60.89 60.76 61.48 64.91 60.63 C 67.02 60.09 69.10 58.34 68.93 55.97 C 69.03 50.76 65.11 46.78 61.99 43.06 C 59.39 45.46 56.56 47.58 53.74 49.70 M 27.52 51.80 C 27.85 54.23 28.21 56.66 28.62 59.08 C 31.03 58.30 33.39 57.39 35.71 56.39 C 32.92 54.97 30.23 53.37 27.52 51.80 M 42.41 56.37 C 44.72 57.39 47.09 58.31 49.49 59.09 C 49.90 56.64 50.29 54.19 50.62 51.74 C 47.98 53.44 45.22 54.96 42.41 56.37 M 29.36 61.99 C 30.78 66.11 32.16 70.56 35.50 73.57 C 37.33 75.48 40.76 75.51 42.61 73.61 C 45.93 70.57 47.45 66.16 48.78 61.98 C 45.50 60.89 42.27 59.65 39.16 58.13 C 35.92 59.49 32.66 60.78 29.36 61.99 Z" />
<path fill="#0c97cd" opacity="1.00" d=" M 36.40 32.59 C 43.12 30.12 50.38 37.85 47.28 44.34 C 45.18 50.44 36.06 51.92 32.26 46.67 C 28.12 42.17 30.65 34.28 36.40 32.59 M 37.34 35.43 C 32.91 36.59 31.64 42.93 35.34 45.64 C 38.58 48.63 44.47 46.25 44.88 41.94 C 45.74 37.87 41.21 34.02 37.34 35.43 Z" />
</g>
</svg>
