<?xml version="1.0" encoding="UTF-8" ?>
<!DOCTYPE svg PUBLIC "-//W3C//DTD SVG 1.1//EN" "http://www.w3.org/Graphics/SVG/1.1/DTD/svg11.dtd">
<svg width="58pt" height="71pt" viewBox="0 0 58 71" version="1.1" xmlns="http://www.w3.org/2000/svg">
<g id="#20211e23">
</g>
<g id="#fb9b27fd">
<path fill="#fb9b27" opacity="1.00" d=" M 30.26 4.81 C 30.48 1.26 34.06 -0.12 36.86 1.93 C 39.34 5.04 41.70 8.24 44.00 11.48 C 44.69 13.38 45.59 15.19 46.60 16.93 C 47.65 20.94 48.88 24.96 49.14 29.12 C 49.00 33.39 49.07 37.67 48.76 41.94 C 48.09 43.92 47.48 45.92 46.79 47.90 C 46.41 48.88 46.05 49.87 45.72 50.88 C 45.00 52.20 44.37 53.57 43.79 54.95 C 42.82 56.31 41.87 57.67 40.89 59.01 C 39.86 60.33 38.91 61.70 37.96 63.07 C 36.49 64.02 34.97 64.88 33.30 65.42 L 32.26 65.05 C 31.91 64.50 31.20 63.42 30.84 62.88 C 30.86 62.38 30.90 61.40 30.92 60.91 C 31.62 59.91 32.33 58.92 33.00 57.90 C 33.83 56.70 34.61 55.45 35.32 54.17 C 36.93 52.71 38.21 50.93 39.01 48.90 C 44.62 36.73 43.58 21.46 35.10 10.84 C 33.46 8.86 31.41 7.16 30.26 4.81 Z" />
<path fill="#fb9b27" opacity="1.00" d=" M 21.03 13.20 C 22.14 12.08 23.72 11.90 25.17 11.52 L 25.95 11.70 C 26.62 12.56 27.30 13.42 27.99 14.26 C 28.61 14.99 29.26 15.71 29.92 16.40 C 36.92 27.84 36.08 43.03 26.99 53.09 C 25.57 53.99 24.11 54.86 22.46 55.28 C 21.67 54.45 20.86 53.64 20.03 52.85 C 19.98 51.24 19.99 49.46 21.56 48.54 C 29.86 40.65 29.34 27.15 22.76 18.32 C 22.03 16.68 20.73 15.12 21.03 13.20 Z" />
</g>
<g id="#1f201f22">
</g>
<g id="#e6c29ce8">
</g>
<g id="#2b2c2a2e">
</g>
<g id="#4448434b">
</g>
<g id="#15151417">
</g>
<g id="#3537323b">
</g>
<g id="#3b403d43">
</g>
<g id="#f89e33fb">
<path fill="#f89e33" opacity="1.00" d=" M 11.95 21.07 C 13.27 21.22 14.57 21.46 15.84 21.84 C 16.12 22.23 16.66 23.02 16.94 23.42 C 20.84 30.00 21.41 39.60 14.84 44.63 C 12.45 44.26 9.14 44.43 9.90 41.05 C 9.89 40.56 9.86 39.58 9.84 39.10 C 13.61 36.06 14.22 30.28 10.47 26.98 C 10.29 26.53 9.93 25.62 9.75 25.17 C 9.88 23.49 10.43 21.95 11.95 21.07 Z" />
</g>
<g id="#23252127">
</g>
<g id="#11111111">
</g>
<g id="#1e1e1e20">
</g>
<g id="#40404041">
</g>
<g id="#30312f32">
</g>
<g id="#5c5c5c5c">
</g>
<g id="#6e6e6d6e">
</g>
<g id="#4a4b484e">
</g>
<g id="#5d5e5d60">
</g>
<g id="#7b7b7b7c">
</g>
<g id="#88888789">
</g>
<g id="#40403f42">
</g>
<g id="#92929192">
</g>
<g id="#9c9c9b9d">
</g>
<g id="#33333334">
</g>
<g id="#4f4f4f50">
</g>
<g id="#a7a7a7a8">
</g>
<g id="#b1b1b1b2">
</g>
<g id="#61606061">
</g>
<g id="#bcbcbcbc">
</g>
<g id="#6e6e6e6f">
</g>
<g id="#c7c7c7c7">
</g>
<g id="#7c7c7c7c">
</g>
<g id="#88888889">
</g>
<g id="#d3d3d3d3">
</g>
</svg>
