<?xml version="1.0" encoding="UTF-8" standalone="no"?>
<svg
   xmlns:dc="http://purl.org/dc/elements/1.1/"
   xmlns:cc="http://creativecommons.org/ns#"
   xmlns:rdf="http://www.w3.org/1999/02/22-rdf-syntax-ns#"
   xmlns:svg="http://www.w3.org/2000/svg"
   xmlns="http://www.w3.org/2000/svg"
   xmlns:sodipodi="http://sodipodi.sourceforge.net/DTD/sodipodi-0.dtd"
   xmlns:inkscape="http://www.inkscape.org/namespaces/inkscape"
   width="108pt"
   height="58pt"
   viewBox="0 0 108 58"
   version="1.1"
   id="svg2"
   inkscape:version="0.91 r13725"
   sodipodi:docname="icon08.svg">
  <metadata
     id="metadata74">
    <rdf:RDF>
      <cc:Work
         rdf:about="">
        <dc:format>image/svg+xml</dc:format>
        <dc:type
           rdf:resource="http://purl.org/dc/dcmitype/StillImage" />
      </cc:Work>
    </rdf:RDF>
  </metadata>
  <defs
     id="defs72" />
  <sodipodi:namedview
     pagecolor="#ffffff"
     bordercolor="#666666"
     borderopacity="1"
     objecttolerance="10"
     gridtolerance="10"
     guidetolerance="10"
     inkscape:pageopacity="0"
     inkscape:pageshadow="2"
     inkscape:window-width="1920"
     inkscape:window-height="1051"
     id="namedview70"
     showgrid="false"
     inkscape:zoom="3.2551724"
     inkscape:cx="68.114407"
     inkscape:cy="36.25"
     inkscape:window-x="0"
     inkscape:window-y="1024"
     inkscape:window-maximized="1"
     inkscape:current-layer="svg2" />
  <g
     id="#5454b1ff">
    <path
       fill="#5454b1"
       opacity="1.00"
       d=" M 0.00 0.00 L 0.22 0.00 C 0.16 0.06 0.05 0.18 0.00 0.24 L 0.00 0.00 Z"
       id="path5" />
    <path
       fill="#5454b1"
       opacity="1.00"
       d=" M 75.62 24.48 L 76.15 24.14 C 80.31 23.29 86.33 21.56 88.95 26.13 C 89.88 27.02 90.79 29.35 89.08 29.89 C 86.60 29.79 85.43 27.24 83.48 26.15 L 83.22 26.00 C 82.15 25.98 80.00 25.95 78.93 25.93 C 76.81 26.73 75.46 28.68 74.99 30.84 C 75.00 32.77 75.02 34.71 75.19 36.63 C 75.27 40.54 77.69 45.09 81.93 45.61 C 85.26 46.35 88.37 44.75 91.29 43.40 C 90.94 44.29 90.58 45.19 90.22 46.09 L 90.34 46.47 C 86.20 48.24 81.51 49.76 77.05 48.13 C 73.38 47.01 71.64 43.27 69.83 40.23 L 69.68 39.76 L 69.65 39.35 C 69.70 37.94 69.79 36.52 69.91 35.11 C 70.89 31.76 72.06 28.38 74.26 25.61 C 74.46 25.43 74.86 25.07 75.06 24.89 C 75.20 24.79 75.48 24.58 75.62 24.48 Z"
       id="path7" />
  </g>
  <g
     id="#fefdfdff">
    <path
       fill="#fefdfd"
       opacity="1.00"
       d=" M 75.06 24.89 C 75.20 24.79 75.48 24.58 75.62 24.48 C 75.48 24.58 75.20 24.79 75.06 24.89 Z"
       id="path19" />
    <path
       fill="#fefdfd"
       opacity="1.00"
       d=" M 74.26 25.61 C 74.46 25.43 74.86 25.07 75.06 24.89 C 74.86 25.07 74.46 25.43 74.26 25.61 Z"
       id="path21" />
    <path
       fill="#fefdfd"
       opacity="1.00"
       d=" M 69.68 39.76 C 69.68 39.66 69.66 39.45 69.65 39.35 L 69.68 39.76 Z"
       id="path23" />
  </g>
  <g
     id="#5655b3ff">
    <path
       fill="#5655b3"
       opacity="1.00"
       d=" M 40.20 13.21 C 42.81 10.99 46.01 9.70 49.16 8.47 C 49.49 14.92 49.12 21.39 49.26 27.85 C 53.39 25.80 58.44 24.46 62.68 27.02 C 70.01 32.40 69.40 44.96 61.63 49.66 C 58.49 52.00 54.42 51.65 50.76 51.24 L 50.24 51.08 C 48.44 50.19 46.50 50.97 44.68 51.32 C 44.17 39.26 45.24 27.14 44.18 15.10 C 42.85 14.47 41.52 13.84 40.20 13.21 M 52.13 29.14 C 51.18 29.40 50.28 29.81 49.45 30.35 C 49.01 35.01 49.13 39.74 49.48 44.40 C 49.65 48.72 55.36 50.60 58.70 48.52 C 63.30 45.85 64.01 39.40 62.26 34.80 C 61.06 30.61 56.43 27.52 52.13 29.14 Z"
       id="path26" />
  </g>
  <g
     id="#5757b2ff">
    <path
       fill="#5757b2"
       opacity="1.00"
       d=" M 15.65 22.11 C 16.54 16.64 23.08 14.44 27.97 14.68 C 30.71 14.45 32.19 16.94 33.42 18.96 C 32.81 24.87 33.29 30.82 33.32 36.75 C 34.65 36.56 35.99 36.30 36.99 35.31 L 38.07 36.18 C 37.68 37.38 37.24 38.57 36.81 39.76 C 33.89 40.89 30.21 40.77 29.05 37.32 C 25.72 38.95 21.93 41.81 18.11 39.94 C 16.23 39.18 16.01 36.71 16.09 34.94 C 16.15 31.33 20.10 29.81 22.30 27.52 C 22.54 27.40 23.02 27.17 23.26 27.06 C 24.38 26.64 25.50 26.21 26.63 25.80 C 27.08 25.68 27.99 25.44 28.44 25.32 C 28.47 22.80 29.06 19.83 27.36 17.71 C 25.30 17.00 22.84 16.88 20.88 17.96 C 20.21 19.97 20.11 22.17 19.16 24.09 C 17.85 24.74 14.95 24.09 15.65 22.11 M 21.08 34.96 C 21.01 38.01 24.88 38.05 26.61 36.42 C 29.60 34.43 28.25 30.42 28.43 27.44 C 25.33 28.91 20.54 30.70 21.08 34.96 Z"
       id="path41" />
  </g>
  <g
     id="#3f3f3f3f" />
  <g
     id="#fefefcff" />
  <g
     id="#51515152" />
  <g
     id="#5152495a">
    <path
       fill="#515249"
       opacity="0.35"
       d=" M 38.22 34.32 C 38.79 34.83 38.79 34.83 38.22 34.32 Z"
       id="path53" />
  </g>
  <g
     id="#3f3f3441">
    <path
       fill="#3f3f34"
       opacity="0.25"
       d=" M 87.49 39.65 C 87.54 39.67 87.65 39.70 87.70 39.72 L 87.31 39.68 L 87.49 39.65 Z"
       id="path56" />
  </g>
  <g
     id="#7f7f7f7f" />
  <g
     id="#93939394" />
  <g
     id="#2c2c2c2d" />
  <g
     id="#50544655">
    <path
       fill="#505446"
       opacity="0.33"
       d=" M 46.26 53.25 C 46.78 53.80 46.78 53.80 46.26 53.25 Z"
       id="path68" />
  </g>
</svg>
