<?xml version="1.0" encoding="UTF-8" standalone="no"?>
<svg
   xmlns:dc="http://purl.org/dc/elements/1.1/"
   xmlns:cc="http://creativecommons.org/ns#"
   xmlns:rdf="http://www.w3.org/1999/02/22-rdf-syntax-ns#"
   xmlns:svg="http://www.w3.org/2000/svg"
   xmlns="http://www.w3.org/2000/svg"
   xmlns:sodipodi="http://sodipodi.sourceforge.net/DTD/sodipodi-0.dtd"
   xmlns:inkscape="http://www.inkscape.org/namespaces/inkscape"
   width="95pt"
   height="93pt"
   viewBox="0 0 95 93"
   version="1.1"
   id="svg2"
   inkscape:version="0.91 r13725"
   sodipodi:docname="icon14.svg">
  <metadata
     id="metadata20">
    <rdf:RDF>
      <cc:Work
         rdf:about="">
        <dc:format>image/svg+xml</dc:format>
        <dc:type
           rdf:resource="http://purl.org/dc/dcmitype/StillImage" />
      </cc:Work>
    </rdf:RDF>
  </metadata>
  <defs
     id="defs18" />
  <sodipodi:namedview
     pagecolor="#ffffff"
     bordercolor="#666666"
     borderopacity="1"
     objecttolerance="10"
     gridtolerance="10"
     guidetolerance="10"
     inkscape:pageopacity="0"
     inkscape:pageshadow="2"
     inkscape:window-width="1920"
     inkscape:window-height="1051"
     id="namedview16"
     showgrid="false"
     inkscape:zoom="2.0301075"
     inkscape:cx="60.360169"
     inkscape:cy="58.125"
     inkscape:window-x="0"
     inkscape:window-y="1024"
     inkscape:window-maximized="1"
     inkscape:current-layer="svg2" />
  <g
     id="#00b1f4ff" />
  <g
     id="#3dc3f6ff">
    <path
       fill="#3dc3f6"
       opacity="1.00"
       d=" M 35.88 0.00 L 38.45 0.00 C 39.97 1.57 42.26 2.87 42.56 5.23 C 43.12 9.83 42.94 14.48 42.81 19.09 C 42.73 21.31 42.43 24.05 40.13 25.09 C 36.40 26.99 32.07 28.19 29.86 32.09 C 33.31 32.52 37.21 31.72 40.31 33.63 C 43.32 35.73 42.76 39.80 42.89 42.98 C 42.63 52.67 43.09 62.36 42.71 72.04 C 42.77 75.15 40.22 77.91 37.06 77.87 C 28.07 78.37 19.04 77.71 10.04 77.96 C 6.80 77.94 1.77 78.14 1.11 73.93 C 0.20 64.68 1.03 55.33 0.74 46.04 C 0.45 33.45 3.25 19.76 12.72 10.78 C 18.91 4.54 27.45 1.64 35.88 0.00 M 13.85 18.83 C 8.04 26.57 6.62 36.58 6.74 46.01 C 6.79 54.62 6.70 63.23 6.79 71.84 C 16.74 71.86 26.69 72.10 36.63 71.94 C 36.60 60.73 36.66 49.52 36.59 38.31 C 31.96 38.35 27.33 38.42 22.70 38.46 C 23.29 34.08 23.92 29.37 26.86 25.85 C 29.29 22.84 33.03 21.45 36.53 20.12 C 36.70 15.54 36.68 10.96 36.51 6.38 C 27.71 7.39 19.17 11.62 13.85 18.83 Z"
       id="path6"
       style="fill:#ffffff" />
    <path
       fill="#3dc3f6"
       opacity="1.00"
       d=" M 62.15 28.09 C 68.52 20.39 78.32 16.02 88.19 15.33 C 90.96 15.04 93.72 17.24 94.03 20.01 C 94.61 24.66 94.42 29.37 94.30 34.03 C 94.21 36.39 93.99 39.44 91.36 40.35 C 87.62 42.00 83.63 43.51 81.28 47.10 C 84.70 47.42 88.41 46.80 91.60 48.34 C 94.61 50.08 94.20 54.02 94.37 56.99 C 94.25 66.32 94.36 75.65 94.33 84.98 C 94.58 88.09 93.28 90.98 90.96 93.00 L 56.20 93.00 C 53.93 91.39 51.95 89.08 52.22 86.10 C 52.07 76.74 52.18 67.37 52.23 58.01 C 52.33 47.36 55.17 36.36 62.15 28.09 M 67.42 31.44 C 60.92 38.60 58.57 48.51 58.47 57.96 C 58.40 67.56 58.46 77.16 58.45 86.76 C 68.39 86.92 78.34 86.96 88.28 86.99 C 88.34 75.82 88.32 64.65 88.30 53.48 C 83.65 53.55 79.00 53.61 74.35 53.54 C 75.04 49.10 75.62 44.27 78.63 40.71 C 81.10 37.76 84.85 36.47 88.32 35.10 C 88.34 30.55 88.33 26.00 88.29 21.45 C 80.45 22.21 72.71 25.48 67.42 31.44 Z"
       id="path8"
       style="fill:#ffffff" />
    <path
       fill="#3dc3f6"
       opacity="1.00"
       d=" M 22.28 41.91 C 25.82 41.02 29.53 41.42 33.15 41.33 C 33.50 46.89 33.42 52.47 33.41 58.04 C 33.44 59.81 33.02 61.57 32.23 63.15 C 31.76 62.77 30.82 62.03 30.35 61.65 C 30.15 55.96 30.29 50.26 30.22 44.56 C 27.31 44.54 24.39 44.48 21.49 44.28 C 21.68 43.69 22.08 42.50 22.28 41.91 Z"
       id="path10"
       style="fill:#ffffff" />
    <path
       fill="#3dc3f6"
       opacity="1.00"
       d=" M 75.13 56.27 C 78.64 56.32 82.16 56.39 85.67 56.48 C 86.00 61.36 85.95 66.25 85.81 71.13 C 85.07 71.15 83.60 71.20 82.87 71.22 C 82.75 67.41 82.74 63.60 82.77 59.80 C 79.85 59.60 76.93 59.34 74.02 58.99 C 74.41 58.09 74.78 57.18 75.13 56.27 Z"
       id="path12"
       style="fill:#ffffff" />
    <path
       fill="#3dc3f6"
       opacity="1.00"
       d=" M 82.77 74.46 C 83.75 74.61 84.81 74.54 85.71 75.04 C 85.90 76.71 85.89 78.39 85.95 80.07 C 85.17 80.11 83.61 80.19 82.83 80.22 C 82.81 78.30 82.78 76.38 82.77 74.46 Z"
       id="path14"
       style="fill:#ffffff" />
  </g>
</svg>
