<?xml version="1.0" encoding="UTF-8" ?>
<!DOCTYPE svg PUBLIC "-//W3C//DTD SVG 1.1//EN" "http://www.w3.org/Graphics/SVG/1.1/DTD/svg11.dtd">
<svg width="93pt" height="79pt" viewBox="0 0 93 79" version="1.1" xmlns="http://www.w3.org/2000/svg">
<g id="#ffffffff">
</g>
<g id="#88c73aff">
<path fill="#88c73a" opacity="1.00" d=" M 26.07 5.64 C 31.39 4.61 37.56 5.43 41.03 10.04 C 44.81 13.70 43.23 19.43 45.04 23.82 C 54.97 34.30 65.53 44.20 75.58 54.57 C 79.35 58.03 76.14 65.32 71.02 64.79 C 68.34 65.06 66.36 63.04 64.59 61.36 C 55.63 52.35 46.58 43.43 37.64 34.40 C 34.25 30.32 28.21 32.91 24.10 30.18 C 18.22 27.24 16.36 19.98 17.72 13.94 C 20.71 16.78 23.62 19.70 26.35 22.78 C 30.75 22.16 34.10 18.62 35.00 14.36 C 31.91 11.57 28.93 8.66 26.07 5.64 M 68.07 56.43 C 68.22 57.73 68.31 59.06 68.65 60.34 C 70.00 60.64 71.38 60.76 72.76 60.92 C 72.79 59.07 72.69 57.22 72.50 55.39 C 71.02 55.72 69.54 56.06 68.07 56.43 Z" />
<path fill="#88c73a" opacity="1.00" d=" M 51.87 24.34 C 58.20 18.64 63.68 12.05 70.30 6.68 C 73.48 10.57 77.62 13.57 80.65 17.56 C 74.90 23.73 68.73 29.50 62.81 35.52 C 61.90 34.67 61.00 33.82 60.09 32.97 C 65.34 27.29 71.53 22.44 76.08 16.16 C 74.58 16.41 72.97 16.66 71.94 17.92 C 67.39 22.40 63.08 27.14 58.26 31.34 C 57.54 30.46 56.84 29.57 56.13 28.68 C 61.17 23.47 66.78 18.74 71.37 13.14 C 71.62 10.16 69.30 12.96 68.41 13.43 C 63.71 17.91 59.16 22.58 54.58 27.19 C 53.67 26.24 52.77 25.29 51.87 24.34 Z" />
<path fill="#88c73a" opacity="1.00" d=" M 36.54 39.68 C 37.50 40.56 38.45 41.46 39.38 42.38 C 35.73 45.82 32.22 49.40 28.67 52.95 C 28.61 53.33 28.48 54.10 28.42 54.48 C 28.89 54.53 29.84 54.64 30.31 54.69 C 33.82 50.94 37.51 47.36 41.16 43.76 C 41.87 44.75 42.58 45.74 43.28 46.73 C 39.66 50.05 36.32 53.68 32.73 57.03 C 32.67 57.55 32.56 58.58 32.51 59.10 C 37.70 56.76 40.83 51.59 45.05 47.94 C 45.91 48.85 46.77 49.77 47.63 50.69 C 43.74 54.51 39.90 58.39 36.03 62.24 C 31.48 63.15 26.93 64.04 22.33 64.70 C 23.08 60.38 24.06 56.10 24.73 51.77 C 28.51 47.58 32.64 43.74 36.54 39.68 Z" />
</g>
</svg>
