<?xml version="1.0" encoding="UTF-8" standalone="no"?>
<svg
   xmlns:dc="http://purl.org/dc/elements/1.1/"
   xmlns:cc="http://creativecommons.org/ns#"
   xmlns:rdf="http://www.w3.org/1999/02/22-rdf-syntax-ns#"
   xmlns:svg="http://www.w3.org/2000/svg"
   xmlns="http://www.w3.org/2000/svg"
   xmlns:sodipodi="http://sodipodi.sourceforge.net/DTD/sodipodi-0.dtd"
   xmlns:inkscape="http://www.inkscape.org/namespaces/inkscape"
   width="27pt"
   height="40pt"
   viewBox="0 0 27 40"
   version="1.1"
   id="svg2"
   inkscape:version="0.91 r13725"
   sodipodi:docname="icon13.svg">
  <metadata
     id="metadata11">
    <rdf:RDF>
      <cc:Work
         rdf:about="">
        <dc:format>image/svg+xml</dc:format>
        <dc:type
           rdf:resource="http://purl.org/dc/dcmitype/StillImage" />
      </cc:Work>
    </rdf:RDF>
  </metadata>
  <defs
     id="defs9" />
  <sodipodi:namedview
     pagecolor="#ffffff"
     bordercolor="#666666"
     borderopacity="1"
     objecttolerance="10"
     gridtolerance="10"
     guidetolerance="10"
     inkscape:pageopacity="0"
     inkscape:pageshadow="2"
     inkscape:window-width="1920"
     inkscape:window-height="1051"
     id="namedview7"
     showgrid="false"
     inkscape:zoom="13.350176"
     inkscape:cx="20.916244"
     inkscape:cy="23.939532"
     inkscape:window-x="0"
     inkscape:window-y="1024"
     inkscape:window-maximized="1"
     inkscape:current-layer="svg2" />
  <g
     id="#feffffff"
     style="fill:#ffffff">
    <path
       d="m 19.23,0.77901599 0.179773,-0.0599243 C 21.899773,3.0590916 24.44,4.56 26.44,7.36 l 0.02068,0.2795458 0.179773,0.2002271 C 22.520454,11.759773 18.49,16.2 14.2,20.35 c 4.12,4.39 8.65,8.38 12.61,12.92 -1.91,2.11 -3.89,4.34 -6.19,6.04 0.02,0.17 -0.289546,0.04061 -0.259546,0.210606 l -0.39,-0.05992 C 19.590454,39.050681 19.19,38.78 18.81,38.37 13.7,33.08 8.43,27.95 3.25,22.73 2.36,21.67 1.3794701,20.730227 0.29052988,19.43 L 0.77901595,19.710454 0.35954582,19.420076 C 6.9995458,13.500076 12.68,6.79 19.19,0.65 Z"
       id="path5"
       style="opacity:1;fill:#ffffff"
       inkscape:connector-curvature="0"
       sodipodi:nodetypes="ccccccccccccccccc" />
  </g>
</svg>
