<?xml version="1.0" standalone="no"?>
<!DOCTYPE svg PUBLIC "-//W3C//DTD SVG 1.1//EN" "http://www.w3.org/Graphics/SVG/1.1/DTD/svg11.dtd" >
<svg xmlns="http://www.w3.org/2000/svg" xmlns:xlink="http://www.w3.org/1999/xlink" version="1.1">
<metadata>
Created by FontForge 20160407 at Sun Jun  5 16:52:14 2016
 By Jimmy Wärting
(c) Copyright SoftMaker Software GmbH and its licensors
</metadata>
<defs>
<font id="HeliumSerial" horiz-adv-x="426" >
  <font-face 
    font-family="HeliumSerial"
    font-weight="400"
    font-stretch="normal"
    units-per-em="1000"
    panose-1="0 0 4 0 0 0 0 0 0 0"
    ascent="800"
    descent="-200"
    x-height="576"
    cap-height="721"
    bbox="-90 -233 1015 998"
    underline-thickness="50"
    underline-position="-125"
    unicode-range="U+0020-2215"
  />
<missing-glyph horiz-adv-x="500" 
d="M31 0v899h438v-899h-438zM438 31v837h-376v-837h376z" />
    <glyph glyph-name=".notdef" horiz-adv-x="500" 
d="M31 0v899h438v-899h-438zM438 31v837h-376v-837h376z" />
    <glyph glyph-name="NULL" horiz-adv-x="0" 
 />
    <glyph glyph-name="nonmarkingreturn" horiz-adv-x="290" 
 />
    <glyph glyph-name="space" unicode=" " horiz-adv-x="290" 
 />
    <glyph glyph-name="exclam" unicode="!" horiz-adv-x="203" 
d="M53 32q0 18 14 32q16 13 37 13q18 0 31.5 -13t13.5 -30q0 -20 -13.5 -33t-33.5 -13q-19 0 -34 12.5t-15 31.5zM68 144v577h66v-577h-66z" />
    <glyph glyph-name="quotedbl" unicode="&#x22;" horiz-adv-x="256" 
d="M4 538q51 50 51 88q0 21 -10 24l-13 4q-21 6 -21 32q0 16 14.5 29t33.5 13q52 0 52 -58q0 -39 -30 -77t-77 -55zM131 538q51 50 51 88q0 20 -11 24l-12 4q-22 6 -22 32q0 16 14.5 29t33.5 13q53 0 53 -58q0 -21 -7 -39t-25 -40q-29 -36 -75 -53z" />
    <glyph glyph-name="numbersign" unicode="#" horiz-adv-x="632" 
d="M47 224l11 50h115l36 172h-115l10 50h116l44 210h50l-45 -210h105l44 210h49l-44 -210h115l-10 -50h-115l-37 -172h115l-10 -50h-115l-45 -210h-49l44 210h-104l-45 -210h-49l44 210h-115zM222 274h105l36 172h-104z" />
    <glyph glyph-name="dollar" unicode="$" horiz-adv-x="410" 
d="M197 726l-1 59h30v-61l28 1q22 0 70 -21l27 -12v-162h-48q0 68 -19.5 102.5t-54.5 34.5l-4 -1v-261l63 -60l50 -52q47 -55 47 -127q0 -80 -60 -137q-29 -26 -103 -41v-68h-30v68q-37 0 -73.5 8.5t-74.5 24.5v195h52q0 -78 10 -105q3 -18 18 -39q23 -27 66 -27h5v293
q-84 66 -120 111q-43 55 -43 117q0 69 49 117q22 22 48 32q14 5 29.5 8t38.5 3zM224 306v-257q82 27 82 113q0 41 -27 82q-17 27 -55 62zM195 435v231q-43 -12 -57 -32q-22 -30 -22 -72q0 -32 21 -66.5t58 -60.5z" />
    <glyph glyph-name="percent" unicode="%" horiz-adv-x="698" 
d="M27 517q0 94 22 137q35 67 125 67q49 0 83 -22q27 -18 42 -45q22 -42 22 -137q0 -91 -22 -136q-34 -67 -125 -67q-51 0 -83.5 20t-50.5 67q-13 37 -13 116zM91 0l469 721h49l-472 -721h-46zM377 201q0 95 23 138q33 66 124 66q51 0 84 -21q27 -18 42 -45q21 -39 21 -137
q0 -97 -21 -138q-33 -66 -126 -66q-50 0 -83 21q-24 15 -41 45q-23 43 -23 137zM174 368q83 0 83 104v89q0 105 -83 105t-83 -105v-89q0 -104 83 -104zM524 53q85 0 85 104v89q0 104 -85 104q-83 0 -83 -104v-89q0 -104 83 -104z" />
    <glyph glyph-name="ampersand" unicode="&#x26;" horiz-adv-x="536" 
d="M151 371q-22 32 -37 59t-25 52q-19 51 -19 92q0 65 48 111t119 46q68 0 112.5 -42t44.5 -110q0 -59 -36.5 -109t-120.5 -109l148 -189q25 72 25 132h58q0 -32 -3 -54.5t-8 -42.5q-6 -32 -32 -83q29 -31 55.5 -54t51.5 -39l-15 -42q-64 25 -128 79q-65 -80 -166 -80
q-84 0 -139 55.5t-55 142.5q0 48 21 91.5t101 93.5zM155 503q12 -37 49 -94q13 9 29.5 22.5t41.5 34.5q48 47 48 108q0 42 -25 70t-64 28q-40 0 -66.5 -28t-26.5 -71q0 -15 3 -31.5t11 -38.5zM348 112q-42 48 -82.5 99t-80.5 108q-50 -35 -68 -70q-14 -28 -14 -59
q0 -59 36.5 -100t92.5 -41q65 0 116 63z" />
    <glyph glyph-name="quotesingle" unicode="'" horiz-adv-x="130" 
d="M4 538q51 50 51 88q0 21 -10 24l-13 4q-21 6 -21 32q0 16 14.5 29t33.5 13q52 0 52 -58q0 -39 -30 -77t-77 -55z" />
    <glyph glyph-name="parenleft" unicode="(" horiz-adv-x="214" 
d="M197 792q-37 -43 -51 -70q-11 -26 -22 -77q-13 -81 -13 -175v-225q0 -108 15 -174q12 -56 70 -142q-80 61 -112 123q-43 89 -43 293q0 154 13 225q9 57 29 100q16 40 40 65q12 13 29.5 26.5t44.5 30.5z" />
    <glyph glyph-name="parenright" unicode=")" horiz-adv-x="214" 
d="M17 -71q33 39 50 69q12 24 23 78q13 80 13 175v224q0 108 -14.5 170.5t-70.5 145.5q80 -59 112 -123q43 -92 43 -293q0 -74 -3 -129t-9 -90.5t-12 -57t-18 -48.5q-18 -41 -39.5 -64t-74.5 -57z" />
    <glyph glyph-name="asterisk" unicode="*" horiz-adv-x="320" 
d="M16 624q4 9 9 18q9 16 23 33l98 -75l-17 121l31 3l34 -3l-19 -120l97 75q18 -23 32 -55l-115 -49l113 -48q-10 -27 -33 -54l-95 78l17 -123l-29 -2q-14 0 -33 4l15 122l-94 -79q-21 24 -33 51l115 53z" />
    <glyph glyph-name="plus" unicode="+" 
d="M29 329v65h153v150h62v-150h153v-65h-153v-157h-62v157h-153z" />
    <glyph glyph-name="comma" unicode="," horiz-adv-x="130" 
d="M4 -110q51 47 51 87q0 21 -10 24l-13 3q-21 11 -21 34q0 16 14 28.5t34 12.5q52 0 52 -57q0 -39 -30 -78t-77 -54z" />
    <glyph glyph-name="hyphen" unicode="-" horiz-adv-x="261" 
d="M22 277v61h217v-61h-217z" />
    <glyph glyph-name="period" unicode="." horiz-adv-x="134" 
d="M18 32q0 18 14 32q16 13 37 13q18 0 32 -12.5t14 -30.5q0 -19 -14.5 -32.5t-33.5 -13.5t-34 12.5t-15 31.5z" />
    <glyph glyph-name="slash" unicode="/" horiz-adv-x="319" 
d="M16 -28l249 777h38l-250 -777h-37z" />
    <glyph glyph-name="zero" unicode="0" 
d="M386 202v-15v-12q0 -39 -3 -56q-6 -45 -31 -76q-45 -57 -139 -57q-91 0 -139 57q-23 29 -31 76q-3 21 -3 83v315q0 60 4.5 94t29.5 65q45 57 139 57q92 0 139 -57q23 -29 31 -76q3 -21 3 -83v-315zM297 80q12 17 15 33.5t3 72.5v347q0 79 -18 106q-24 35 -84 35
q-59 0 -84 -35q-12 -18 -15 -33.5t-3 -72.5v-347q0 -79 18 -106q24 -35 84 -35q59 0 84 35z" />
    <glyph glyph-name="one" unicode="1" 
d="M89 577v39q54 8 80 32q20 20 35 73h38v-656q0 -18 13 -19h10v-46h-117v46h11q16 0 16 19v512h-86z" />
    <glyph glyph-name="two" unicode="2" 
d="M34 0v50l60 74q61 77 145 217q52 87 71 157q4 16 6 29.5t2 28.5q0 51 -27 81t-74 30q-52 0 -81 -39q-10 -15 -17 -43t-7 -66h-61q0 13 1 33t4 46q10 59 57.5 96.5t112.5 37.5q77 0 121.5 -46t44.5 -125q0 -78 -45 -167q-16 -33 -45.5 -81t-73.5 -111q-51 -76 -106 -143
h255v-59h-343z" />
    <glyph glyph-name="three" unicode="3" 
d="M39 210h62v-19q0 -141 101 -141q51 0 80 44q15 23 22 52.5t7 71.5q0 67 -35 103.5t-99 36.5l-22 -1v60q144 0 144 145q0 106 -90 106q-97 0 -97 -133v-14h-61q0 61 8 94q26 117 158 117q75 0 116 -44t41 -124q0 -86 -48 -133q-24 -23 -77 -41q74 -12 106 -55.5t32 -125.5
q0 -99 -48 -160t-130 -61q-92 0 -140 66q-21 30 -25.5 55t-4.5 74v27z" />
    <glyph glyph-name="four" unicode="4" 
d="M9 229v56l227 436h87v-435h40v-57h-41v-164q0 -17 12 -19h11v-46h-110v46h5q14 0 14 19v164h-245zM254 629l-179 -343h179v343z" />
    <glyph glyph-name="five" unicode="5" 
d="M41 211h62v-16l-1 -11q0 -133 102 -133q108 0 108 173q0 152 -114 152q-23 0 -41 -6q-30 -10 -45 -39h-48v390h267v-63h-202v-250q50 27 93 27q78 0 125 -60q39 -51 39 -151q0 -114 -46 -175t-131 -61t-135 63q-34 45 -34 126z" />
    <glyph glyph-name="six" unicode="6" 
d="M114 423l19 19q35 27 92 27q88 0 131 -64q20 -31 24 -69.5t4 -106.5v-20q0 -110 -29 -158q-40 -64 -142 -64q-86 0 -131 48q-26 27 -35 80q-2 16 -3 34t-1 55l-1 184q0 45 1 89.5t3 94.5q0 77 44 117t125 40q158 0 158 -155v-40h-63v36q0 99 -95 99q-54 0 -77.5 -26.5
t-23.5 -87.5v-132zM214 45q100 0 100 112v123q0 67 -20 93q-26 36 -82 36q-58 0 -83 -37q-10 -14 -13 -30l-2 -62v-131q0 -104 100 -104z" />
    <glyph glyph-name="seven" unicode="7" 
d="M36 536v185h354v-46l-45 -80q-50 -94 -87 -208q-23 -73 -50 -216q-12 -66 -12 -106q0 -18 13 -19h9v-46h-114v46h4q13 0 16 19l13 109q6 50 19 107.5t34 119.5q12 41 42 108q16 39 75 152h-141q-52 0 -66 -17q-15 -15 -15 -71v-37h-49z" />
    <glyph glyph-name="eight" unicode="8" 
d="M122 392q-37 15 -53 47q-20 43 -20 119q0 171 164 171q79 0 126 -48q38 -40 38 -125q0 -16 -1 -33.5t-4 -36t-15.5 -47.5t-52.5 -47q38 -12 58 -39t26 -76l2 -82v-14v-11q0 -41 -5 -60q-8 -46 -34 -75q-44 -49 -138 -49q-90 0 -138 49q-29 32 -35 77l-4 90v20
q0 89 27 130q15 21 59 40zM213 414q93 0 93 106v58q0 97 -94 97q-92 0 -92 -97v-58q0 -56 22 -81t71 -25zM211 44q56 0 83 27q25 28 25 90v94q0 57 -25 82.5t-81 25.5q-57 0 -82 -25t-25 -83v-94q0 -62 24.5 -89.5t80.5 -27.5z" />
    <glyph glyph-name="nine" unicode="9" 
d="M312 293l-19 -19q-35 -29 -92 -29q-88 0 -131 65q-20 31 -24 69.5t-4 111.5v20q0 110 29 158q39 65 142 65q83 0 131 -49q26 -27 35 -80q2 -16 3 -34t1 -55l1 -188v-28v-23v-19v-17v-14v-11q0 -20 -1 -38t-4 -34q0 -77 -44 -117t-124 -40q-158 0 -158 154v41h63v-36
q0 -100 95 -100q54 0 77.5 26.5t23.5 87.5v133zM297 344q9 15 12 29.5t3 61.5v136q0 104 -100 104t-100 -112v-128q0 -67 20 -93q26 -35 82 -35t83 37z" />
    <glyph glyph-name="colon" unicode=":" horiz-adv-x="162" 
d="M34 32q0 18 14.5 31.5t34.5 13.5t33.5 -12.5t13.5 -30.5q0 -20 -14.5 -33t-34.5 -13t-33.5 13t-13.5 31zM34 432q0 20 14 33t34 13t33.5 -12.5t13.5 -31.5q0 -18 -14.5 -31.5t-33.5 -13.5t-34 12q-13 13 -13 31z" />
    <glyph glyph-name="semicolon" unicode=";" horiz-adv-x="159" 
d="M27 432q0 18 15 32t35 14t33 -13t13 -31t-13.5 -31.5t-33.5 -13.5q-19 0 -34 12.5t-15 30.5zM18 -110q52 49 52 88q0 17 -9 23l-13 3q-21 9 -21 33q0 42 47 42q51 0 51 -57q0 -21 -7 -39t-25 -40q-29 -38 -75 -53z" />
    <glyph glyph-name="less" unicode="&#x3c;" horiz-adv-x="177" 
d="M22 289l134 202v-94l-77 -109l77 -113v-93z" />
    <glyph glyph-name="equal" unicode="=" 
d="M27 263v65h372v-65h-372zM27 406v64h372v-64h-372z" />
    <glyph glyph-name="greater" unicode="&#x3e;" horiz-adv-x="177" 
d="M22 82v94l76 108l-75 114v93l133 -207z" />
    <glyph glyph-name="question" unicode="?" horiz-adv-x="365" 
d="M111 32q0 18 14 32q16 13 37 13q20 0 33.5 -12.5t13.5 -32.5q0 -17 -15 -30.5t-34 -13.5t-34 12.5t-15 31.5zM16 535v151l29 16q59 31 123 31q76 0 121.5 -39.5t45.5 -108.5q0 -20 -3 -37.5t-11 -35.5q-14 -35 -53 -88q-35 -49 -53 -79q-15 -28 -21 -56
q-3 -20 -4.5 -42.5t-1.5 -49.5l-1 -51h-52q0 28 -3 68t-3 53q0 39 4 54q9 42 46 92l29 40q48 66 48 124q0 46 -24.5 72.5t-68.5 26.5q-49 0 -73.5 -32t-32.5 -109h-41z" />
    <glyph glyph-name="at" unicode="@" horiz-adv-x="841" 
d="M454 230q-5 -19 -20 -36q-35 -41 -81 -41q-25 0 -50 11q-40 18 -58.5 62t-18.5 116q0 16 4 35q15 93 67 155q49 58 109 58q57 0 86 -53l2 -5l3 -5l9 57l49 -1l-52 -302q-3 -17 -3 -31t5 -31q9 -31 41 -31l15 3q26 9 57 46q39 45 52 134l4 54q0 117 -71 189.5t-181 72.5
h-28q-13 -3 -19 -4q-109 -15 -183.5 -107t-74.5 -218q0 -47 12 -94q27 -108 106 -170.5t176 -62.5q74 0 146 38.5t121 102.5l20 -36q-120 -150 -291 -150q-156 0 -258 114q-49 55 -70 124.5t-21 160.5q0 64 25 121t72 112q88 99 220 115l43 3q133 0 220.5 -87.5t87.5 -221.5
q0 -31 -6 -66q-12 -81 -56 -141q-51 -75 -125 -75q-39 0 -64 25q-21 21 -21 60zM284 291q0 -36 13 -62q15 -36 57 -36q26 0 46 19q25 23 47 86l18 75l2 10l7 42q2 9 2 19v15v16q-1 6 -1 9q-3 27 -22.5 44t-43.5 17q-13 0 -26 -5q-48 -21 -80 -111l-13 -49q-4 -22 -5 -41.5
t-1 -47.5z" />
    <glyph glyph-name="A" unicode="A" horiz-adv-x="459" 
d="M-2 0v46h4q11 0 17 19l165 642q35 3 87 22l171 -664q4 -17 15 -19h5v-46h-114v46h4q12 0 13 13v6l-49 190h-177l-49 -194q0 -15 11 -15h5v-46h-108zM219 594l-69 -283h157l-72 284q-2 8 -4.5 25t-3.5 28q-2 -22 -3.5 -31.5t-4.5 -22.5z" />
    <glyph glyph-name="B" unicode="B" horiz-adv-x="437" 
d="M37 -2v48h4q15 0 15 19v591q0 18 -15 18h-4v51l62 -4q37 0 80 4l57 5q69 0 107 -44t38 -126q0 -74 -42 -122q-22 -25 -77 -44q47 -9 76 -30q71 -51 71 -164q0 -96 -48.5 -152t-131.5 -56l-56 4l-71 5zM129 665v-249h14l15 -1q145 0 145 134q0 64 -26 92t-83 28zM129 362
v-305l67 -5q135 0 135 153q0 158 -166 158z" />
    <glyph glyph-name="C" unicode="C" horiz-adv-x="423" 
d="M383 696v-176h-51q0 17 -2 33.5t-5 32.5q-15 86 -106 86q-60 0 -87 -40q-15 -23 -15 -51l-2 -103l1 -242q0 -86 3 -109.5t16 -43.5q21 -35 86 -35q57 0 82.5 32t25.5 104v14l-1 17h61v-36q0 -98 -38 -142q-43 -49 -130 -49q-26 0 -36 1.5t-28 6.5q-65 18 -92 70
q-11 23 -17 63t-6 100l-1 127l1 126q0 97 6.5 127.5t30.5 62.5q47 59 136 59q70 0 168 -35z" />
    <glyph glyph-name="D" unicode="D" horiz-adv-x="459" 
d="M37 -3v49h4q16 0 16 19v591q0 18 -15 18h-4v50l64 -4l67 4l58 5q116 0 158 -113q34 -97 34 -271q0 -183 -45.5 -268t-146.5 -85q-7 0 -21.5 1t-33.5 4q-45 6 -66 6zM130 664v-606l79 -6q80 0 106 75.5t26 220.5q0 53 -1.5 75.5t-6.5 66.5q-12 108 -42 143t-89 35h-24.5
t-47.5 -4z" />
    <glyph glyph-name="E" unicode="E" horiz-adv-x="406" 
d="M37 0v46h5q14 0 14 19v590q0 18 -14 19h-4v47h318v-195h-53l-1 68q0 39 -18 57q-12 12 -47 12h-108v-259h182v-57h-182v-289h127q39 0 54 15t15 73v67h56v-213h-344z" />
    <glyph glyph-name="F" unicode="F" horiz-adv-x="366" 
d="M37 674v47h318v-176h-51l-2 57l-8 28q-6 22 -19 29q-5 2 -12 3t-23 1h-111v-255h180v-58h-180v-289q0 -15 13 -15h7v-46h-112v46h4q11 0 14 15l1 4v591q0 18 -15 18h-4z" />
    <glyph glyph-name="G" unicode="G" horiz-adv-x="449" 
d="M387 697v-169h-49q0 21 -1.5 33t-6.5 29q-17 82 -107 82q-61 0 -88 -37q-11 -17 -16 -40l-3 -107l-1 -250q0 -76 3 -100.5t15 -47.5q24 -41 90 -41q56 0 100 28v256q0 16 -16 17h-4v48h109v-48h-4q-12 0 -12 -12v-311l-18 -4l-32 -12q-56 -21 -122 -21q-97 0 -143 55
q-39 47 -39 181l-1 131l2 135q0 84 9 120q7 35 31 65q46 55 138 55q33 0 76.5 -8t89.5 -27z" />
    <glyph glyph-name="H" unicode="H" horiz-adv-x="467" 
d="M37 0v46h4q10 0 11 5l4 10v600q0 12 -14 13h-4v47h109v-47h-4q-14 0 -14 -19v-250h208v251q0 18 -13 18h-5v47h110v-47h-4q-15 0 -15 -13l4 -610q2 -3 12 -5h4v-46h-110v46h4q13 0 13 19v283h-208v-283q0 -18 14 -19h4v-46h-110z" />
    <glyph glyph-name="I" unicode="I" horiz-adv-x="186" 
d="M37 0v46h5q15 0 15 15l1 4l-3 604l-9 3h-9v49h112v-49h-4q-15 0 -15 -9v-4l1 -4v-591q0 -18 13 -18h5v-46h-112z" />
    <glyph glyph-name="J" unicode="J" horiz-adv-x="185" 
d="M-8 -75q42 21 54 56q5 16 8 43t3 67v565q0 18 -15 18h-4v47h110v-47h-4q-13 0 -14 -13v-570q0 -98 -9.5 -127t-35.5 -49.5t-80 -40.5z" />
    <glyph glyph-name="K" unicode="K" horiz-adv-x="428" 
d="M37 0v46h4q15 0 15 15l-3 609q-7 4 -11 4h-5v47h111v-46h-10q-6 -2 -6 -4l-1 -9l-2 -5v-235l166 234l3 5l1 7q0 6 -11 6h-5v47h118v-47h-4q-8 0 -22 -18l-186 -258l24 -40l42 -73q51 -88 120 -181q36 -47 65 -72l-12 -44q-55 27 -102 76q-34 35 -73 91q-11 16 -28.5 42.5
t-30.5 48.5l-40 71l-25 47v-299q0 -18 14 -19h5v-46h-111z" />
    <glyph glyph-name="L" unicode="L" horiz-adv-x="391" 
d="M37 0v46h4q16 0 16 19v591q0 18 -15 18h-5v47h109v-47h-4q-13 0 -13 -18v-598h130q35 0 49 12q14 14 14 54l2 90h55v-214h-342z" />
    <glyph glyph-name="M" unicode="M" horiz-adv-x="699" 
d="M37 674v47h102l194 -564q7 -19 16 -68l16 68l195 564h103v-47l-4 -2h-5q-9 0 -10 -10v-595q0 -18 11 -18h7v-49h-100v48l4 1h5l8 4l4 9l-1 5v487l8 65l-9 -34l-11 -29l-192 -556h-58l-211 619l9 -65l-1 -492q0 -12 11 -13h4l5 -1v-48h-100v49h7q11 0 11 18v595
q0 9 -11 10h-4z" />
    <glyph glyph-name="N" unicode="N" horiz-adv-x="465" 
d="M37 674v47l100 -3l197 -564q9 -24 18 -69l-3 37l-2 37v497q0 18 -16 18h-5v47h102v-47q-18 0 -18 -13v-661h-90l-191 547l-20 63l6 -33l2 -33v-479q0 -17 15 -19h4v-46h-99v46h4q14 0 14 19v591q0 18 -14 18h-4z" />
    <glyph glyph-name="O" unicode="O" horiz-adv-x="441" 
d="M400 218q0 -50 -4 -86t-13 -56q-38 -89 -162 -89t-163 89q-17 40 -17 143v283q0 102 17 142q36 89 163 89q71 0 121 -36q26 -19 42 -57t16 -139v-283zM325 156v408q0 25 -6 48q-15 60 -98 60t-100 -60q-6 -23 -6 -48v-408q0 -21 5 -44t25 -41q26 -23 76 -23q80 0 98 60
q6 23 6 48z" />
    <glyph glyph-name="P" unicode="P" horiz-adv-x="411" 
d="M37 674v51l69 -5q16 0 34.5 1t38.5 4l50 4q78 0 124 -51t46 -143t-48.5 -146.5t-132.5 -54.5q-11 0 -27 1t-36 4l-4 51l43 -3q59 0 93.5 39.5t34.5 107.5q0 135 -125 135l-66 -4v-600q0 -18 14 -19h7v-46h-115v46h4q14 0 16 15l1 4v591q0 18 -17 18h-4z" />
    <glyph glyph-name="Q" unicode="Q" horiz-adv-x="441" 
d="M228 -9l-26 -3q-30 0 -54.5 8t-49.5 27t-41 56t-16 140v283q0 102 17 142q36 89 163 89q71 0 121 -36q26 -19 42 -57t16 -139v-283q0 -99 -17 -142q-10 -28 -26 -41.5t-50 -25.5q13 -38 26 -54q5 -8 10 -13q1 -1 12 -11l40 -29l-13 -48q-51 19 -81 39l-34 27
q-22 23 -39 71zM325 156v408q0 25 -6 48q-15 60 -98 60t-100 -60q-6 -23 -6 -48v-408q0 -21 5 -44t25 -41q26 -23 76 -23q80 0 98 60q6 23 6 48z" />
    <glyph glyph-name="R" unicode="R" horiz-adv-x="423" 
d="M37 0v46h4l4 2q3 0 4.5 1t2.5 2l3 10v595q0 18 -13 18h-4v50l61 -3q43 0 78 4l54 4q72 0 113 -44q20 -22 30 -52t10 -70q0 -48 -19 -92q-13 -31 -48.5 -59.5t-115.5 -39.5l24 -40q4 -11 31 -53l50 -78l60 -85q20 -28 38.5 -49.5t35.5 -35.5l-13 -43q-41 19 -58.5 32
t-49.5 50q-39 43 -75 92q-30 39 -58 89l-32 63l-26 49l2 -311q2 -6 15 -6h4v-46h-112zM128 663v-248h19q156 0 156 142q0 110 -105 110l-49 -1z" />
    <glyph glyph-name="S" unicode="S" horiz-adv-x="410" 
d="M351 692v-162h-48q0 37 -7.5 64t-19.5 46q-21 32 -67 32q-43 0 -71.5 -29.5t-28.5 -72.5q0 -41 28 -79q24 -31 94.5 -94.5t106.5 -103.5q47 -55 47 -127q0 -81 -52 -130t-135 -49q-40 0 -64 5q-47 8 -90 29v195h52q0 -74 10 -105q18 -69 90 -69q47 0 80 33q31 34 31 85
q0 57 -32 93q-21 24 -96 93l-59 54q-88 82 -88 166q0 72 50 119t130 47q49 0 112 -28z" />
    <glyph glyph-name="T" unicode="T" horiz-adv-x="381" 
d="M5 520v201h370v-200h-47v61q0 52 -14 69.5t-55 17.5h-33v-602q0 -21 14 -21h5v-46h-111v46h4q8 0 14 13l3 7v602h-38q-36 0 -50 -20t-14 -71v-57h-48z" />
    <glyph glyph-name="U" unicode="U" horiz-adv-x="470" 
d="M37 674v47h109v-47h-4q-12 0 -13 -13v-489q0 -67 21 -94q27 -33 85 -33q55 0 85 33q22 25 22 94v489q0 12 -13 13h-5v47h110v-47h-5q-15 0 -15 -18v-488v-12q0 -43 -5 -62q-8 -37 -34 -63q-45 -45 -140 -45q-104 0 -152 58q-27 33 -27 124v488q0 18 -15 18h-4z" />
    <glyph glyph-name="V" unicode="V" horiz-adv-x="432" 
d="M-2 674v47h112v-47h-5q-12 0 -13 -13v-5l118 -509q4 -17 6.5 -33.5t2.5 -37.5q5 39 12 72l111 507l1 6q0 11 -12 13h-5v47h109v-47h-5q-10 0 -15 -18l-151 -656h-89l-156 656q-3 18 -17 18h-4z" />
    <glyph glyph-name="W" unicode="W" horiz-adv-x="652" 
d="M12 674v47h110v-47h-4q-12 0 -14 -15l1 -3l66 -473l5 -78l11 79l99 537h83l100 -537l10 -79q0 43 6 78l67 476q0 15 -15 15h-4v47h106v-47h-4q-10 0 -16 -18l-98 -656h-81l-104 559l-4 35l-3 34l-10 -69l-103 -559h-86l-99 656q-3 18 -15 18h-4z" />
    <glyph glyph-name="X" unicode="X" horiz-adv-x="444" 
d="M-2 0v46h4q12 0 22 19l158 299l-156 292q-9 18 -21 18h-4v47h114v-47h-5q-6 0 -7 -5l2 -8l2 -5l104 -204q5 -10 13 -42q3 14 4.5 18.5t9.5 23.5l104 204l1 5l2 8q-4 5 -8 5h-4v47h109v-47h-4q-12 0 -21 -18l-154 -292l158 -299q9 -17 21 -19h4v-46h-118v46h5q10 0 11 7
q-3 9 -5 12l-107 213q-4 10 -11 41q-4 -25 -12 -41l-108 -212l-4 -12q7 -5 13 -5h5v-49h-117z" />
    <glyph glyph-name="Y" unicode="Y" horiz-adv-x="418" 
d="M-8 674v47h114v-47h-4q-9 0 -9 -6l2 -12l99 -215q7 -16 17 -53q5 31 16 54l102 214l2 12q0 6 -11 6h-4v47h110v-47h-4q-11 0 -20 -18l-156 -331v-260q0 -17 15 -19h4v-46h-110v46h4q12 0 15 19v256l-157 335q-8 18 -20 18h-5z" />
    <glyph glyph-name="Z" unicode="Z" horiz-adv-x="431" 
d="M19 0v50l289 613h-150q-38 0 -54 -13.5t-16 -70.5v-49h-54v191h362v-46l-290 -616h172q44 0 58.5 18.5t14.5 71.5v65h54v-214h-386z" />
    <glyph glyph-name="bracketleft" unicode="[" horiz-adv-x="173" 
d="M48 -64v849l50 -4h25q20 3 31 4v-49q-23 -3 -31 -17l-4 -17v-683q0 -9 5 -20t30 -15v-49l-56 6q-13 0 -27 -2t-23 -3z" />
    <glyph glyph-name="backslash" unicode="\" horiz-adv-x="321" 
d="M47 720h76l127 -720h-77z" />
    <glyph glyph-name="bracketright" unicode="]" horiz-adv-x="173" 
d="M19 -65v49q23 3 31 18l4 17v683q0 9 -4 17q-7 12 -31 17v49l56 -4h28q15 3 22 4v-849l-50 5z" />
    <glyph glyph-name="asciicircum" unicode="^" horiz-adv-x="259" 
d="M8 622l111 117h22l111 -117h-64l-58 73l-58 -73h-64z" />
    <glyph glyph-name="underscore" unicode="_" horiz-adv-x="491" 
d="M47 -30v30h360v-30h-360z" />
    <glyph glyph-name="grave" unicode="`" horiz-adv-x="185" 
d="M-27 737h72l79 -116h-47z" />
    <glyph glyph-name="a" unicode="a" horiz-adv-x="414" 
d="M117 395h-61v17q0 80 35 127q39 53 119 53q81 0 120 -55q14 -20 21 -48t7 -68v-342q0 -24 16 -25l2 -50q-16 -6 -33 -8q-52 0 -52 56q-27 -39 -55 -51q-32 -12 -63 -12q-139 0 -139 174q0 71 27 104q21 25 116 58q76 25 94.5 41t18.5 59q0 110 -87 110q-51 0 -72 -41
q-7 -13 -10.5 -37.5t-3.5 -61.5zM291 173v155q-16 -16 -34 -26l-54 -21q-64 -21 -81.5 -41.5t-17.5 -74.5q0 -119 92 -119q48 0 75 36q20 28 20 91z" />
    <glyph glyph-name="b" unicode="b" horiz-adv-x="423" 
d="M37 672v47q40 7 85 23v-228q29 41 59.5 59t69.5 18q72 0 104 -56q15 -27 21 -63q3 -23 5 -62.5t2 -97.5v-29v-24v-20v-16v-14v-11q0 -43 -5 -66q-6 -68 -40 -105.5t-90 -37.5q-35 0 -60.5 14.5t-62.5 57.5l-14 -61h-55v654q0 18 -15 18h-4zM299 98q12 32 12 92v214
q0 125 -85 125q-46 0 -74.5 -36.5t-28.5 -96.5v-226q0 -47 30 -83q30 -33 75 -33q53 0 71 44z" />
    <glyph glyph-name="c" unicode="c" horiz-adv-x="379" 
d="M339 564v-160l-55 1v20q0 60 -19 85t-63 25q-54 0 -77 -41q-16 -29 -16 -100v-202q0 -78 16 -106q23 -40 73 -40q45 0 64.5 31t19.5 102v29h62v-39q0 -79 -23 -119q-35 -61 -123 -61q-86 0 -127 59q-13 18 -21.5 48.5t-8.5 72.5l-1 129q0 124 8.5 176.5t49.5 85t106 32.5
q29 0 60 -7l46 -14z" />
    <glyph glyph-name="d" unicode="d" horiz-adv-x="421" 
d="M297 514v140q0 18 -16 18h-4v47q21 3 46 10q10 3 41 13v-651q0 -24 4.5 -30.5t15.5 -6.5v-50q-18 -6 -32 -6q-50 0 -56 69q-8 -17 -17 -29q-38 -49 -106 -49t-107 60q-16 26 -22 71q0 6 -2 65t-2 114q0 131 5 178t41 82t88 35q27 0 56 -12q36 -17 67 -68zM196 52
q44 0 72.5 34t28.5 87v237q0 54 -29 87.5t-73 33.5q-50 0 -70 -39q-15 -30 -15 -115v-183q0 -74 15 -103q21 -39 71 -39z" />
    <glyph glyph-name="e" unicode="e" horiz-adv-x="403" 
d="M363 320l-200 -51q-33 -9 -43 -17.5t-10 -47.5v-56q0 -104 94 -104q66 0 86 51q9 24 9 110h63v-16v-13q0 -21 -1 -37t-4 -27q-17 -126 -156 -126q-93 0 -133 67q-12 22 -19.5 50.5t-7.5 67.5l-1 125q0 59 1 99t4 61q8 64 50 99.5t111 35.5q85 0 126 -56q31 -43 31 -139
v-76zM109 416v-111l187 47v71q0 113 -90 113q-97 0 -97 -120z" />
    <glyph glyph-name="f" unicode="f" horiz-adv-x="196" 
d="M30 526v50h28v45q0 114 105 114q28 0 60 -9v-47q-23 6 -37 6q-62 0 -62 -73v-36h97v-50h-97v-465q0 -15 19 -15h6v-46h-113v46h5q12 0 16 19v461h-27z" />
    <glyph glyph-name="g" unicode="g" horiz-adv-x="392" 
d="M36 -2v43l88 111q-34 12 -54 36q-23 29 -30 83q-3 24 -3 89q0 93 11 129q29 103 153 103q31 0 60 -6q18 -3 25 -6q1 0 3 -1l23 -2l31 -3h27v-51h-31q-5 -4 -5 -6l5 -11q20 -28 20 -83l-1 -63q0 -91 -11 -124q-12 -43 -50 -69t-91 -26l-30 1l-52 -70l-7 -13l1 -5l7 -1h123
q134 0 134 -102q0 -66 -47 -103.5t-131 -37.5q-165 0 -165 122v11h59q0 -39 25 -58t78 -19q108 0 108 79q0 53 -84 53h-189zM196 194q93 0 93 111v127q0 104 -92 104q-93 0 -93 -109v-124q0 -109 92 -109z" />
    <glyph glyph-name="h" unicode="h" horiz-adv-x="436" 
d="M37 672v47q40 7 85 23v-219l36 35q45 37 100 37q64 0 100 -46q21 -27 21 -90v-394q0 -17 12 -19h8v-46h-104v46h8q9 0 9 19v380q0 88 -77 88q-36 0 -71 -25q-41 -30 -41 -52v-391q0 -17 12 -19h7v-46h-104v46h4q13 0 14 16v592q0 18 -15 18h-4z" />
    <glyph glyph-name="i" unicode="i" horiz-adv-x="179" 
d="M37 524v48q42 6 75 24q11 -50 11 -105v-430q0 -15 14 -15h6v-46h-106v46q15 0 18 15l1 4v442q0 15 -15 17h-4zM41 678q0 40 49 40q44 0 44 -39q0 -40 -48 -40q-18 0 -32 11q-11 12 -13 28z" />
    <glyph glyph-name="j" unicode="j" horiz-adv-x="181" 
d="M37 524v48q43 6 75 25q11 -53 11 -105v-580l-2 -26q0 -18 -3 -24l-11 -39l-51 -15v699q0 15 -15 17h-4zM42 678q0 40 48 40q44 0 44 -40q0 -39 -48 -39q-19 0 -31 11q-11 12 -13 28z" />
    <glyph glyph-name="k" unicode="k" horiz-adv-x="387" 
d="M37 672v47q24 4 41.5 8.5t45.5 14.5v-400l134 170l3 6l3 7q-5 5 -9 5h-4v46h114v-46h-4q-13 0 -28 -18l-150 -187l176 -260q12 -18 22 -19h4v-46h-111v44l3 2l4 2l4 3l-3 10l-2 4l-155 233l1 -247q3 -3 10 -5h8v-46h-106v46h4q15 0 15 19v589q0 18 -15 18h-5z" />
    <glyph glyph-name="l" unicode="l" horiz-adv-x="179" 
d="M37 0v46h4q15 0 15 18v590q0 18 -15 18h-4v47q24 4 41.5 8.5t45.5 14.5v-677q0 -17 12 -19h7v-46h-106z" />
    <glyph glyph-name="m" unicode="m" horiz-adv-x="693" 
d="M37 524v48q42 6 75 24q11 -41 11 -81q56 76 138 76q86 0 115 -81q17 23 35 39q45 42 107 42q74 0 106 -57q14 -26 14 -54l1 -52v-363q0 -18 10 -19h7v-46h-106v46h8q13 0 13 19v358q0 49 -10 70q-17 37 -67 37q-21 0 -39 -7t-40 -25q-34 -28 -34 -58v-379q0 -15 9 -15h11
v-46h-108v46h8l4 2l5 3l4 10v363q0 49 -11 70q-18 35 -66 35q-42 0 -78 -29q-36 -27 -36 -54l1 -385q0 -15 7 -15h12v-46h-105v46h4q14 0 14 19v442q0 15 -15 17h-4z" />
    <glyph glyph-name="n" unicode="n" horiz-adv-x="436" 
d="M37 524v48q35 5 75 24q6 -25 8.5 -40t2.5 -36q35 38 69 55q18 8 33.5 12t33.5 4q65 0 98 -45q24 -33 24 -103l2 -392q2 -3 7 -5h9v-46h-104v46h8q6 3 7 5l2 10v369q0 96 -74 96q-28 0 -51 -10q-64 -27 -64 -72v-383q0 -15 10 -15h10v-46h-105v46h5q13 0 13 19v442
q0 15 -15 17h-4z" />
    <glyph glyph-name="o" unicode="o" horiz-adv-x="403" 
d="M40 286q0 139 8 182q18 122 154 122q85 0 126 -53q27 -35 34 -119l1 -130q0 -134 -7 -182q-17 -120 -154 -120q-86 0 -127 51q-16 22 -25 60t-9 95zM201 38q94 0 94 122v255q0 121 -94 121q-93 0 -93 -121v-255q0 -122 93 -122z" />
    <glyph glyph-name="p" unicode="p" horiz-adv-x="422" 
d="M37 524v48q41 6 77 24q10 -37 10 -63v-22l17 27q33 54 105 54q79 0 114 -66q22 -44 22 -147v-165q0 -105 -21 -153q-13 -32 -45.5 -52.5t-69.5 -20.5q-34 0 -65.5 16.5t-57.5 56.5v-155q0 -33 -3 -44l-13 -39l-51 -15v699q0 15 -15 17h-4zM299 91q12 27 12 82v229
q0 65 -14 92q-21 41 -72 41q-47 0 -74.5 -36.5t-27.5 -97.5v-233q0 -55 27.5 -87.5t74.5 -32.5q55 0 74 43z" />
    <glyph glyph-name="q" unicode="q" horiz-adv-x="412" 
d="M298 520l16 56h52v-651q0 -40 -7 -64l-10 -36l-51 -16v260q-6 -16 -17 -29q-33 -51 -105 -51q-75 0 -108 60q-14 25 -21 80.5t-7 144.5v18l1 91q0 58 5 81q6 40 29 74q34 52 101 52q71 0 122 -70zM197 51q45 0 73.5 34.5t28.5 90.5v236q0 52 -29 84.5t-73 32.5
q-86 0 -86 -121v-229q0 -128 86 -128z" />
    <glyph glyph-name="r" unicode="r" horiz-adv-x="224" 
d="M37 0v46l5 2h4q5 0 8 3l1 10l2 4v442q0 15 -15 17h-4v48q42 6 77 25q9 -42 9 -83v-9q14 36 27.5 54.5t27 25t50.5 11.5v-85h-29q-45 0 -64 -41q-12 -27 -12 -89v-316q0 -18 11 -19h7v-46h-105z" />
    <glyph glyph-name="s" unicode="s" horiz-adv-x="370" 
d="M320 565v-155h-52l-2 30q0 47 -20 71t-57 24q-34 0 -59 -25q-23 -25 -23 -64q0 -38 26 -64q18 -22 72 -48q70 -33 100 -64q38 -40 38 -110q0 -78 -44.5 -125.5t-120.5 -47.5q-51 0 -140 36v166h53q0 -22 2 -42t4 -31q12 -72 84 -72q42 0 66 30t24 85q0 42 -23 68
q-20 25 -84 57t-88 55q-40 38 -40 104q0 65 42.5 106.5t112.5 41.5q29 0 60.5 -6t68.5 -20z" />
    <glyph glyph-name="t" unicode="t" horiz-adv-x="203" 
d="M10 528v43q39 9 58 34q24 32 31 116h29v-145h77v-50h-77v-418l1 -30q0 -8 6 -20q11 -14 33 -14q16 0 38 11v-50q-36 -15 -60 -15q-42 0 -67 25q-18 18 -18 82v431h-51z" />
    <glyph glyph-name="u" unicode="u" horiz-adv-x="436" 
d="M37 524v48q42 6 74 22q12 -45 12 -108v-312l1 -51q0 -19 11 -41q20 -32 69 -32q20 0 46.5 10.5t45 33.5t18.5 43v439h85v-46q-18 0 -18 -18v-418q0 -25 3 -32.5t12 -9.5l3 -48q-17 -8 -34 -10q-51 0 -51 63q-31 -37 -66 -53.5t-71 -16.5q-72 0 -102 52q-12 20 -15.5 43.5
t-3.5 91.5v333q0 15 -15 17h-4z" />
    <glyph glyph-name="v" unicode="v" horiz-adv-x="391" 
d="M10 530v46h107v-46h-5q-10 0 -11 -13l1 -5l87 -375q4 -16 6.5 -31t2.5 -35l3 38q0 16 4 29l90 378q0 12 -12 14h-4v46h103v-46h-6q-8 0 -14 -18l-125 -512h-82l-127 512q-3 18 -14 18h-4z" />
    <glyph glyph-name="w" unicode="w" horiz-adv-x="672" 
d="M15 530v46h111v-46h-4q-15 0 -16 -14v-4l89 -382l7 -51l9 57l87 440h78l87 -440l8 -57l8 52l89 385q0 13 -16 14h-4v46h110v-46h-4q-11 0 -17 -18l-121 -512h-88l-83 424l-6 32l-3 33l-3 -34l-7 -32l-84 -423h-85l-121 512q-3 18 -17 18h-4z" />
    <glyph glyph-name="x" unicode="x" horiz-adv-x="400" 
d="M8 0v46h4q11 0 23 19l123 233l-118 214q-9 18 -16 18h-10v46h114v-46h-5q-9 0 -11 -6l4 -12l71 -141q10 -19 15 -41l4 19l11 22l71 141l2 5l1 7q0 6 -10 6h-4v46h109v-46h-10q-5 0 -16 -18l-118 -214l124 -233q9 -18 22 -19h4v-46h-112v46h5q9 0 9 6l-1 9l-2 4l-77 154
q-9 18 -15 46q-4 -23 -15 -46l-77 -154l-4 -13q0 -6 11 -6h5v-46h-111z" />
    <glyph glyph-name="y" unicode="y" horiz-adv-x="402" 
d="M5 530v46h107v-46h-4q-12 0 -12 -13v-5l100 -436l106 436l1 5q0 12 -11 13h-4v46h109v-46h-5q-11 0 -17 -18l-145 -561q-20 -79 -46 -105q-24 -26 -90 -38l-5 54q27 3 43 21.5t28 62.5l13 54h-24l-126 511q-4 18 -13 19h-5z" />
    <glyph glyph-name="z" unicode="z" horiz-adv-x="410" 
d="M19 0v49l264 474h-117q-44 0 -59.5 -14.5t-15.5 -60.5v-30h-54v158h331v-48l-264 -473h154q38 0 54 19t16 65v55h55v-194h-364z" />
    <glyph glyph-name="braceleft" unicode="{" horiz-adv-x="342" 
d="M47 360q26 0 44.5 20.5t18.5 51.5v330q0 71 81 71h78v-45h-12q-33 0 -45.5 -11.5t-12.5 -46.5v-290q0 -31 -19.5 -53t-51.5 -27q31 -3 51 -26t20 -54v-290q0 -35 11.5 -46.5t46.5 -11.5h12v-45h-78q-81 0 -81 71v330q0 29 -17.5 49t-45.5 23z" />
    <glyph glyph-name="bar" unicode="|" horiz-adv-x="184" 
d="M47 0v720h76v-720h-76z" />
    <glyph glyph-name="braceright" unicode="}" horiz-adv-x="342" 
d="M47 -113v45h12q34 0 46 11.5t12 46.5v290q0 31 19.5 53t51.5 27q-31 3 -51 26t-20 54v290q0 34 -11.5 46t-46.5 12h-12v45h78q81 0 81 -71v-330q0 -30 18 -51q18 -18 45 -21q-26 0 -45 -22q-18 -18 -18 -50v-330q0 -71 -81 -71h-78z" />
    <glyph glyph-name="asciitilde" unicode="~" horiz-adv-x="317" 
d="M10 770v56q50 18 78 18q11 0 22 -1t21 -4l34 -9q33 -9 74 -9q28 0 69 21v-60q-34 -17 -68 -17q-22 0 -40 2t-45 9l-34 8q-18 4 -22 5h-16q-31 0 -73 -19z" />
    <glyph glyph-name="quotesinglbase" unicode="&#x201a;" horiz-adv-x="130" 
d="M4 -110q51 47 51 87q0 21 -10 24l-13 3q-21 11 -21 34q0 16 14 28.5t34 12.5q52 0 52 -57q0 -39 -30 -78t-77 -54z" />
    <glyph glyph-name="florin" unicode="&#x192;" horiz-adv-x="275" 
d="M31 -198v48q24 -6 38 -6q61 0 61 74l-1 608h-27v50h27v45q0 114 105 114q28 0 60 -9v-47q-23 6 -38 6q-60 0 -60 -73v-36h95v-50h-95l1 -617q0 -115 -106 -115q-19 0 -28.5 1.5t-31.5 6.5z" />
    <glyph glyph-name="quotedblbase" unicode="&#x201e;" horiz-adv-x="256" 
d="M4 -110q51 47 51 87q0 21 -10 24l-13 3q-21 11 -21 34q0 16 14 28.5t34 12.5q52 0 52 -57q0 -39 -30 -78t-77 -54zM131 -110q51 48 51 87q0 21 -11 24l-12 3q-22 9 -22 34q0 16 14 28.5t34 12.5q53 0 53 -57q0 -21 -7 -39t-25 -40q-29 -38 -75 -53z" />
    <glyph glyph-name="ellipsis" unicode="&#x2026;" horiz-adv-x="996" 
d="M104 53q0 24 18.5 43.5t44.5 19.5q25 0 44 -19t19 -44q0 -26 -18.5 -44.5t-44.5 -18.5q-25 0 -44 18t-19 45zM437 53q0 24 18.5 43.5t44.5 19.5q25 0 44 -19t19 -44q0 -26 -18.5 -44.5t-44.5 -18.5q-25 0 -44 18t-19 45zM770 53q0 24 18.5 43.5t44.5 19.5q25 0 44 -19
t19 -44q0 -26 -18.5 -44.5t-44.5 -18.5q-25 0 -44 18t-19 45z" />
    <glyph glyph-name="dagger" unicode="&#x2020;" horiz-adv-x="590" 
d="M14 372l4 65l-3 65h41v-5q0 -30 48 -30h160v163q0 47 -33 47v44l64 -4l64 4v-44q-33 0 -33 -47v-163h160q48 0 48 30v5h40l-2 -65l3 -65h-41q0 33 -48 33h-158v-503q0 -35 12 -47q6 -5 21 -6v-41l-71 2l-61 -1v40q15 0 24.5 10t9.5 43v503h-159q-48 0 -48 -33h-42z" />
    <glyph glyph-name="daggerdbl" unicode="&#x2021;" horiz-adv-x="779" 
d="M739 581l-29 -61q-83 102 -230 102q-91 0 -161 -53t-95 -137h445l-30 -63h-429l-2 -33l2 -30h400l-30 -63h-356q27 -89 98 -140.5t168 -51.5q137 0 220 99v-85q-97 -77 -225 -77q-122 0 -213.5 68.5t-118.5 186.5h-113l30 63h71l-1 31l1 32h-101l30 63h83
q27 117 119.5 185t217.5 68q72 0 140.5 -27.5t108.5 -76.5z" />
    <glyph glyph-name="circumflex" unicode="&#x2c6;" horiz-adv-x="259" 
d="M8 622l111 117h22l111 -117h-64l-58 73l-58 -73h-64z" />
    <glyph glyph-name="perthousand" unicode="&#x2030;" horiz-adv-x="1042" 
d="M27 517q0 94 22 137q35 67 125 67q49 0 83 -22q27 -18 42 -45q22 -42 22 -137q0 -91 -22 -136q-34 -67 -125 -67q-51 0 -83.5 20t-50.5 67q-13 37 -13 116zM91 0l469 721h49l-472 -721h-46zM377 201q0 95 23 138q33 66 124 66q51 0 84 -21q27 -18 42 -45q21 -39 21 -137
q0 -97 -21 -138q-33 -66 -126 -66q-50 0 -83 21q-24 15 -41 45q-23 43 -23 137zM721 201q0 95 23 138q35 66 124 66q50 0 81 -20t43 -46q23 -40 23 -137q0 -95 -23 -138q-33 -66 -124 -66q-48 0 -83 21q-27 17 -41 45q-23 40 -23 137zM524 53q85 0 85 104v89q0 104 -85 104
q-83 0 -83 -104v-89q0 -104 83 -104zM174 368q83 0 83 104v89q0 105 -83 105t-83 -105v-89q0 -104 83 -104zM868 53q83 0 83 104v89q0 104 -83 104t-83 -104v-89q0 -104 83 -104z" />
    <glyph glyph-name="Scaron" unicode="&#x160;" horiz-adv-x="410" 
d="M351 692v-162h-48q0 37 -7.5 64t-19.5 46q-21 32 -67 32q-43 0 -71.5 -29.5t-28.5 -72.5q0 -41 28 -79q24 -31 94.5 -94.5t106.5 -103.5q47 -55 47 -127q0 -81 -52 -130t-135 -49q-40 0 -64 5q-47 8 -90 29v195h52q0 -74 10 -105q18 -69 90 -69q47 0 80 33q31 34 31 85
q0 57 -32 93q-21 24 -96 93l-59 54q-88 82 -88 166q0 72 50 119t130 47q49 0 112 -28zM89 898h64l58 -72l58 72h64l-111 -116h-22z" />
    <glyph glyph-name="guilsinglleft" unicode="&#x2039;" horiz-adv-x="177" 
d="M22 289l134 202v-94l-77 -109l77 -113v-93z" />
    <glyph glyph-name="OE" unicode="&#x152;" horiz-adv-x="653" 
d="M41 358l2 131q0 85 6.5 117t27.5 64q39 60 133 60q17 0 52.5 -5t59.5 -5l38 1h244v-196h-50l-3 60q0 41 -12.5 57t-45.5 16h-116v-254h182v-55h-182v-290h131q36 0 49.5 18t13.5 71l2 65h53v-213h-269l-36 -1l-35 -4q-18 -4 -35 -6t-39 -2q-89 0 -134 57q-22 29 -31 89
q-2 17 -3 36t-1 61zM306 101v493q0 42 -16 57q-23 21 -68 21q-66 0 -88 -38q-15 -26 -15 -95v-360q0 -36 3 -58.5t11 -36.5q23 -40 89 -40q56 0 75 28q6 11 9 29z" />
    <glyph glyph-name="quoteleft" unicode="&#x2018;" horiz-adv-x="130" 
d="M125 728q-50 -50 -50 -88q0 -21 10 -24l12 -3q22 -5 22 -34q0 -15 -14.5 -28t-33.5 -13q-53 0 -53 58q0 40 31.5 78.5t75.5 53.5z" />
    <glyph glyph-name="quoteright" unicode="&#x2019;" horiz-adv-x="130" 
d="M4 538q51 50 51 88q0 21 -10 24l-13 4q-21 6 -21 32q0 16 14.5 29t33.5 13q52 0 52 -58q0 -39 -30 -77t-77 -55z" />
    <glyph glyph-name="quotedblleft" unicode="&#x201c;" horiz-adv-x="256" 
d="M125 728q-50 -50 -50 -88q0 -21 10 -24l12 -3q22 -5 22 -34q0 -15 -14.5 -28t-33.5 -13q-53 0 -53 58q0 40 31.5 78.5t75.5 53.5zM252 728q-51 -48 -51 -88q0 -21 10 -24l13 -3q21 -8 21 -34q0 -16 -14 -28.5t-34 -12.5q-52 0 -52 58q0 40 30.5 78.5t76.5 53.5z" />
    <glyph glyph-name="quotedblright" unicode="&#x201d;" horiz-adv-x="256" 
d="M4 538q51 50 51 88q0 21 -10 24l-13 4q-21 6 -21 32q0 16 14.5 29t33.5 13q52 0 52 -58q0 -39 -30 -77t-77 -55zM131 538q51 50 51 88q0 20 -11 24l-12 4q-22 6 -22 32q0 16 14.5 29t33.5 13q53 0 53 -58q0 -21 -7 -39t-25 -40q-29 -36 -75 -53z" />
    <glyph glyph-name="bullet" unicode="&#x2022;" horiz-adv-x="162" 
d="M34 295q0 18 14.5 31t34.5 13t33.5 -12.5t13.5 -31.5q0 -18 -14 -32q-14 -12 -35 -12q-19 0 -34 12q-13 13 -13 32z" />
    <glyph glyph-name="endash" unicode="&#x2013;" 
d="M27 335v64h372v-64h-372z" />
    <glyph glyph-name="emdash" unicode="&#x2014;" horiz-adv-x="996" 
d="M30 331v74h936v-74h-936z" />
    <glyph glyph-name="tilde" unicode="&#x2dc;" horiz-adv-x="246" 
d="M8 626v49q39 18 60 18q16 0 34 -7l26 -7q40 -10 57 -10q21 0 54 21v-51q-26 -17 -54 -17q-27 0 -65 12l-26 8l-29 4q-23 0 -57 -20z" />
    <glyph glyph-name="trademark" unicode="&#x2122;" horiz-adv-x="788" 
d="M47 670v50h217v-50h-81v-310h-56v310h-80zM252 360l69 369h30l100 -228q16 -35 16 -63q0 31 16 63l100 228h30l69 -369h-56l-39 230q-1 11 -1 17q0 4 2 18l-10 -35l-5 -13l-1 -5l-95 -220h-20l-101 239l-10 34q1 -6 1 -17.5v-17.5l-1 -9l-2 -11l-36 -210h-56z" />
    <glyph glyph-name="scaron" unicode="&#x161;" horiz-adv-x="370" 
d="M320 565v-155h-52l-2 30q0 47 -20 71t-57 24q-34 0 -59 -25q-23 -25 -23 -64q0 -38 26 -64q18 -22 72 -48q70 -33 100 -64q38 -40 38 -110q0 -78 -44.5 -125.5t-120.5 -47.5q-51 0 -140 36v166h53q0 -22 2 -42t4 -31q12 -72 84 -72q42 0 66 30t24 85q0 42 -23 68
q-20 25 -84 57t-88 55q-40 38 -40 104q0 65 42.5 106.5t112.5 41.5q29 0 60.5 -6t68.5 -20zM67 738h64l58 -72l58 72h64l-111 -116h-22z" />
    <glyph glyph-name="guilsinglright" unicode="&#x203a;" horiz-adv-x="177" 
d="M22 82v94l76 108l-75 114v93l133 -207z" />
    <glyph glyph-name="oe" unicode="&#x153;" horiz-adv-x="656" 
d="M330 528l19 27q36 39 107 39q50 0 92 -23t58 -67q10 -32 10 -95v-86l-206 -53l-30 -9q-5 -2 -9 -8q-8 -10 -8 -41v-51q0 -120 96 -120q56 0 80 48q13 31 13 100v17h64v-30q0 -189 -159 -189q-19 0 -32.5 2t-32.5 9q-37 13 -64 55l-16 -25q-30 -42 -109 -42q-77 0 -122 45
q-22 22 -31.5 66.5t-9.5 182.5v123q0 100 45.5 144.5t119.5 44.5q33 0 57 -7q41 -12 68 -57zM288 98q7 25 7 65v253q0 122 -92 122q-96 0 -96 -126v-255q0 -115 95 -115q65 0 86 56zM363 406v-97l187 49v73q0 50 -15 73q-24 35 -77 35q-68 0 -88 -63q-3 -11 -5 -27.5
t-2 -42.5z" />
    <glyph glyph-name="Ydieresis" unicode="&#x178;" horiz-adv-x="418" 
d="M109 819q0 39 44 39q42 0 42 -39q0 -37 -43 -37q-19 0 -31 11t-12 26zM242 819q0 39 43 39q19 0 30.5 -11t11.5 -28q0 -37 -43 -37q-19 0 -30.5 10.5t-11.5 26.5zM-8 674v47h114v-47h-4q-9 0 -9 -6l2 -12l99 -215q7 -16 17 -53q5 31 16 54l102 214l2 12q0 6 -11 6h-4v47
h110v-47h-4q-11 0 -20 -18l-156 -331v-260q0 -17 15 -19h4v-46h-110v46h4q12 0 15 19v256l-157 335q-8 18 -20 18h-5z" />
    <glyph glyph-name="nonbreakingspace" unicode="&#xa0;" horiz-adv-x="290" 
 />
    <glyph glyph-name="exclamdown" unicode="&#xa1;" horiz-adv-x="203" 
d="M53 690q0 18 14.5 31t35.5 13q20 0 33 -13t13 -31t-13.5 -31.5t-34.5 -13.5q-20 0 -34 12.5t-14 32.5zM68 0v578h67v-578h-67z" />
    <glyph glyph-name="cent" unicode="&#xa2;" horiz-adv-x="379" 
d="M186 590v56h30v-56l48 -4l46 -14l29 -7v-160h-55v20v16v13q-2 9 -2 13q-6 65 -67 65v-482q38 6 52 35q15 27 15 94v29h62v-39q0 -77 -24 -122t-106 -58v-59h-31v60q-46 6 -70 18.5t-42 39.5q-13 19 -21.5 49.5t-8.5 72.5l-1 129q0 125 7 165t29 74q30 45 110 52zM125 86
q15 -25 58 -34v479q-39 -12 -54 -40q-19 -36 -19 -95v-202q0 -81 15 -108z" />
    <glyph glyph-name="sterling" unicode="&#xa3;" horiz-adv-x="436" 
d="M22 0v56q39 8 63 27q53 42 53 126q0 27 -5 58t-18 78h-80v54h64l-6 20l-14 39q-25 72 -25 115q0 68 49 112.5t128 44.5q27 0 65 -9q29 -6 95 -38v-148h-44q0 19 -2.5 32.5t-8.5 28.5q-23 74 -99 74q-48 0 -76 -28.5t-28 -75.5q0 -31 19 -92q3 -12 6.5 -21.5t10.5 -27.5
l9 -26h163v-55h-155q10 -41 15 -69t5 -50q0 -55 -19 -96q-14 -31 -57 -68h164q43 0 55 11q19 16 19 52l2 70h52v-194h-400z" />
    <glyph glyph-name="currency" unicode="&#xa4;" horiz-adv-x="501" 
d="M40 291l17 53h56v12v21h-73l17 53h56l1 52q0 97 6.5 127.5t30.5 62.5q47 59 136 59q70 0 168 -35v-176h-51q0 17 -2 33.5t-5 32.5q-15 86 -106 86q-60 0 -87 -40q-15 -23 -15 -51l-2 -103v-48h184l-17 -53h-167v-33h156l-17 -53h-139l1 -55q0 -86 3 -109.5t16 -43.5
q21 -35 86 -35q57 0 82.5 32t25.5 104l-1 14v17h61v-36q0 -98 -38 -142q-43 -49 -130 -49q-27 0 -37 1.5t-27 6.5q-65 18 -92 70q-11 23 -17 63t-6 100l-1 62h-73z" />
    <glyph glyph-name="yen" unicode="&#xa5;" horiz-adv-x="476" 
d="M22 674v47h113v-47h-5q-9 0 -9 -6l3 -12l99 -215q11 -21 17 -53q5 31 16 54l101 214l3 12q0 6 -11 6h-4v47h109v-47h-4q-10 0 -19 -18l-124 -265h143v-48h-164l-11 -18l1 -28h173v-47l-173 -1l-1 -184q0 -17 15 -19h4v-46h-110v46h4q14 0 14 19l1 184h-173v48h173l-1 24
l-10 23h-161v48h140l-126 264q-9 18 -19 18h-4z" />
    <glyph glyph-name="section" unicode="&#xa7;" horiz-adv-x="499" 
d="M142 466q-34 29 -47 53q-11 24 -11 65q0 68 48.5 111.5t123.5 43.5q45 0 83 -14q39 -12 53 -32l42 -62q9 -13 11 -30l-2 -13l-13 -30l-31 5h-9l-13 -1q0 32 -9 55.5t-26 39.5q-31 28 -83 28q-46 0 -77 -26.5t-31 -68.5q0 -34 13.5 -53.5t50.5 -42.5l173 -103
q86 -51 86 -133q0 -26 -9 -55q-12 -39 -36 -63q-20 -21 -73 -47q19 -17 30.5 -31.5t17.5 -27.5q12 -24 12 -64q0 -75 -49 -121t-128 -46q-96 0 -144 61q-22 28 -39 68q-8 19 -8 31q0 8 8 24l7 13q24 -6 42 -6h14q0 -65 27 -95q34 -37 97 -37q48 0 78.5 27.5t30.5 71.5
q0 60 -69 104l-147 89q-108 65 -108 148q0 32 18 73q15 34 34.5 51.5t61.5 39.5zM350 339l-160 96q-64 -30 -84 -71q-14 -28 -14 -55q0 -51 57 -87l160 -98q47 18 67.5 35t31.5 51q5 17 5 35q0 55 -63 94z" />
    <glyph glyph-name="dieresis" unicode="&#xa8;" horiz-adv-x="234" 
d="M8 659q0 39 44 39q42 0 42 -39q0 -37 -43 -37q-19 0 -31 11t-12 26zM141 659q0 39 43 39q19 0 30.5 -11t11.5 -28q0 -37 -43 -37q-19 0 -30.5 10.5t-11.5 26.5z" />
    <glyph glyph-name="copyright" unicode="&#xa9;" horiz-adv-x="932" 
d="M58 361q0 156 109 264.5t264 108.5t264.5 -108.5t109.5 -264.5q0 -154 -109.5 -263.5t-264.5 -109.5t-264 109t-109 264zM108 361q0 -136 95 -232t229 -96q132 0 227 96t95 231q0 136 -94 232t-228 96t-229 -96.5t-95 -230.5zM605 544l-30 -44q-54 48 -126 48
q-78 0 -132 -55t-54 -140l3 -37q12 -67 64.5 -108t117.5 -41q55 0 101 29l24 18l31 -43q-33 -28 -71 -42.5t-84 -14.5q-55 0 -97 15.5t-79 51.5q-71 69 -71 171q0 23 4 47t13 48q25 69 86 112t139 43q93 0 161 -58z" />
    <glyph glyph-name="ordfeminine" unicode="&#xaa;" horiz-adv-x="482" 
d="M57 340h342v-61h-342v61zM332 652v68h66l1 -331h-67v73l-3 -8q-12 -32 -45 -52.5t-74 -20.5q-34 0 -64 13q-78 32 -96 124l-3 37q0 74 47.5 125t112.5 51l30 -3q57 -12 87 -61l5 -8zM115 556l3 -23q7 -39 36.5 -66t69.5 -27t69 26q29 24 38 66q2 8 2 24t-2 24
q-12 59 -62 83q-23 10 -45 10q-46 0 -77.5 -35.5t-31.5 -81.5z" />
    <glyph glyph-name="guillemotleft" unicode="&#xab;" horiz-adv-x="292" 
d="M22 289l134 202v-94l-77 -109l77 -113v-93zM136 289l134 202v-94l-76 -109l76 -113v-93z" />
    <glyph glyph-name="logicalnot" unicode="&#xac;" horiz-adv-x="627" 
d="M47 360v76h486v-220h-63v144h-423z" />
    <glyph glyph-name="registered" unicode="&#xae;" horiz-adv-x="932" 
d="M58 361q0 156 109 264.5t264 108.5t264.5 -108.5t109.5 -264.5q0 -154 -109.5 -263.5t-264.5 -109.5t-264 109t-109 264zM108 361q0 -136 95 -232t229 -96q132 0 227 96t95 231q0 136 -94 232t-228 96t-229 -96.5t-95 -230.5zM314 131v469h110q70 0 105 -28
q45 -36 45 -104q0 -49 -28.5 -81t-78.5 -40h-8l-8 -1l147 -215h-71l-153 231v-231h-60zM374 382h39q100 0 100 83q0 85 -94 85h-45v-168z" />
    <glyph glyph-name="macron" unicode="&#xaf;" horiz-adv-x="230" 
d="M6 634v49h218v-49h-218z" />
    <glyph glyph-name="plusminus" unicode="&#xb1;" horiz-adv-x="594" 
d="M506 87v-68h-462v68h462zM309 453v-122h197v-68h-197v-122h-68v122h-197v68h197v122h68z" />
    <glyph glyph-name="acute" unicode="&#xb4;" horiz-adv-x="178" 
d="M80 622l83 117h69l-104 -117h-48z" />
    <glyph glyph-name="mu" unicode="&#xb5;" horiz-adv-x="623" 
d="M166 449v-296q0 -58 7 -78q13 -41 57 -41q72 0 108 114q25 83 25 171v130h92v-328q0 -87 38 -87q43 0 43 82v14h21l1 -9v-13q0 -117 -90 -117q-102 0 -102 172q-31 -124 -98 -158q-26 -14 -60 -14q-86 0 -113 103v-11l-1 -17q0 -55 32 -136t32 -97q0 -42 -42 -42
q-43 0 -43 70l1 73l3 74l-1 101l-2 95v245h92z" />
    <glyph glyph-name="paragraph" unicode="&#xb6;" horiz-adv-x="644" 
d="M240 720h309v-52h-309q-58 0 -99 -42t-41 -103q0 -58 41.5 -99.5t98.5 -41.5h69v242h55v-624h-55v330h-69q-78 0 -135.5 57.5t-57.5 137.5q0 82 56.5 138.5t136.5 56.5zM430 0v624h55v-624h-55z" />
    <glyph glyph-name="periodcentered" unicode="&#xb7;" horiz-adv-x="162" 
d="M34 295q0 18 14.5 31t34.5 13t33.5 -12.5t13.5 -31.5q0 -18 -14 -32q-14 -12 -35 -12q-19 0 -34 12q-13 13 -13 32z" />
    <glyph glyph-name="periodcentered" unicode="&#x2219;" horiz-adv-x="162" 
d="M34 295q0 18 14.5 31t34.5 13t33.5 -12.5t13.5 -31.5q0 -18 -14 -32q-14 -12 -35 -12q-19 0 -34 12q-13 13 -13 32z" />
    <glyph glyph-name="cedilla" unicode="&#xb8;" horiz-adv-x="128" 
d="M8 -128l9 18q18 -6 31 -6q29 0 29 23q0 22 -28 22l-28 -3l20 59h29l-9 -31q59 0 59 -42q0 -21 -20 -34.5t-51 -13.5q-22 0 -41 8z" />
    <glyph glyph-name="ordmasculine" unicode="&#xba;" horiz-adv-x="482" 
d="M53 279v61h341v-61h-341zM47 557q0 73 50.5 126t124.5 53q35 0 71 -15q49 -20 78 -64.5t29 -98.5v-22q-3 -11 -4 -15q-9 -53 -46 -90t-91 -49q-18 -3 -35 -3q-18 0 -36 3q-63 12 -102 61t-39 114zM114 557q0 -75 64 -106q23 -10 46 -10q48 0 78.5 35t30.5 82q0 60 -47 95
q-29 21 -64 21q-38 0 -69 -27t-38 -68z" />
    <glyph glyph-name="guillemotright" unicode="&#xbb;" horiz-adv-x="292" 
d="M22 82v94l76 108l-75 114v93l133 -207zM136 82v94l77 108l-76 114v93l133 -207z" />
    <glyph glyph-name="questiondown" unicode="&#xbf;" horiz-adv-x="365" 
d="M158 689q0 44 48 44q21 0 34.5 -12.5t13.5 -31.5q0 -17 -15 -32q-15 -13 -34 -13q-47 0 -47 45zM178 575l52 -1q4 -43 6 -71t2 -50q0 -30 -6 -54q-11 -41 -46 -91l-28 -40q-49 -70 -49 -124q0 -45 25 -73q26 -26 69 -26q48 0 74 33q23 32 31 109h41v-151l-29 -17
q-30 -15 -60 -23t-62 -8q-76 0 -121.5 39.5t-45.5 108.5q0 20 3 37.5t11 35.5q14 34 53 89l52 79q15 27 21 54q2 14 4 38.5t2 55.5z" />
    <glyph glyph-name="Agrave" unicode="&#xc0;" horiz-adv-x="459" 
d="M-2 0v46h4q11 0 17 19l165 642q35 3 87 22l171 -664q4 -17 15 -19h5v-46h-114v46h4q12 0 13 13v6l-49 190h-177l-49 -194q0 -15 11 -15h5v-46h-108zM219 594l-69 -283h157l-72 284q-2 8 -4.5 25t-3.5 28q-2 -22 -3.5 -31.5t-4.5 -22.5zM107 897h72l79 -116h-47z" />
    <glyph glyph-name="Aacute" unicode="&#xc1;" horiz-adv-x="459" 
d="M-2 0v46h4q11 0 17 19l165 642q35 3 87 22l171 -664q4 -17 15 -19h5v-46h-114v46h4q12 0 13 13v6l-49 190h-177l-49 -194q0 -15 11 -15h5v-46h-108zM219 594l-69 -283h157l-72 284q-2 8 -4.5 25t-3.5 28q-2 -22 -3.5 -31.5t-4.5 -22.5zM208 782l83 117h69l-104 -117h-48z
" />
    <glyph glyph-name="Acircumflex" unicode="&#xc2;" horiz-adv-x="459" 
d="M-2 0v46h4q11 0 17 19l165 642q35 3 87 22l171 -664q4 -17 15 -19h5v-46h-114v46h4q12 0 13 13v6l-49 190h-177l-49 -194q0 -15 11 -15h5v-46h-108zM219 594l-69 -283h157l-72 284q-2 8 -4.5 25t-3.5 28q-2 -22 -3.5 -31.5t-4.5 -22.5zM110 782l111 117h22l111 -117h-64
l-58 73l-58 -73h-64z" />
    <glyph glyph-name="Atilde" unicode="&#xc3;" horiz-adv-x="459" 
d="M-2 0v46h4q11 0 17 19l165 642q35 3 87 22l171 -664q4 -17 15 -19h5v-46h-114v46h4q12 0 13 13v6l-49 190h-177l-49 -194q0 -15 11 -15h5v-46h-108zM219 594l-69 -283h157l-72 284q-2 8 -4.5 25t-3.5 28q-2 -22 -3.5 -31.5t-4.5 -22.5zM123 786v49q39 18 60 18
q16 0 34 -7l26 -7q40 -10 57 -10q21 0 54 21v-51q-26 -17 -54 -17q-27 0 -65 12l-26 8l-29 4q-23 0 -57 -20z" />
    <glyph glyph-name="Adieresis" unicode="&#xc4;" horiz-adv-x="459" 
d="M-2 0v46h4q11 0 17 19l165 642q35 3 87 22l171 -664q4 -17 15 -19h5v-46h-114v46h4q12 0 13 13v6l-49 190h-177l-49 -194q0 -15 11 -15h5v-46h-108zM219 594l-69 -283h157l-72 284q-2 8 -4.5 25t-3.5 28q-2 -22 -3.5 -31.5t-4.5 -22.5zM110 775q0 18 14.5 29.5t35.5 11.5
q19 0 33.5 -11.5t14.5 -29.5q0 -19 -14 -30t-35 -11t-35 11.5t-14 29.5zM260 775q0 41 48 41q19 0 34 -12t15 -30q0 -17 -14.5 -28.5t-35.5 -11.5q-19 0 -34 12q-13 13 -13 29z" />
    <glyph glyph-name="Aring" unicode="&#xc5;" horiz-adv-x="459" 
d="M-2 0v46h4q11 0 17 19l165 642q35 3 87 22l171 -664q4 -17 15 -19h5v-46h-114v46h4q12 0 13 13v6l-49 190h-177l-49 -194q0 -15 11 -15h5v-46h-108zM219 594l-69 -283h157l-72 284q-2 8 -4.5 25t-3.5 28q-2 -22 -3.5 -31.5t-4.5 -22.5zM194 738q-22 0 -38.5 15.5
t-16.5 38.5t16 39q8 8 17 12t23 4h69q21 0 37.5 -16t16.5 -39t-15.5 -38.5t-38.5 -15.5h-70zM168 791q0 -24 27 -24h69q25 0 25 25q0 26 -25 26h-69q-27 0 -27 -27z" />
    <glyph glyph-name="AE" unicode="&#xc6;" horiz-adv-x="705" 
d="M-2 0v46h4q7 0 17 19l296 656h341v-196h-51l-2 48q0 57 -16 75q-10 10 -52 10h-106v-254h182v-55h-182v-286h133q38 0 48 14q4 6 8.5 21.5t4.5 49.5l2 65h54v-213h-342v46h5q15 0 15 19v191h-176l-87 -191l-2 -12q0 -6 13 -7h4v-46h-111zM357 661l-154 -346h154v346z" />
    <glyph glyph-name="Ccedilla" unicode="&#xc7;" horiz-adv-x="423" 
d="M382 696v-176h-51q0 17 -2 33.5t-5 32.5q-15 86 -106 86q-60 0 -87 -40q-12 -19 -15 -51l-1 -103l-1 -122l1 -120q0 -86 3 -109.5t16 -43.5q21 -35 85 -35q57 0 83 32t26 104v13q0 6 -2 18h62v-36q0 -98 -38 -142q-33 -38 -114 -51l-12 -39q71 0 71 -51q0 -25 -24.5 -42
t-61.5 -17q-24 0 -50 11l11 21q23 -6 36 -6q37 0 37 28q0 26 -34 26l-34 -3l25 72q-80 13 -116 51q-27 29 -38 91q-2 18 -3 38t-1 63l-1 253v61.5t2.5 46t10.5 43t24 39.5q48 59 136 59q70 0 168 -35z" />
    <glyph glyph-name="Egrave" unicode="&#xc8;" horiz-adv-x="406" 
d="M37 0v46h5q14 0 14 19v590q0 18 -14 19h-4v47h318v-195h-53l-1 68q0 39 -18 57q-12 12 -47 12h-108v-259h182v-57h-182v-289h127q39 0 54 15t15 73v67h56v-213h-344zM77 897h72l79 -116h-47z" />
    <glyph glyph-name="Eacute" unicode="&#xc9;" horiz-adv-x="406" 
d="M37 0v46h5q14 0 14 19v590q0 18 -14 19h-4v47h318v-195h-53l-1 68q0 39 -18 57q-12 12 -47 12h-108v-259h182v-57h-182v-289h127q39 0 54 15t15 73v67h56v-213h-344zM174 782l83 117h69l-104 -117h-48z" />
    <glyph glyph-name="Ecircumflex" unicode="&#xca;" horiz-adv-x="406" 
d="M37 0v46h5q14 0 14 19v590q0 18 -14 19h-4v47h318v-195h-53l-1 68q0 39 -18 57q-12 12 -47 12h-108v-259h182v-57h-182v-289h127q39 0 54 15t15 73v67h56v-213h-344zM84 782l111 117h22l111 -117h-64l-58 73l-58 -73h-64z" />
    <glyph glyph-name="Edieresis" unicode="&#xcb;" horiz-adv-x="406" 
d="M100 819q0 39 44 39q42 0 42 -39q0 -37 -43 -37q-19 0 -31 11t-12 26zM233 819q0 39 43 39q19 0 30.5 -11t11.5 -28q0 -37 -43 -37q-19 0 -30.5 10.5t-11.5 26.5zM37 0v46h5q14 0 14 19v590q0 18 -14 19h-4v47h318v-195h-53l-1 68q0 39 -18 57q-12 12 -47 12h-108v-259
h182v-57h-182v-289h127q39 0 54 15t15 73v67h56v-213h-344z" />
    <glyph glyph-name="Igrave" unicode="&#xcc;" horiz-adv-x="186" 
d="M37 0v46h5q15 0 15 15l1 4l-3 604l-9 3h-9v49h112v-49h-4q-15 0 -15 -9v-4l1 -4v-591q0 -18 13 -18h5v-46h-112zM-31 897h72l79 -116h-47z" />
    <glyph glyph-name="Iacute" unicode="&#xcd;" horiz-adv-x="186" 
d="M37 0v46h5q15 0 15 15l1 4l-3 604l-9 3h-9v49h112v-49h-4q-15 0 -15 -9v-4l1 -4v-591q0 -18 13 -18h5v-46h-112zM76 782l83 117h69l-104 -117h-48z" />
    <glyph glyph-name="Icircumflex" unicode="&#xce;" horiz-adv-x="186" 
d="M37 0v46h5q15 0 15 15l1 4l-3 604l-9 3h-9v49h112v-49h-4q-15 0 -15 -9v-4l1 -4v-591q0 -18 13 -18h5v-46h-112zM-24 782l111 117h22l111 -117h-64l-58 73l-58 -73h-64z" />
    <glyph glyph-name="Idieresis" unicode="&#xcf;" horiz-adv-x="186" 
d="M37 0v46h5q15 0 15 15l1 4l-3 604l-9 3h-9v49h112v-49h-4q-15 0 -15 -9v-4l1 -4v-591q0 -18 13 -18h5v-46h-112zM-14 819q0 39 44 39q42 0 42 -39q0 -37 -43 -37q-19 0 -31 11t-12 26zM119 819q0 39 43 39q19 0 30.5 -11t11.5 -28q0 -37 -43 -37q-19 0 -30.5 10.5
t-11.5 26.5z" />
    <glyph glyph-name="Ntilde" unicode="&#xd1;" horiz-adv-x="465" 
d="M37 674v47l100 -3l197 -564q9 -24 18 -69l-3 37l-2 37v497q0 18 -16 18h-5v47h102v-47q-18 0 -18 -13v-661h-90l-191 547l-20 63l6 -33l2 -33v-479q0 -17 15 -19h4v-46h-99v46h4q14 0 14 19v591q0 18 -14 18h-4zM127 786v49q39 18 60 18q16 0 34 -7l26 -7q40 -10 57 -10
q21 0 54 21v-51q-26 -17 -54 -17q-27 0 -65 12l-26 8l-29 4q-23 0 -57 -20z" />
    <glyph glyph-name="Ograve" unicode="&#xd2;" horiz-adv-x="441" 
d="M400 218q0 -50 -4 -86t-13 -56q-38 -89 -162 -89t-163 89q-17 40 -17 143v283q0 102 17 142q36 89 163 89q71 0 121 -36q26 -19 42 -57t16 -139v-283zM325 156v408q0 25 -6 48q-15 60 -98 60t-100 -60q-6 -23 -6 -48v-408q0 -21 5 -44t25 -41q26 -23 76 -23q80 0 98 60
q6 23 6 48zM96 897h72l79 -116h-47z" />
    <glyph glyph-name="Oacute" unicode="&#xd3;" horiz-adv-x="441" 
d="M400 218q0 -50 -4 -86t-13 -56q-38 -89 -162 -89t-163 89q-17 40 -17 143v283q0 102 17 142q36 89 163 89q71 0 121 -36q26 -19 42 -57t16 -139v-283zM325 156v408q0 25 -6 48q-15 60 -98 60t-100 -60q-6 -23 -6 -48v-408q0 -21 5 -44t25 -41q26 -23 76 -23q80 0 98 60
q6 23 6 48zM203 782l83 117h69l-104 -117h-48z" />
    <glyph glyph-name="Ocircumflex" unicode="&#xd4;" horiz-adv-x="441" 
d="M400 218q0 -50 -4 -86t-13 -56q-38 -89 -162 -89t-163 89q-17 40 -17 143v283q0 102 17 142q36 89 163 89q71 0 121 -36q26 -19 42 -57t16 -139v-283zM325 156v408q0 25 -6 48q-15 60 -98 60t-100 -60q-6 -23 -6 -48v-408q0 -21 5 -44t25 -41q26 -23 76 -23q80 0 98 60
q6 23 6 48zM102 782l111 117h22l111 -117h-64l-58 73l-58 -73h-64z" />
    <glyph glyph-name="Otilde" unicode="&#xd5;" horiz-adv-x="441" 
d="M400 218q0 -50 -4 -86t-13 -56q-38 -89 -162 -89t-163 89q-17 40 -17 143v283q0 102 17 142q36 89 163 89q71 0 121 -36q26 -19 42 -57t16 -139v-283zM325 156v408q0 25 -6 48q-15 60 -98 60t-100 -60q-6 -23 -6 -48v-408q0 -21 5 -44t25 -41q26 -23 76 -23q80 0 98 60
q6 23 6 48zM114 786v49q39 18 60 18q16 0 34 -7l26 -7q40 -10 57 -10q21 0 54 21v-51q-26 -17 -54 -17q-27 0 -65 12l-26 8l-29 4q-23 0 -57 -20z" />
    <glyph glyph-name="Odieresis" unicode="&#xd6;" horiz-adv-x="441" 
d="M70 775q0 18 14.5 29.5t35.5 11.5q19 0 33 -11.5t14 -29.5q0 -19 -14 -30t-34 -11q-21 0 -35 11.5t-14 29.5zM270 775q0 18 14.5 29.5t35.5 11.5q19 0 33.5 -12t14.5 -30q0 -40 -50 -40q-19 0 -33.5 12t-14.5 29zM400 218q0 -50 -4 -86t-13 -56q-38 -89 -162 -89t-163 89
q-17 40 -17 143v283q0 102 17 142q36 89 163 89q71 0 121 -36q26 -19 42 -57t16 -139v-283zM325 156v408q0 25 -6 48q-15 60 -98 60t-100 -60q-6 -23 -6 -48v-408q0 -21 5 -44t25 -41q26 -23 76 -23q80 0 98 60q6 23 6 48z" />
    <glyph glyph-name="multiply" unicode="&#xd7;" 
d="M58 243l112 112l-108 108l45 44l107 -107l107 106l45 -44l-107 -107l109 -109l-46 -44l-108 108l-111 -111z" />
    <glyph glyph-name="Oslash" unicode="&#xd8;" horiz-adv-x="441" 
d="M82 42q-26 31 -35 61q-6 27 -6 116v283q0 102 17 142q36 89 161 89q37 0 58 -6.5t57 -27.5l17 43l31 -14l-21 -51q27 -33 33 -61t6 -115v-283q0 -50 -4 -86t-13 -56q-38 -89 -162 -89q-55 0 -111 31l-17 -44l-34 11zM316 579l-170 -483l11 -13q21 -24 49 -30l24 -2
q49 0 71 32q22 35 22 108v260q0 66 -7 128zM128 141l171 485q-29 40 -88 40q-93 0 -93 -137v-295q0 -59 10 -93z" />
    <glyph glyph-name="Ugrave" unicode="&#xd9;" horiz-adv-x="470" 
d="M37 674v47h109v-47h-4q-12 0 -13 -13v-489q0 -67 21 -94q27 -33 85 -33q55 0 85 33q22 25 22 94v489q0 12 -13 13h-5v47h110v-47h-5q-15 0 -15 -18v-488v-12q0 -43 -5 -62q-8 -37 -34 -63q-45 -45 -140 -45q-104 0 -152 58q-27 33 -27 124v488q0 18 -15 18h-4zM124 897
h72l79 -116h-47z" />
    <glyph glyph-name="Uacute" unicode="&#xda;" horiz-adv-x="470" 
d="M37 674v47h109v-47h-4q-12 0 -13 -13v-489q0 -67 21 -94q27 -33 85 -33q55 0 85 33q22 25 22 94v489q0 12 -13 13h-5v47h110v-47h-5q-15 0 -15 -18v-488v-12q0 -43 -5 -62q-8 -37 -34 -63q-45 -45 -140 -45q-104 0 -152 58q-27 33 -27 124v488q0 18 -15 18h-4zM217 782
l83 117h69l-104 -117h-48z" />
    <glyph glyph-name="Ucircumflex" unicode="&#xdb;" horiz-adv-x="470" 
d="M37 674v47h109v-47h-4q-12 0 -13 -13v-489q0 -67 21 -94q27 -33 85 -33q55 0 85 33q22 25 22 94v489q0 12 -13 13h-5v47h110v-47h-5q-15 0 -15 -18v-488v-12q0 -43 -5 -62q-8 -37 -34 -63q-45 -45 -140 -45q-104 0 -152 58q-27 33 -27 124v488q0 18 -15 18h-4zM117 782
l111 117h22l111 -117h-64l-58 73l-58 -73h-64z" />
    <glyph glyph-name="Udieresis" unicode="&#xdc;" horiz-adv-x="470" 
d="M37 674v47h109v-47h-4q-12 0 -13 -13v-489q0 -67 21 -94q27 -33 85 -33q55 0 85 33q22 25 22 94v489q0 12 -13 13h-5v47h110v-47h-5q-15 0 -15 -18v-488v-12q0 -43 -5 -62q-8 -37 -34 -63q-45 -45 -140 -45q-104 0 -152 58q-27 33 -27 124v488q0 18 -15 18h-4zM116 775
q0 18 14.5 29.5t35.5 11.5q19 0 33.5 -11.5t14.5 -29.5q0 -19 -14 -30t-35 -11t-35 11.5t-14 29.5zM266 775q0 41 48 41q19 0 34 -12t15 -30q0 -17 -14.5 -28.5t-35.5 -11.5q-19 0 -34 12q-13 13 -13 29z" />
    <glyph glyph-name="germandbls" unicode="&#xdf;" horiz-adv-x="430" 
d="M37 0v46h5q15 0 15 19v506q0 82 38 121q42 44 123 44q61 0 96 -29q36 -27 36 -77q0 -46 -39 -82q-9 -8 -28 -24t-22 -18q-22 -17 -23 -32q0 -18 39 -71l27 -35q54 -70 77 -117t23 -92q0 -79 -44 -124.5t-119 -45.5q-18 0 -27 1t-28 7v53q27 -10 44 -10q45 0 73 32t28 83
q0 23 -13 60.5t-75 120.5l-45 64q-26 41 -26 64q0 21 37 54l49 45q27 27 27 60q0 26 -19 42.5t-50 16.5q-90 0 -90 -108v-509q0 -18 10 -19h13v-46h-112z" />
    <glyph glyph-name="agrave" unicode="&#xe0;" horiz-adv-x="414" 
d="M117 395h-61v17q0 80 35 127q39 53 119 53q81 0 120 -55q14 -20 21 -48t7 -68v-342q0 -24 16 -25l2 -50q-16 -6 -33 -8q-52 0 -52 56q-27 -39 -55 -51q-32 -12 -63 -12q-139 0 -139 174q0 71 27 104q21 25 116 58q76 25 94.5 41t18.5 59q0 110 -87 110q-51 0 -72 -41
q-7 -13 -10.5 -37.5t-3.5 -61.5zM291 173v155q-16 -16 -34 -26l-54 -21q-64 -21 -81.5 -41.5t-17.5 -74.5q0 -119 92 -119q48 0 75 36q20 28 20 91zM82 737h72l79 -116h-47z" />
    <glyph glyph-name="aacute" unicode="&#xe1;" horiz-adv-x="414" 
d="M117 395h-61v17q0 80 35 127q39 53 119 53q81 0 120 -55q14 -20 21 -48t7 -68v-342q0 -24 16 -25l2 -50q-16 -6 -33 -8q-52 0 -52 56q-27 -39 -55 -51q-32 -12 -63 -12q-139 0 -139 174q0 71 27 104q21 25 116 58q76 25 94.5 41t18.5 59q0 110 -87 110q-51 0 -72 -41
q-7 -13 -10.5 -37.5t-3.5 -61.5zM291 173v155q-16 -16 -34 -26l-54 -21q-64 -21 -81.5 -41.5t-17.5 -74.5q0 -119 92 -119q48 0 75 36q20 28 20 91zM188 622l83 117h69l-104 -117h-48z" />
    <glyph glyph-name="acircumflex" unicode="&#xe2;" horiz-adv-x="414" 
d="M117 395h-61v17q0 80 35 127q39 53 119 53q81 0 120 -55q14 -20 21 -48t7 -68v-342q0 -24 16 -25l2 -50q-16 -6 -33 -8q-52 0 -52 56q-27 -39 -55 -51q-32 -12 -63 -12q-139 0 -139 174q0 71 27 104q21 25 116 58q76 25 94.5 41t18.5 59q0 110 -87 110q-51 0 -72 -41
q-7 -13 -10.5 -37.5t-3.5 -61.5zM291 173v155q-16 -16 -34 -26l-54 -21q-64 -21 -81.5 -41.5t-17.5 -74.5q0 -119 92 -119q48 0 75 36q20 28 20 91zM90 622l111 117h22l111 -117h-64l-58 73l-58 -73h-64z" />
    <glyph glyph-name="atilde" unicode="&#xe3;" horiz-adv-x="414" 
d="M117 395h-61v17q0 80 35 127q39 53 119 53q81 0 120 -55q14 -20 21 -48t7 -68v-342q0 -24 16 -25l2 -50q-16 -6 -33 -8q-52 0 -52 56q-27 -39 -55 -51q-32 -12 -63 -12q-139 0 -139 174q0 71 27 104q21 25 116 58q76 25 94.5 41t18.5 59q0 110 -87 110q-51 0 -72 -41
q-7 -13 -10.5 -37.5t-3.5 -61.5zM291 173v155q-16 -16 -34 -26l-54 -21q-64 -21 -81.5 -41.5t-17.5 -74.5q0 -119 92 -119q48 0 75 36q20 28 20 91zM101 626v49q39 18 60 18q16 0 34 -7l26 -7q40 -10 57 -10q21 0 54 21v-51q-26 -17 -54 -17q-27 0 -65 12l-26 8l-29 4
q-23 0 -57 -20z" />
    <glyph glyph-name="adieresis" unicode="&#xe4;" horiz-adv-x="414" 
d="M117 395h-61v17q0 80 35 127q39 53 119 53q81 0 120 -55q14 -20 21 -48t7 -68v-342q0 -24 16 -25l2 -50q-16 -6 -33 -8q-52 0 -52 56q-27 -39 -55 -51q-32 -12 -63 -12q-139 0 -139 174q0 71 27 104q21 25 116 58q76 25 94.5 41t18.5 59q0 110 -87 110q-51 0 -72 -41
q-7 -13 -10.5 -37.5t-3.5 -61.5zM291 173v155q-16 -16 -34 -26l-54 -21q-64 -21 -81.5 -41.5t-17.5 -74.5q0 -119 92 -119q48 0 75 36q20 28 20 91zM106 677q0 39 44 39q42 0 42 -39q0 -37 -43 -37q-19 0 -31 11t-12 26zM239 677q0 39 43 39q19 0 30.5 -11t11.5 -28
q0 -37 -43 -37q-19 0 -30.5 10.5t-11.5 26.5z" />
    <glyph glyph-name="aring" unicode="&#xe5;" horiz-adv-x="414" 
d="M117 395h-61v17q0 80 35 127q39 53 119 53q81 0 120 -55q14 -20 21 -48t7 -68v-342q0 -24 16 -25l2 -50q-16 -6 -33 -8q-52 0 -52 56q-27 -39 -55 -51q-32 -12 -63 -12q-139 0 -139 174q0 71 27 104q21 25 116 58q76 25 94.5 41t18.5 59q0 110 -87 110q-51 0 -72 -41
q-7 -13 -10.5 -37.5t-3.5 -61.5zM291 173v155q-16 -16 -34 -26l-54 -21q-64 -21 -81.5 -41.5t-17.5 -74.5q0 -119 92 -119q48 0 75 36q20 28 20 91zM179 620q-22 0 -38.5 15.5t-16.5 38.5t16 39q8 8 17 12t23 4h69q21 0 37.5 -16t16.5 -39t-15.5 -38.5t-38.5 -15.5h-70z
M153 673q0 -24 27 -24h69q25 0 25 25q0 26 -25 26h-69q-27 0 -27 -27z" />
    <glyph glyph-name="ae" unicode="&#xe6;" horiz-adv-x="652" 
d="M116 394h-63v8q0 49 6 78q10 50 51 80t102 30q79 0 113 -61l14 19q38 46 117 46q88 0 130 -60q26 -38 26 -138v-73l-202 -52l-27 -8q-17 -6 -21 -16.5t-4 -42.5v-52q0 -112 96 -112q55 0 78 38q16 29 16 93v15l-1 22h65l-1 -42q0 -88 -35 -131q-40 -49 -124 -49
q-42 0 -74 13q-41 16 -70 72l-19 -31q-36 -53 -113 -53t-119 55q-23 32 -23 133q0 47 11.5 71t50 44.5t94.5 39.5q25 8 73 30q26 15 26 70q0 103 -86 103q-32 0 -54.5 -18.5t-28.5 -50.5q-2 -13 -3 -27t-1 -43zM290 172v157q-13 -16 -33 -25l-41 -16q-59 -21 -82 -36
q-15 -8 -24 -25q-7 -18 -7 -58q0 -65 16 -88q27 -38 76 -38q59 0 86 59q9 21 9 70zM358 408v-101l187 49v57l-1 46q0 35 -26 57q-12 10 -28 16t-34 6q-59 0 -85 -48q-13 -26 -13 -82z" />
    <glyph glyph-name="ccedilla" unicode="&#xe7;" horiz-adv-x="379" 
d="M339 565v-160h-55v20q0 60 -19 85t-63 25q-54 0 -77 -41q-16 -29 -16 -100v-202q0 -78 16 -106q23 -40 73 -40q45 0 64.5 31t19.5 102v29h62v-39q0 -77 -23 -119q-26 -47 -113 -62l-11 -38q62 0 62 -43q0 -22 -21 -37t-54 -15q-19 0 -42 10l8 18l33 -5q31 0 31 24
q0 23 -30 23l-29 -3l21 66q-75 18 -105 60q-14 19 -22 49t-8 73l-1 129q0 125 8 169q20 126 157 126q22 0 32 -1t27 -7l46 -14z" />
    <glyph glyph-name="egrave" unicode="&#xe8;" horiz-adv-x="403" 
d="M363 320l-200 -51q-33 -9 -43 -17.5t-10 -47.5v-56q0 -104 94 -104q66 0 86 51q9 24 9 110h63v-16v-13q0 -21 -1 -37t-4 -27q-17 -126 -156 -126q-93 0 -133 67q-12 22 -19.5 50.5t-7.5 67.5l-1 125q0 59 1 99t4 61q8 64 50 99.5t111 35.5q85 0 126 -56q31 -43 31 -139
v-76zM109 416v-111l187 47v71q0 113 -90 113q-97 0 -97 -120zM78 737h72l79 -116h-47z" />
    <glyph glyph-name="eacute" unicode="&#xe9;" horiz-adv-x="403" 
d="M363 320l-200 -51q-33 -9 -43 -17.5t-10 -47.5v-56q0 -104 94 -104q66 0 86 51q9 24 9 110h63v-16v-13q0 -21 -1 -37t-4 -27q-17 -126 -156 -126q-93 0 -133 67q-12 22 -19.5 50.5t-7.5 67.5l-1 125q0 59 1 99t4 61q8 64 50 99.5t111 35.5q85 0 126 -56q31 -43 31 -139
v-76zM109 416v-111l187 47v71q0 113 -90 113q-97 0 -97 -120zM182 622l83 117h69l-104 -117h-48z" />
    <glyph glyph-name="ecircumflex" unicode="&#xea;" horiz-adv-x="403" 
d="M363 320l-200 -51q-33 -9 -43 -17.5t-10 -47.5v-56q0 -104 94 -104q66 0 86 51q9 24 9 110h63v-16v-13q0 -21 -1 -37t-4 -27q-17 -126 -156 -126q-93 0 -133 67q-12 22 -19.5 50.5t-7.5 67.5l-1 125q0 59 1 99t4 61q8 64 50 99.5t111 35.5q85 0 126 -56q31 -43 31 -139
v-76zM109 416v-111l187 47v71q0 113 -90 113q-97 0 -97 -120zM84 622l111 117h22l111 -117h-64l-58 73l-58 -73h-64z" />
    <glyph glyph-name="edieresis" unicode="&#xeb;" horiz-adv-x="403" 
d="M363 320l-200 -51q-33 -9 -43 -17.5t-10 -47.5v-56q0 -104 94 -104q66 0 86 51q9 24 9 110h63v-16v-13q0 -21 -1 -37t-4 -27q-17 -126 -156 -126q-93 0 -133 67q-12 22 -19.5 50.5t-7.5 67.5l-1 125q0 59 1 99t4 61q8 64 50 99.5t111 35.5q85 0 126 -56q31 -43 31 -139
v-76zM109 416v-111l187 47v71q0 113 -90 113q-97 0 -97 -120zM93 659q0 39 44 39q42 0 42 -39q0 -37 -43 -37q-19 0 -31 11t-12 26zM226 659q0 39 43 39q19 0 30.5 -11t11.5 -28q0 -37 -43 -37q-19 0 -30.5 10.5t-11.5 26.5z" />
    <glyph glyph-name="igrave" unicode="&#xec;" horiz-adv-x="179" 
d="M37 524v48q42 6 75 24q12 -48 12 -105v-430q0 -15 13 -15h6v-46h-106v46q15 0 18 15l1 4v442q0 15 -15 17h-4zM-37 737h72l79 -116h-47z" />
    <glyph glyph-name="iacute" unicode="&#xed;" horiz-adv-x="179" 
d="M37 524v48q42 6 75 24q12 -48 12 -105v-430q0 -15 13 -15h6v-46h-106v46q15 0 18 15l1 4v442q0 15 -15 17h-4zM69 622l83 117h69l-104 -117h-48z" />
    <glyph glyph-name="icircumflex" unicode="&#xee;" horiz-adv-x="179" 
d="M37 524v48q42 6 75 24q12 -48 12 -105v-430q0 -15 13 -15h6v-46h-106v46q15 0 18 15l1 4v442q0 15 -15 17h-4zM-33 622l111 117h22l111 -117h-64l-58 73l-58 -73h-64z" />
    <glyph glyph-name="idieresis" unicode="&#xef;" horiz-adv-x="179" 
d="M37 524v48q42 6 75 24q12 -48 12 -105v-430q0 -15 13 -15h6v-46h-106v46q15 0 18 15l1 4v442q0 15 -15 17h-4zM-21 659q0 39 44 39q42 0 42 -39q0 -37 -43 -37q-19 0 -31 11t-12 26zM112 659q0 39 43 39q19 0 30.5 -11t11.5 -28q0 -37 -43 -37q-19 0 -30.5 10.5
t-11.5 26.5z" />
    <glyph glyph-name="ntilde" unicode="&#xf1;" horiz-adv-x="436" 
d="M37 524v48q35 5 75 24q6 -25 8.5 -40t2.5 -36q35 38 69 55q18 8 33.5 12t33.5 4q65 0 98 -45q24 -33 24 -103l2 -392q2 -3 7 -5h9v-46h-104v46h8q6 3 7 5l2 10v369q0 96 -74 96q-28 0 -51 -10q-64 -27 -64 -72v-383q0 -15 10 -15h10v-46h-105v46h5q13 0 13 19v442
q0 15 -15 17h-4zM110 626v49q39 18 60 18q16 0 34 -7l26 -7q40 -10 57 -10q21 0 54 21v-51q-26 -17 -54 -17q-27 0 -65 12l-26 8l-29 4q-23 0 -57 -20z" />
    <glyph glyph-name="ograve" unicode="&#xf2;" horiz-adv-x="403" 
d="M40 286q0 139 8 182q18 122 154 122q85 0 126 -53q27 -35 34 -119l1 -130q0 -134 -7 -182q-17 -120 -154 -120q-86 0 -127 51q-16 22 -25 60t-9 95zM201 38q94 0 94 122v255q0 121 -94 121q-93 0 -93 -121v-255q0 -122 93 -122zM79 737h72l79 -116h-47z" />
    <glyph glyph-name="oacute" unicode="&#xf3;" horiz-adv-x="403" 
d="M40 286q0 139 8 182q18 122 154 122q85 0 126 -53q27 -35 34 -119l1 -130q0 -134 -7 -182q-17 -120 -154 -120q-86 0 -127 51q-16 22 -25 60t-9 95zM201 38q94 0 94 122v255q0 121 -94 121q-93 0 -93 -121v-255q0 -122 93 -122zM183 622l83 117h69l-104 -117h-48z" />
    <glyph glyph-name="ocircumflex" unicode="&#xf4;" horiz-adv-x="403" 
d="M40 286q0 139 8 182q18 122 154 122q85 0 126 -53q27 -35 34 -119l1 -130q0 -134 -7 -182q-17 -120 -154 -120q-86 0 -127 51q-16 22 -25 60t-9 95zM201 38q94 0 94 122v255q0 121 -94 121q-93 0 -93 -121v-255q0 -122 93 -122zM79 622l111 117h22l111 -117h-64l-58 73
l-58 -73h-64z" />
    <glyph glyph-name="otilde" unicode="&#xf5;" horiz-adv-x="403" 
d="M40 286q0 139 8 182q18 122 154 122q85 0 126 -53q27 -35 34 -119l1 -130q0 -134 -7 -182q-17 -120 -154 -120q-86 0 -127 51q-16 22 -25 60t-9 95zM201 38q94 0 94 122v255q0 121 -94 121q-93 0 -93 -121v-255q0 -122 93 -122zM90 626v49q39 18 60 18q16 0 34 -7l26 -7
q40 -10 57 -10q21 0 54 21v-51q-26 -17 -54 -17q-27 0 -65 12l-26 8l-29 4q-23 0 -57 -20z" />
    <glyph glyph-name="odieresis" unicode="&#xf6;" horiz-adv-x="403" 
d="M40 291l1 95q0 112 35 156q41 53 126 53t126 -53q20 -26 28 -70q3 -24 5 -69t2 -112q0 -134 -7 -182q-17 -121 -154 -121q-86 0 -127 51q-16 21 -25 59.5t-9 97.5zM93 678q0 39 44 39q42 0 42 -39q0 -38 -43 -38q-19 0 -31 11t-12 27zM226 678q0 39 43 39q18 0 30 -11.5
t12 -27.5q0 -38 -43 -38q-42 0 -42 38zM108 162q0 -121 93 -121q94 0 94 121v257q0 122 -94 122q-93 0 -93 -122v-257z" />
    <glyph glyph-name="divide" unicode="&#xf7;" horiz-adv-x="594" 
d="M275 158q24 0 40 -16t16 -41q0 -24 -16 -41q-8 -8 -17 -12t-23 -4q-24 0 -40.5 17.5t-16.5 39.5q0 24 16.5 40.5t40.5 16.5zM506 270v-68h-463v68h463zM275 427q22 0 39 -18t17 -39q0 -24 -16 -41q-8 -8 -17 -12t-23 -4q-24 0 -41 16q-16 18 -16 41q0 24 15 39t42 18z
" />
    <glyph glyph-name="oslash" unicode="&#xf8;" horiz-adv-x="403" 
d="M299 569l15 39l32 -11l-21 -52q23 -26 31 -73q3 -25 5 -70t2 -109q0 -136 -7 -184q-17 -121 -157 -121q-26 0 -46 5t-41 18l-17 -43l-32 13l20 53q-18 12 -24 24.5t-10.5 47.5t-6.5 83.5t-2 101.5l1 95q0 112 35 156q41 53 126 53q46 0 97 -26zM289 454l-154 -385
q30 -28 66 -28q74 0 89 74q5 28 5 149v87v14v11q0 33 -2 45zM119 121l155 387q-36 31 -72 31q-40 0 -65.5 -31.5t-25.5 -80.5l-1 -208l1 -61z" />
    <glyph glyph-name="ugrave" unicode="&#xf9;" horiz-adv-x="436" 
d="M37 524v48q42 6 74 22q12 -45 12 -108v-312l1 -51q0 -19 11 -41q20 -32 69 -32q20 0 46.5 10.5t45 33.5t18.5 43v439h85v-46q-18 0 -18 -18v-418q0 -25 3 -32.5t12 -9.5l3 -48q-17 -8 -34 -10q-51 0 -51 63q-31 -37 -66 -53.5t-71 -16.5q-72 0 -102 52q-12 20 -15.5 43.5
t-3.5 91.5v333q0 15 -15 17h-4zM107 737h72l79 -116h-47z" />
    <glyph glyph-name="uacute" unicode="&#xfa;" horiz-adv-x="436" 
d="M37 524v48q42 6 74 22q12 -45 12 -108v-312l1 -51q0 -19 11 -41q20 -32 69 -32q20 0 46.5 10.5t45 33.5t18.5 43v439h85v-46q-18 0 -18 -18v-418q0 -25 3 -32.5t12 -9.5l3 -48q-17 -8 -34 -10q-51 0 -51 63q-31 -37 -66 -53.5t-71 -16.5q-72 0 -102 52q-12 20 -15.5 43.5
t-3.5 91.5v333q0 15 -15 17h-4zM199 622l83 117h69l-104 -117h-48z" />
    <glyph glyph-name="ucircumflex" unicode="&#xfb;" horiz-adv-x="436" 
d="M37 524v48q42 6 74 22q12 -45 12 -108v-312l1 -51q0 -19 11 -41q20 -32 69 -32q20 0 46.5 10.5t45 33.5t18.5 43v439h85v-46q-18 0 -18 -18v-418q0 -25 3 -32.5t12 -9.5l3 -48q-17 -8 -34 -10q-51 0 -51 63q-31 -37 -66 -53.5t-71 -16.5q-72 0 -102 52q-12 20 -15.5 43.5
t-3.5 91.5v333q0 15 -15 17h-4zM105 622l111 117h22l111 -117h-64l-58 73l-58 -73h-64z" />
    <glyph glyph-name="udieresis" unicode="&#xfc;" horiz-adv-x="436" 
d="M37 524v48q42 6 74 22q12 -45 12 -108v-312l1 -51q0 -19 11 -41q20 -32 69 -32q20 0 46.5 10.5t45 33.5t18.5 43v439h85v-46q-18 0 -18 -18v-418q0 -25 3 -32.5t12 -9.5l3 -48q-17 -8 -34 -10q-51 0 -51 63q-31 -37 -66 -53.5t-71 -16.5q-72 0 -102 52q-12 20 -15.5 43.5
t-3.5 91.5v333q0 15 -15 17h-4zM117 677q0 39 44 39q42 0 42 -39q0 -37 -43 -37q-19 0 -31 11t-12 26zM250 677q0 39 43 39q19 0 30.5 -11t11.5 -28q0 -37 -43 -37q-19 0 -30.5 10.5t-11.5 26.5z" />
    <glyph glyph-name="ydieresis" unicode="&#xff;" horiz-adv-x="402" 
d="M5 530v46h107v-46h-4q-12 0 -12 -13v-5l100 -436l106 436l1 5q0 12 -11 13h-4v46h109v-46h-5q-11 0 -17 -18l-145 -561q-20 -79 -46 -105q-24 -26 -90 -38l-5 54q27 3 43 21.5t28 62.5l13 54h-24l-126 511q-4 18 -13 19h-5zM101 659q0 39 44 39q42 0 42 -39
q0 -37 -43 -37q-19 0 -31 11t-12 26zM234 659q0 39 43 39q19 0 30.5 -11t11.5 -28q0 -37 -43 -37q-19 0 -30.5 10.5t-11.5 26.5z" />
    <glyph glyph-name="breve" unicode="&#x2d8;" horiz-adv-x="251" 
d="M6 742h48q45 -81 71 -81q25 0 72 81h47q-48 -96 -111 -120l-7 -1q-24 0 -59.5 36.5t-60.5 84.5z" />
    <glyph glyph-name="dotaccent" unicode="&#x2d9;" horiz-adv-x="108" 
d="M8 678q0 40 49 40q44 0 44 -39q0 -40 -48 -40q-18 0 -32 11q-11 12 -13 28z" />
    <glyph glyph-name="dotlessi" unicode="&#x131;" horiz-adv-x="179" 
d="M37 524v48q42 6 75 24q12 -48 12 -105v-430q0 -15 13 -15h6v-46h-106v46q15 0 18 15l1 4v442q0 15 -15 17h-4z" />
    <glyph glyph-name="ring" unicode="&#x2da;" horiz-adv-x="223" 
d="M77 622q-22 0 -38.5 15.5t-16.5 38.5t16 39q8 8 17 12t23 4h69q21 0 37.5 -16t16.5 -39t-15.5 -38.5t-38.5 -15.5h-70zM51 675q0 -24 27 -24h69q25 0 25 25q0 26 -25 26h-69q-27 0 -27 -27z" />
    <glyph glyph-name="ogonek" unicode="&#x2db;" horiz-adv-x="134" 
d="M18 32q0 18 14 32q16 13 37 13q18 0 32 -12.5t14 -30.5q0 -19 -14.5 -32.5t-33.5 -13.5t-34 12.5t-15 31.5z" />
    <glyph glyph-name="caron" unicode="&#x2c7;" horiz-adv-x="259" 
d="M8 738h64l58 -72l58 72h64l-111 -116h-22z" />
    <glyph glyph-name="fraction" unicode="&#x2215;" horiz-adv-x="236" 
d="M-34 0l279 721h44l-280 -721h-43z" />
    <glyph glyph-name="Zcaron" unicode="&#x17d;" horiz-adv-x="431" 
d="M19 0v50l289 613h-150q-38 0 -54 -13.5t-16 -70.5v-49h-54v191h362v-46l-290 -616h172q44 0 58.5 18.5t14.5 71.5v65h54v-214h-386zM104 898h64l58 -72l58 72h64l-111 -116h-22z" />
    <glyph glyph-name="zcaron" unicode="&#x17e;" horiz-adv-x="410" 
d="M19 0v49l264 474h-117q-44 0 -59.5 -14.5t-15.5 -60.5v-30h-54v158h331v-48l-264 -473h154q38 0 54 19t16 65v55h55v-194h-364zM92 738h64l58 -72l58 72h64l-111 -116h-22z" />
    <glyph glyph-name="c274" unicode="&#x112;" horiz-adv-x="230" 
d="M6 634v49h218v-49h-218z" />
    <glyph glyph-name="Delta" unicode="&#x113;" horiz-adv-x="662" 
d="M319 672l276 -672h-574l276 672h22zM279 504l-187 -459h373z" />
    <glyph glyph-name="c276" unicode="&#x114;" horiz-adv-x="830" 
d="M470 90h123q49 0 67 18q10 10 15.5 26.5t5.5 41.5h23v-176h-272v180q80 15 127 81q41 61 41 147q0 101 -57.5 166t-158.5 65t-158.5 -64t-57.5 -167q0 -91 43 -150.5t125 -77.5v-180h-272v176h23q0 -46 19 -66t69 -20h123v59q-110 19 -176 82q-72 69 -72 177
q0 132 105 204q90 63 229 63q137 0 229 -63q105 -73 105 -204q0 -99 -65 -170q-60 -65 -183 -89v-59z" />
    <glyph glyph-name="mu1" unicode="&#x115;" horiz-adv-x="623" 
d="M166 449v-296q0 -58 7 -78q13 -41 57 -41q72 0 108 114q25 83 25 171v130h92v-328q0 -87 38 -87q43 0 43 82v14h21l1 -9v-13q0 -117 -90 -117q-102 0 -102 172q-31 -124 -98 -158q-26 -14 -60 -14q-86 0 -113 103v-11l-1 -17q0 -55 32 -136t32 -97q0 -42 -42 -42
q-43 0 -43 70l1 73l3 74l-1 101l-2 95v245h92z" />
    <glyph glyph-name="c278" unicode="&#x116;" horiz-adv-x="594" 
d="M414 372l-10 1l-1 -24l-3 -150v-40q0 -86 9 -106t30 -20q25 0 40 28q9 16 13.5 37.5t4.5 52.5h25v-5q0 -156 -106 -156q-72 0 -93 72q-10 37 -10 132l1 78l3 104l-50 1l-77 2q0 -172 -6 -220q-18 -169 -97 -169q-70 0 -70 115v19h24q0 -26 10 -41q9 -11 27 -11
q55 0 72 135l6 172h-22q-75 0 -87 -53h-23q0 71 46 101q35 22 113 22l127 -3l127 -3q63 0 66 28l23 1q0 -53 -24 -77q-12 -12 -29.5 -17.5t-44.5 -5.5h-14z" />
    <glyph glyph-name="c279" unicode="&#x117;" horiz-adv-x="261" 
d="M22 277v61h217v-61h-217z" />
    <glyph glyph-name="uni20AC" unicode="&#x20ac;" horiz-adv-x="501" 
d="M40 291l17 53h56v12v21h-73l17 53h56l1 52q0 97 6.5 127.5t30.5 62.5q47 59 136 59q70 0 168 -35v-176h-51q0 17 -2 33.5t-5 32.5q-15 86 -106 86q-60 0 -87 -40q-15 -23 -15 -51l-2 -103v-48h184l-17 -53h-167v-33h156l-17 -53h-139l1 -55q0 -86 3 -109.5t16 -43.5
q21 -35 86 -35q57 0 82.5 32t25.5 104l-1 14v17h61v-36q0 -98 -38 -142q-43 -49 -130 -49q-27 0 -37 1.5t-27 6.5q-65 18 -92 70q-11 23 -17 63t-6 100l-1 62h-73z" />
    <glyph glyph-name="c281" unicode="&#x119;" horiz-adv-x="830" 
d="M470 90h123q49 0 67 18q10 10 15.5 26.5t5.5 41.5h23v-176h-272v180q80 15 127 81q41 61 41 147q0 101 -57.5 166t-158.5 65t-158.5 -64t-57.5 -167q0 -91 43 -150.5t125 -77.5v-180h-272v176h23q0 -46 19 -66t69 -20h123v59q-110 19 -176 82q-72 69 -72 177
q0 132 105 204q90 63 229 63q137 0 229 -63q105 -73 105 -204q0 -99 -65 -170q-60 -65 -183 -89v-59z" />
    <glyph glyph-name="c282" unicode="&#x11a;" horiz-adv-x="534" 
d="M358 287q12 45 12 148q0 167 -63 167q-15 0 -48.5 -33.5t-57.5 -36.5q-15 0 -24.5 7.5t-12.5 24.5q0 33 36 54q29 17 66 17q90 0 136 -94q34 -74 34 -174q0 -132 -47 -239q-60 -141 -175 -141q-75 0 -116 59q-36 52 -36 129q0 79 51 142t127 63q85 0 118 -93zM256 349
q-52 0 -86 -59t-34 -162q0 -119 84 -119q63 0 96 81q25 61 25 134q0 125 -85 125z" />
    <glyph glyph-name="increment.001" unicode="&#x11b;" horiz-adv-x="662" 
d="M319 672l276 -672h-574l276 672h22zM279 504l-187 -459h373z" />
    <glyph glyph-name="c284" unicode="&#x11c;" horiz-adv-x="890" 
d="M30 -176h88v880h-88v40h767v-40h-88v-880h88v-40h-264v40h84v880h-407v-880h84v-40h-264v40z" />
    <glyph glyph-name="c285" unicode="&#x11d;" horiz-adv-x="771" 
d="M593 730q16 -13 25 -87l15 -129h-44q-31 105 -86 144t-168 39h-132l315 -431l-344 -394h187q109 0 159 24q60 30 96 124h45l-32 -137q-27 -99 -111 -99h-482l389 446l-375 514h460q66 0 83 -14z" />
    <glyph glyph-name="Gbreve" unicode="&#x11e;" horiz-adv-x="594" 
d="M594 811v-47h-57l-290 -784h-32l-156 431l-61 -22l-12 39l138 48l125 -346l252 681h93z" />
    <glyph glyph-name="gbreve" unicode="&#x11f;" horiz-adv-x="771" 
d="M430 143q-34 30 -64 95q-65 -124 -157 -124q-69 0 -112.5 56.5t-43.5 127.5q0 76 35 126q40 60 111 60q90 0 148 -124q62 124 157 124q69 0 115 -58q40 -54 40 -126q0 -75 -34 -127q-39 -59 -111 -59q-49 0 -84 29zM330 327q-53 93 -135 93q-52 0 -85 -36
q-15 -17 -23.5 -40t-8.5 -49q0 -50 28.5 -86.5t77.5 -36.5q51 0 92 56q21 27 54 99zM383 271q47 -93 135 -93q53 0 85 36.5t32 88.5q0 53 -30 88t-80 35q-72 0 -142 -155z" />
    <glyph glyph-name="c288" unicode="&#x120;" horiz-adv-x="296" 
d="M283 757q32 0 56.5 -17.5t24.5 -49.5q0 -24 -17 -38q-12 -10 -32 -10q-26 0 -44 31q-17 33 -29 33q-57 0 -57 -310l-3 -98q0 -135 -12.5 -223.5t-34.5 -138.5q-51 -117 -144 -117q-34 0 -56 17t-25 50q0 47 49 47q26 0 43 -30t31 -33q57 0 57 324l2 84q0 66 4.5 124
t10 101.5t13.5 78t19 58.5q50 117 144 117z" />
    <glyph glyph-name="c289" unicode="&#x121;" horiz-adv-x="594" 
d="M15 100v77q92 58 161 58q41 0 113 -24t101 -24q55 0 144 67v-78q-41 -28 -77 -41.5t-72 -13.5q-27 0 -104 24q-33 11 -62.5 17t-53.5 6q-55 0 -150 -68zM15 219v77q46 29 85 43t75 14q38 0 112 -24q35 -11 61 -17t42 -6q54 0 144 66v-77q-41 -28 -77.5 -41.5t-71.5 -13.5
q-18 0 -41 5t-64 18q-72 24 -110 24q-59 0 -155 -68z" />
    <glyph glyph-name="c290" unicode="&#x122;" horiz-adv-x="594" 
d="M488 410l-75 -74h91v-64h-149l-73 -72h222v-64h-281l-118 -118l-43 44l74 74h-91v64h150l73 72h-223v64h281l118 118z" />
    <glyph glyph-name="c291" unicode="&#x123;" horiz-adv-x="594" 
d="M506 86v-68h-463v68h463zM506 388l-344 -108l344 -107v-70l-462 145v65l462 145v-70z" />
    <glyph glyph-name="c292" unicode="&#x124;" horiz-adv-x="594" 
d="M506 86v-68h-463v68h463zM506 313v-65l-463 -145v70l344 107l-344 108v70z" />
    <glyph glyph-name="c293" unicode="&#x125;" horiz-adv-x="594" 
d="M15 100v77q92 58 161 58q41 0 113 -24t101 -24q55 0 144 67v-78q-41 -28 -77 -41.5t-72 -13.5q-27 0 -104 24q-33 11 -62.5 17t-53.5 6q-55 0 -150 -68zM15 219v77q46 29 85 43t75 14q38 0 112 -24q35 -11 61 -17t42 -6q54 0 144 66v-77q-41 -28 -77.5 -41.5t-71.5 -13.5
q-18 0 -41 5t-64 18q-72 24 -110 24q-59 0 -155 -68z" />
    <glyph glyph-name="c294" unicode="&#x126;" horiz-adv-x="534" 
d="M3 289l244 518l244 -518l-244 -522zM435 289l-188 399l-188 -399l188 -403z" />
    <glyph glyph-name="dieresisnarrow" unicode="&#x127;" horiz-adv-x="234" 
d="M8 659q0 39 44 39q42 0 42 -39q0 -37 -43 -37q-19 0 -31 11t-12 26zM141 659q0 39 43 39q19 0 30.5 -11t11.5 -28q0 -37 -43 -37q-19 0 -30.5 10.5t-11.5 26.5z" />
    <glyph glyph-name="Dieresisnarrow" unicode="&#x128;" horiz-adv-x="234" 
d="M8 819q0 39 44 39q42 0 42 -39q0 -37 -43 -37q-19 0 -31 11t-12 26zM141 819q0 39 43 39q19 0 30.5 -11t11.5 -28q0 -37 -43 -37q-19 0 -30.5 10.5t-11.5 26.5z" />
    <glyph glyph-name="currency1" unicode="&#x129;" horiz-adv-x="495" 
d="M47 213l62 61q-15 20 -22 40.5t-7 47.5q0 46 28 86l-60 58q11 17 31 35l62 -62q20 15 40.5 22t47.5 7q49 0 87 -28l61 62q26 -20 34 -36l-62 -58q14 -19 21 -40t7 -46q0 -48 -29 -89l62 -62l-7 -8l-8 -7l-19 -17l-60 62q-40 -29 -87 -29q-49 0 -87 29l-63 -61
q-8 6 -15 13t-17 20zM129 360q0 -41 30 -70t70 -29q41 0 70 29t29 70t-29 70t-70 29t-70.5 -29t-29.5 -70z" />
    <glyph glyph-name="daggerdbl1" unicode="&#x12a;" horiz-adv-x="595" 
d="M16 282h42q0 -33 47 -33h160v165h-159q-48 0 -48 -33h-42l5 65l-4 64h41v-4q0 -29 48 -29h160v163q0 46 -32 46v45l63 -5q8 0 24 1t40 4v-45q-32 0 -32 -46v-163h160q47 0 47 29v4h41l-3 -64l3 -65h-41q0 33 -47 33h-159v-165h160q46 0 46 33h42l-4 -66l3 -64h-41v6
q0 28 -48 28h-159l1 -287q0 -31 7.5 -40t25.5 -13v-41l-71 4l-61 -3v40q17 3 26 13q4 5 6 14t2 26v287h-158q-49 0 -49 -28v-6h-41l4 64q0 8 -1 25t-4 41z" />
    <glyph glyph-name="Euro_master1" unicode="&#x12b;" horiz-adv-x="501" 
d="M455 696v-176h-51q0 17 -2 33.5t-5 32.5q-15 86 -106 86q-60 0 -87 -40q-15 -23 -15 -51l-2 -103l1 -242q0 -86 3 -109.5t16 -43.5q21 -35 86 -35q57 0 82.5 32t25.5 104l-1 14v17h61v-36q0 -98 -38 -142q-43 -49 -130 -49q-27 0 -37 1.5t-27 6.5q-65 18 -92 70
q-11 23 -17 63t-6 100l-1 127l1 126q0 97 6.5 127.5t30.5 62.5q47 59 136 59q70 0 168 -35zM40 377l17 53h314l-17 -53h-314zM40 291l17 53h286l-17 -53h-286z" />
    <glyph glyph-name="Dotaccent" unicode="&#x12c;" horiz-adv-x="108" 
d="M8 777q0 40 49 40q44 0 44 -39q0 -40 -48 -40q-18 0 -32 11q-11 12 -13 28z" />
    <glyph glyph-name="Breve" unicode="&#x12d;" horiz-adv-x="251" 
d="M6 841h48q45 -81 71 -81q25 0 72 81h47q-48 -96 -111 -120l-7 -1q-24 0 -59.5 36.5t-60.5 84.5z" />
    <glyph glyph-name="Ring" unicode="&#x12e;" horiz-adv-x="223" 
d="M77 721q-22 0 -38.5 15.5t-16.5 38.5t16 39q8 8 17 12t23 4h69q21 0 37.5 -16t16.5 -39t-15.5 -38.5t-38.5 -15.5h-70zM51 774q0 -24 27 -24h69q25 0 25 25q0 26 -25 26h-69q-27 0 -27 -27z" />
    <glyph glyph-name="Tilde" unicode="&#x12f;" horiz-adv-x="246" 
d="M8 786v49q39 18 60 18q16 0 34 -7l26 -7q40 -10 57 -10q21 0 54 21v-51q-26 -17 -54 -17q-27 0 -65 12l-26 8l-29 4q-23 0 -57 -20z" />
    <glyph glyph-name="Idotaccent" unicode="&#x130;" horiz-adv-x="259" 
d="M8 782l111 117h22l111 -117h-64l-58 73l-58 -73h-64z" />
    <glyph glyph-name="dotlessi.001" horiz-adv-x="854" 
d="M413 593l-5 1l-1 7v11q0 64 48 113.5t114 62.5v-12l1 -18q0 -58 -46 -111.5t-104 -53.5h-7zM735 197q-45 -98 -74 -137q-57 -77 -126 -77q-22 0 -64 16t-60 16q-22 0 -64 -16t-62 -16q-62 0 -126 86q-51 69 -77.5 142.5t-26.5 148.5q0 101 58.5 171.5t160.5 70.5
q30 0 75 -17t61 -17q17 0 61.5 17t72.5 17q105 0 175 -80q-98 -61 -98 -160q0 -115 114 -165z" />
    <glyph glyph-name="Acute" unicode="&#x132;" horiz-adv-x="178" 
d="M80 782l83 117h69l-104 -117h-48z" />
    <glyph glyph-name="Caron" unicode="&#x133;" horiz-adv-x="259" 
d="M8 898h64l58 -72l58 72h64l-111 -116h-22z" />
    <glyph glyph-name="Dieresis" unicode="&#x134;" horiz-adv-x="263" 
d="M8 775q0 18 14.5 29.5t35.5 11.5q19 0 33.5 -11.5t14.5 -29.5q0 -19 -14 -30t-35 -11t-35 11.5t-14 29.5zM158 775q0 41 48 41q19 0 34 -12t15 -30q0 -17 -14.5 -28.5t-35.5 -11.5q-19 0 -34 12q-13 13 -13 29z" />
    <glyph glyph-name="Grave" unicode="&#x135;" horiz-adv-x="185" 
d="M-27 897h72l79 -116h-47z" />
    <glyph glyph-name="Dblacute" unicode="&#x136;" horiz-adv-x="178" 
d="M31 99v899h438v-899h-438zM438 130v837h-376v-837h376z" />
    <glyph glyph-name="Macron" unicode="&#x137;" horiz-adv-x="230" 
d="M6 733v49h218v-49h-218z" />
    <glyph glyph-name="onefitted" unicode="&#x138;" horiz-adv-x="279" 
d="M25 577v39q55 8 78 31t36 74h38v-656q0 -18 13 -19h10v-46h-116v46h10q16 0 16 19v512h-85z" />
    <glyph glyph-name="char998" unicode="&#x139;" horiz-adv-x="470" 
 />
    <glyph glyph-name="char999" unicode="&#x13a;" horiz-adv-x="290" 
 />
    <glyph glyph-name="bp1" unicode="&#x13b;" horiz-adv-x="179" 
d="M10 895h72l88 -131h-46z" />
    </font>
</defs>
</svg>
