<?xml version="1.0" encoding="UTF-8" standalone="no"?>
<svg
   xmlns:dc="http://purl.org/dc/elements/1.1/"
   xmlns:cc="http://creativecommons.org/ns#"
   xmlns:rdf="http://www.w3.org/1999/02/22-rdf-syntax-ns#"
   xmlns:svg="http://www.w3.org/2000/svg"
   xmlns="http://www.w3.org/2000/svg"
   xmlns:sodipodi="http://sodipodi.sourceforge.net/DTD/sodipodi-0.dtd"
   xmlns:inkscape="http://www.inkscape.org/namespaces/inkscape"
   width="251"
   height="66"
   viewBox="0 0 200.8 52.8"
   version="1.1"
   id="svg2"
   inkscape:version="0.91 r13725"
   sodipodi:docname="logo.svg">
  <metadata
     id="metadata47">
    <rdf:RDF>
      <cc:Work
         rdf:about="">
        <dc:format>image/svg+xml</dc:format>
        <dc:type
           rdf:resource="http://purl.org/dc/dcmitype/StillImage" />
        <dc:title></dc:title>
      </cc:Work>
    </rdf:RDF>
  </metadata>
  <defs
     id="defs45" />
  <sodipodi:namedview
     pagecolor="#ffffff"
     bordercolor="#666666"
     borderopacity="1"
     objecttolerance="10"
     gridtolerance="10"
     guidetolerance="10"
     inkscape:pageopacity="0"
     inkscape:pageshadow="2"
     inkscape:window-width="1920"
     inkscape:window-height="1051"
     id="namedview43"
     showgrid="false"
     inkscape:zoom="1.4533865"
     inkscape:cx="54.355822"
     inkscape:cy="-42.691882"
     inkscape:window-x="0"
     inkscape:window-y="1024"
     inkscape:window-maximized="1"
     inkscape:current-layer="svg2"
     units="px" />
  <g
     id="#4b91bdff"
     transform="scale(0.8,0.8)">
    <path
       d="m 186.72,10.23 c 5.8,-2.48 11.41,-5.4 17.32,-7.61 6.51,1.77 12.51,5.18 18.8,7.63 -2.25,0.02 -4.49,0.03 -6.73,0.04 0,2.76 0.01,5.51 0.02,8.27 6.58,3.01 13.05,6.24 19.71,9.07 -1.75,0.13 -3.49,0.24 -5.23,0.36 -0.01,11.25 -0.02,22.5 0,33.76 -17.23,-0.03 -34.47,0 -51.71,-0.01 -0.11,-11.3 0.02,-22.6 -0.07,-33.9 -0.6,0 -1.79,0 -2.39,0 -0.71,-0.01 -2.14,-0.01 -2.86,-0.01 6.68,-3.06 13.29,-6.25 19.9,-9.45 0.01,-2.68 0.02,-5.36 0.02,-8.04 -2.26,-0.04 -4.52,-0.05 -6.78,-0.11 m 9.13,6.8 c 3.01,-1.16 5.92,-2.53 8.86,-3.86 2.68,1.27 5.38,2.5 8.14,3.6 -0.61,-4.36 -4.28,-8.08 -8.86,-7.62 -4.48,-0.2 -7.72,3.68 -8.14,7.88 m -12.57,10.85 c -0.02,10.62 0,21.24 -0.02,31.86 5.71,0.07 11.43,0.03 17.14,0.03 -0.01,-2 -0.02,-4 -0.05,-6 -3.71,0.01 -7.41,0.01 -11.12,0.02 0,-2.77 -0.01,-5.53 -0.03,-8.29 3.73,-0.01 7.46,-0.01 11.19,-0.03 0,-1.95 -0.01,-3.89 -0.02,-5.84 -3.73,-0.01 -7.45,-0.01 -11.18,-0.02 0.03,-1.92 0.06,-3.84 0.1,-5.76 3.69,0 7.39,-0.01 11.08,-0.04 0.01,-1.97 0.02,-3.93 0.03,-5.89 -5.7,-0.09 -11.41,-0.1 -17.12,-0.04 m 20.06,0 c -0.06,10.62 0.02,21.24 -0.03,31.86 6.12,-0.29 12.83,1.18 18.43,-1.97 9.27,-6.37 8.55,-22.75 -1.37,-28.16 -5.36,-2.23 -11.35,-1.6 -17.03,-1.73 z"
       id="path24"
       inkscape:connector-curvature="0"
       style="opacity:1;fill:#4b91bd" />
    <path
       d="m 209.33,33.61 c 3.89,0.35 8.69,0.31 11.07,4.01 2.57,4.18 2.51,10.25 -0.79,14.02 -2.61,2.82 -6.84,1.98 -10.28,2.28 -0.02,-6.77 0,-13.54 0,-20.31 z"
       id="path26"
       inkscape:connector-curvature="0"
       style="opacity:1;fill:#4b91bd" />
  </g>
  <g
     id="#61a84eff"
     transform="scale(0.8,0.8)">
    <path
       d="m 32.56,11.63 c 2.54,1.66 5.63,3.19 6.65,6.27 -0.21,2.45 -1.03,4.79 -1.46,7.2 -0.51,1.32 0.71,3 2.16,2.68 2.68,-2.01 4.46,-5.61 8.05,-6.13 3.75,-0.13 6.98,2.08 10.01,4 -1.61,1.83 -3.1,3.81 -5.02,5.35 -1.9,1.36 -4.36,1.32 -6.57,1.69 3.58,3.81 5.64,9.04 5.05,14.3 C 50.86,56.06 42.02,63.75 32.88,62.51 22.16,62.06 14.51,49.95 18.15,39.95 20.37,31.9 28.69,27.21 36.75,27.76 34.54,25.4 32.17,22.88 31.53,19.6 c -0.4,-2.7 0.46,-5.36 1.03,-7.97 m 1.9,11.73 c 0.11,-1.4 0.33,-4.2 0.44,-5.6 0.67,2.02 1.35,4.04 2.08,6.04 0.23,-1.95 0.5,-3.91 0.43,-5.87 -0.82,-1.78 -2.54,-2.89 -3.87,-4.25 -1.21,3.28 -0.91,6.7 0.92,9.68 m 8.01,3.83 c 0.06,0.66 0.16,1.98 0.21,2.64 4.57,1.42 9.73,0.31 12.48,-3.84 -2.28,-1.03 -4.49,-2.93 -7.14,-2.61 -2.23,0.58 -3.81,2.42 -5.55,3.81 m -11.98,4.59 c -7.12,2.03 -11.43,10.26 -9.34,17.31 1.7,7 9.58,12.02 16.61,9.83 C 44.29,57.44 48.93,50.6 47.92,43.97 47.88,35.5 38.42,29.15 30.49,31.78 Z"
       id="path29"
       inkscape:connector-curvature="0"
       style="opacity:1;fill:#61a84e" />
    <path
       d="m 90.76,27.88 c 0.76,-0.03 2.27,-0.09 3.03,-0.12 0.35,4.47 0.41,8.95 0.35,13.44 2.29,-1.97 4.64,-4.35 7.85,-4.52 4.21,-0.32 8.53,2.49 9.29,6.78 0.92,6.03 0.3,12.17 0.43,18.25 -1.03,-0.01 -2.05,-0.01 -3.07,-0.01 -0.33,-6.15 0.74,-12.48 -0.76,-18.49 -2.35,-5.92 -11.25,-3.7 -13.01,1.61 -1.64,5.46 -0.75,11.28 -0.99,16.9 C 93.1,61.71 91.52,61.7 90.74,61.7 90.77,50.42 90.72,39.15 90.76,27.88 Z"
       id="path31"
       inkscape:connector-curvature="0"
       style="opacity:1;fill:#61a84e" />
    <path
       d="m 173.58,27.83 c 0.72,0 2.15,0 2.86,0.01 0.04,11.33 0.07,22.66 0,33.99 -0.76,-0.03 -2.27,-0.11 -3.02,-0.15 -0.02,-0.88 -0.05,-2.64 -0.07,-3.52 -2.69,2.14 -5.7,4.47 -9.35,4.24 -6.68,0.31 -12.59,-5.83 -12.47,-12.43 -0.6,-7.27 6.28,-14.09 13.56,-13.25 3.3,0.22 5.87,2.5 8.3,4.5 -0.01,-4.46 -0.21,-8.94 0.19,-13.39 m -13.17,12.7 c -6.89,2.84 -7.76,13.43 -1.39,17.35 5.81,4.52 14.93,-0.8 14.59,-7.93 0.65,-6.7 -7.01,-12.42 -13.2,-9.42 z"
       id="path33"
       inkscape:connector-curvature="0"
       style="opacity:1;fill:#61a84e" />
    <path
       d="m 54.41,37.36 c 1.1,-0.01 2.19,-0.01 3.29,-0.01 -0.03,0.73 -0.07,2.2 -0.1,2.94 2.49,-2.42 5.6,-4.54 9.17,-3.02 -0.4,0.65 -1.2,1.93 -1.6,2.57 -2.48,0.15 -5.29,0.64 -6.22,3.32 -2.27,5.88 -0.96,12.38 -1.27,18.54 -1.08,0.01 -2.17,0.02 -3.25,0.02 0,-8.12 0.05,-16.24 -0.02,-24.36 z"
       id="path35"
       inkscape:connector-curvature="0"
       style="opacity:1;fill:#61a84e" />
    <path
       d="m 66.27,56.83 c -4.74,-6.63 -1.1,-17.24 6.84,-19.36 5.69,-2.22 11.89,0.28 15.78,4.62 -0.86,0.58 -1.7,1.19 -2.52,1.81 -3.32,-3.43 -8.43,-5.52 -13.05,-3.41 -6.34,2.42 -8.04,11.6 -3.03,16.16 4.4,4.49 11.92,3.29 15.84,-1.24 0.61,0.24 1.82,0.7 2.43,0.94 -4.23,8.13 -17.45,7.97 -22.29,0.48 z"
       id="path37"
       inkscape:connector-curvature="0"
       style="opacity:1;fill:#61a84e" />
    <path
       d="m 113.67,50.02 c -0.58,-7.21 6.12,-14.09 13.41,-13.28 3.44,0.15 6.15,2.45 8.55,4.68 -0.03,-1.02 -0.08,-3.04 -0.1,-4.06 1.03,0 2.06,0.01 3.09,0.01 0.01,8.1 0.02,16.21 0.02,24.31 -0.75,0.04 -2.26,0.11 -3.01,0.15 -0.03,-1.31 -0.06,-2.62 -0.09,-3.93 -2.45,2.11 -5.13,4.42 -8.56,4.48 -6.97,0.84 -13.27,-5.55 -13.31,-12.36 m 9.62,-9.69 c -7.44,2.25 -8.68,13.4 -2.21,17.5 5.75,4.45 15.04,-0.59 14.68,-7.78 0.67,-6.42 -6.31,-12.27 -12.47,-9.72 z"
       id="path39"
       inkscape:connector-curvature="0"
       style="opacity:1;fill:#61a84e" />
    <path
       d="m 142.54,37.33 c 1.08,0.02 2.16,0.04 3.24,0.07 -0.03,0.73 -0.09,2.2 -0.13,2.94 2.51,-2.47 5.67,-4.36 9.35,-3.54 -0.9,4.31 -6.77,2.34 -8,6.43 -2.19,5.87 -0.97,12.34 -1.28,18.48 -1.07,0 -2.13,0.01 -3.19,0.01 0.05,-8.13 -0.02,-16.26 0.01,-24.39 z"
       id="path41"
       inkscape:connector-curvature="0"
       style="opacity:1;fill:#61a84e" />
  </g>
</svg>
